<?xml version="1.0" encoding="iso-8859-1"?>
<!-- Generator: Adobe Illustrator 19.0.0, SVG Export Plug-In . SVG Version: 6.00 Build 0)  -->
<svg version="1.1" id="Capa_1" xmlns="http://www.w3.org/2000/svg" xmlns:xlink="http://www.w3.org/1999/xlink" x="0px" y="0px"
	 viewBox="0 0 512 512" style="enable-background:new 0 0 512 512;" xml:space="preserve">
<g>
	<g>
		<g>
			<path d="M256,0C114.615,0,0,114.615,0,256s114.615,256,256,256s256-114.615,256-256C511.84,114.682,397.318,0.16,256,0z
				 M256,494.933C124.041,494.933,17.067,387.959,17.067,256S124.041,17.067,256,17.067S494.933,124.041,494.933,256
				C494.785,387.898,387.898,494.785,256,494.933z"/>
			<path d="M426.667,268.408h-8.533V252.2c0.854-62.181-31.948-119.973-85.774-151.118c-1.021-5.761-5.046-10.535-10.551-12.516
				l-31.675-11.53V75.25c-0.457-13.697-11.901-24.448-25.6-24.05h-17.067c-13.699-0.398-25.143,10.353-25.6,24.05v1.785
				L190.234,88.55c-5.522,1.976-9.563,6.758-10.592,12.531c-53.826,31.145-86.629,88.937-85.775,151.118v16.208h-8.533
				c-13.699-0.398-25.143,10.353-25.6,24.05v46.55c0.002,1.157,0.252,2.299,0.731,3.352C70.356,402.949,200.072,409.6,256,409.6
				c55.971,0,185.846-6.66,195.535-67.178c0.479-1.074,0.728-2.237,0.731-3.413v-46.55
				C451.809,278.761,440.366,268.01,426.667,268.408z M110.933,252.2c-0.691-52.327,24.958-101.498,68.267-130.874V230.4
				c0,4.713,3.82,8.533,8.533,8.533s8.533-3.82,8.533-8.533V104.516l25.6-9.323v46.098l-5.742,5.217
				c-2.265,2.049-3.262,5.152-2.615,8.138c0.647,2.985,2.839,5.397,5.749,6.325c2.91,0.928,6.094,0.23,8.349-1.829l8.533-7.758
				c1.776-1.62,2.79-3.912,2.792-6.316V75.25c0.473-4.261,4.263-7.363,8.533-6.983h17.067c4.27-0.379,8.061,2.723,8.533,6.983
				v69.817c0.002,2.404,1.015,4.697,2.792,6.317l8.533,7.758c2.255,2.06,5.44,2.757,8.349,1.829c2.91-0.928,5.102-3.34,5.749-6.325
				s-0.351-6.088-2.615-8.137l-5.742-5.217V95.194l25.6,9.323V230.4c0,4.713,3.82,8.533,8.533,8.533s8.533-3.82,8.533-8.533V121.326
				c43.309,29.375,68.958,78.547,68.267,130.874v63.533c-0.523,4.233-4.28,7.308-8.533,6.983H119.467
				c-4.253,0.325-8.01-2.75-8.533-6.983V252.2z M435.2,335.125c-0.002,0.995-0.071,1.989-0.208,2.975
				c-3.583,33.575-72.167,54.433-178.992,54.433S80.592,371.675,76.983,337.892c-0.123-0.917-0.184-1.841-0.183-2.767v-42.667
				c0.523-4.233,4.28-7.308,8.533-6.983h8.533v30.258c0.457,13.697,11.901,24.448,25.6,24.05h273.067
				c13.699,0.398,25.143-10.353,25.6-24.05v-30.258h8.533c4.253-0.325,8.01,2.75,8.533,6.983V335.125z"/>
		</g>
	</g>
</g>
<g>
</g>
<g>
</g>
<g>
</g>
<g>
</g>
<g>
</g>
<g>
</g>
<g>
</g>
<g>
</g>
<g>
</g>
<g>
</g>
<g>
</g>
<g>
</g>
<g>
</g>
<g>
</g>
<g>
</g>
</svg>
