<?xml version="1.0" encoding="iso-8859-1"?>
<!-- Generator: Adobe Illustrator 19.0.0, SVG Export Plug-In . SVG Version: 6.00 Build 0)  -->
<svg version="1.1" id="Capa_1" xmlns="http://www.w3.org/2000/svg" xmlns:xlink="http://www.w3.org/1999/xlink" x="0px" y="0px"
	 viewBox="0 0 512.019 512.019" style="enable-background:new 0 0 512.019 512.019;" xml:space="preserve">
<g>
	<g>
		<path d="M494.194,162.042C455.642,64.215,361.159-0.06,256.01,0.01C150.861-0.06,56.377,64.215,17.825,162.042
			c-38.552,97.827-13.32,209.28,63.607,280.964c0.512,0.659,1.12,1.239,1.804,1.719c19.957,18.275,42.678,33.281,67.32,44.462
			l0.141,0.065c66.932,30.345,143.7,30.345,210.631-0.002l0.11-0.05c24.653-11.183,47.382-26.193,67.347-44.475
			c0.683-0.48,1.291-1.059,1.804-1.719C507.515,371.322,532.746,259.869,494.194,162.042z M103.646,439.911
			c7.43-3.413,15.231-5.949,23.247-7.559c4.322-0.767,8.572-1.9,12.702-3.386c-1.052,12.07-0.692,24.221,1.072,36.207
			C127.565,457.925,115.171,449.468,103.646,439.911z M351.74,474.862c-61.012,26.775-130.449,26.775-191.461,0l0,0
			c-4.508-17.765-5.365-36.261-2.519-54.367c2.922-1.654,5.619-3.31,8.091-4.926v12.541c0,4.713,3.82,8.533,8.533,8.533
			s8.533-3.82,8.533-8.533v-37.142c4.282,5.316,7.875,10.487,11.2,15.317c10.75,15.617,20.9,30.358,45.567,30.358h32.65
			c24.667,0,34.817-14.742,45.567-30.358c3.325-4.829,6.918-10,11.2-15.317v37.142c0,4.713,3.82,8.533,8.533,8.533
			s8.533-3.82,8.533-8.533v-12.538c2.475,1.617,5.174,3.275,8.096,4.928C357.128,438.604,356.269,457.101,351.74,474.862z
			 M155.076,257.31c-5.868-30.469-7.489-61.603-4.817-92.517c3.65-74.85,94.1-79.633,97.592-79.792l15.958-0.009
			c3.85,0.167,94.3,4.95,97.95,79.8c2.672,30.913,1.051,62.048-4.817,92.517c-2.095,9.348-3.22,18.888-3.358,28.467
			c0,5.108,0.242,10.092,0.475,14.992c1.1,22.767,1.975,40.75-22.125,62.383c-0.105,0.094-0.182,0.188-0.286,0.282l-0.079,0.078
			c-10.563,9.856-19.874,20.972-27.726,33.099c-10.967,15.925-16.45,22.967-31.508,22.967h-32.65
			c-15.058,0-20.542-7.042-31.508-22.967c-7.852-12.127-17.164-23.243-27.726-33.099l-0.079-0.078
			c-0.104-0.094-0.182-0.188-0.286-0.282c-24.1-21.633-23.225-39.616-22.125-62.383c0.233-4.9,0.475-9.883,0.475-14.992
			C158.297,276.197,157.171,266.658,155.076,257.31z M102.41,195.935h29.983c-0.344,21.68,1.64,43.335,5.917,64.591
			c1.883,8.289,2.908,16.751,3.058,25.25c0,4.825-0.233,9.533-0.458,14.167c-0.111,2.3-0.21,4.608-0.298,6.925l-38.202,0
			c-5.346-0.881-9.083-5.769-8.533-11.158v-88.617C93.326,201.703,97.064,196.816,102.41,195.935z M133.21,163.96
			c-0.257,5.279-0.43,10.183-0.565,14.908h-17.079c0.131-4.985,0.305-10.148,0.577-15.708
			c4.133-84.793,87.275-110.534,130.308-112.292l18.767-0.008c43.383,1.766,126.525,27.508,130.658,112.292
			c0.272,5.565,0.446,10.73,0.577,15.717l-17.079,0c-0.135-4.725-0.308-9.629-0.565-14.908
			c-4.417-90.467-113.191-95.975-114.642-96.025l-16.667,0.009C246.401,67.985,137.626,73.493,133.21,163.96z M409.61,306.868
			h-38.202c-0.084-2.315-0.184-4.624-0.298-6.925c-0.225-4.634-0.458-9.342-0.458-14.167c0.15-8.499,1.175-16.961,3.058-25.25
			c4.277-21.257,6.261-42.911,5.917-64.591h29.983c5.346,0.881,9.083,5.769,8.533,11.158v88.616
			C418.693,301.099,414.955,305.987,409.61,306.868z M371.352,465.172c1.764-11.987,2.124-24.138,1.072-36.208
			c4.136,1.489,8.391,2.625,12.719,3.396c8.01,1.606,15.806,4.14,23.23,7.551C396.848,449.468,384.454,457.925,371.352,465.172z
			 M422.155,427.482L422.155,427.482c-10.805-5.472-22.286-9.489-34.146-11.948c-7.642-1.492-15.004-4.172-21.817-7.942
			c-7.038-3.725-13.738-8.055-20.025-12.942v-21.502c14.374-12.558,23.32-30.198,24.96-49.215h38.482
			c14.84-0.774,26.273-13.38,25.6-28.225v-88.617c0.449-13.287-8.68-24.989-21.677-27.788c-0.136-5.371-0.319-10.942-0.607-16.979
			C408.185,65.21,314.693,35.793,265.568,33.802l-19.467,0.009c-48.775,1.983-142.267,31.4-147.008,128.524
			c-0.288,6.031-0.471,11.6-0.607,16.971c-12.997,2.798-22.126,14.5-21.677,27.788v88.617c-0.673,14.845,10.76,27.451,25.6,28.225
			h38.481c1.64,19.016,10.586,36.656,24.96,49.215v21.502c-6.303,4.896-13.02,9.234-20.075,12.966
			c-6.792,3.757-14.131,6.426-21.75,7.908c-11.864,2.463-23.351,6.484-34.163,11.956c-69.966-67.698-91.86-171.077-55.345-261.326
			C71.033,75.907,158.653,16.838,256.009,16.838S440.986,75.907,477.5,166.157S492.121,359.784,422.155,427.482z"/>
	</g>
</g>
<g>
</g>
<g>
</g>
<g>
</g>
<g>
</g>
<g>
</g>
<g>
</g>
<g>
</g>
<g>
</g>
<g>
</g>
<g>
</g>
<g>
</g>
<g>
</g>
<g>
</g>
<g>
</g>
<g>
</g>
</svg>
