<?xml version="1.0" encoding="iso-8859-1"?>
<!-- Generator: Adobe Illustrator 19.0.0, SVG Export Plug-In . SVG Version: 6.00 Build 0)  -->
<svg version="1.1" id="Capa_1" xmlns="http://www.w3.org/2000/svg" xmlns:xlink="http://www.w3.org/1999/xlink" x="0px" y="0px"
	 viewBox="0 0 512.012 512.012" style="enable-background:new 0 0 512.012 512.012;" xml:space="preserve">
<g>
	<g>
		<path d="M491.158,154.658C450.727,60.743,358.254-0.073,256.006,0.006C153.758-0.073,61.286,60.743,20.854,154.658
			S-0.199,357.542,70.131,431.759c0.521,0.768,1.166,1.445,1.909,2.001c25.09,25.985,55.38,46.384,88.892,59.865
			c0.21,0.106,0.422,0.164,0.639,0.252c60.637,24.172,128.235,24.172,188.872,0c0.217-0.089,0.429-0.146,0.639-0.252
			c33.511-13.481,63.802-33.88,88.892-59.865c0.743-0.556,1.388-1.233,1.909-2.001C512.211,357.542,531.589,248.572,491.158,154.658
			z M91.451,428.996c11.138-6.073,23.064-10.574,35.438-13.373c4.317-0.766,8.562-1.897,12.688-3.381
			c-1.816,18.697,0.178,37.569,5.861,55.474C125.735,457.374,107.565,444.342,91.451,428.996z M341.807,478.944
			c-55.212,21.328-116.388,21.328-171.601,0h0c-18.313-25.235-14.144-64.006-12.441-75.181c2.918-1.652,5.612-3.308,8.082-4.923
			v12.542c0,4.713,3.82,8.533,8.533,8.533s8.533-3.82,8.533-8.533v-37.142c4.282,5.316,7.875,10.487,11.2,15.317
			c10.75,15.617,20.9,30.358,45.567,30.358h32.65c24.667,0,34.817-14.742,45.567-30.358c3.325-4.829,6.918-10,11.2-15.317v37.142
			c0,4.713,3.82,8.533,8.533,8.533s8.533-3.82,8.533-8.533v-12.539c2.473,1.617,5.17,3.274,8.09,4.927
			C355.977,414.925,360.187,453.62,341.807,478.944z M230.406,213.34c0.012,9.421,7.646,17.054,17.067,17.067h17.067
			c9.421-0.012,17.054-7.646,17.067-17.067H361.1c-1.126,11.415-2.718,19.731-4.161,27.242c-1.161,6.059-2.171,11.649-2.778,17.745
			l-55.148,19.597c-3.495,1.258-7.402,0.097-9.642-2.867l-6.825-8.958c-4.855-6.342-12.379-10.071-20.366-10.092h-12.35
			c-7.983,0.02-15.505,3.745-20.358,10.083l-6.833,8.967c-2.243,2.963-6.153,4.125-9.65,2.867l-55.139-19.596
			c-0.607-6.097-1.618-11.686-2.778-17.746c-1.443-7.51-3.035-15.827-4.161-27.242H230.406z M149.751,196.273
			c-0.509-12.54-0.473-28.119,0.505-48.208h0c3.65-74.85,94.1-79.633,97.592-79.792l15.958-0.009c3.85,0.167,94.3,4.95,97.95,79.8
			c0.978,20.09,1.014,35.668,0.505,48.208h-80.655c-9.421,0.012-17.054,7.646-17.067,17.067h-17.067
			c-0.012-9.421-7.646-17.054-17.067-17.067H149.751z M157.956,284.039L157.956,284.039l0.006-0.179
			c0.379-1.324,0.423-2.721,0.129-4.067c0.047-1.067,0.064-2.154,0.102-3.23l49.071,17.443c10.49,3.76,22.207,0.278,28.942-8.6
			l6.842-8.975c1.618-2.111,4.124-3.352,6.784-3.358h12.35c2.664,0.008,5.173,1.252,6.792,3.367l6.833,8.967
			c6.736,8.871,18.445,12.352,28.933,8.6l49.08-17.444c0.039,1.077,0.056,2.165,0.102,3.231c-0.294,1.345-0.25,2.743,0.129,4.067
			l0.006,0.179c1.1,22.767,1.975,40.75-22.125,62.383c-0.105,0.094-0.182,0.188-0.286,0.282l-0.079,0.078
			c-10.563,9.856-19.874,20.972-27.726,33.099c-10.967,15.925-16.45,22.967-31.508,22.967h-32.65
			c-15.058,0-20.542-7.042-31.508-22.967c-7.852-12.127-17.164-23.243-27.726-33.099l-0.079-0.078
			c-0.104-0.094-0.182-0.188-0.286-0.282C155.981,324.789,156.856,306.806,157.956,284.039z M366.574,467.716
			c5.683-17.906,7.677-36.777,5.861-55.475c4.129,1.486,8.376,2.621,12.696,3.391c12.371,2.794,24.295,7.292,35.43,13.365
			C404.447,444.343,386.277,457.374,366.574,467.716z M433.059,416.273L433.059,416.273c-14.067-8.028-29.251-13.915-45.053-17.467
			c-7.642-1.492-15.004-4.172-21.817-7.942c-7.039-3.725-13.739-8.058-20.025-12.948v-21.495
			c25.884-24.808,26.105-47.782,25.091-69.999c16.201-10.256,27.387-26.808,30.859-45.666c3.467-29.067,0.317-46.1-9.383-50.617
			c-4.145-1.948-8.887-2.2-13.215-0.702c0.26-11.644,0.105-25.448-0.71-42.206c-4.417-90.468-113.191-95.976-114.641-96.026
			l-16.667,0.009c-1.1,0.042-109.875,5.55-114.292,96.017c-0.816,16.768-0.97,30.579-0.71,42.227
			c-4.329-1.503-9.074-1.256-13.223,0.69c-9.692,4.508-12.842,21.542-9.333,50.892c3.528,18.749,14.691,35.188,30.818,45.382
			c-1.014,22.217-0.794,45.191,25.091,69.999v21.495c-6.302,4.899-13.02,9.24-20.075,12.973c-6.796,3.757-14.137,6.428-21.758,7.917
			c-15.805,3.55-30.993,9.437-45.061,17.467C-7.609,320.748-2.788,173.78,89.847,84.133s239.683-89.647,332.318,0
			S519.621,320.748,433.059,416.273z M370.779,265.367c0.41-7.255,1.389-14.467,2.927-21.569
			c2.221-10.904,3.802-21.928,4.735-33.017c1.647-2.2,3.806-3.965,6.29-5.142c1.952,10.825,2.115,21.897,0.483,32.775
			C383.141,248.616,378.122,257.987,370.779,265.367z M141.233,265.371c-7.276-7.295-12.273-16.547-14.385-26.631
			c-1.681-10.982-1.535-22.166,0.433-33.1c2.484,1.177,4.643,2.942,6.29,5.143c0.933,11.088,2.514,22.112,4.735,33.016
			C139.844,250.901,140.823,258.114,141.233,265.371z"/>
	</g>
</g>
<g>
</g>
<g>
</g>
<g>
</g>
<g>
</g>
<g>
</g>
<g>
</g>
<g>
</g>
<g>
</g>
<g>
</g>
<g>
</g>
<g>
</g>
<g>
</g>
<g>
</g>
<g>
</g>
<g>
</g>
</svg>
