<?xml version="1.0" encoding="iso-8859-1"?>
<!-- Generator: Adobe Illustrator 19.0.0, SVG Export Plug-In . SVG Version: 6.00 Build 0)  -->
<svg version="1.1" id="Capa_1" xmlns="http://www.w3.org/2000/svg" xmlns:xlink="http://www.w3.org/1999/xlink" x="0px" y="0px"
	 viewBox="0 0 512.004 512.004" style="enable-background:new 0 0 512.004 512.004;" xml:space="preserve">
<g transform="translate(-1)">
	<g>
		<g>
			<path d="M512.938,468.606c-0.016-0.971-0.199-1.931-0.542-2.84l-0.06-0.15l-0.004-0.011l-16.394-40.984V93.466
				c-0.003-5.237-1.625-10.345-4.642-14.625c16.414-9.713,24.261-29.236,19.137-47.607c-5.124-18.371-21.945-31.013-41.016-30.827
				s-35.642,13.152-40.409,31.619c-4.766,18.467,3.46,37.834,20.059,47.226c-2.825,4.202-4.333,9.151-4.329,14.215h-17.067
				c-0.012-9.421-7.646-17.054-17.067-17.067h-307.2c-9.421,0.012-17.054,7.646-17.067,17.067H69.271
				c-0.003-5.237-1.625-10.345-4.642-14.625c16.414-9.713,24.262-29.236,19.137-47.607C78.642,12.864,61.821,0.222,42.75,0.407
				S7.108,13.559,2.341,32.026C-2.425,50.493,5.801,69.859,22.4,79.252c-2.825,4.202-4.333,9.151-4.329,14.215V424.62L1.676,465.607
				l-0.002,0.007l-0.061,0.153c-0.343,0.908-0.526,1.867-0.542,2.837c-0.005,0.116-0.066,0.212-0.066,0.329v34.133
				c-0.001,2.264,0.897,4.435,2.498,6.035s3.772,2.499,6.035,2.498h68.267c2.264,0.001,4.435-0.897,6.035-2.498
				s2.499-3.772,2.498-6.035v-34.133c0-0.117-0.061-0.212-0.066-0.327c-0.016-0.971-0.199-1.931-0.542-2.84l-0.06-0.15l-0.004-0.011
				L69.271,424.62v-15.421h17.067c0.012,9.421,7.646,17.054,17.067,17.067h307.2c9.421-0.012,17.054-7.646,17.067-17.067h17.067
				v15.421l-16.395,40.986l-0.002,0.006l-0.061,0.153c-0.343,0.908-0.526,1.867-0.542,2.838c-0.005,0.116-0.066,0.213-0.066,0.329
				v34.133c-0.001,2.264,0.897,4.435,2.498,6.035c1.601,1.601,3.772,2.499,6.035,2.498h68.267c2.264,0.001,4.435-0.897,6.035-2.498
				s2.499-3.772,2.498-6.035v-34.133C513.004,468.816,512.943,468.72,512.938,468.606z M18.071,42.799
				c0.013-13.838,11.228-25.053,25.067-25.067c13.844,0,25.067,11.223,25.067,25.067S56.982,67.866,43.138,67.866
				C29.294,67.866,18.071,56.643,18.071,42.799z M52.204,93.466v8.533v315.733H35.138V93.466c0-4.713,3.82-8.533,8.533-8.533
				S52.204,88.753,52.204,93.466z M32.379,434.799h22.583l10.242,25.6H22.138L32.379,434.799z M69.271,494.533h-51.2v-17.067h51.2
				V494.533z M86.338,392.133H69.271v-17.067h17.067V392.133z M86.338,357.999H69.271V144.666h17.067V357.999z M86.338,127.599
				H69.271v-17.067h17.067V127.599z M103.404,93.466h307.2l0,8.531l0,0.002v34.133l0.002,0.01l0.003,42.656H103.404V93.466z
				 M103.404,409.199V195.866H410.61l0.009,170.596l-0.015,0.071v34.133l0.016,0.08l0.001,8.453H103.404z M444.738,42.799
				c0.013-13.838,11.228-25.053,25.067-25.067c13.844,0,25.067,11.223,25.067,25.067s-11.223,25.067-25.067,25.067
				C455.96,67.866,444.738,56.643,444.738,42.799z M478.871,93.466v324.267h-17.067v-17.067v-307.2c0-4.713,3.82-8.533,8.533-8.533
				S478.871,88.753,478.871,93.466z M459.046,434.799h22.583l10.242,25.6h-43.067L459.046,434.799z M427.671,110.533h17.067v17.067
				h-17.067V110.533z M427.671,144.666h17.067v213.333h-17.067V144.666z M427.671,392.133v-17.067h17.067v17.067H427.671z
				 M495.938,494.533h-51.2v-17.067h51.2V494.533z"/>
			<path d="M154.604,110.533c-14.139,0-25.6,11.461-25.6,25.6c0.015,14.132,11.468,25.585,25.6,25.6c14.138,0,25.6-11.462,25.6-25.6
				S168.743,110.533,154.604,110.533z M154.604,144.666c-4.713,0-8.533-3.82-8.533-8.533c0.003-4.711,3.822-8.53,8.533-8.533
				c4.713,0,8.533,3.82,8.533,8.533S159.317,144.666,154.604,144.666z"/>
			<path d="M222.871,110.533c-14.138,0-25.6,11.461-25.6,25.6c0.015,14.132,11.468,25.585,25.6,25.6c14.138,0,25.6-11.462,25.6-25.6
				S237.01,110.533,222.871,110.533z M222.871,144.666c-4.713,0-8.533-3.82-8.533-8.533c0.003-4.711,3.822-8.53,8.533-8.533
				c4.713,0,8.533,3.82,8.533,8.533S227.584,144.666,222.871,144.666z"/>
			<path d="M291.138,110.533c-14.138,0-25.6,11.461-25.6,25.6c0.015,14.132,11.468,25.585,25.6,25.6c14.138,0,25.6-11.462,25.6-25.6
				S305.276,110.533,291.138,110.533z M291.138,144.666c-4.713,0-8.533-3.82-8.533-8.533c0.003-4.711,3.822-8.53,8.533-8.533
				c4.713,0,8.533,3.82,8.533,8.533S295.851,144.666,291.138,144.666z"/>
			<path d="M359.404,110.533c-14.138,0-25.6,11.461-25.6,25.6c0.015,14.132,11.468,25.585,25.6,25.6c14.138,0,25.6-11.462,25.6-25.6
				S373.543,110.533,359.404,110.533z M359.404,144.666c-4.713,0-8.533-3.82-8.533-8.533c0.003-4.711,3.822-8.53,8.533-8.533
				c4.713,0,8.533,3.82,8.533,8.533S364.117,144.666,359.404,144.666z"/>
			<path d="M154.604,212.933c-14.132,0.015-25.585,11.468-25.6,25.6v128c0,14.138,11.461,25.6,25.6,25.6
				c14.138,0,25.6-11.461,25.6-25.6v-128C180.189,224.401,168.737,212.948,154.604,212.933z M163.138,366.533
				c0,4.713-3.821,8.533-8.533,8.533c-4.713,0-8.533-3.82-8.533-8.533v-128c0-4.713,3.821-8.533,8.533-8.533
				c4.713,0,8.533,3.82,8.533,8.533V366.533z"/>
			<path d="M222.871,212.933c-14.132,0.015-25.585,11.468-25.6,25.6v128c0,14.138,11.462,25.6,25.6,25.6s25.6-11.461,25.6-25.6v-128
				C248.456,224.401,237.003,212.948,222.871,212.933z M231.404,366.533c0,4.713-3.82,8.533-8.533,8.533s-8.533-3.82-8.533-8.533
				v-128c0-4.713,3.82-8.533,8.533-8.533s8.533,3.82,8.533,8.533V366.533z"/>
			<path d="M291.138,212.933c-14.132,0.015-25.585,11.468-25.6,25.6v128c0,14.138,11.462,25.6,25.6,25.6s25.6-11.461,25.6-25.6v-128
				C316.722,224.401,305.27,212.948,291.138,212.933z M299.671,366.533c0,4.713-3.82,8.533-8.533,8.533s-8.533-3.82-8.533-8.533
				v-128c0-4.713,3.82-8.533,8.533-8.533s8.533,3.82,8.533,8.533V366.533z"/>
			<path d="M359.404,212.933c-14.132,0.015-25.585,11.468-25.6,25.6v128c0,14.138,11.462,25.6,25.6,25.6s25.6-11.461,25.6-25.6v-128
				C384.989,224.401,373.536,212.948,359.404,212.933z M367.938,366.533c0,4.713-3.82,8.533-8.533,8.533s-8.533-3.82-8.533-8.533
				v-128c0-4.713,3.82-8.533,8.533-8.533s8.533,3.82,8.533,8.533V366.533z"/>
		</g>
	</g>
</g>
<g>
</g>
<g>
</g>
<g>
</g>
<g>
</g>
<g>
</g>
<g>
</g>
<g>
</g>
<g>
</g>
<g>
</g>
<g>
</g>
<g>
</g>
<g>
</g>
<g>
</g>
<g>
</g>
<g>
</g>
</svg>
