<?xml version="1.0" encoding="iso-8859-1"?>
<!-- Generator: Adobe Illustrator 19.0.0, SVG Export Plug-In . SVG Version: 6.00 Build 0)  -->
<svg version="1.1" id="Capa_1" xmlns="http://www.w3.org/2000/svg" xmlns:xlink="http://www.w3.org/1999/xlink" x="0px" y="0px"
	 viewBox="0 0 512 512" style="enable-background:new 0 0 512 512;" xml:space="preserve">
<g>
	<g>
		<g>
			<path d="M486.4,0H25.6C11.468,0.015,0.015,11.468,0,25.6v460.8c0.015,14.132,11.468,25.585,25.6,25.6h460.8
				c14.132-0.015,25.585-11.468,25.6-25.6V25.6C511.985,11.468,500.532,0.015,486.4,0z M17.067,25.6
				c0.005-4.711,3.822-8.529,8.533-8.533h42.667v51.2h-51.2V25.6z M17.067,85.333h51.2c9.421-0.011,17.056-7.645,17.067-17.067
				v-51.2H102.4v76.8c-0.005,4.711-3.822,8.529-8.533,8.533h-76.8V85.333z M68.267,494.933H25.6
				c-4.711-0.005-8.529-3.822-8.533-8.533v-42.667h51.2V494.933z M102.4,494.933H85.333v-51.2
				c-0.011-9.421-7.645-17.056-17.067-17.067h-51.2V409.6h76.8c4.711,0.005,8.529,3.822,8.533,8.533V494.933z M494.933,486.4
				c-0.005,4.711-3.822,8.529-8.533,8.533h-42.667v-51.2h51.2V486.4z M494.933,426.667h-51.2
				c-9.421,0.011-17.056,7.646-17.067,17.067v51.2H409.6v-76.8c0.005-4.711,3.822-8.529,8.533-8.533h76.8V426.667z M494.933,247.467
				h-25.6c-4.713,0-8.533,3.82-8.533,8.533s3.82,8.533,8.533,8.533h25.6v128h-76.8c-14.132,0.015-25.585,11.468-25.6,25.6v76.8h-128
				v-25.6c0-4.713-3.82-8.533-8.533-8.533s-8.533,3.82-8.533,8.533v25.6h-128v-76.8c-0.015-14.132-11.468-25.585-25.6-25.6h-76.8
				v-128h25.6c4.713,0,8.533-3.82,8.533-8.533s-3.82-8.533-8.533-8.533h-25.6v-128h76.8c14.132-0.015,25.585-11.468,25.6-25.6v-76.8
				h128v25.6c0,4.713,3.82,8.533,8.533,8.533s8.533-3.82,8.533-8.533v-25.6h128v76.8c0.015,14.132,11.468,25.585,25.6,25.6h76.8
				V247.467z M494.933,102.4h-76.8c-4.711-0.005-8.529-3.822-8.533-8.533v-76.8h17.067v51.2c0.011,9.421,7.646,17.056,17.067,17.067
				h51.2V102.4z M494.933,68.267h-51.2v-51.2H486.4c4.711,0.005,8.529,3.822,8.533,8.533V68.267z"/>
			<path d="M256,384c-2.263-0.001-4.434,0.898-6.035,2.499c-1.6,1.6-2.499,3.771-2.499,6.035v34.133c0,4.713,3.82,8.533,8.533,8.533
				s8.533-3.82,8.533-8.533v-34.133c0.001-2.263-0.898-4.434-2.499-6.035C260.434,384.898,258.263,383.999,256,384z"/>
			<path d="M256,76.8c-2.263-0.001-4.434,0.898-6.035,2.499c-1.6,1.6-2.499,3.771-2.499,6.035v34.133
				c0,4.713,3.82,8.533,8.533,8.533s8.533-3.82,8.533-8.533V85.333c0.001-2.263-0.898-4.434-2.499-6.035
				C260.434,77.698,258.263,76.799,256,76.8z"/>
			<path d="M384,256c0,4.713,3.821,8.533,8.533,8.533h34.133c2.263,0.001,4.434-0.898,6.035-2.499c1.6-1.6,2.499-3.771,2.499-6.035
				c0.001-2.263-0.898-4.434-2.499-6.035c-1.6-1.6-3.771-2.499-6.035-2.499h-34.133C387.821,247.467,384,251.287,384,256z"/>
			<path d="M119.467,247.467H85.333c-4.713,0-8.533,3.82-8.533,8.533s3.82,8.533,8.533,8.533h34.133c4.713,0,8.533-3.82,8.533-8.533
				S124.18,247.467,119.467,247.467z"/>
		</g>
	</g>
</g>
<g>
</g>
<g>
</g>
<g>
</g>
<g>
</g>
<g>
</g>
<g>
</g>
<g>
</g>
<g>
</g>
<g>
</g>
<g>
</g>
<g>
</g>
<g>
</g>
<g>
</g>
<g>
</g>
<g>
</g>
</svg>
