<?xml version="1.0" encoding="iso-8859-1"?>
<!-- Generator: Adobe Illustrator 19.0.0, SVG Export Plug-In . SVG Version: 6.00 Build 0)  -->
<svg version="1.1" id="Capa_1" xmlns="http://www.w3.org/2000/svg" xmlns:xlink="http://www.w3.org/1999/xlink" x="0px" y="0px"
	 viewBox="0 0 511.82 511.82" style="enable-background:new 0 0 511.82 511.82;" xml:space="preserve">
<g>
	<g>
		<path d="M373.229,232.605c-5.647-28.484-21.439-53.911-44.468-71.599c-23.03-17.687-51.669-26.385-80.647-24.493
			c-28.976,1.893-56.242,14.243-76.775,34.776c-20.533,20.533-32.883,47.799-34.776,76.775s6.805,57.617,24.493,80.647
			c17.688,23.03,43.115,38.822,71.599,44.468c7.715,1.529,15.507,2.285,23.268,2.285c20.885,0,41.544-5.474,59.867-16.07
			c18.122-10.437,33.218-25.534,43.646-43.641C373.977,290.617,378.876,261.089,373.229,232.605z M344.714,307.252
			c-8.943,15.53-21.879,28.466-37.409,37.409c-0.005,0.003-0.01,0.006-0.015,0.009c-44.418,25.698-101.49,14.386-132.75-26.315
			c-31.259-40.7-27.467-98.757,8.821-135.046c19.836-19.836,46.173-29.961,72.628-29.961c21.942,0,43.966,6.968,62.418,21.139
			C359.109,205.746,370.421,262.816,344.714,307.252z"/>
	</g>
</g>
<g>
	<g>
		<path d="M256.079,358.461c-4.694,0-8.5,3.806-8.5,8.5v68.267c0,4.694,3.806,8.5,8.5,8.5c4.694,0,8.5-3.805,8.5-8.5v-68.267
			C264.579,362.267,260.773,358.461,256.079,358.461z"/>
	</g>
</g>
<g>
	<g>
		<path d="M256.079,68.328c-4.694,0-8.5,3.806-8.5,8.5v68.267c0,4.694,3.806,8.5,8.5,8.5c4.694,0,8.5-3.806,8.5-8.5V76.828
			C264.579,72.134,260.773,68.328,256.079,68.328z"/>
	</g>
</g>
<g>
	<g>
		<path d="M352.956,406.833l-34.048-59.051c-2.343-4.066-7.541-5.463-11.609-3.117c-4.066,2.344-5.463,7.542-3.117,11.609
			l34.048,59.051c1.573,2.73,4.432,4.255,7.371,4.255c1.441,0,2.901-0.366,4.238-1.138
			C353.906,416.098,355.302,410.9,352.956,406.833z"/>
	</g>
</g>
<g>
	<g>
		<path d="M207.975,155.782l-34.048-59.051c-2.344-4.066-7.541-5.461-11.609-3.118c-4.067,2.345-5.463,7.542-3.118,11.609
			l34.048,59.051c1.574,2.73,4.433,4.256,7.372,4.256c1.44,0,2.9-0.366,4.237-1.138C208.924,165.046,210.32,159.849,207.975,155.782
			z"/>
	</g>
</g>
<g>
	<g>
		<path d="M415.376,338.18l-59.051-34.048c-4.068-2.347-9.265-0.949-11.609,3.117c-2.346,4.067-0.949,9.264,3.117,11.609
			l59.051,34.048c1.338,0.772,2.798,1.138,4.238,1.138c2.939,0,5.798-1.527,7.371-4.255
			C420.839,345.722,419.443,340.525,415.376,338.18z"/>
	</g>
</g>
<g>
	<g>
		<path d="M164.324,193.198l-59.051-34.048c-4.066-2.344-9.263-0.95-11.609,3.118c-2.345,4.067-0.949,9.264,3.118,11.609
			l59.051,34.048c1.338,0.771,2.797,1.138,4.238,1.138c2.939,0,5.798-1.527,7.371-4.256
			C169.787,200.74,168.391,195.543,164.324,193.198z"/>
	</g>
</g>
<g>
	<g>
		<path d="M435.279,247.528h-68.267c-4.694,0-8.5,3.806-8.5,8.5c0,4.694,3.806,8.5,8.5,8.5h68.267c4.695,0,8.5-3.806,8.5-8.5
			C443.779,251.334,439.974,247.528,435.279,247.528z"/>
	</g>
</g>
<g>
	<g>
		<path d="M145.146,247.528H76.879c-4.694,0-8.5,3.806-8.5,8.5c0,4.694,3.806,8.5,8.5,8.5h68.267c4.694,0,8.5-3.806,8.5-8.5
			C153.646,251.334,149.84,247.528,145.146,247.528z"/>
	</g>
</g>
<g>
	<g>
		<path d="M418.493,162.268c-2.343-4.066-7.54-5.461-11.609-3.118l-59.051,34.048c-4.066,2.345-5.463,7.542-3.117,11.609
			c1.573,2.73,4.432,4.256,7.371,4.256c1.44,0,2.9-0.367,4.238-1.138l59.051-34.048
			C419.443,171.532,420.839,166.335,418.493,162.268z"/>
	</g>
</g>
<g>
	<g>
		<path d="M167.442,307.249c-2.344-4.066-7.541-5.462-11.609-3.117L96.782,338.18c-4.067,2.344-5.463,7.542-3.118,11.609
			c1.574,2.73,4.433,4.255,7.372,4.255c1.44,0,2.9-0.367,4.237-1.138l59.051-34.048
			C168.391,316.514,169.787,311.316,167.442,307.249z"/>
	</g>
</g>
<g>
	<g>
		<path d="M349.841,93.613c-4.068-2.345-9.264-0.949-11.609,3.118l-34.048,59.051c-2.346,4.067-0.949,9.264,3.117,11.609
			c1.338,0.771,2.798,1.138,4.238,1.138c2.939,0,5.798-1.526,7.371-4.256l34.048-59.051
			C355.304,101.155,353.906,95.958,349.841,93.613z"/>
	</g>
</g>
<g>
	<g>
		<path d="M204.858,344.665c-4.066-2.346-9.263-0.949-11.609,3.117l-34.048,59.051c-2.345,4.067-0.949,9.264,3.118,11.609
			c1.338,0.772,2.797,1.138,4.238,1.138c2.939,0,5.797-1.527,7.371-4.255l34.048-59.051
			C210.321,352.207,208.925,347.01,204.858,344.665z"/>
	</g>
</g>
<g>
	<g>
		<path d="M437.129,74.978c-15.785-15.785-33.567-29.435-52.895-40.605l-0.138-0.086l-0.005-0.003
			c-1.286-0.742-2.626-1.383-3.923-2.103C257.304-35.947,102.491,7.675,33.271,129.927S6.292,407.375,127.922,477.681l0.141,0.088
			l0.005,0.003c1.286,0.742,2.626,1.383,3.923,2.103c111.6,61.625,251.534,31.766,328.26-70.044S527.12,165.276,437.129,74.978z
			 M463.055,136.569v0.009c1.762,3.039,3.352,6.166,4.973,9.277c6.682,12.869,12.163,26.327,16.372,40.204l-49.486,13.255
			c-8.228-25.891-21.99-49.682-40.332-69.722l36.268-36.268C443.174,106.486,453.977,120.992,463.055,136.569z M91.26,300.149
			l-0.006-0.021c-7.794-28.898-7.789-59.346,0.017-88.242c15.852-58.853,61.825-104.825,120.678-120.674l0.005-0.001l0.004-0.002
			l0.021-0.006c28.898-7.794,59.346-7.789,88.242,0.017c58.854,15.852,104.825,61.826,120.675,120.68v0.003l0.002,0.005l0.006,0.02
			c7.794,28.898,7.789,59.346-0.017,88.242c-15.852,58.854-61.826,104.825-120.68,120.675h-0.003l-0.004,0.002l-0.021,0.006
			c-91.005,24.243-184.46-29.75-208.917-120.697v-0.003L91.26,300.149z M326.045,27.712c16.058,4.87,31.552,11.437,46.22,19.588
			c1.082,0.604,2.201,1.132,3.272,1.753c15.577,9.079,30.084,19.882,43.245,32.205l-36.268,36.268
			c-20.039-18.343-43.831-32.105-69.723-40.329L326.045,27.712z M256.07,17.103c18.007,0.041,35.95,2.124,53.488,6.209
			L296.31,72.775c-26.506-5.816-53.957-5.817-80.463-0.005L202.6,23.312C220.131,19.226,238.069,17.144,256.07,17.103z
			 M136.629,49.052c1.418-0.822,2.894-1.528,4.328-2.32c14.353-7.885,29.486-14.26,45.155-19.019l13.253,49.48
			c-25.891,8.228-49.682,21.99-69.722,40.332L93.376,81.258C106.54,68.934,121.049,58.131,136.629,49.052z M44.929,144.36
			c1.38-2.603,2.695-5.239,4.175-7.79c9.079-15.577,19.882-30.084,32.205-43.245l36.267,36.267
			c-18.343,20.039-32.105,43.831-40.329,69.723l-49.489-13.256C32.135,171.642,37.885,157.679,44.929,144.36z M23.362,202.548
			l49.458,13.247c-5.965,26.49-5.967,53.975-0.004,80.466l-49.453,13.246C15.254,274.315,15.254,237.74,23.362,202.548z
			 M49.104,375.478c-1.549-2.672-2.932-5.429-4.372-8.156c-6.952-13.208-12.634-27.045-16.971-41.326l49.483-13.254
			c8.228,25.891,21.99,49.682,40.332,69.722l-36.267,36.267C68.986,405.567,58.183,391.058,49.104,375.478z M186.112,484.345
			c-16.058-4.87-31.552-11.437-46.22-19.588c-1.081-0.604-2.2-1.133-3.271-1.754c-15.577-9.079-30.084-19.882-43.245-32.205
			l36.267-36.267c20.039,18.343,43.831,32.105,69.723,40.329L186.112,484.345z M202.599,488.745l13.247-49.458
			c26.49,5.965,53.975,5.967,80.466,0.004l13.246,49.454C274.367,496.857,237.792,496.857,202.599,488.745z M375.53,463.004
			c-1.418,0.822-2.894,1.528-4.328,2.32c-14.353,7.885-29.485,14.26-45.155,19.019l-13.253-49.48
			c25.891-8.228,49.682-21.99,69.722-40.332l36.267,36.267C405.619,443.122,391.109,453.925,375.53,463.004z M467.231,367.696
			c-1.381,2.603-2.696,5.239-4.176,7.79c-9.079,15.577-19.882,30.084-32.205,43.245l-36.267-36.267
			c18.343-20.039,32.105-43.831,40.329-69.723l49.49,13.256C480.024,340.414,474.274,354.377,467.231,367.696z M439.339,296.261
			c5.965-26.49,5.967-53.975,0.004-80.466l49.453-13.246c8.109,35.192,8.109,71.767,0.001,106.959L439.339,296.261z"/>
	</g>
</g>
<g>
</g>
<g>
</g>
<g>
</g>
<g>
</g>
<g>
</g>
<g>
</g>
<g>
</g>
<g>
</g>
<g>
</g>
<g>
</g>
<g>
</g>
<g>
</g>
<g>
</g>
<g>
</g>
<g>
</g>
</svg>
