<?xml version="1.0" encoding="iso-8859-1"?>
<!-- Generator: Adobe Illustrator 19.0.0, SVG Export Plug-In . SVG Version: 6.00 Build 0)  -->
<svg version="1.1" id="Capa_1" xmlns="http://www.w3.org/2000/svg" xmlns:xlink="http://www.w3.org/1999/xlink" x="0px" y="0px"
	 viewBox="0 0 512 512" style="enable-background:new 0 0 512 512;" xml:space="preserve">
<g>
	<g>
		<path d="M469.333,0H332.8c-9.421,0.011-17.056,7.645-17.067,17.067v68.267c0.011,9.421,7.646,17.056,17.067,17.067h17.837
			c1.778,10.567,6.833,20.308,14.451,27.844c-6.383,2.87-11.314,8.225-13.649,14.822h-86.906v-8.533h8.533
			c4.713,0,8.533-3.82,8.533-8.533s-3.82-8.533-8.533-8.533h-34.133c-4.713,0-8.533,3.82-8.533,8.533s3.82,8.533,8.533,8.533h8.533
			v8.533h-86.906c-2.335-6.597-7.267-11.952-13.65-14.822c7.618-7.536,12.673-17.277,14.451-27.844H179.2
			c9.421-0.011,17.056-7.646,17.067-17.067V17.067C196.256,7.645,188.621,0.011,179.2,0H42.667
			C33.246,0.011,25.611,7.645,25.6,17.067v68.267c0.011,9.421,7.646,17.056,17.067,17.067h17.837
			c1.644,9.71,6.064,18.737,12.728,25.989c-7.864,1.689-13.485,8.635-13.498,16.678v17.067c0.011,9.421,7.645,17.056,17.067,17.067
			h59.733c10.813-0.033,20.435-6.868,24.028-17.067h86.906v103.972c-10.199,3.592-17.033,13.215-17.067,24.028v128h-8.533
			c-9.421,0.011-17.056,7.645-17.067,17.067v2.953L73.379,495.65c-3.7,1.62-5.757,5.613-4.929,9.566
			c0.828,3.953,4.315,6.784,8.354,6.784c1.176,0.002,2.34-0.242,3.417-0.717l125.18-54.766c1.929,7.524,8.699,12.793,16.466,12.816
			h25.6v34.133c0,4.713,3.82,8.533,8.533,8.533c4.713,0,8.533-3.82,8.533-8.533v-34.133h25.6
			c7.767-0.023,14.537-5.292,16.466-12.816l125.18,54.766c1.076,0.475,2.24,0.719,3.417,0.717c4.039,0.001,7.526-2.83,8.354-6.784
			s-1.229-7.946-4.929-9.566L307.2,438.153V435.2c-0.011-9.421-7.646-17.056-17.067-17.067H281.6v-128
			c-0.033-10.813-6.868-20.435-17.067-24.028V162.133h86.906c3.592,10.199,13.214,17.033,24.027,17.067H435.2
			c9.421-0.011,17.056-7.646,17.067-17.067v-17.067c-0.013-8.044-5.634-14.989-13.498-16.678
			c6.663-7.252,11.084-16.278,12.728-25.989h17.838c9.421-0.011,17.056-7.646,17.067-17.067V17.067
			C486.389,7.645,478.755,0.011,469.333,0z M80.721,17.067h60.424c-17.527,19.381-17.527,48.886,0,68.267H80.721
			C98.248,65.953,98.248,36.447,80.721,17.067z M143.987,102.4c-3.893,15.071-17.488,25.6-33.054,25.6s-29.161-10.529-33.054-25.6
			H143.987z M42.667,85.333V17.067C61.518,17.067,76.8,32.349,76.8,51.2S61.518,85.333,42.667,85.333z M136.533,162.133H76.8
			v-17.067h59.733c4.713,0,8.533,3.821,8.533,8.533C145.067,158.313,141.246,162.133,136.533,162.133z M179.2,17.067l0.012,68.267
			H179.2c-18.851,0-34.133-15.282-34.133-34.133S160.349,17.067,179.2,17.067z M247.467,290.133c0-4.713,3.82-8.533,8.533-8.533
			c4.713,0,8.533,3.82,8.533,8.533v128h-17.067V290.133z M290.133,435.2l0.006,8.392v0.078l0.006,8.597h-68.279V435.2H290.133z
			 M370.855,17.067h60.424c-17.527,19.381-17.527,48.886,0,68.267h-60.424C388.382,65.953,388.382,36.447,370.855,17.067z
			 M434.121,102.4c-3.893,15.071-17.488,25.6-33.054,25.6c-15.566,0-29.161-10.529-33.054-25.6H434.121z M332.8,85.333V17.067
			c18.851,0,34.133,15.282,34.133,34.133S351.651,85.333,332.8,85.333z M435.2,162.133h-59.733c-4.713,0-8.533-3.821-8.533-8.533
			c0-4.713,3.82-8.533,8.533-8.533H435.2V162.133z M469.333,85.333c-18.851,0-34.133-15.282-34.133-34.133
			s15.282-34.133,34.133-34.133V85.333z"/>
	</g>
</g>
<g>
</g>
<g>
</g>
<g>
</g>
<g>
</g>
<g>
</g>
<g>
</g>
<g>
</g>
<g>
</g>
<g>
</g>
<g>
</g>
<g>
</g>
<g>
</g>
<g>
</g>
<g>
</g>
<g>
</g>
</svg>
