<?xml version="1.0" encoding="iso-8859-1"?>
<!-- Generator: Adobe Illustrator 19.0.0, SVG Export Plug-In . SVG Version: 6.00 Build 0)  -->
<svg version="1.1" id="Capa_1" xmlns="http://www.w3.org/2000/svg" xmlns:xlink="http://www.w3.org/1999/xlink" x="0px" y="0px"
	 viewBox="0 0 512 512" style="enable-background:new 0 0 512 512;" xml:space="preserve">
<g>
	<g>
		<path d="M409.022,142.199c-2.147-29.126-12.612-57.024-30.151-80.377c-0.123-0.22-0.143-0.469-0.289-0.681
			c-0.25-0.279-0.519-0.54-0.806-0.781c-18.25-23.816-43.06-41.782-71.38-51.693c-0.228-0.107-0.39-0.297-0.631-0.384
			c-0.235-0.085-0.473-0.044-0.709-0.107c-31.797-10.902-66.319-10.902-98.115,0c-0.237,0.064-0.473,0.021-0.708,0.106
			c-0.241,0.087-0.403,0.278-0.631,0.384c-28.319,9.91-53.127,27.875-71.377,51.689c-0.288,0.242-0.558,0.505-0.809,0.785
			c-0.145,0.212-0.165,0.461-0.289,0.681c-17.539,23.354-28.004,51.252-30.151,80.38c-0.358,0.914-0.554,1.883-0.578,2.864V486.4
			c0.015,14.132,11.468,25.585,25.6,25.6h34.133H384c14.132-0.015,25.585-11.468,25.6-25.6V145.067
			C409.576,144.085,409.381,143.114,409.022,142.199z M307.901,27.376c19.655,8.151,37.141,20.768,51.073,36.851l-28.384,19.436
			c-9.66-10.348-21.355-18.588-34.351-24.202L307.901,27.376z M216.867,153.6H235.4l-64.733,64.733V199.8L216.867,153.6z
			 M170.667,175.667V153.6h22.067L170.667,175.667z M172.387,136.533c8.162-39.7,43.082-68.211,83.613-68.267
			c40.531,0.055,75.451,28.566,83.613,68.267H172.387z M291.714,21.967L280.013,54.16c-15.765-3.947-32.26-3.947-48.025,0
			l-11.701-32.193C243.647,15.433,268.353,15.433,291.714,21.967z M204.099,27.376l11.661,32.085
			c-12.996,5.614-24.691,13.854-34.351,24.202l-28.384-19.436C166.958,48.144,184.444,35.527,204.099,27.376z M153.6,494.933H128
			c-4.711-0.003-8.53-3.822-8.533-8.533v-51.2H153.6V494.933z M153.6,418.133h-34.133v-76.8H153.6V418.133z M153.6,324.267h-34.133
			v-76.8H153.6V324.267z M153.6,230.4h-34.133v-76.8H153.6V230.4z M155.141,136.533h-34.49c2.608-21.038,10.11-41.171,21.903-58.786
			l28.163,19.285C162.806,108.958,157.498,122.418,155.141,136.533z M247.467,494.933h-76.8V435.2h76.8V494.933z M247.467,418.133
			h-76.8v-76.8h76.8V418.133z M247.467,324.267h-76.8v-76.8h76.8V324.267z M247.467,230.4h-64.733l64.733-64.733V230.4z
			 M341.333,494.933h-76.8V435.2h76.8V494.933z M341.333,418.133h-76.8v-76.8h76.8V418.133z M341.333,324.267h-76.8v-76.8h76.8
			V324.267z M341.333,230.4h-76.8v-76.8h76.8V230.4z M341.282,97.033l28.163-19.285c11.794,17.615,19.295,37.749,21.903,58.786
			h-34.49C354.502,122.418,349.194,108.958,341.282,97.033z M392.533,486.4c-0.003,4.711-3.822,8.53-8.533,8.533h-25.6V435.2h34.133
			V486.4z M392.533,418.133H358.4v-76.8h34.133V418.133z M392.533,324.267H358.4v-76.8h34.133V324.267z M392.533,230.4H358.4v-76.8
			h34.133V230.4z"/>
	</g>
</g>
<g>
</g>
<g>
</g>
<g>
</g>
<g>
</g>
<g>
</g>
<g>
</g>
<g>
</g>
<g>
</g>
<g>
</g>
<g>
</g>
<g>
</g>
<g>
</g>
<g>
</g>
<g>
</g>
<g>
</g>
</svg>
