<?xml version="1.0" encoding="iso-8859-1"?>
<!-- Generator: Adobe Illustrator 19.0.0, SVG Export Plug-In . SVG Version: 6.00 Build 0)  -->
<svg version="1.1" id="Capa_1" xmlns="http://www.w3.org/2000/svg" xmlns:xlink="http://www.w3.org/1999/xlink" x="0px" y="0px"
	 viewBox="0 0 512.032 512.032" style="enable-background:new 0 0 512.032 512.032;" xml:space="preserve">
<g transform="translate(-1)">
	<g>
		<g>
			<path d="M58.277,454.741c-3.421-3.158-8.695-3.158-12.117,0c-0.754,0.829-1.36,1.782-1.792,2.817
				c-0.911,2.065-0.911,4.418,0,6.483c0.434,1.034,1.04,1.986,1.792,2.817c2.441,2.444,6.125,3.154,9.3,1.792
				c1.033-0.433,1.986-1.039,2.817-1.791c0.752-0.831,1.358-1.783,1.792-2.817c0.911-2.065,0.911-4.418,0-6.483
				C59.638,456.524,59.032,455.571,58.277,454.741z"/>
			<path d="M415.911,452.95c-0.546,0.184-1.065,0.442-1.542,0.767c-0.445,0.316-0.871,0.658-1.275,1.025
				c-0.772,0.816-1.38,1.772-1.792,2.817c-0.437,1.026-0.669,2.127-0.683,3.242c-0.031,1.119,0.203,2.23,0.683,3.242
				c0.434,1.034,1.04,1.986,1.792,2.817c2.441,2.444,6.125,3.154,9.3,1.792c2.143-0.777,3.831-2.465,4.608-4.608
				c0.438-1.026,0.67-2.127,0.683-3.242c-0.033-2.259-0.917-4.422-2.475-6.059C422.74,452.354,419.092,451.651,415.911,452.95z"/>
			<path d="M510.521,139.031c-1.601-1.601-3.772-2.499-6.035-2.498c-2.264-0.001-4.435,0.897-6.035,2.498
				c-1.601,1.601-2.499,3.772-2.498,6.035v51.2h-59.733V179.2c-0.037-11.492-7.74-21.547-18.827-24.575L379.644,18.742
				C376.539,7.681,366.466,0.027,354.977,0H235.86c-11.492,0.03-21.568,7.686-24.675,18.75l-37.74,135.875
				c-11.087,3.028-18.789,13.083-18.827,24.575v17.067h-8.533c-14.132,0.015-25.585,11.468-25.6,25.6v119.467h-17.067V179.2h8.533
				c9.421-0.012,17.054-7.646,17.067-17.067v-76.8c-0.012-9.421-7.646-17.054-17.067-17.067H18.085
				C8.665,68.279,1.031,75.913,1.019,85.333V384c-0.001,2.264,0.897,4.435,2.498,6.035s3.772,2.499,6.035,2.498h10.643l3.246,25.95
				C4.85,431.116-3.328,454.397,3.279,475.882c6.607,21.484,26.453,36.147,48.93,36.151s42.328-14.653,48.942-36.135
				c6.614-21.482-1.556-44.766-20.143-57.405l3.303-25.959h302.817l3.246,25.95c-18.591,12.633-26.769,35.914-20.162,57.398
				c6.607,21.484,26.453,36.147,48.93,36.151s42.328-14.653,48.942-36.135c6.614-21.482-1.556-44.766-20.143-57.405l3.303-25.959
				h10.574c2.264,0.001,4.435-0.897,6.035-2.498s2.499-3.772,2.498-6.035V213.333h25.6v51.2c0,4.713,3.82,8.533,8.533,8.533
				s8.533-3.82,8.533-8.533V145.067C513.02,142.803,512.122,140.632,510.521,139.031z M227.627,23.325
				c1.04-3.69,4.4-6.244,8.233-6.258h119.117c3.83,0.012,7.187,2.563,8.225,6.25l3.004,10.817H224.626L227.627,23.325z
				 M219.886,51.2h151.061l28.443,102.4H191.448L219.886,51.2z M171.686,179.2c0.003-4.711,3.822-8.53,8.533-8.533h230.4
				c4.711,0.003,8.53,3.822,8.533,8.533v51.2c-0.003,4.711-3.822,8.53-8.533,8.533h-230.4c-4.711-0.003-8.53-3.822-8.533-8.533
				V179.2z M398.302,256l-17.125,45.667c-1.258,3.32-4.433,5.521-7.983,5.533h-155.55c-3.553-0.013-6.729-2.217-7.983-5.542
				L192.535,256H398.302z M18.085,85.333h93.867l0.017,76.8H18.085V85.333z M18.085,179.2h68.267v162.133H18.085V179.2z
				 M86.352,460.8c-0.019,18.844-15.29,34.115-34.133,34.133c-18.851,0-34.133-15.282-34.133-34.133
				c0-18.851,15.282-34.133,34.133-34.133S86.352,441.949,86.352,460.8z M37.393,392.533h29.712l-2.376,18.677
				c-8.195-2.145-16.804-2.147-25-0.005L37.393,392.533z M453.285,460.8c-0.019,18.844-15.29,34.115-34.133,34.133
				c-18.851,0-34.133-15.282-34.133-34.133c0-18.851,15.282-34.133,34.133-34.133S453.285,441.949,453.285,460.8z M404.327,392.533
				h29.711l-2.376,18.677c-8.195-2.145-16.804-2.147-25-0.005L404.327,392.533z M453.285,375.467h-435.2V358.4h435.2V375.467z
				 M453.285,341.333H137.552V221.867c0.003-4.712,3.822-8.53,8.533-8.533h8.533V230.4c0.033,11.706,8.007,21.896,19.362,24.742
				l19.696,52.508c3.768,9.975,13.304,16.587,23.966,16.617h155.55c10.66-0.03,20.195-6.637,23.967-16.608l19.697-52.517
				c11.354-2.846,19.328-13.036,19.361-24.742v-17.067h17.067V341.333z"/>
			<path d="M43.685,102.4c-2.264-0.001-4.435,0.897-6.035,2.498c-1.601,1.601-2.499,3.772-2.498,6.035v25.6
				c0,4.713,3.82,8.533,8.533,8.533s8.533-3.82,8.533-8.533v-25.6c0.001-2.264-0.897-4.435-2.498-6.035
				C48.12,103.297,45.949,102.399,43.685,102.4z"/>
			<path d="M86.352,102.4c-4.713,0-8.533,3.82-8.533,8.533v25.6c0,4.713,3.82,8.533,8.533,8.533s8.533-3.82,8.533-8.533v-25.6
				C94.886,106.221,91.065,102.4,86.352,102.4z"/>
		</g>
	</g>
</g>
<g>
</g>
<g>
</g>
<g>
</g>
<g>
</g>
<g>
</g>
<g>
</g>
<g>
</g>
<g>
</g>
<g>
</g>
<g>
</g>
<g>
</g>
<g>
</g>
<g>
</g>
<g>
</g>
<g>
</g>
</svg>
