<?xml version="1.0" encoding="iso-8859-1"?>
<!-- Generator: Adobe Illustrator 19.0.0, SVG Export Plug-In . SVG Version: 6.00 Build 0)  -->
<svg version="1.1" id="Capa_1" xmlns="http://www.w3.org/2000/svg" xmlns:xlink="http://www.w3.org/1999/xlink" x="0px" y="0px"
	 viewBox="0 0 512 512" style="enable-background:new 0 0 512 512;" xml:space="preserve">
<g>
	<g>
		<g>
			<path d="M486.4,0H25.6C11.468,0.015,0.015,11.468,0,25.6v460.8c0.015,14.132,11.468,25.585,25.6,25.6h460.8
				c14.132-0.015,25.585-11.468,25.6-25.6V25.6C511.985,11.468,500.532,0.015,486.4,0z M494.933,486.4
				c-0.005,4.711-3.822,8.529-8.533,8.533H25.6c-4.711-0.005-8.529-3.822-8.533-8.533V25.6c0.005-4.711,3.822-8.529,8.533-8.533
				h460.8c4.711,0.005,8.529,3.822,8.533,8.533V486.4z"/>
			<path d="M472.594,34.791c-1.033-0.431-2.141-0.654-3.26-0.658H42.667c-2.263-0.001-4.434,0.898-6.035,2.499
				c-1.6,1.6-2.499,3.771-2.499,6.035v426.667c0.018,4.705,3.828,8.515,8.533,8.533h426.667c2.263,0.001,4.434-0.898,6.035-2.499
				s2.499-3.771,2.499-6.035V42.667C477.854,39.22,475.776,36.116,472.594,34.791z M448.733,51.2l-23.774,23.774L401.183,51.2
				H448.733z M352.159,51.2l-23.718,23.767L304.675,51.2H352.159z M280.542,51.2l84.056,84.131l-36.19,36.194l-42.264-42.259
				l-42.227-42.225L279.758,51.2H280.542z M203.304,263.642l64.763,64.766l-26.743,26.746l-9.466,9.449l-84.459-84.451
				l15.898-15.928l20.295-20.294L203.304,263.642z M147.384,183.592l36.208-36.204l84.475,84.475l-18.1,18.104l-18.1,18.104
				l-19.715-19.712l-22.527-22.529l-0.006-0.004L147.384,183.592z M243.933,280.138l18.1-18.104l18.1-18.104l19.715,19.713
				l22.527,22.529l0.006,0.004l42.235,42.233l-36.208,36.204L243.933,280.138z M308.696,248.358l-64.763-64.766l26.743-26.746
				l9.467-9.449l42.266,42.261l0.009,0.012l42.179,42.182l-15.892,15.923L328.41,268.07L308.696,248.358z M255.625,51.2
				l-23.774,23.774L208.075,51.2H255.625z M183.938,51.2l84.127,84.123l-10.533,10.534l-25.681,25.634l-84.45-84.45L183.168,51.2
				H183.938z M159.051,51.2l-23.718,23.767L111.567,51.2H159.051z M51.2,51.2h36.231l84.06,84.133l-36.197,36.193l-42.22-42.222
				L51.2,87.433V51.2z M51.2,111.567l23.767,23.767L51.2,159.054V111.567z M51.2,183.163L87.033,147.4l42.183,42.183l0.006,0.004
				l42.269,42.267l-24.107,24.147l-12.062,12.063l-40.068-40.067l-2.179-2.181L51.2,183.946V183.163z M51.2,208.079l23.774,23.772
				L51.2,255.625V208.079z M51.2,279.758l35.841-35.841l1.935,1.935l82.514,82.591l-18.09,18.091l-18.104,18.103l-42.221-42.221
				L51.2,280.542V279.758z M51.2,304.677l23.767,23.769L51.2,352.166V304.677z M51.2,401.187l23.774,23.772L51.2,448.733V401.187z
				 M63.267,460.8l23.774-23.774l23.776,23.774H63.267z M134.95,460.8l-41.875-41.875L51.2,377.054v-0.779l35.833-35.763
				l13.214,13.212l28.97,28.971l0.012,0.008l29.049,29.047l13.21,13.211L135.724,460.8H134.95z M159.841,460.8l23.718-23.767
				l23.767,23.767H159.841z M231.463,460.8l-84.096-84.096l36.192-36.192l84.525,84.45l-9.923,9.944L232.313,460.8H231.463z
				 M256.435,460.8l23.722-23.766l23.768,23.766H256.435z M328.062,460.8l-84.127-84.123l11.2-11.201l25.006-24.964l71.245,71.237
				l13.211,13.212L328.832,460.8H328.062z M352.949,460.8l23.718-23.767l23.767,23.767H352.949z M460.8,460.8h-36.233
				l-84.092-84.096l36.192-36.192l84.133,84.056V460.8z M460.8,400.433l-23.767-23.767l23.767-23.72V400.433z M460.8,328.836
				l-35.842,35.768l-84.45-84.454l24.858-24.905l11.31-11.31l19.721,19.719l22.527,22.529l41.875,41.871V328.836z M460.8,303.921
				l-23.774-23.772l23.774-23.774V303.921z M460.8,232.242l-35.841,35.841l-20.157-20.156l-22.065-22.066l-0.021-0.031
				l-42.24-42.236l36.19-36.193l84.133,84.059V232.242z M460.8,207.323l-23.767-23.769l23.767-23.72V207.323z M460.8,135.724
				l-35.842,35.768l-84.45-84.45L376.276,51.2h0.774l41.875,41.875l41.875,41.871V135.724z M460.8,110.813l-23.774-23.772
				L460.8,63.267V110.813z"/>
		</g>
	</g>
</g>
<g>
</g>
<g>
</g>
<g>
</g>
<g>
</g>
<g>
</g>
<g>
</g>
<g>
</g>
<g>
</g>
<g>
</g>
<g>
</g>
<g>
</g>
<g>
</g>
<g>
</g>
<g>
</g>
<g>
</g>
</svg>
