<?xml version="1.0" encoding="iso-8859-1"?>
<!-- Generator: Adobe Illustrator 19.0.0, SVG Export Plug-In . SVG Version: 6.00 Build 0)  -->
<svg version="1.1" id="Capa_1" xmlns="http://www.w3.org/2000/svg" xmlns:xlink="http://www.w3.org/1999/xlink" x="0px" y="0px"
	 viewBox="0 0 512 512" style="enable-background:new 0 0 512 512;" xml:space="preserve">
<g>
	<g>
		<path d="M509.501,2.499c-1.6-1.6-3.771-2.499-6.035-2.499h-34.133c-2.263-0.001-4.434,0.898-6.035,2.499
			c-1.6,1.6-2.499,3.771-2.499,6.035h-68.267c0.001-2.263-0.898-4.434-2.499-6.035c-1.6-1.6-3.771-2.499-6.035-2.499h-34.133
			c-2.263-0.001-4.434,0.898-6.035,2.499c-1.6,1.6-2.499,3.771-2.499,6.035H170.667c0.001-2.263-0.898-4.434-2.499-6.035
			c-1.6-1.6-3.771-2.499-6.035-2.499H128c-2.263-0.001-4.434,0.898-6.035,2.499c-1.6,1.6-2.499,3.771-2.499,6.035H51.2
			c0.001-2.263-0.898-4.434-2.499-6.035c-1.6-1.6-3.771-2.499-6.035-2.499H8.533C6.27-0.001,4.099,0.898,2.499,2.499
			C0.898,4.099-0.001,6.27,0,8.533v76.8c0.033,10.813,6.868,20.435,17.067,24.027v35.706c0,4.713,3.82,8.533,8.533,8.533
			s8.533-3.821,8.533-8.533v-35.706c7.229-2.577,12.917-8.266,15.494-15.494h71.412c2.577,7.229,8.265,12.917,15.494,15.494v35.706
			c0,4.713,3.82,8.533,8.533,8.533s8.533-3.821,8.533-8.533v-35.706c7.229-2.577,12.917-8.266,15.494-15.494h1.572
			c14.132,0.015,25.585,11.468,25.6,25.6V128c0.011,9.421,7.646,17.056,17.067,17.067v32.867c-0.006,2.262-0.905,4.43-2.5,6.033
			l-78.867,78.871c-8.026,7.986-12.527,18.849-12.5,30.171v31.258c-9.421,0.011-17.056,7.646-17.067,17.067V358.4
			c0.011,9.421,7.645,17.056,17.067,17.067V460.8c-9.421,0.011-17.056,7.645-17.067,17.067v17.067
			c0.011,9.421,7.645,17.056,17.067,17.067h93.867c9.421-0.011,17.056-7.645,17.067-17.067v-17.067
			c-0.011-9.421-7.646-17.056-17.067-17.067v-85.333c9.421-0.011,17.056-7.645,17.067-17.067v-17.067
			c-0.011-9.421-7.646-17.056-17.067-17.067v-18.529c-0.004-2.265,0.896-4.438,2.5-6.037l70.333-70.338
			c8.028-7.983,12.528-18.845,12.5-30.167v-54.129c9.421-0.011,17.056-7.645,17.067-17.067v-8.533
			c0.015-14.132,11.468-25.585,25.6-25.6h1.573c2.577,7.228,8.265,12.917,15.494,15.494v35.706c0,4.713,3.82,8.533,8.533,8.533
			s8.533-3.821,8.533-8.533v-35.706c7.229-2.577,12.917-8.266,15.494-15.494h71.412c2.577,7.229,8.265,12.917,15.494,15.494v35.706
			c0,4.713,3.82,8.533,8.533,8.533s8.533-3.821,8.533-8.533v-35.706c10.199-3.592,17.033-13.214,17.067-24.028v-76.8
			C512.001,6.27,511.102,4.099,509.501,2.499z M34.133,85.333c-0.005,4.711-3.823,8.529-8.533,8.533
			c-4.711-0.005-8.529-3.823-8.533-8.533V17.067h17.067V85.333z M119.467,76.8H51.2V25.6h68.267V76.8z M153.6,85.333
			c-0.005,4.711-3.823,8.529-8.533,8.533c-4.711-0.005-8.529-3.823-8.533-8.533V17.067H153.6V85.333z M213.342,494.933h-93.875
			v-17.067h93.867L213.342,494.933z M136.533,460.8v-85.333h59.733V460.8H136.533z M213.342,358.4h-93.875v-17.067h93.867
			L213.342,358.4z M281.6,199.196c-0.02,6.785-2.715,13.289-7.5,18.1l-70.333,70.337c-4.817,4.791-7.517,11.31-7.5,18.104v18.529
			h-59.733v-31.258c-0.015-6.794,2.685-13.311,7.5-18.104l78.867-78.871c4.817-4.79,7.517-11.307,7.5-18.1v-32.867h51.2V199.196z
			 M341.333,76.8c-23.553,0.028-42.639,19.114-42.667,42.667V128h-85.333v-8.533c-0.028-23.553-19.114-42.639-42.667-42.667V25.6
			h170.667V76.8z M375.467,85.333c-0.005,4.711-3.822,8.529-8.533,8.533c-4.711-0.005-8.529-3.823-8.533-8.533V17.067h17.067V85.333
			z M460.8,76.8h-68.267V25.6H460.8V76.8z M494.933,85.333c0,4.713-3.82,8.533-8.533,8.533s-8.533-3.821-8.533-8.533V17.067h17.067
			V85.333z"/>
	</g>
</g>
<g>
</g>
<g>
</g>
<g>
</g>
<g>
</g>
<g>
</g>
<g>
</g>
<g>
</g>
<g>
</g>
<g>
</g>
<g>
</g>
<g>
</g>
<g>
</g>
<g>
</g>
<g>
</g>
<g>
</g>
</svg>
