<?xml version="1.0" encoding="iso-8859-1"?>
<!-- Generator: Adobe Illustrator 19.0.0, SVG Export Plug-In . SVG Version: 6.00 Build 0)  -->
<svg version="1.1" id="Capa_1" xmlns="http://www.w3.org/2000/svg" xmlns:xlink="http://www.w3.org/1999/xlink" x="0px" y="0px"
	 viewBox="0 0 512 512" style="enable-background:new 0 0 512 512;" xml:space="preserve">
<g>
	<g>
		<g>
			<path d="M510.383,310.737L288.517,3.537C286.914,1.315,284.34-0.001,281.6,0h-51.2c-2.74-0.001-5.314,1.315-6.917,3.537
				L1.617,310.737C0.566,312.191,0,313.94,0,315.733v187.733c-0.001,2.263,0.898,4.434,2.499,6.035c1.6,1.6,3.771,2.499,6.035,2.499
				h494.933c2.263,0.001,4.434-0.898,6.035-2.499c1.6-1.6,2.499-3.771,2.499-6.035V315.733
				C512,313.94,511.434,312.191,510.383,310.737z M17.067,358.4h17.067v102.4H17.067V358.4z M494.933,494.933H17.067v-17.067
				h477.867V494.933z M223.32,460.8h-34.158L51.2,370.843V358.4h15.135L223.32,460.8z M97.562,358.4H128h102.4v86.65L97.562,358.4z
				 M157.914,460.8H51.2v-69.582L157.914,460.8z M247.467,460.8V358.4h17.067v102.4H247.467z M322.838,460.8H288.68l156.985-102.4
				H460.8v12.443L322.838,460.8z M460.8,391.218V460.8H354.086L460.8,391.218z M281.6,445.05V358.4H384h30.438L281.6,445.05z
				 M494.933,460.8h-17.067V358.4h17.067V460.8z M494.933,341.333H17.067v-22.842l217.7-301.425h42.467l217.7,301.425V341.333z"/>
			<path d="M217.306,102.568c0.133-0.586,0.203-1.185,0.206-1.786c0.067-0.506,0.087-1.017,0.062-1.527
				c-0.098-0.523-0.245-1.036-0.439-1.532c-0.133-0.534-0.319-1.053-0.554-1.551c-0.273-0.421-0.582-0.817-0.924-1.183
				c-0.356-0.492-0.764-0.942-1.219-1.344c-0.092-0.073-0.134-0.183-0.23-0.253c-0.837-0.349-1.645-0.764-2.417-1.242
				c-0.115-0.036-0.228-0.007-0.343-0.039c-0.599-0.137-1.211-0.206-1.824-0.207c-0.492-0.063-0.989-0.083-1.485-0.06
				c-0.524,0.098-1.037,0.245-1.533,0.44c-0.538,0.134-1.062,0.321-1.564,0.559c-0.405,0.265-0.787,0.564-1.142,0.893
				c-0.505,0.363-0.967,0.781-1.378,1.248c-0.072,0.09-0.179,0.131-0.248,0.225L43.725,310.675c-1.907,2.593-2.194,6.038-0.741,8.91
				s4.398,4.682,7.616,4.682h88.466l0.026,0.004c1.033-0.018,2.055-0.225,3.013-0.613c0.296-0.128,0.585-0.273,0.864-0.436
				c1.541-0.765,2.792-2.008,3.566-3.544c0.181-0.302,0.343-0.616,0.484-0.94c0.05-0.132,0.145-0.232,0.19-0.368l70.059-215.467
				C217.303,102.792,217.274,102.68,217.306,102.568z M132.892,307.2H67.475l117.206-159.28L132.892,307.2z"/>
			<path d="M364.792,318.371c0.044,0.137,0.14,0.237,0.19,0.37c0.14,0.32,0.3,0.631,0.48,0.931c0.307,0.601,0.685,1.162,1.126,1.673
				c0.233,0.26,0.482,0.505,0.747,0.734c0.519,0.452,1.091,0.837,1.705,1.149c0.276,0.16,0.561,0.303,0.853,0.43
				c0.959,0.388,1.981,0.595,3.016,0.613l0.026-0.004H461.4c3.219,0,6.163-1.81,7.616-4.682c1.453-2.872,1.166-6.317-0.741-8.909
				L310.2,95.863l-0.102-0.13c-0.112-0.181-0.261-0.325-0.387-0.496c-0.373-0.521-0.805-0.998-1.287-1.42
				c-0.209-0.181-0.426-0.337-0.652-0.498c-0.498-0.351-1.032-0.647-1.594-0.883c-0.24-0.102-0.463-0.217-0.713-0.297
				c-3.052-0.979-6.394-0.167-8.657,2.103c-2.263,2.27-3.064,5.615-2.075,8.664L364.792,318.371z M444.525,307.2h-65.417
				l-51.792-159.284L444.525,307.2z"/>
			<path d="M345.134,313.096L264.117,63.817c-1.143-3.516-4.42-5.896-8.117-5.896c-3.697,0-6.973,2.38-8.117,5.896l-81.017,249.279
				c-0.061,0.399-0.092,0.801-0.094,1.205c-0.139,0.468-0.236,0.948-0.289,1.433c0,0.225,0.11,0.413,0.128,0.633
				c0.054,0.55,0.163,1.094,0.328,1.622c0.184,0.679,0.455,1.331,0.805,1.941c0.098,0.279,0.212,0.553,0.34,0.82
				c0.242,0.301,0.504,0.585,0.785,0.849c0.078,0.081,0.144,0.165,0.224,0.243c0.716,0.694,1.549,1.256,2.46,1.659
				c0.13,0.058,0.263,0.094,0.396,0.146c0.965,0.391,1.993,0.601,3.034,0.619h162.033c1.041-0.018,2.069-0.228,3.034-0.619
				c0.134-0.052,0.267-0.089,0.398-0.147c0.911-0.403,1.744-0.965,2.459-1.658c0.081-0.078,0.147-0.162,0.225-0.243
				c0.281-0.264,0.543-0.548,0.785-0.849c0.77-1.352,1.27-2.841,1.472-4.384c0.017-0.22,0.128-0.408,0.128-0.633
				c-0.053-0.486-0.149-0.966-0.289-1.434C345.227,313.896,345.195,313.494,345.134,313.096z M186.733,307.2L256,94.063
				L325.267,307.2H186.733z"/>
		</g>
	</g>
</g>
<g>
</g>
<g>
</g>
<g>
</g>
<g>
</g>
<g>
</g>
<g>
</g>
<g>
</g>
<g>
</g>
<g>
</g>
<g>
</g>
<g>
</g>
<g>
</g>
<g>
</g>
<g>
</g>
<g>
</g>
</svg>
