<?xml version="1.0" encoding="iso-8859-1"?>
<!-- Generator: Adobe Illustrator 19.0.0, SVG Export Plug-In . SVG Version: 6.00 Build 0)  -->
<svg version="1.1" id="Capa_1" xmlns="http://www.w3.org/2000/svg" xmlns:xlink="http://www.w3.org/1999/xlink" x="0px" y="0px"
	 viewBox="0 0 512 512" style="enable-background:new 0 0 512 512;" xml:space="preserve">
<g>
	<g>
		<g>
			<path d="M511.987,115.135c-0.023-0.987-0.22-1.962-0.581-2.88c-0.094-0.255-0.197-0.488-0.315-0.731
				c-0.359-0.755-0.829-1.452-1.394-2.068c-0.102-0.11-0.171-0.24-0.278-0.345c-0.589-0.584-1.261-1.079-1.994-1.469l-179.2-93.867
				c-2.458-1.29-5.39-1.302-7.858-0.033L4.633,175.876c-0.749,0.393-1.434,0.895-2.034,1.491c-0.119,0.116-0.198,0.257-0.31,0.379
				c-0.553,0.607-1.015,1.292-1.37,2.032c-0.118,0.242-0.226,0.474-0.321,0.729c-0.372,0.932-0.575,1.924-0.598,2.928l0.003,0.02
				L0,183.467v213.333c0,3.175,1.762,6.087,4.575,7.558l179.2,93.867c0.361,0.166,0.732,0.307,1.113,0.42
				c0.23,0.082,0.449,0.196,0.684,0.258c0.702,0.19,1.425,0.29,2.152,0.296l0.004-0.001l0.004,0.001l0.01-0.003
				c1.235-0.025,2.45-0.318,3.56-0.859c0.105-0.048,0.226-0.026,0.33-0.08l315.733-162.133c2.844-1.463,4.632-4.393,4.633-7.592
				V115.201L511.987,115.135z M179.2,476.566L17.067,391.638V197.569L179.2,282.496V476.566z M187.771,267.721L27.067,183.542
				L324.229,30.946l160.704,84.179L187.771,267.721z M494.933,323.321L196.267,476.692V282.546l298.667-153.37V323.321z"/>
			<path d="M297.093,183.685c-0.06-0.265-0.134-0.527-0.222-0.784c-0.12-0.234-0.334-0.373-0.472-0.592
				c-0.626-0.958-1.427-1.79-2.36-2.453c-0.218-0.15-0.353-0.374-0.589-0.506l-101.629-56.917c-0.253-0.095-0.51-0.178-0.771-0.247
				c-1.016-0.444-2.108-0.689-3.216-0.722c-0.552-0.01-1.105,0.035-1.648,0.136c-0.552,0.097-1.093,0.25-1.615,0.456
				c-0.278,0.062-0.552,0.139-0.821,0.231L78.787,176.217c-2.835,1.457-4.622,4.373-4.633,7.561
				c-0.011,3.188,1.755,6.116,4.579,7.594l105.217,55.042c2.457,1.284,5.384,1.295,7.85,0.029v0l101.375-52.054
				c0.047-0.024,0.072-0.07,0.119-0.095c0.874-0.474,1.657-1.098,2.313-1.845c0.171-0.192,0.302-0.396,0.454-0.601
				c0.241-0.278,0.463-0.572,0.665-0.88c0.098-0.257,0.182-0.519,0.253-0.784c0.234-0.53,0.412-1.083,0.531-1.651
				c0.233-1.042,0.252-2.12,0.058-3.169C297.468,184.788,297.309,184.226,297.093,183.685z M179.2,224.665l-77.971-40.789
				l77.971-40.059V224.665z M196.267,224.964v-80.477l74.965,41.984L196.267,224.964z"/>
			<path d="M434.953,112.913c-0.098-0.573-0.257-1.134-0.472-1.674c-0.061-0.266-0.135-0.53-0.222-0.789
				c-0.122-0.236-0.337-0.378-0.477-0.598c-0.63-0.961-1.435-1.795-2.373-2.458c-0.213-0.146-0.345-0.365-0.575-0.494
				L329.204,49.984c-0.252-0.095-0.508-0.177-0.769-0.246c-2.058-0.904-4.391-0.951-6.483-0.13c-0.277,0.062-0.55,0.139-0.819,0.23
				l-104.958,53.929c-2.835,1.457-4.622,4.373-4.633,7.561c-0.011,3.188,1.755,6.116,4.579,7.594l0,0l105.217,55.042
				c2.457,1.284,5.384,1.295,7.85,0.029l101.379-52.054c0.048-0.024,0.074-0.071,0.121-0.097c0.869-0.472,1.647-1.094,2.3-1.837
				c0.178-0.199,0.313-0.41,0.47-0.623c0.236-0.273,0.453-0.562,0.65-0.864c0.096-0.253,0.179-0.51,0.249-0.771
				c0.238-0.536,0.418-1.095,0.539-1.669C435.127,115.037,435.146,113.961,434.953,112.913z M316.588,152.215l-77.975-40.789
				l77.975-40.062V152.215z M333.654,152.513V72.039l74.965,41.98L333.654,152.513z"/>
		</g>
	</g>
</g>
<g>
</g>
<g>
</g>
<g>
</g>
<g>
</g>
<g>
</g>
<g>
</g>
<g>
</g>
<g>
</g>
<g>
</g>
<g>
</g>
<g>
</g>
<g>
</g>
<g>
</g>
<g>
</g>
<g>
</g>
</svg>
