<?xml version="1.0" encoding="iso-8859-1"?>
<!-- Generator: Adobe Illustrator 19.0.0, SVG Export Plug-In . SVG Version: 6.00 Build 0)  -->
<svg version="1.1" id="Capa_1" xmlns="http://www.w3.org/2000/svg" xmlns:xlink="http://www.w3.org/1999/xlink" x="0px" y="0px"
	 viewBox="0 0 512 512" style="enable-background:new 0 0 512 512;" xml:space="preserve">
<g>
	<g>
		<path d="M506.727,0.658c-1.033-0.431-2.141-0.654-3.26-0.658h-51.2c-2.264,0.013-4.433,0.913-6.041,2.507L298.667,150.067V8.533
			c-0.017-4.706-3.828-8.516-8.533-8.533h-51.2c-2.264,0.013-4.433,0.913-6.041,2.507L2.506,232.894
			c-1.593,1.608-2.493,3.776-2.506,6.039v264.533c-0.001,2.263,0.898,4.434,2.499,6.035c1.6,1.6,3.771,2.499,6.035,2.499h264.533
			c2.264-0.012,4.433-0.913,6.041-2.507l230.387-230.387c1.593-1.607,2.493-3.776,2.506-6.039V8.533
			C511.987,5.086,509.909,1.983,506.727,0.658z M68.267,431.667v-189.2L281.6,29.133v138l-65.761,65.761
			c-1.593,1.608-2.493,3.776-2.506,6.039V286.6L68.267,431.667z M213.333,310.733v133h-133L213.333,310.733z M242.467,17.067h27.067
			L56.2,230.4H29.133L242.467,17.067z M264.533,494.933H17.067V247.467H51.2v204.8c0.018,4.705,3.828,8.515,8.533,8.533h162.133
			c2.263,0.001,4.434-0.898,6.035-2.499c1.6-1.6,2.499-3.771,2.499-6.035v-204.8h34.133V494.933z M269.533,230.4h-27.067
			l53.694-53.694l0.013-0.013L455.8,17.067h27.067L269.533,230.4z M494.933,269.533L281.6,482.867v-240.4L494.933,29.133V269.533z"
			/>
	</g>
</g>
<g>
</g>
<g>
</g>
<g>
</g>
<g>
</g>
<g>
</g>
<g>
</g>
<g>
</g>
<g>
</g>
<g>
</g>
<g>
</g>
<g>
</g>
<g>
</g>
<g>
</g>
<g>
</g>
<g>
</g>
</svg>
