<?xml version="1.0" encoding="iso-8859-1"?>
<!-- Generator: Adobe Illustrator 19.0.0, SVG Export Plug-In . SVG Version: 6.00 Build 0)  -->
<svg version="1.1" id="Capa_1" xmlns="http://www.w3.org/2000/svg" xmlns:xlink="http://www.w3.org/1999/xlink" x="0px" y="0px"
	 viewBox="0 0 512 512" style="enable-background:new 0 0 512 512;" xml:space="preserve">
<g>
	<g>
		<g>
			<path d="M511.938,221.559c-0.016-1.014-0.216-2.016-0.588-2.959l-0.013-0.022c-0.032-0.078-0.093-0.135-0.127-0.211
				c-0.838-1.745-2.226-3.166-3.95-4.046c-0.264-0.144-0.535-0.272-0.813-0.386c-0.949-0.38-1.958-0.584-2.98-0.602h-72.533
				c-21.198-0.023-38.377-17.202-38.4-38.4V8.533c0-0.137-0.071-0.25-0.078-0.385c-0.035-0.903-0.215-1.795-0.533-2.641
				c-0.043-0.112-0.047-0.237-0.094-0.347l-0.013-0.043c-0.4-0.88-0.948-1.684-1.62-2.378c-0.199-0.195-0.409-0.38-0.627-0.554
				c-0.544-0.479-1.147-0.886-1.796-1.21C386.611,0.355,385.317,0.021,384,0h-51.2c-2.377-0.001-4.646,0.992-6.258,2.737
				l-213.333,230.4c-0.228,0.318-0.432,0.652-0.612,1.001c-0.883,0.996-1.387,2.271-1.422,3.602c-0.11,0.391-0.191,0.79-0.241,1.194
				V337.8L2.506,446.228c-1.593,1.608-2.493,3.776-2.506,6.039v51.2c-0.001,2.263,0.898,4.434,2.499,6.035
				c1.6,1.6,3.771,2.499,6.035,2.499H281.6c1.152,0,2.291-0.234,3.349-0.689c0.101-0.043,0.172-0.136,0.27-0.182
				c0.921-0.421,1.76-1.003,2.476-1.719l0.087-0.06L458.3,330.3l51.2-51.2c1.6-1.6,2.5-3.77,2.5-6.033v-51.2
				C512,221.757,511.942,221.667,511.938,221.559z M336.525,17.067h27.942L166.943,230.4h-27.95L336.525,17.067z M110.933,361.933
				v43.4c-0.023,21.198-17.202,38.377-38.4,38.4h-43.4L110.933,361.933z M273.067,494.933h-256V460.8h55.467
				c30.619-0.035,55.431-24.848,55.467-55.467V247.467h34.133v157.867c0.035,30.619,24.848,55.431,55.467,55.467h55.467V494.933z
				 M277.942,443.733H217.6c-21.198-0.023-38.377-17.202-38.4-38.4V242.272L375.467,30.304v144.629
				c0.036,28.386,21.471,52.177,49.7,55.164c0.489,0.148,0.992,0.25,1.5,0.303h56.2l-36.783,36.783L277.942,443.733z
				 M494.933,269.533l-48.85,48.85l-155.95,163.748v-26.45L458.3,279.1l36.634-36.633V269.533z"/>
			<path d="M207.275,403.2c-1.572,1.591-2.46,3.734-2.475,5.971c-0.022,2.27,0.87,4.453,2.475,6.058
				c1.605,1.605,3.788,2.497,6.058,2.475c2.267,0.005,4.444-0.884,6.059-2.475c1.571-1.628,2.457-3.797,2.475-6.059
				c-0.018-2.236-0.906-4.377-2.475-5.971C216.005,399.954,210.662,399.954,207.275,403.2z"/>
			<path d="M249.481,365.14c-2.963-0.72-6.085,0.196-8.19,2.402h0l-8.533,8.942c-3.24,3.412-3.107,8.803,0.298,12.051
				s8.796,3.128,12.052-0.268l8.533-8.942c2.105-2.206,2.873-5.368,2.015-8.294C254.798,368.106,252.444,365.86,249.481,365.14z"/>
			<path d="M275.425,331.783l-8.533,8.942c-3.254,3.41-3.127,8.813,0.283,12.067s8.813,3.127,12.067-0.283l8.533-8.942
				c3.254-3.41,3.127-8.813-0.283-12.067C284.081,328.246,278.679,328.373,275.425,331.783z"/>
			<path d="M309.558,296.025l-8.533,8.942c-3.254,3.41-3.127,8.813,0.283,12.067c3.41,3.254,8.813,3.127,12.067-0.283l8.533-8.942
				c3.254-3.41,3.127-8.813-0.283-12.067C318.215,292.488,312.812,292.615,309.558,296.025z"/>
			<path d="M351.882,257.865c-2.963-0.72-6.085,0.196-8.19,2.402l-8.533,8.942c-3.254,3.41-3.127,8.813,0.283,12.067
				c3.41,3.254,8.813,3.127,12.067-0.283l8.533-8.942c2.105-2.206,2.873-5.368,2.015-8.294
				C357.198,260.831,354.845,258.585,351.882,257.865z"/>
			<path d="M369.408,233.3c-1.574,1.625-2.461,3.796-2.475,6.059c-0.024,2.246,0.87,4.404,2.475,5.975
				c1.591,1.636,3.776,2.558,6.058,2.558s4.467-0.923,6.058-2.558c1.601-1.573,2.495-3.73,2.475-5.975
				c-0.018-2.262-0.904-4.431-2.475-6.059C378.103,230.142,372.829,230.142,369.408,233.3z"/>
		</g>
	</g>
</g>
<g>
</g>
<g>
</g>
<g>
</g>
<g>
</g>
<g>
</g>
<g>
</g>
<g>
</g>
<g>
</g>
<g>
</g>
<g>
</g>
<g>
</g>
<g>
</g>
<g>
</g>
<g>
</g>
<g>
</g>
</svg>
