<?xml version="1.0" encoding="iso-8859-1"?>
<!-- Generator: Adobe Illustrator 19.0.0, SVG Export Plug-In . SVG Version: 6.00 Build 0)  -->
<svg version="1.1" id="Capa_1" xmlns="http://www.w3.org/2000/svg" xmlns:xlink="http://www.w3.org/1999/xlink" x="0px" y="0px"
	 viewBox="0 0 512.015 512.015" style="enable-background:new 0 0 512.015 512.015;" xml:space="preserve">
<g transform="translate(-1)">
	<g>
		<g>
			<path d="M470.348,0.007H282.615c-14.132,0.015-25.585,11.468-25.6,25.6h-25.6c-0.015-14.132-11.468-25.585-25.6-25.6h-17.067
				c-14.132,0.015-25.585,11.468-25.6,25.6H94.881C94.87,16.186,87.236,8.551,77.815,8.541h-8.533
				c-12.139,0.039-23.337,6.542-29.386,17.067H26.615c-6.756-0.05-13.244,2.639-17.983,7.454C3.726,37.82,0.975,44.374,1.015,51.207
				c0.015,14.132,11.468,25.585,25.6,25.6h13.281c6.049,10.524,17.247,17.028,29.386,17.067h8.533
				c9.421-0.011,17.056-7.646,17.067-17.067h64.976c-0.748,0.597-1.598,1.053-2.509,1.346
				C54.153,110.063-11.069,211.65,2.87,318.762c13.939,107.113,102.987,188.625,210.911,193.061
				c0.233,0.012,0.458,0.017,0.692,0.017c4.353,0,8.535-1.696,11.658-4.729c1.089-1.081,2.028-2.305,2.789-3.638h34.753
				c4.812,5.41,11.701,8.513,18.942,8.533h187.733c23.553-0.028,42.639-19.114,42.667-42.667V42.674
				C512.987,19.121,493.901,0.035,470.348,0.007z M35.148,59.741h-8.533c-4.711-0.005-8.529-3.822-8.533-8.533
				c-0.005-2.298,0.938-4.496,2.608-6.075c1.559-1.591,3.698-2.479,5.925-2.458h8.533V59.741z M69.281,76.807
				c-9.421-0.011-17.056-7.645-17.067-17.067V42.674c0.011-9.421,7.645-17.056,17.067-17.067h8.533l0.002,8.527l-0.002,0.007
				l0.002,0.007l0.005,34.092l-0.007,0.034l0.007,0.034l0.002,8.499H69.281z M231.415,42.674h25.6v17.067h-25.6V42.674z
				 M94.881,59.741V42.674h68.267v17.067H94.881z M214.383,494.769c-109.849-4.246-196.62-94.697-196.302-204.628
				c-0.352-89.923,58.289-169.443,144.3-195.679c10.668-3.29,17.916-13.187,17.833-24.35V25.607
				c0.005-4.711,3.822-8.529,8.533-8.533h17.067c4.711,0.005,8.529,3.822,8.533,8.533v78.6c0.017,8.445-6.183,15.616-14.542,16.821
				c-87.319,11.911-151.208,88.348-147.437,176.395c3.771,88.047,73.961,158.742,161.979,163.143l0.001,0.237l-0.001,0.004
				l0.001,0.004l0.114,33.558C214.453,494.508,214.386,494.628,214.383,494.769z M257.015,486.407h-25.6v-17.067h25.6V486.407z
				 M262.924,452.274H229.16c-2.904-5.141-8.24-8.436-14.137-8.729c-79.177-4.061-142.257-67.712-145.605-146.923
				c-3.348-79.211,54.136-147.957,132.689-158.685c16.805-2.377,29.3-16.757,29.308-33.729v-27.4h25.6v27.4
				c0.008,16.972,12.503,31.352,29.308,33.729c77.236,10.549,134.326,77.276,132.795,155.215
				c-1.531,77.938-61.196,142.373-138.787,149.881C273.532,443.68,267.27,447.005,262.924,452.274z M495.948,469.341
				c-0.015,14.132-11.468,25.585-25.6,25.6H282.615c-4.711-0.005-8.529-3.822-8.533-8.533V468.47
				c0.045-4.432,3.465-8.096,7.883-8.446c86.216-8.337,152.516-79.933,154.217-166.534c1.701-86.602-61.737-160.745-147.559-172.461
				c-8.359-1.205-14.558-8.375-14.542-16.821v-78.6c0.005-4.711,3.822-8.529,8.533-8.533h187.733
				c14.132,0.015,25.585,11.468,25.6,25.6V469.341z"/>
			<path d="M461.815,34.141h-153.6c-9.421,0.011-17.056,7.645-17.067,17.067v34.133c0.011,9.421,7.645,17.056,17.067,17.067h153.6
				c9.421-0.011,17.056-7.646,17.067-17.067V51.207C478.87,41.786,471.236,34.151,461.815,34.141z M308.215,85.341V51.207h153.6
				l0.008,34.133H308.215z"/>
		</g>
	</g>
</g>
<g>
</g>
<g>
</g>
<g>
</g>
<g>
</g>
<g>
</g>
<g>
</g>
<g>
</g>
<g>
</g>
<g>
</g>
<g>
</g>
<g>
</g>
<g>
</g>
<g>
</g>
<g>
</g>
<g>
</g>
</svg>
