<?xml version="1.0" encoding="iso-8859-1"?>
<!-- Generator: Adobe Illustrator 19.0.0, SVG Export Plug-In . SVG Version: 6.00 Build 0)  -->
<svg version="1.1" id="Capa_1" xmlns="http://www.w3.org/2000/svg" xmlns:xlink="http://www.w3.org/1999/xlink" x="0px" y="0px"
	 viewBox="0 0 512 512" style="enable-background:new 0 0 512 512;" xml:space="preserve">
<g>
	<g>
		<g>
			<path d="M219.383,284.075c-3.398-3.219-8.719-3.219-12.117,0c-0.753,0.829-1.359,1.78-1.792,2.813
				c-0.481,1.013-0.714,2.125-0.683,3.246c-0.008,2.267,0.882,4.445,2.475,6.059c0.817,0.771,1.773,1.379,2.817,1.792
				c1.026,0.437,2.127,0.669,3.242,0.683c2.27,0.022,4.453-0.87,6.058-2.475c1.605-1.605,2.497-3.789,2.475-6.058
				c-0.013-1.116-0.245-2.219-0.683-3.246C220.743,285.855,220.137,284.904,219.383,284.075z"/>
			<path d="M107.167,206.25c-0.475-0.324-0.99-0.583-1.533-0.771c-0.51-0.258-1.059-0.43-1.625-0.508
				c-3.988-0.877-8.016,1.3-9.467,5.117c-0.438,1.027-0.67,2.13-0.683,3.246c0.014,2.263,0.9,4.433,2.475,6.059
				c1.636,1.558,3.8,2.441,6.059,2.475c0.542-0.016,1.083-0.073,1.617-0.171c0.566-0.082,1.115-0.255,1.625-0.512
				c0.543-0.188,1.059-0.447,1.533-0.771c0.425-0.338,0.858-0.679,1.283-1.021c3.3-3.365,3.3-8.752,0-12.117
				C108.025,206.933,107.592,206.592,107.167,206.25z"/>
			<path d="M293.367,205.479c-3.178-1.339-6.849-0.63-9.3,1.795c-2.461,2.441-3.201,6.129-1.872,9.331s4.464,5.281,7.931,5.261
				c1.115-0.014,2.216-0.246,3.242-0.683c1.033-0.435,1.985-1.041,2.817-1.792c0.341-0.429,0.683-0.854,1.025-1.279
				c0.321-0.477,0.579-0.994,0.767-1.538c0.247-0.483,0.419-1.002,0.508-1.538c0.104-0.562,0.162-1.132,0.175-1.704
				c-0.033-2.259-0.917-4.422-2.475-6.059C295.353,206.521,294.401,205.914,293.367,205.479z"/>
			<path d="M444.725,331.8L332.4,219.397c1.818-14.544-2.716-29.166-12.444-40.13c-9.728-10.964-23.706-17.207-38.363-17.133h-25.6
				v-17.067c-0.033-10.813-6.868-20.435-17.067-24.028V85.333c0.02-18.843,15.29-34.113,34.133-34.133h17.067
				c14.138,0,25.6-11.462,25.6-25.6S304.264,0,290.125,0H102.392c-14.138,0-25.6,11.461-25.6,25.6s11.461,25.6,25.6,25.6h17.067
				c18.843,0.02,34.113,15.29,34.133,34.133v35.706c-10.199,3.592-17.033,13.214-17.067,24.028v17.067h-25.6
				c-28.277,0-51.2,22.923-51.2,51.2c0,28.277,22.923,51.2,51.2,51.2h25.6v162.133c-14.132,0.015-25.585,11.468-25.6,25.6v8.533
				h-25.6c-14.132,0.015-25.585,11.468-25.6,25.6v17.067c-0.001,2.263,0.898,4.434,2.499,6.035c1.6,1.6,3.771,2.499,6.035,2.499h256
				c2.263,0.001,4.434-0.898,6.035-2.499c1.6-1.6,2.499-3.771,2.499-6.035V486.4c-0.015-14.132-11.468-25.585-25.6-25.6h-25.6
				v-8.533c-0.015-14.132-11.468-25.585-25.6-25.6V264.533h25.6c6.728,0.003,13.39-1.328,19.6-3.916L408.55,367.896
				c6.438,6.512,15.868,9.082,24.72,6.735s15.77-9.25,18.136-18.097C453.772,347.688,451.224,338.252,444.725,331.8z
				 M102.392,34.133c-4.711-0.005-8.529-3.823-8.533-8.533c0.005-4.711,3.822-8.529,8.533-8.533h187.733
				c4.713,0,8.533,3.82,8.533,8.533s-3.821,8.533-8.533,8.533H102.392z M157.513,51.2h77.491
				c-8.457,9.358-13.141,21.52-13.145,34.133v34.133h-51.2V85.333C170.654,72.72,165.97,60.558,157.513,51.2z M153.592,145.067
				c0.005-4.711,3.822-8.529,8.533-8.533h68.267c4.711,0.005,8.529,3.822,8.533,8.533v17.067h-85.333V145.067z M307.192,477.867
				c4.711,0.005,8.529,3.822,8.533,8.533v8.533H76.792V486.4c0.005-4.711,3.822-8.529,8.533-8.533H307.192z M264.525,452.267v8.533
				H127.992v-8.533c0.005-4.711,3.822-8.529,8.533-8.533h119.467C260.703,443.738,264.521,447.556,264.525,452.267z M238.925,332.8
				v93.867h-85.333V332.8H238.925z M153.592,315.733v-51.2h85.333v51.2H153.592z M281.592,247.467H110.925
				c-18.851,0-34.133-15.282-34.133-34.133c0-18.851,15.282-34.133,34.133-34.133h170.667c18.851,0,34.133,15.282,34.133,34.133
				C315.725,232.185,300.443,247.467,281.592,247.467z M432.617,355.904L432.617,355.904c-3.318,3.28-8.663,3.261-11.958-0.042
				L315.925,251.207c4.287-3.862,7.894-8.417,10.671-13.475l106.096,106.173c1.627,1.577,2.539,3.75,2.525,6.016
				C435.202,352.186,434.263,354.348,432.617,355.904z"/>
		</g>
	</g>
</g>
<g>
</g>
<g>
</g>
<g>
</g>
<g>
</g>
<g>
</g>
<g>
</g>
<g>
</g>
<g>
</g>
<g>
</g>
<g>
</g>
<g>
</g>
<g>
</g>
<g>
</g>
<g>
</g>
<g>
</g>
</svg>
