<?xml version="1.0" encoding="iso-8859-1"?>
<!-- Generator: Adobe Illustrator 19.0.0, SVG Export Plug-In . SVG Version: 6.00 Build 0)  -->
<svg version="1.1" id="Capa_1" xmlns="http://www.w3.org/2000/svg" xmlns:xlink="http://www.w3.org/1999/xlink" x="0px" y="0px"
	 viewBox="0 0 512 512" style="enable-background:new 0 0 512 512;" xml:space="preserve">
<g>
	<g>
		<g>
			<path d="M256,0C114.615,0,0,114.615,0,256s114.615,256,256,256s256-114.615,256-256C511.84,114.682,397.318,0.16,256,0z
				 M256,494.933C124.041,494.933,17.067,387.959,17.067,256S124.041,17.067,256,17.067S494.933,124.041,494.933,256
				C494.785,387.898,387.898,494.785,256,494.933z"/>
			<path d="M395.675,233.392L395.675,233.392c-6.651-4.334-14.775-5.789-22.517-4.033c-7.736,1.71-14.479,6.418-18.75,13.092
				l-21.483,33.652V113.233c-0.02-16.487-13.38-29.847-29.867-29.867c-4.436,0.021-8.811,1.039-12.8,2.979v-5.154
				c0-16.495-13.372-29.867-29.867-29.867c-16.495,0-29.867,13.372-29.867,29.867v5.2c-3.985-1.955-8.361-2.984-12.8-3.008
				c-16.521,0.055-29.88,13.471-29.867,29.992v5.179c-3.984-1.958-8.361-2.988-12.8-3.012c-7.918,0.016-15.511,3.15-21.133,8.725
				c-5.618,5.598-8.763,13.211-8.733,21.141v221.525c0.046,42.396,34.404,76.754,76.8,76.8h32.667
				c26.225,0.065,50.652-13.316,64.717-35.45l85.433-133.708C413.653,260.68,409.565,242.245,395.675,233.392z M390.417,265.4
				L390.417,265.4l-85.426,133.701c-10.943,17.21-29.939,27.614-50.333,27.566h-32.667c-32.973-0.04-59.693-26.76-59.733-59.733
				V145.408c-0.018-3.398,1.323-6.663,3.725-9.067c3.692-3.673,9.238-4.749,14.036-2.724c4.798,2.025,7.895,6.749,7.839,11.957
				v85.809c0,4.713,3.821,8.533,8.533,8.533c4.713,0,8.533-3.82,8.533-8.533V113.375c-0.044-4.602,2.385-8.875,6.364-11.189
				c3.979-2.314,8.893-2.314,12.872,0c3.979,2.314,6.409,6.586,6.364,11.189v118.008c0,4.713,3.82,8.533,8.533,8.533
				s8.533-3.82,8.533-8.533V81.192c-0.044-4.602,2.385-8.875,6.364-11.189c3.979-2.314,8.893-2.314,12.872,0
				c3.979,2.314,6.409,6.586,6.364,11.189v150.183c0,4.713,3.82,8.533,8.533,8.533s8.533-3.821,8.533-8.533V113.408
				c-0.004-3.457,1.362-6.774,3.8-9.225c2.368-2.417,5.616-3.771,9-3.75c7.066,0.008,12.792,5.734,12.8,12.8v192.091
				c0.043,0.296,0.102,0.589,0.177,0.879c0.055,0.576,0.169,1.144,0.342,1.696c0.5,1.588,1.474,2.986,2.79,4.006
				c0.234,0.188,0.375,0.446,0.633,0.61c0.2,0.127,0.431,0.137,0.637,0.246c1.022,0.499,2.121,0.822,3.251,0.954
				c0.244,0.021,0.454,0.142,0.704,0.142c0.303-0.043,0.603-0.104,0.898-0.181c0.561-0.055,1.115-0.166,1.653-0.333
				c1.019-0.331,1.968-0.847,2.799-1.522c0.456-0.38,0.871-0.809,1.235-1.278c0.185-0.231,0.442-0.371,0.606-0.627l37.183-58.242
				c3.803-5.947,11.699-7.7,17.661-3.92S394.174,259.423,390.417,265.4z"/>
		</g>
	</g>
</g>
<g>
</g>
<g>
</g>
<g>
</g>
<g>
</g>
<g>
</g>
<g>
</g>
<g>
</g>
<g>
</g>
<g>
</g>
<g>
</g>
<g>
</g>
<g>
</g>
<g>
</g>
<g>
</g>
<g>
</g>
</svg>
