<?xml version="1.0" encoding="iso-8859-1"?>
<!-- Generator: Adobe Illustrator 19.0.0, SVG Export Plug-In . SVG Version: 6.00 Build 0)  -->
<svg version="1.1" id="Capa_1" xmlns="http://www.w3.org/2000/svg" xmlns:xlink="http://www.w3.org/1999/xlink" x="0px" y="0px"
	 viewBox="0 0 512.012 512.012" style="enable-background:new 0 0 512.012 512.012;" xml:space="preserve">
<g transform="translate(-1)">
	<g>
		<g>
			<path d="M492.158,154.658C451.727,60.744,359.254-0.073,257.006,0.006C154.758-0.073,62.285,60.744,21.854,154.658
				S0.801,357.543,71.132,431.76c0.52,0.766,1.164,1.442,1.905,1.998c25.093,25.987,55.386,46.388,88.901,59.869
				c0.207,0.106,0.415,0.161,0.629,0.249c60.639,24.174,128.239,24.174,188.878,0c0.214-0.087,0.422-0.143,0.629-0.249
				c33.515-13.481,63.808-33.882,88.901-59.869c0.741-0.556,1.384-1.231,1.905-1.998
				C513.211,357.543,532.589,248.573,492.158,154.658z M146.441,467.717c-19.705-10.342-37.876-23.373-53.991-38.721
				c11.139-6.075,23.067-10.575,35.443-13.373c4.315-0.766,8.558-1.897,12.681-3.381
				C138.759,430.94,140.755,449.812,146.441,467.717L146.441,467.717z M342.795,478.948c-55.205,21.322-116.373,21.322-171.578,0
				c-18.318-25.232-14.158-63.999-12.456-75.181c2.92-1.653,5.615-3.31,8.086-4.925v12.539c0,4.713,3.82,8.533,8.533,8.533
				s8.533-3.82,8.533-8.533v-37.141c4.281,5.316,7.873,10.486,11.2,15.316c10.75,15.617,20.904,30.358,45.567,30.358h32.65
				c24.663,0,34.817-14.742,45.567-30.358c3.327-4.829,6.919-10,11.2-15.316v37.141c0,4.713,3.821,8.533,8.533,8.533
				s8.533-3.82,8.533-8.533v-12.537c2.472,1.616,5.168,3.272,8.086,4.923C356.953,414.949,361.113,453.716,342.795,478.948z
				 M354.726,273.593l-49.721,6.216l55.805-55.805c-0.905,6.301-1.917,11.63-2.866,16.578v0c-2.098,9.348-3.225,18.887-3.362,28.467
				C354.581,270.598,354.689,272.067,354.726,273.593z M291.82,268.858l-5.535-13.835c-3.864-9.736-13.292-16.117-23.767-16.083
				h-11.025c-10.478-0.032-19.908,6.351-23.771,16.092l-5.531,13.827l-70.086-70.085c-0.398-0.322-0.825-0.606-1.276-0.848
				c-0.583-12.824-0.595-28.855,0.43-49.861c3.646-74.85,94.096-79.633,97.583-79.792l15.967-0.009
				c3.846,0.167,94.296,4.95,97.942,79.8c1.026,21.005,1.013,37.036,0.43,49.86c-0.451,0.242-0.879,0.526-1.276,0.848
				L291.82,268.858z M209.008,279.808l-49.721-6.217c0.037-1.526,0.144-2.994,0.144-4.544c-0.138-9.579-1.264-19.119-3.362-28.467
				c-0.95-4.948-1.961-10.277-2.866-16.578L209.008,279.808z M158.665,290.712l50.083,6.26c11.554,1.454,22.63-5.083,26.942-15.9
				l7.879-19.7c1.288-3.247,4.431-5.376,7.925-5.367h11.025c3.49-0.011,6.632,2.115,7.921,5.358l7.883,19.708
				c4.321,10.811,15.393,17.344,26.946,15.9l50.079-6.26c2.828,21.218-5.68,42.364-22.416,55.71c-0.106,0.096-0.184,0.19-0.29,0.285
				l-0.071,0.069c-10.565,9.857-19.878,20.975-27.731,33.104c-10.967,15.925-16.45,22.967-31.508,22.967h-32.65
				c-15.058,0-20.542-7.042-31.508-22.967c-7.853-12.129-17.166-23.247-27.731-33.104l-0.071-0.069
				c-0.106-0.096-0.184-0.19-0.29-0.285C164.345,333.077,155.837,311.93,158.665,290.712z M367.57,467.717
				c5.686-17.905,7.682-36.778,5.867-55.476c4.129,1.487,8.377,2.621,12.698,3.391c12.37,2.794,24.293,7.292,35.427,13.365
				C405.446,444.343,387.275,457.375,367.57,467.717z M434.059,416.273c-14.065-8.028-29.248-13.915-45.049-17.467
				c-7.639-1.505-14.998-4.184-21.817-7.942c-7.04-3.724-13.742-8.056-20.029-12.945v-21.499
				c25.881-24.805,26.106-47.777,25.088-69.998c16.199-10.255,27.385-26.804,30.862-45.658c3.475-29.075,0.321-46.108-9.383-50.625
				c-4.146-1.945-8.888-2.196-13.217-0.698c0.26-11.644,0.105-25.45-0.713-42.21c-4.408-90.467-113.187-95.975-114.633-96.025
				l-16.675,0.009c-1.096,0.042-109.875,5.55-114.283,96.017c-0.817,16.764-0.973,30.572-0.713,42.218
				c-4.33-1.497-9.073-1.246-13.221,0.699c-9.7,4.508-12.854,21.542-9.338,50.9c3.533,18.745,14.697,35.18,30.821,45.373
				c-1.018,22.222-0.794,45.194,25.088,70v21.504c-6.301,4.899-13.018,9.237-20.075,12.964c-6.801,3.743-14.139,6.413-21.754,7.917
				c-15.807,3.55-30.996,9.437-45.066,17.467C16.492,346.27,0.272,245.432,38.58,159.06
				C76.888,72.687,162.519,17.023,257.006,17.073c94.487-0.05,180.118,55.615,218.426,141.987S497.52,346.27,434.059,416.273z
				 M371.779,265.369c0.41-7.255,1.387-14.468,2.922-21.571c2.223-10.906,3.805-21.932,4.738-33.023
				c1.653-2.194,3.811-3.956,6.292-5.135c1.954,10.825,2.116,21.898,0.479,32.775C384.136,248.616,379.12,257.987,371.779,265.369z
				 M142.233,265.371c-7.275-7.299-12.272-16.554-14.385-26.64c-1.677-10.977-1.532-22.154,0.429-33.084
				c2.492,1.164,4.655,2.929,6.296,5.135c0.933,11.088,2.515,22.112,4.737,33.015l0,0
				C140.845,250.902,141.823,258.115,142.233,265.371z"/>
			<path d="M239.948,315.74c1.322-0.002,2.625-0.31,3.808-0.9l13.252-6.626l13.252,6.626c4.213,2.09,9.323,0.378,11.426-3.829
				c2.103-4.206,0.407-9.321-3.792-11.438l-17.067-8.533c-0.183-0.092-0.381-0.076-0.566-0.153c-2.097-0.789-4.409-0.789-6.505,0
				c-0.185,0.077-0.383,0.061-0.566,0.153l-17.067,8.533c-3.542,1.77-5.401,5.744-4.49,9.598
				C232.545,313.024,235.988,315.744,239.948,315.74z"/>
			<path d="M233.881,355.932c0.829,0.753,1.78,1.359,2.813,1.792c2.067,0.911,4.421,0.911,6.487,0
				c1.034-0.433,1.987-1.039,2.817-1.792c0.749-0.85,1.379-1.798,1.875-2.817c0.413-1.03,0.617-2.132,0.6-3.242
				c0.029-1.119-0.205-2.229-0.683-3.242c-0.433-1.034-1.039-1.986-1.792-2.817c-3.421-3.158-8.695-3.158-12.117,0
				c-0.755,0.829-1.363,1.782-1.796,2.817c-0.906,2.066-0.906,4.417,0,6.483C232.52,354.148,233.127,355.101,233.881,355.932z"/>
			<path d="M244.719,368.389c-0.475-0.325-0.992-0.582-1.538-0.767c-0.485-0.246-1.003-0.42-1.537-0.517
				c-1.664-0.348-3.394-0.167-4.95,0.517c-1.044,0.412-1.998,1.02-2.813,1.792c-1.559,1.635-2.443,3.799-2.475,6.058
				c-0.023,2.27,0.869,4.454,2.475,6.059c0.829,0.753,1.78,1.359,2.813,1.791c2.624,1.125,5.639,0.848,8.015-0.735
				s3.792-4.26,3.764-7.115c-0.033-2.259-0.917-4.422-2.475-6.059C245.569,369.073,245.144,368.731,244.719,368.389z"/>
			<path d="M280.131,343.814c-2.044-2.014-4.955-2.879-7.767-2.308c-0.535,0.096-1.053,0.271-1.538,0.517
				c-0.543,0.185-1.059,0.443-1.533,0.767c-0.447,0.315-0.875,0.657-1.28,1.025c-0.755,0.829-1.363,1.782-1.796,2.817
				c-0.906,2.066-0.906,4.417,0,6.483c0.78,2.141,2.467,3.828,4.608,4.608c2.067,0.911,4.421,0.911,6.487,0
				c1.034-0.433,1.987-1.039,2.817-1.792c0.751-0.832,1.357-1.784,1.792-2.817c0.911-2.065,0.911-4.418,0-6.483
				C281.509,345.586,280.902,344.631,280.131,343.814z"/>
			<path d="M270.827,367.623c-1.033,0.433-1.984,1.039-2.813,1.792c-1.559,1.635-2.443,3.799-2.475,6.058
				c-0.023,2.27,0.869,4.454,2.475,6.059c0.829,0.753,1.78,1.359,2.813,1.792c2.067,0.911,4.421,0.911,6.487,0
				c1.034-0.433,1.987-1.039,2.817-1.792c1.604-1.606,2.496-3.789,2.475-6.059c-0.033-2.259-0.917-4.422-2.475-6.059
				C277.678,366.989,274.005,366.282,270.827,367.623z"/>
		</g>
	</g>
</g>
<g>
</g>
<g>
</g>
<g>
</g>
<g>
</g>
<g>
</g>
<g>
</g>
<g>
</g>
<g>
</g>
<g>
</g>
<g>
</g>
<g>
</g>
<g>
</g>
<g>
</g>
<g>
</g>
<g>
</g>
</svg>
