<?xml version="1.0" encoding="iso-8859-1"?>
<!-- Generator: Adobe Illustrator 19.0.0, SVG Export Plug-In . SVG Version: 6.00 Build 0)  -->
<svg version="1.1" id="Capa_1" xmlns="http://www.w3.org/2000/svg" xmlns:xlink="http://www.w3.org/1999/xlink" x="0px" y="0px"
	 viewBox="0 0 512 512" style="enable-background:new 0 0 512 512;" xml:space="preserve">
<g>
	<g>
		<g>
			<path d="M154.317,69.442c-5.858-0.531-11.815-0.815-17.784-0.985V51.2c0.001-2.264-0.897-4.435-2.498-6.035
				c-1.601-1.601-3.772-2.499-6.035-2.498H93.867c-2.264-0.001-4.435,0.897-6.035,2.498s-2.499,3.772-2.498,6.035v17.067H76.8
				c-14.132,0.015-25.585,11.468-25.6,25.6v8.533c0.015,14.132,11.468,25.585,25.6,25.6h8.533v221.867h-25.6
				c-2.264-0.001-4.435,0.897-6.035,2.498c-1.601,1.601-2.499,3.772-2.498,6.035v8.533H8.533c-2.264-0.001-4.435,0.897-6.035,2.498
				c-1.601,1.601-2.499,3.772-2.498,6.035v68.267c-0.001,2.264,0.897,4.435,2.498,6.035c1.601,1.601,3.772,2.499,6.035,2.498H51.2
				v8.533c-0.001,2.264,0.897,4.435,2.498,6.035c1.601,1.601,3.772,2.499,6.035,2.498h34.133c2.264,0.001,4.435-0.897,6.035-2.498
				s2.499-3.772,2.498-6.035v-51.2H128c2.264,0.001,4.435-0.897,6.035-2.498c1.601-1.601,2.499-3.772,2.498-6.035V85.525
				c5.456,0.167,10.898,0.434,16.25,0.917c0.258,0.025,0.517,0.033,0.775,0.033c4.562-0.005,8.314-3.597,8.517-8.154
				S158.86,69.852,154.317,69.442z M51.2,435.2H17.067V384H51.2V435.2z M85.333,452.267H68.267v-85.333h17.067V452.267z
				 M85.333,110.933H76.8c-4.711-0.003-8.53-3.822-8.533-8.533v-8.533c0.003-4.711,3.822-8.53,8.533-8.533h8.533V110.933z
				 M119.467,392.533H102.4v-332.8h17.067V392.533z"/>
			<path d="M509.502,369.431c-1.601-1.601-3.772-2.499-6.035-2.498h-51.2V358.4c0.001-2.264-0.897-4.435-2.498-6.035
				s-3.772-2.499-6.035-2.498h-25.781c-0.16-5.528-0.418-11.057-0.885-16.525c-0.4-4.694-4.531-8.175-9.225-7.775
				c-4.694,0.4-8.175,4.531-7.775,9.225c0.667,7.8,1,15.75,1,23.608v102.4c-0.001,2.264,0.897,4.435,2.498,6.035
				s3.772,2.499,6.035,2.498h34.133c2.264,0.001,4.435-0.897,6.035-2.498s2.499-3.772,2.498-6.035v-8.533h51.2
				c2.264,0.001,4.435-0.897,6.035-2.498c1.601-1.601,2.499-3.772,2.498-6.035v-68.267
				C512.001,373.203,511.103,371.032,509.502,369.431z M435.2,452.267h-17.067v-85.333H435.2V452.267z M494.933,435.2h-42.667V384
				h42.667V435.2z"/>
			<path d="M270.933,105.858c-7.658-4.342-15.567-8.367-23.508-11.95c-4.294-1.942-9.349-0.036-11.292,4.258
				c-1.942,4.294-0.036,9.349,4.258,11.292c7.475,3.375,14.916,7.158,22.125,11.25c4.101,2.324,9.309,0.884,11.633-3.217
				C276.474,113.391,275.034,108.183,270.933,105.858z"/>
			<path d="M214.558,81.4c-8.392-2.609-16.967-4.867-25.492-6.692c-4.607-0.99-9.144,1.943-10.133,6.55s1.943,9.144,6.55,10.133
				c8.025,1.725,16.1,3.842,23.992,6.308c0.824,0.253,1.68,0.382,2.542,0.383c4.218,0.001,7.805-3.079,8.44-7.249
				S218.586,82.655,214.558,81.4z"/>
			<path d="M345.642,166.525c-3.122-3.532-8.514-3.867-12.05-0.75c-3.532,3.122-3.868,8.514-0.75,12.05
				c5.483,6.208,10.717,12.708,15.558,19.325c1.799,2.466,4.778,3.783,7.812,3.454c3.034-0.329,5.662-2.253,6.891-5.047
				s0.872-6.031-0.936-8.49C357.025,180.042,351.467,173.133,345.642,166.525z"/>
			<path d="M409.341,306.735c2.277-2.055,3.276-5.173,2.617-8.168c-1.808-8.608-4.025-17.2-6.583-25.525
				c-1.385-4.506-6.161-7.035-10.667-5.65c-4.506,1.385-7.035,6.161-5.65,10.667c2.409,7.833,4.492,15.917,6.2,24.025
				c0.605,3.006,2.777,5.457,5.689,6.419C403.86,309.464,407.064,308.789,409.341,306.735z"/>
			<path d="M392.165,248.651c1.789-2.474,2.12-5.716,0.868-8.501c-3.608-8.05-7.592-15.967-11.85-23.558
				c-1.491-2.665-4.293-4.33-7.346-4.367s-5.894,1.56-7.45,4.188c-1.556,2.628-1.589,5.887-0.087,8.546
				c4.008,7.133,7.767,14.592,11.15,22.158c1.24,2.79,3.877,4.705,6.914,5.022C387.401,252.455,390.376,251.125,392.165,248.651z"/>
			<path d="M320.858,141.642c-6.542-5.825-13.425-11.417-20.467-16.625c-1.818-1.349-4.098-1.92-6.337-1.585
				c-2.239,0.334-4.253,1.546-5.597,3.368c-1.348,1.818-1.918,4.098-1.583,6.337s1.546,4.252,3.367,5.597
				c6.625,4.908,13.108,10.175,19.267,15.659c3.523,3.118,8.904,2.797,12.032-0.716S324.363,144.78,320.858,141.642z"/>
		</g>
	</g>
</g>
<g>
</g>
<g>
</g>
<g>
</g>
<g>
</g>
<g>
</g>
<g>
</g>
<g>
</g>
<g>
</g>
<g>
</g>
<g>
</g>
<g>
</g>
<g>
</g>
<g>
</g>
<g>
</g>
<g>
</g>
</svg>
