<?xml version="1.0" encoding="iso-8859-1"?>
<!-- Generator: Adobe Illustrator 19.0.0, SVG Export Plug-In . SVG Version: 6.00 Build 0)  -->
<svg version="1.1" id="Capa_1" xmlns="http://www.w3.org/2000/svg" xmlns:xlink="http://www.w3.org/1999/xlink" x="0px" y="0px"
	 viewBox="0 0 512 512" style="enable-background:new 0 0 512 512;" xml:space="preserve">
<g>
	<g>
		<g>
			<path d="M494.933,187.615c9.421-0.012,17.054-7.646,17.067-17.067v-51.2c-0.012-9.421-7.646-17.054-17.067-17.067h-17.067V59.615
				c-0.001-1.685-0.499-3.331-1.434-4.733L442.3,3.681c-1.672-2.242-4.304-3.563-7.1-3.563s-5.428,1.321-7.1,3.563l-34.133,51.2
				c-0.934,1.402-1.433,3.049-1.433,4.733v42.667H358.4V59.615c-0.001-1.685-0.499-3.331-1.434-4.733l-34.133-51.2
				c-1.672-2.242-4.304-3.563-7.1-3.563s-5.428,1.321-7.1,3.563l-34.133,51.2c-0.934,1.402-1.433,3.049-1.433,4.733v42.667h-34.133
				V59.615c-0.001-1.685-0.499-3.331-1.434-4.733l-34.133-51.2c-1.672-2.242-4.304-3.563-7.1-3.563s-5.428,1.321-7.1,3.563
				l-34.133,51.2c-0.934,1.402-1.433,3.049-1.433,4.733v42.667h-34.133V59.615c-0.001-1.685-0.499-3.331-1.434-4.733L83.9,3.681
				c-1.672-2.242-4.304-3.563-7.1-3.563s-5.428,1.321-7.1,3.563l-34.133,51.2c-0.934,1.402-1.433,3.049-1.433,4.733v42.667H17.067
				C7.646,102.294,0.012,109.927,0,119.348v51.2c0.012,9.421,7.646,17.054,17.067,17.067h17.067v213.333H17.067
				C7.646,400.96,0.012,408.594,0,418.015v51.2c0.012,9.421,7.646,17.054,17.067,17.067h17.067v8.533
				c0.012,9.421,7.646,17.054,17.067,17.067h51.2c9.421-0.012,17.054-7.646,17.067-17.067v-8.533H153.6v8.533
				c0.012,9.421,7.646,17.054,17.067,17.067h51.2c9.421-0.012,17.054-7.646,17.067-17.067v-8.533h34.133v8.533
				c0.012,9.421,7.646,17.054,17.067,17.067h51.2c9.421-0.012,17.054-7.646,17.067-17.067v-8.533h34.133v8.533
				c0.012,9.421,7.646,17.054,17.067,17.067h51.2c9.421-0.012,17.054-7.646,17.067-17.067v-8.533h17.067
				c9.421-0.012,17.054-7.646,17.067-17.067v-51.2c-0.012-9.421-7.646-17.054-17.067-17.067h-17.067V187.615H494.933z
				 M477.867,119.339l17.067-0.009v51.217h-17.067V119.339z M34.133,469.215H17.067l-0.017-51.2h17.084V469.215z M34.133,170.548
				H17.067l-0.017-51.2h17.084V170.548z M102.4,494.815H51.2V62.198l25.6-38.4l25.6,38.4V494.815z M153.6,469.215h-34.133v-51.2
				H153.6V469.215z M153.6,400.948h-34.133V187.615H153.6V400.948z M153.6,170.548h-34.133v-51.2H153.6V170.548z M221.867,494.815
				h-51.2V62.198l25.6-38.4l25.6,38.4V494.815z M273.067,469.215h-34.133v-51.2h34.133V469.215z M273.067,400.948h-34.133V187.615
				h34.133V400.948z M273.067,170.548h-34.133v-51.2h34.133V170.548z M341.333,494.815h-51.2V62.198l25.6-38.4l25.6,38.4V494.815z
				 M392.533,469.215H358.4v-51.2h34.133V469.215z M392.533,400.948H358.4V187.615h34.133V400.948z M392.533,170.548H358.4v-51.2
				h34.133V170.548z M460.8,494.815h-51.2V62.198l25.6-38.4l25.6,38.4V494.815z M494.933,417.998v51.217h-17.067v-51.209
				L494.933,417.998z"/>
			<path d="M70.741,121.823c-0.754,0.829-1.36,1.782-1.792,2.817c-0.48,1.012-0.714,2.123-0.683,3.242
				c-0.023,2.27,0.869,4.454,2.475,6.059c0.829,0.754,1.782,1.36,2.817,1.792c3.175,1.362,6.859,0.653,9.302-1.79
				s3.152-6.127,1.79-9.302c-0.431-1.035-1.037-1.988-1.791-2.818c-0.425-0.341-0.858-0.683-1.367-1.025
				c-0.434-0.339-0.925-0.599-1.45-0.767c-0.51-0.259-1.059-0.433-1.625-0.517C75.634,118.97,72.762,119.834,70.741,121.823z"/>
			<path d="M81.575,154.931c-0.474-0.324-0.99-0.582-1.533-0.767c-0.484-0.245-1-0.419-1.533-0.517
				c-2.812-0.571-5.724,0.294-7.767,2.308c-1.576,1.625-2.462,3.795-2.475,6.059c-0.023,2.27,0.869,4.454,2.475,6.059
				c0.816,0.772,1.772,1.38,2.817,1.792c2.624,1.124,5.638,0.847,8.013-0.737c2.375-1.584,3.79-4.259,3.762-7.114
				c-0.016-2.262-0.902-4.432-2.475-6.059C82.433,155.615,82,155.273,81.575,154.931z"/>
			<path d="M73.558,434.399c2.065,0.911,4.418,0.911,6.483,0c1.034-0.434,1.986-1.039,2.817-1.792
				c2.444-2.441,3.154-6.125,1.792-9.3c-0.432-1.035-1.038-1.988-1.792-2.817c-0.407-0.367-0.836-0.709-1.283-1.025
				c-0.474-0.324-0.99-0.582-1.533-0.767c-0.484-0.245-1-0.419-1.533-0.517c-1.125-0.25-2.292-0.25-3.417,0
				c-0.534,0.096-1.05,0.271-1.533,0.517c-0.546,0.184-1.065,0.442-1.542,0.767c-0.445,0.316-0.871,0.658-1.276,1.025
				c-0.754,0.829-1.36,1.782-1.792,2.817c-0.48,1.012-0.714,2.123-0.683,3.242c-0.023,2.27,0.869,4.454,2.475,6.059
				C71.571,433.361,72.523,433.967,73.558,434.399z"/>
			<path d="M81.575,453.598c-0.474-0.324-0.99-0.582-1.533-0.767c-0.484-0.245-1-0.419-1.533-0.517c-1.125-0.25-2.292-0.25-3.417,0
				c-0.534,0.096-1.05,0.271-1.533,0.517c-0.546,0.184-1.065,0.442-1.542,0.767c-0.445,0.316-0.871,0.658-1.275,1.025
				c-1.594,1.613-2.484,3.791-2.475,6.059c0.008,2.264,0.895,4.436,2.475,6.059c0.829,0.754,1.782,1.36,2.817,1.792
				c2.065,0.911,4.418,0.911,6.483,0c1.034-0.434,1.986-1.04,2.817-1.792c1.576-1.624,2.463-3.795,2.475-6.059
				c-0.033-2.259-0.917-4.422-2.475-6.059C82.451,454.256,82.023,453.914,81.575,453.598z"/>
			<path d="M193.025,120.031c-0.546,0.184-1.065,0.442-1.542,0.767l-1.276,1.025c-0.754,0.829-1.36,1.782-1.792,2.817
				c-0.437,1.026-0.669,2.127-0.683,3.242c-0.023,2.27,0.869,4.454,2.475,6.059c0.816,0.772,1.772,1.38,2.817,1.792
				c3.175,1.362,6.859,0.653,9.302-1.79c2.443-2.443,3.152-6.127,1.79-9.302c-0.431-1.035-1.037-1.988-1.791-2.818
				c-2.044-2.013-4.955-2.878-7.767-2.308C194.025,119.611,193.508,119.785,193.025,120.031z"/>
			<path d="M199.539,154.084c-3.202-1.329-6.89-0.59-9.331,1.872l-1.025,1.275c-0.325,0.477-0.583,0.995-0.767,1.542
				c-0.246,0.483-0.42,1-0.517,1.533c-0.097,0.565-0.152,1.136-0.166,1.709c0,4.713,3.82,8.533,8.533,8.533s8.533-3.82,8.533-8.533
				C204.82,158.548,202.741,155.413,199.539,154.084z"/>
			<path d="M193.025,434.399c2.065,0.911,4.418,0.911,6.483,0c1.034-0.434,1.986-1.04,2.817-1.792
				c1.603-1.607,2.494-3.789,2.475-6.059c-0.033-2.259-0.917-4.422-2.475-6.059c-0.419-0.387-0.878-0.731-1.367-1.025
				c-0.434-0.339-0.925-0.599-1.45-0.767c-0.51-0.259-1.059-0.433-1.625-0.517c-2.783-0.558-5.661,0.308-7.675,2.308
				c-0.772,0.816-1.38,1.772-1.792,2.817c-0.437,1.026-0.669,2.127-0.683,3.242c-0.023,2.27,0.869,4.454,2.475,6.059
				C191.037,433.361,191.99,433.967,193.025,434.399z"/>
			<path d="M202.325,454.623c-0.419-0.388-0.877-0.731-1.367-1.025c-0.434-0.339-0.925-0.599-1.45-0.767
				c-0.51-0.259-1.059-0.433-1.625-0.517c-1.633-0.343-3.334-0.162-4.858,0.517c-2.143,0.777-3.831,2.465-4.608,4.608
				c-0.911,2.065-0.911,4.418,0,6.483c0.434,1.034,1.04,1.986,1.792,2.817c3.365,3.3,8.752,3.3,12.117,0
				c0.752-0.831,1.358-1.783,1.792-2.817c0.911-2.065,0.911-4.418,0-6.483C203.706,456.394,203.098,455.438,202.325,454.623z"/>
			<path d="M309.675,121.823c-0.754,0.829-1.36,1.782-1.792,2.817c-0.48,1.012-0.714,2.123-0.683,3.242
				c-0.023,2.27,0.869,4.454,2.475,6.059c0.829,0.754,1.782,1.36,2.817,1.792c3.175,1.362,6.859,0.653,9.302-1.79
				c2.443-2.443,3.152-6.127,1.79-9.302c-0.431-1.035-1.037-1.988-1.791-2.818c-0.425-0.341-0.858-0.683-1.367-1.025
				c-0.434-0.339-0.925-0.599-1.45-0.767c-0.51-0.259-1.059-0.433-1.625-0.517C314.567,118.957,311.689,119.822,309.675,121.823z"/>
			<path d="M320.508,154.931c-0.474-0.324-0.99-0.582-1.533-0.767c-0.484-0.245-1-0.419-1.533-0.517
				c-2.812-0.571-5.724,0.294-7.767,2.308c-1.576,1.625-2.462,3.795-2.475,6.059c0,4.713,3.82,8.533,8.533,8.533
				s8.533-3.82,8.533-8.533c-0.016-2.262-0.902-4.432-2.475-6.059C321.367,155.615,320.933,155.273,320.508,154.931z"/>
			<path d="M321.792,420.489c-3.421-3.158-8.695-3.158-12.117,0c-0.754,0.829-1.36,1.782-1.792,2.817
				c-0.438,1.026-0.67,2.127-0.683,3.242c-0.022,2.27,0.87,4.453,2.475,6.058c1.605,1.605,3.789,2.497,6.058,2.475
				c1.115-0.014,2.216-0.246,3.242-0.683c1.034-0.434,1.986-1.04,2.817-1.792c2.444-2.441,3.154-6.125,1.792-9.3
				C323.152,422.271,322.546,421.319,321.792,420.489z"/>
			<path d="M321.792,454.623c-0.831-0.752-1.783-1.358-2.817-1.792c-1.556-0.684-3.286-0.865-4.95-0.517
				c-0.534,0.096-1.05,0.271-1.533,0.517c-0.546,0.184-1.065,0.442-1.542,0.767c-0.445,0.316-0.871,0.659-1.276,1.025
				c-0.772,0.816-1.38,1.772-1.792,2.817c-0.48,1.012-0.714,2.123-0.683,3.242c-0.018,1.109,0.183,2.21,0.592,3.242
				c0.5,1.018,1.133,1.966,1.883,2.817c2.441,2.444,6.125,3.154,9.3,1.792c1.034-0.434,1.986-1.04,2.817-1.792
				c2.444-2.441,3.154-6.125,1.792-9.3C323.172,456.395,322.564,455.439,321.792,454.623z"/>
			<path d="M431.959,120.031c-0.546,0.184-1.065,0.442-1.542,0.767l-1.276,1.025c-0.754,0.829-1.36,1.782-1.792,2.817
				c-0.437,1.026-0.669,2.127-0.683,3.242c0,4.713,3.82,8.533,8.533,8.533s8.533-3.82,8.533-8.533
				c-0.014-1.115-0.246-2.216-0.683-3.242c-0.431-1.035-1.037-1.987-1.791-2.817c-2.05-2.002-4.956-2.866-7.767-2.308
				C432.958,119.611,432.442,119.785,431.959,120.031z"/>
			<path d="M438.472,154.084c-3.202-1.329-6.89-0.59-9.331,1.872l-1.025,1.275c-0.325,0.477-0.583,0.995-0.767,1.542
				c-0.246,0.483-0.42,1-0.517,1.533c-0.097,0.565-0.152,1.136-0.166,1.709c-0.023,2.27,0.869,4.454,2.475,6.059
				c0.829,0.754,1.782,1.36,2.817,1.792c2.624,1.124,5.638,0.847,8.014-0.737s3.79-4.259,3.762-7.114
				C443.753,158.548,441.674,155.413,438.472,154.084z"/>
			<path d="M431.958,434.399c2.065,0.911,4.418,0.911,6.483,0c1.034-0.434,1.986-1.04,2.817-1.792
				c2.444-2.441,3.154-6.125,1.792-9.3c-0.431-1.035-1.037-1.988-1.791-2.817c-0.407-0.367-0.836-0.709-1.283-1.025
				c-0.474-0.324-0.99-0.582-1.533-0.767c-0.51-0.259-1.059-0.433-1.625-0.517c-1.094-0.25-2.231-0.25-3.325,0
				c-0.534,0.096-1.05,0.271-1.533,0.517c-0.546,0.184-1.065,0.442-1.542,0.767c-0.445,0.316-0.871,0.658-1.276,1.025
				c-0.754,0.829-1.36,1.782-1.792,2.817c-0.48,1.012-0.714,2.123-0.683,3.242c-0.023,2.27,0.869,4.454,2.475,6.059
				C429.971,433.361,430.923,433.967,431.958,434.399z"/>
			<path d="M441.259,454.623c-0.419-0.388-0.877-0.731-1.367-1.025c-0.434-0.339-0.925-0.599-1.45-0.767
				c-0.51-0.259-1.059-0.433-1.625-0.517c-1.633-0.343-3.334-0.162-4.858,0.517c-2.143,0.777-3.831,2.465-4.608,4.608
				c-0.438,1.026-0.67,2.127-0.684,3.242c-0.023,2.27,0.869,4.454,2.475,6.059c0.816,0.772,1.772,1.38,2.817,1.792
				c2.065,0.911,4.418,0.911,6.483,0c2.143-0.777,3.831-2.465,4.608-4.608c0.911-2.065,0.911-4.418,0-6.483
				C442.638,456.395,442.03,455.439,441.259,454.623z"/>
		</g>
	</g>
</g>
<g>
</g>
<g>
</g>
<g>
</g>
<g>
</g>
<g>
</g>
<g>
</g>
<g>
</g>
<g>
</g>
<g>
</g>
<g>
</g>
<g>
</g>
<g>
</g>
<g>
</g>
<g>
</g>
<g>
</g>
</svg>
