<?xml version="1.0" encoding="iso-8859-1"?>
<!-- Generator: Adobe Illustrator 19.0.0, SVG Export Plug-In . SVG Version: 6.00 Build 0)  -->
<svg version="1.1" id="Capa_1" xmlns="http://www.w3.org/2000/svg" xmlns:xlink="http://www.w3.org/1999/xlink" x="0px" y="0px"
	 viewBox="0 0 512 512" style="enable-background:new 0 0 512 512;" xml:space="preserve">
<g>
	<g>
		<g>
			<path d="M418.133,460.8H409.6V8.533c-0.003-1.118-0.227-2.225-0.657-3.258c-1.324-3.184-4.428-5.263-7.876-5.276H110.933
				c-4.706,0.018-8.516,3.828-8.533,8.533V460.8h-8.533c-9.421,0.012-17.054,7.646-17.067,17.067v25.6
				c-0.001,2.264,0.897,4.435,2.498,6.035s3.772,2.499,6.035,2.498h341.333c2.264,0.001,4.435-0.897,6.035-2.498
				c1.601-1.601,2.499-3.772,2.498-6.035v-25.6C435.188,468.446,427.554,460.812,418.133,460.8z M380.467,230.4L363.4,247.467H148.6
				L131.533,230.4H380.467z M153.6,213.333V51.2h93.867v162.133H153.6z M264.533,213.333V51.2H358.4v162.133H264.533z
				 M358.4,264.533v162.133h-93.867V264.533H358.4z M247.467,264.533v162.133H153.6V264.533H247.467z M363.4,443.733l17.067,17.067
				H131.533l17.067-17.067H363.4z M375.467,431.667V259.533l17.067-17.067v206.267L375.467,431.667z M375.467,213.333V46.2
				l17.067-17.067v184.2H375.467z M380.467,17.067L363.4,34.133H148.6l-17.067-17.067H380.467z M119.467,29.133L136.533,46.2
				v167.133h-17.067V29.133z M119.467,242.467l17.067,17.067v172.133l-17.067,17.067V242.467z M418.133,494.933H93.867v-17.067
				h324.267V494.933z"/>
			<path d="M179.2,93.867c2.264,0.003,4.435-0.897,6.033-2.5l8.533-8.533c3.281-3.341,3.256-8.701-0.054-12.012
				s-8.671-3.335-12.012-0.054l-8.533,8.533c-2.44,2.44-3.169,6.11-1.849,9.298C172.638,91.787,175.749,93.866,179.2,93.867z"/>
			<path d="M221.866,76.8c-2.263,0-4.433,0.899-6.033,2.5l-42.667,42.667c-2.178,2.151-3.037,5.304-2.251,8.262
				c0.786,2.958,3.097,5.269,6.055,6.055s6.111-0.073,8.262-2.251L227.9,91.366c1.601-1.6,2.5-3.77,2.5-6.033
				c0-2.263-0.899-4.433-2.5-6.033C226.3,77.7,224.13,76.8,221.866,76.8z"/>
			<path d="M290.133,93.867c2.264,0.003,4.435-0.897,6.033-2.5l8.533-8.533c3.281-3.341,3.256-8.701-0.054-12.012
				s-8.671-3.335-12.012-0.054L284.1,79.3c-2.44,2.44-3.169,6.11-1.849,9.298C283.572,91.787,286.683,93.866,290.133,93.867z"/>
			<path d="M326.767,79.3L284.1,121.967c-2.188,2.149-3.055,5.307-2.27,8.271c0.785,2.965,3.1,5.28,6.065,6.065
				c2.965,0.785,6.122-0.082,8.271-2.27l42.667-42.667c3.281-3.341,3.256-8.701-0.054-12.012S330.108,76.02,326.767,79.3z"/>
			<path d="M179.2,307.2c2.264,0.003,4.435-0.897,6.033-2.5l8.533-8.533c3.281-3.341,3.256-8.701-0.054-12.012
				s-8.671-3.335-12.012-0.054l-8.533,8.533c-2.44,2.44-3.169,6.11-1.849,9.298C172.638,305.12,175.749,307.199,179.2,307.2z"/>
			<path d="M176.971,349.618c2.958,0.786,6.111-0.073,8.262-2.251L227.9,304.7c1.601-1.6,2.5-3.77,2.5-6.033s-0.899-4.433-2.5-6.033
				c-1.6-1.601-3.77-2.5-6.033-2.5s-4.433,0.899-6.033,2.5L173.166,335.3c-2.178,2.151-3.037,5.304-2.251,8.262
				C171.702,346.521,174.012,348.832,176.971,349.618z"/>
			<path d="M290.133,307.2c2.264,0.003,4.435-0.897,6.033-2.5l8.533-8.533c3.281-3.341,3.256-8.701-0.054-12.012
				s-8.671-3.335-12.012-0.054l-8.533,8.533c-2.44,2.44-3.169,6.11-1.849,9.298C283.572,305.12,286.683,307.199,290.133,307.2z"/>
			<path d="M287.895,349.636c2.965,0.785,6.122-0.082,8.271-2.27l42.667-42.667c3.281-3.341,3.256-8.701-0.054-12.012
				c-3.311-3.311-8.671-3.335-12.012-0.054L284.1,335.3c-2.188,2.149-3.055,5.307-2.27,8.271
				C282.615,346.536,284.931,348.852,287.895,349.636z"/>
		</g>
	</g>
</g>
<g>
</g>
<g>
</g>
<g>
</g>
<g>
</g>
<g>
</g>
<g>
</g>
<g>
</g>
<g>
</g>
<g>
</g>
<g>
</g>
<g>
</g>
<g>
</g>
<g>
</g>
<g>
</g>
<g>
</g>
</svg>
