<?xml version="1.0" encoding="iso-8859-1"?>
<!-- Generator: Adobe Illustrator 19.0.0, SVG Export Plug-In . SVG Version: 6.00 Build 0)  -->
<svg version="1.1" id="Capa_1" xmlns="http://www.w3.org/2000/svg" xmlns:xlink="http://www.w3.org/1999/xlink" x="0px" y="0px"
	 viewBox="0 0 512 512" style="enable-background:new 0 0 512 512;" xml:space="preserve">
<g>
	<g>
		<g>
			<polygon points="245.421,336.117 245.421,336.117 245.421,336.117 			"/>
			<path d="M245.421,336.117c2.799,0.004,5.421-1.367,7.017-3.667c7.905-11.382,16.541-22.238,25.854-32.5
				c2.048-2.257,2.737-5.435,1.807-8.337c-0.93-2.902-3.338-5.088-6.317-5.733c-2.979-0.646-6.075,0.347-8.124,2.604
				c-9.811,10.809-18.91,22.244-27.237,34.233c-1.81,2.607-2.024,6.004-0.554,8.818S242.247,336.113,245.421,336.117z"/>
			<path d="M201.071,419.425c2.15,0.705,4.493,0.527,6.512-0.495c2.019-1.022,3.55-2.805,4.254-4.955
				c4.32-13.166,9.502-26.032,15.512-38.517c2.043-4.246,0.258-9.344-3.987-11.388c-4.246-2.043-9.344-0.258-11.388,3.987
				c-6.336,13.16-11.799,26.723-16.354,40.6C194.153,413.136,196.593,417.956,201.071,419.425z"/>
			<path d="M389.729,220.208c1.107,0.001,2.204-0.214,3.229-0.633c12.813-5.242,25.96-9.627,39.354-13.125
				c2.957-0.764,5.28-3.049,6.093-5.993s-0.01-6.098-2.157-8.27c-2.147-2.172-5.291-3.032-8.244-2.254
				c-14.127,3.695-27.995,8.319-41.513,13.842c-3.774,1.546-5.927,5.546-5.139,9.548
				C382.142,217.324,385.651,220.209,389.729,220.208z"/>
			<path d="M309.205,267.691L309.205,267.691c1.943,0.002,3.828-0.662,5.341-1.883c10.794-8.676,22.143-16.637,33.975-23.834
				c4.027-2.448,5.307-7.698,2.858-11.725c-2.448-4.027-7.698-5.307-11.725-2.858c-12.468,7.583-24.427,15.973-35.8,25.117
				c-2.823,2.268-3.907,6.071-2.704,9.487C302.354,265.411,305.583,267.694,309.205,267.691z"/>
			<path d="M486.4,0H25.6C11.468,0.015,0.015,11.468,0,25.6v460.8c0.031,2.245,0.361,4.476,0.982,6.634
				c0.074,0.209,0.106,0.428,0.196,0.629C4.368,504.504,14.3,511.961,25.6,512h460.8c14.132-0.015,25.585-11.468,25.6-25.6V25.6
				C511.985,11.468,500.532,0.015,486.4,0z M17.067,25.6c0.005-4.711,3.822-8.529,8.533-8.533h355.327
				C203.055,64.21,64.151,203.16,17.067,381.048V25.6z M494.933,486.4c-0.005,4.711-3.822,8.529-8.533,8.533H376.533
				c7.764-61.891,56.509-110.636,118.4-118.4V486.4z M494.933,359.52c-71.252,7.915-127.5,64.161-135.417,135.413h-17.278
				c8.593-80.505,72.191-144.104,152.695-152.7V359.52z M494.933,179.8c-5.109,0.267-10.246,0.464-15.258,0.95
				c-4.53,0.438-7.919,4.354-7.702,8.899c0.217,4.546,3.963,8.121,8.514,8.126c0.275,0,0.55-0.017,0.829-0.042
				c4.473-0.431,9.059-0.593,13.617-0.841v128.415c-89.813,8.741-160.886,79.813-169.626,169.627H196.865
				c0.533-10.905,1.631-21.775,3.289-32.567c0.717-4.643-2.453-8.994-7.094-9.732c-4.64-0.739-9.005,2.412-9.765,7.049
				c-1.796,11.679-2.97,23.446-3.517,35.25H51.517c4.137-116.254,52.325-226.585,134.796-308.625
				c82.039-82.469,192.369-130.656,308.621-134.792V179.8z M494.933,34.569C244.526,43.619,43.619,244.526,34.569,494.933H25.6
				c-3.687-0.027-6.93-2.441-8.014-5.965c11.965-255.204,216.141-459.4,471.344-471.39c3.542,1.07,5.976,4.321,6.003,8.021V34.569z"
				/>
		</g>
	</g>
</g>
<g>
</g>
<g>
</g>
<g>
</g>
<g>
</g>
<g>
</g>
<g>
</g>
<g>
</g>
<g>
</g>
<g>
</g>
<g>
</g>
<g>
</g>
<g>
</g>
<g>
</g>
<g>
</g>
<g>
</g>
</svg>
