<?xml version="1.0" encoding="iso-8859-1"?>
<!-- Generator: Adobe Illustrator 19.0.0, SVG Export Plug-In . SVG Version: 6.00 Build 0)  -->
<svg version="1.1" id="Capa_1" xmlns="http://www.w3.org/2000/svg" xmlns:xlink="http://www.w3.org/1999/xlink" x="0px" y="0px"
	 viewBox="0 0 512 512" style="enable-background:new 0 0 512 512;" xml:space="preserve">
<g>
	<g>
		<g>
			<path d="M507.368,5.471c-0.099-0.117-0.129-0.266-0.235-0.379c-0.047-0.051-0.114-0.066-0.162-0.115
				c-0.078-0.084-0.129-0.177-0.209-0.26c-3.193-3.029-7.427-4.717-11.829-4.717H17.067C12.507,0.029,8.14,1.842,4.9,5.05
				L4.868,5.091L4.867,5.092L4.865,5.094C1.771,8.316,0.03,12.6,0,17.067V256c0.067,4.303,1.716,8.43,4.632,11.595
				c0.099,0.117,0.129,0.267,0.235,0.38c0.046,0.049,0.112,0.064,0.159,0.111c0.079,0.085,0.131,0.179,0.211,0.264
				c3.193,3.029,7.428,4.718,11.829,4.717v221.867c0.011,9.421,7.646,17.056,17.067,17.067h443.733
				c9.421-0.011,17.056-7.645,17.067-17.067V273.067c4.56-0.029,8.927-1.841,12.167-5.05l0.032-0.041l0.001-0.001l0.002-0.003
				c3.094-3.221,4.835-7.506,4.865-11.972V17.067C511.933,12.764,510.284,8.636,507.368,5.471z M481.88,17.067L363.558,128H148.442
				L30.12,17.067H481.88z M17.067,244.842V28.224l115.525,108.309L17.067,244.842z M213.333,494.933h-179.2V358.4h38.315
				c-1.562,0.732-2.975,1.747-4.169,2.992c-4.018,4.637-6.353,10.495-6.625,16.625c-0.221,1.817-0.463,3.567-0.7,5.258
				c-2.295,9.51-1.577,19.499,2.054,28.583c1.967,4.167,4.242,8.308,6.271,12c1.617,2.743,3.072,5.579,4.358,8.492
				c2.484,6.291,6.852,11.661,12.504,15.375h0.004c0.117,0.083,0.233,0.158,0.354,0.233c3.392,2.696,7.609,4.141,11.942,4.092
				c1.512-0.127,3.004-0.429,4.446-0.9c1.706-0.587,3.346-1.352,4.892-2.283c0.492-0.283,1.171-0.675,1.321-0.725l0.538-8.516
				l0.679,8.908c2.142,1.329,4.511,2.253,6.987,2.725c3.517,0.652,7.085,0.993,10.663,1.017c6.296,0.467,12.53-1.509,17.408-5.517
				l0.979-0.983c1.563-1.575,3.167-3.208,4.963-4.725c0.862-0.835,1.835-1.547,2.892-2.116c10.966-3.403,19.22-12.491,21.554-23.733
				c0.282-2.911,0.757-5.801,1.421-8.65c1.478-5.77,2.11-11.724,1.875-17.675c0.095-8.687-3.026-17.101-8.763-23.625
				c-2.232-1.902-4.06-4.231-5.378-6.851h48.415V494.933z M77.858,385.625c0.25-1.792,0.508-3.65,0.733-5.525
				c0.119-2.265,0.714-4.48,1.746-6.5c1.643-0.097,3.261-0.443,4.8-1.025c4.08-1.567,7.743-4.057,10.7-7.275
				c4.702-3.978,9.629-7.682,14.758-11.092c5.287-2.39,11.203-3.012,16.871-1.775c2.192,0.275,4.108,0.375,5.488,0.475
				c5.731,2.078,10.955,5.35,15.325,9.6c1.909,5.642,5.272,10.681,9.75,14.608c2.829,2.925,3.379,6.15,4.033,13.358l0.012,0.108
				c-0.015,4.237-0.556,8.455-1.613,12.558c-0.856,3.663-1.436,7.384-1.737,11.133c-1.801,3.378-4.571,6.141-7.954,7.933
				c-3.996,1.014-7.656,3.06-10.612,5.933c-1.992,1.667-3.988,3.667-5.921,5.617l-0.646,0.7c-4.28,1.041-8.745,1.058-13.033,0.05
				c-0.549-0.095-1.07-0.314-1.521-0.642c-2.664-1.674-5.719-2.624-8.862-2.758c-0.387-0.025-0.763-0.033-1.129-0.033
				c-3.464,0.064-6.841,1.094-9.75,2.975c-0.531,0.329-1.095,0.6-1.683,0.809c-0.411-0.225-0.803-0.484-1.171-0.775
				c-0.281-0.222-0.576-0.425-0.883-0.608c-2.08-1.536-3.909-3.385-5.421-5.483c-1.53-4.321-3.511-8.468-5.908-12.375
				c-1.871-3.392-3.975-7.2-5.775-11.017C76.345,398.48,76.137,391.865,77.858,385.625z M213.333,341.333h-65.035
				c-4.52-2.96-9.663-4.834-15.027-5.475c-1.227-0.049-2.45-0.168-3.662-0.358c-9.301-1.751-18.919-0.407-27.383,3.825
				c-0.27,0.143-0.531,0.302-0.783,0.475c-0.286,0.192-1.129,0.766-2.237,1.533H34.133v-68.267H76.8v8.533
				c0.011,9.421,7.646,17.056,17.067,17.067h51.2c9.421-0.011,17.056-7.646,17.067-17.067v-8.533h34.133v25.6
				c0.011,9.421,7.646,17.056,17.067,17.067V341.333z M93.867,281.6V251l17.067-17.067V281.6H93.867z M145.072,264.561l0.007,17.039
				H128v-47.667L145.067,251l0.006,13.506l-0.006,0.027L145.072,264.561z M213.333,298.667v-72.8l34.133-28.447v101.247h-25.6
				H213.333z M281.6,494.933h-51.2V349.867v-34.133h51.2V494.933z M298.673,264.566l0.006,34.1h-34.146V197.42l34.133,28.447
				l0.007,38.634l-0.007,0.033L298.673,264.566z M477.867,494.933h-179.2V358.4h46.848c-1.562,0.732-2.975,1.747-4.169,2.992
				c-4.018,4.637-6.353,10.495-6.625,16.625c-0.221,1.817-0.462,3.567-0.7,5.258c-2.295,9.51-1.577,19.499,2.054,28.583
				c1.967,4.167,4.242,8.308,6.271,12c1.617,2.743,3.072,5.579,4.358,8.492c2.484,6.291,6.852,11.661,12.504,15.375h0.004
				c0.117,0.083,0.233,0.158,0.354,0.233c3.396,2.689,7.61,4.134,11.942,4.092c1.512-0.127,3.004-0.429,4.446-0.9
				c1.706-0.587,3.346-1.352,4.892-2.283c0.492-0.283,1.171-0.675,1.321-0.725l0.538-8.516l0.679,8.908
				c2.142,1.329,4.511,2.253,6.987,2.725c3.517,0.652,7.085,0.993,10.662,1.017c6.296,0.467,12.53-1.509,17.408-5.517l0.979-0.983
				c1.563-1.575,3.167-3.208,4.962-4.725c0.862-0.835,1.835-1.547,2.892-2.116c10.966-3.403,19.22-12.491,21.554-23.733
				c0.283-2.911,0.757-5.801,1.421-8.65c1.478-5.77,2.11-11.724,1.875-17.675c0.095-8.687-3.026-17.101-8.763-23.625
				c-2.232-1.902-4.06-4.231-5.378-6.851h39.882V494.933z M350.925,385.625c0.25-1.792,0.508-3.65,0.733-5.525
				c0.119-2.265,0.714-4.48,1.746-6.5c1.643-0.097,3.261-0.443,4.8-1.025c4.08-1.567,7.743-4.057,10.7-7.275
				c4.702-3.978,9.629-7.682,14.758-11.092c5.287-2.389,11.203-3.012,16.871-1.775c2.192,0.275,4.033,0.375,5.488,0.475
				c5.731,2.078,10.954,5.35,15.325,9.6c1.909,5.642,5.272,10.681,9.75,14.608c2.829,2.925,3.379,6.15,4.033,13.358l0.012,0.108
				c-0.015,4.237-0.556,8.455-1.613,12.558c-0.856,3.663-1.436,7.384-1.737,11.133c-1.801,3.378-4.571,6.141-7.954,7.933
				c-3.996,1.014-7.656,3.06-10.612,5.933c-1.992,1.667-3.988,3.667-5.921,5.617l-0.646,0.7c-4.28,1.041-8.745,1.058-13.033,0.05
				c-0.549-0.095-1.07-0.314-1.521-0.642c-2.664-1.674-5.719-2.624-8.862-2.758c-0.388-0.025-0.763-0.033-1.129-0.033
				c-3.464,0.064-6.841,1.094-9.75,2.975c-0.531,0.329-1.095,0.6-1.682,0.809c-0.411-0.225-0.803-0.484-1.171-0.775
				c-0.281-0.222-0.576-0.425-0.883-0.608c-2.08-1.536-3.909-3.385-5.421-5.483c-1.53-4.321-3.511-8.468-5.908-12.375
				c-1.871-3.392-3.975-7.2-5.775-11.017C349.412,398.48,349.205,391.866,350.925,385.625z M477.867,341.333h-56.502
				c-4.52-2.96-9.663-4.834-15.027-5.475c-1.227-0.049-2.45-0.168-3.663-0.358c-9.301-1.751-18.919-0.407-27.383,3.825
				c-0.27,0.143-0.532,0.302-0.783,0.475c-0.286,0.192-1.129,0.766-2.237,1.533h-73.604v-25.6
				c9.421-0.011,17.056-7.645,17.067-17.067v-25.6h34.133v8.533c0.011,9.421,7.645,17.056,17.067,17.067h51.2
				c9.421-0.011,17.056-7.646,17.067-17.067v-8.533h42.667V341.333z M366.933,281.6V251L384,233.933V281.6H366.933z
				 M418.139,264.561l0.007,17.039h-17.079v-47.667L418.133,251l0.006,13.506l-0.006,0.027L418.139,264.561z M435.2,256v-8.533
				c0-2.263-0.899-4.434-2.5-6.033l-28.1-28.1c-6.67-6.65-17.463-6.65-24.133,0l-28.1,28.1c-1.601,1.6-2.5,3.77-2.5,6.033V256
				h-34.133v-34.133c-0.001-2.533-1.125-4.936-3.071-6.558l-45.742-38.117c-6.33-5.267-15.516-5.267-21.846,0l-45.737,38.117
				c-1.945,1.623-3.07,4.025-3.071,6.558V256h-34.133v-8.533c0-2.263-0.899-4.434-2.5-6.033l-28.1-28.1
				c-6.67-6.65-17.463-6.65-24.133,0l-28.1,28.1c-1.601,1.6-2.5,3.77-2.5,6.033V256H30.12l118.322-110.933h215.116L481.88,256H435.2
				z M494.933,244.842L379.408,136.533L494.933,28.224V244.842z"/>
			<path d="M105.642,34.816c-2.077-0.858-4.41-0.858-6.487,0c-1.044,0.412-1.998,1.02-2.813,1.792
				c-1.56,1.635-2.444,3.799-2.475,6.059c-0.023,2.27,0.869,4.454,2.475,6.059c2.441,2.462,6.129,3.201,9.331,1.872
				s5.281-4.464,5.261-7.931c-0.033-2.259-0.917-4.422-2.475-6.059C107.656,35.819,106.696,35.208,105.642,34.816z"/>
			<path d="M156.842,50.517c1.034-0.432,1.987-1.038,2.817-1.791c2.444-2.441,3.154-6.125,1.792-9.3
				c-0.413-1.044-1.021-2-1.792-2.817c-3.421-3.158-8.695-3.158-12.117,0c-0.773,0.815-1.383,1.772-1.796,2.817
				c-1.357,3.176-0.646,6.858,1.795,9.301c0.829,0.753,1.78,1.359,2.813,1.791C152.421,51.428,154.775,51.428,156.842,50.517z"/>
			<path d="M134.059,62.208c-2.453-2.425-6.126-3.133-9.304-1.792c-1.033,0.433-1.984,1.039-2.813,1.792
				c-0.773,0.815-1.383,1.772-1.796,2.817c-0.436,1.026-0.667,2.127-0.68,3.242c-0.029,1.119,0.204,2.229,0.679,3.242
				c0.435,1.034,1.042,1.986,1.796,2.817c0.829,0.753,1.78,1.359,2.813,1.792c2.067,0.911,4.421,0.911,6.487,0
				c1.034-0.433,1.987-1.039,2.817-1.792c0.751-0.832,1.357-1.784,1.792-2.817c0.911-2.065,0.911-4.418,0-6.483
				C135.438,63.981,134.829,63.025,134.059,62.208z"/>
			<path d="M173.141,74.325c3.365,3.3,8.752,3.3,12.117,0c0.751-0.832,1.357-1.784,1.792-2.817c0.911-2.065,0.911-4.418,0-6.483
				c-0.413-1.044-1.021-2-1.791-2.817c-0.406-0.366-0.834-0.708-1.279-1.025c-0.475-0.325-0.992-0.582-1.538-0.767
				c-0.485-0.246-1.003-0.42-1.537-0.517c-1.124-0.25-2.289-0.25-3.412,0c-0.535,0.096-1.053,0.27-1.538,0.517
				c-0.543,0.185-1.059,0.443-1.533,0.767c-0.447,0.315-0.875,0.657-1.28,1.025c-0.773,0.815-1.383,1.772-1.796,2.817
				c-0.906,2.066-0.906,4.417,0,6.483C171.781,72.542,172.388,73.495,173.141,74.325z"/>
			<path d="M204.8,51.2c1.115-0.014,2.216-0.246,3.242-0.683c1.034-0.432,1.987-1.038,2.817-1.791
				c1.604-1.606,2.496-3.789,2.475-6.059c-0.033-2.259-0.917-4.422-2.475-6.059c-0.816-0.771-1.772-1.379-2.817-1.792
				c-2.077-0.858-4.41-0.858-6.487,0c-1.044,0.412-1.998,1.02-2.813,1.792c-1.56,1.635-2.444,3.799-2.475,6.059
				c-0.022,2.27,0.87,4.453,2.475,6.058C200.347,50.33,202.53,51.222,204.8,51.2z"/>
			<path d="M252.754,50.517c2.624,1.125,5.639,0.848,8.015-0.735s3.792-4.26,3.764-7.115c-0.033-2.259-0.917-4.422-2.475-6.059
				c-2.473-2.388-6.122-3.09-9.304-1.792c-1.033,0.433-1.984,1.039-2.813,1.792c-1.56,1.635-2.444,3.799-2.475,6.059
				c-0.023,2.27,0.869,4.454,2.475,6.059C250.77,49.478,251.721,50.084,252.754,50.517z"/>
			<path d="M224.341,74.325c0.829,0.753,1.78,1.359,2.813,1.792c2.067,0.911,4.421,0.911,6.487,0
				c1.034-0.433,1.987-1.039,2.817-1.792c0.751-0.832,1.357-1.784,1.792-2.817c0.478-1.012,0.712-2.123,0.683-3.242
				c-0.014-1.115-0.246-2.216-0.683-3.242c-0.413-1.044-1.021-2-1.791-2.817c-2.457-2.418-6.125-3.125-9.304-1.792
				c-1.033,0.433-1.984,1.039-2.813,1.792c-0.773,0.815-1.383,1.772-1.796,2.817c-0.906,2.066-0.906,4.417,0,6.483
				C222.981,72.542,223.588,73.495,224.341,74.325z"/>
			<path d="M275.541,74.325c3.365,3.3,8.752,3.3,12.117,0c0.751-0.832,1.357-1.784,1.792-2.817c0.911-2.065,0.911-4.418,0-6.483
				c-0.413-1.044-1.021-2-1.791-2.817c-0.407-0.366-0.834-0.708-1.279-1.025c-0.475-0.325-0.992-0.582-1.538-0.767
				c-0.485-0.246-1.003-0.42-1.537-0.517c-2.81-0.558-5.715,0.305-7.763,2.308c-0.773,0.815-1.383,1.772-1.796,2.817
				c-0.906,2.066-0.906,4.417,0,6.483C274.181,72.542,274.788,73.495,275.541,74.325z"/>
			<path d="M303.954,50.517c2.067,0.911,4.421,0.911,6.487,0c1.034-0.432,1.987-1.038,2.817-1.791
				c1.604-1.606,2.496-3.789,2.475-6.059c-0.033-2.259-0.917-4.422-2.475-6.059c-0.83-0.753-1.783-1.359-2.817-1.792
				c-3.181-1.299-6.83-0.596-9.301,1.792c-0.773,0.815-1.383,1.772-1.796,2.817c-1.357,3.176-0.646,6.858,1.796,9.301
				C301.97,49.478,302.921,50.084,303.954,50.517z"/>
			<path d="M355.154,50.517c2.067,0.911,4.421,0.911,6.487,0c1.034-0.432,1.987-1.038,2.817-1.791
				c1.604-1.606,2.496-3.789,2.475-6.059c-0.033-2.259-0.917-4.422-2.475-6.059c-0.816-0.771-1.772-1.379-2.817-1.792
				c-2.077-0.858-4.41-0.858-6.487,0c-1.033,0.433-1.984,1.039-2.813,1.792c-1.56,1.635-2.444,3.799-2.475,6.059
				c-0.023,2.27,0.869,4.454,2.475,6.059C353.17,49.478,354.121,50.084,355.154,50.517z"/>
			<path d="M406.354,50.517c2.067,0.911,4.421,0.911,6.487,0c1.034-0.432,1.987-1.038,2.817-1.791
				c2.444-2.441,3.154-6.125,1.792-9.3c-0.413-1.044-1.021-2-1.792-2.817c-3.421-3.158-8.695-3.158-12.117,0
				c-0.773,0.815-1.383,1.772-1.796,2.817c-1.357,3.176-0.646,6.858,1.795,9.301C404.37,49.478,405.321,50.084,406.354,50.517z"/>
			<path d="M326.741,74.325c3.365,3.3,8.752,3.3,12.117,0c0.751-0.832,1.357-1.784,1.792-2.817c0.911-2.065,0.911-4.418,0-6.483
				c-0.413-1.044-1.021-2-1.791-2.817c-0.83-0.753-1.783-1.359-2.817-1.792c-1.526-0.679-3.228-0.86-4.862-0.517
				c-0.566,0.083-1.115,0.257-1.625,0.517c-0.524,0.169-1.015,0.428-1.45,0.767c-0.489,0.293-0.946,0.637-1.363,1.025
				c-0.773,0.815-1.383,1.772-1.796,2.817c-0.906,2.066-0.906,4.417,0,6.483C325.38,72.542,325.988,73.495,326.741,74.325z"/>
			<path d="M377.941,74.325c1.606,1.604,3.789,2.496,6.059,2.475c1.119,0.027,2.229-0.207,3.242-0.683
				c1.034-0.432,1.987-1.038,2.817-1.791c0.751-0.832,1.357-1.784,1.792-2.817c0.911-2.065,0.911-4.418,0-6.483
				c-0.413-1.044-1.021-2-1.792-2.817c-2.453-2.425-6.126-3.133-9.304-1.792c-1.033,0.433-1.984,1.039-2.813,1.792
				c-0.773,0.815-1.383,1.772-1.796,2.817c-0.436,1.026-0.667,2.127-0.68,3.242c-0.029,1.119,0.204,2.229,0.679,3.242
				C376.581,72.542,377.188,73.495,377.941,74.325z"/>
		</g>
	</g>
</g>
<g>
</g>
<g>
</g>
<g>
</g>
<g>
</g>
<g>
</g>
<g>
</g>
<g>
</g>
<g>
</g>
<g>
</g>
<g>
</g>
<g>
</g>
<g>
</g>
<g>
</g>
<g>
</g>
<g>
</g>
</svg>
