<?xml version="1.0" encoding="iso-8859-1"?>
<!-- Generator: Adobe Illustrator 19.0.0, SVG Export Plug-In . SVG Version: 6.00 Build 0)  -->
<svg version="1.1" id="Capa_1" xmlns="http://www.w3.org/2000/svg" xmlns:xlink="http://www.w3.org/1999/xlink" x="0px" y="0px"
	 viewBox="0 0 512.095 512.095" style="enable-background:new 0 0 512.095 512.095;" xml:space="preserve">
<g transform="translate(-1)">
	<g>
		<g>
			<path d="M496.029,341.381c9.421-0.011,17.056-7.646,17.067-17.067v-307.2c-0.011-9.421-7.645-17.056-17.066-17.067H18.162
				C8.741,0.058,1.106,7.693,1.096,17.114v307.2c0.011,9.421,7.645,17.056,17.067,17.067h68.267v23.835
				c-3.628-2.05-7.647-3.314-11.796-3.71c-1.227-0.049-2.45-0.168-3.662-0.358c-9.3-1.759-18.921-0.416-27.383,3.825
				c-0.27,0.143-0.532,0.302-0.783,0.475c-6.059,4.025-11.865,8.419-17.383,13.158c-1.357,1.503-2.985,2.736-4.8,3.633
				c-1.034,0.015-2.065,0.126-3.079,0.333v0.009c-0.562,0.118-1.113,0.286-1.646,0.5c-2.397,0.745-4.555,2.111-6.254,3.958
				c-4.018,4.637-6.353,10.495-6.625,16.625c-0.221,1.817-0.462,3.567-0.7,5.258c-2.295,9.51-1.577,19.499,2.054,28.583
				c1.967,4.167,4.242,8.308,6.271,12c1.617,2.743,3.072,5.579,4.358,8.492c2.484,6.291,6.852,11.661,12.504,15.375h0.004
				c0.117,0.083,0.233,0.158,0.354,0.233c3.405,2.672,7.613,4.114,11.942,4.092c1.512-0.127,3.004-0.429,4.446-0.9
				c1.706-0.587,3.346-1.352,4.892-2.283c0.492-0.283,1.171-0.675,1.321-0.725L51,465.273l0.679,8.908
				c2.142,1.329,4.511,2.253,6.988,2.725c3.517,0.653,7.085,0.993,10.662,1.017c6.159,0.418,12.253-1.468,17.1-5.291v30.883
				c-0.001,2.263,0.898,4.434,2.499,6.035c1.6,1.6,3.771,2.499,6.035,2.499h324.267c2.263,0.001,4.434-0.898,6.035-2.499
				c1.6-1.6,2.499-3.771,2.499-6.035v-26.377c1.491,0.401,3.031,0.59,4.575,0.56c1.512-0.127,3.004-0.429,4.446-0.9
				c1.706-0.587,3.346-1.352,4.892-2.283c0.492-0.283,1.171-0.675,1.321-0.725l0.538-8.516l0.679,8.908
				c2.142,1.329,4.511,2.253,6.988,2.725c3.517,0.653,7.085,0.993,10.662,1.017c6.296,0.467,12.53-1.509,17.408-5.517l0.979-0.983
				c1.563-1.575,3.167-3.209,4.962-4.725c0.862-0.835,1.835-1.547,2.892-2.116c10.966-3.403,19.22-12.491,21.554-23.733
				c0.282-2.911,0.757-5.801,1.421-8.65c1.478-5.77,2.11-11.724,1.875-17.675c0.095-8.687-3.026-17.102-8.763-23.625
				c-4.725-4.883-5.121-5.758-5.917-8.45c-2.738-8.833-22.196-20.942-31.108-20.942c-1.227-0.049-2.45-0.168-3.662-0.358
				c-9.3-1.759-18.921-0.415-27.383,3.825c-0.27,0.143-0.531,0.302-0.783,0.475c-0.648,0.437-3.906,2.651-7.575,5.322v-29.389
				H496.029z M18.162,17.114h477.867v145.067H18.162V17.114z M265.629,194.008l76.8,90.765v124.875h-76.8V194.008z M18.162,324.314
				V179.248h220.54l-81.985,96.892c-1.305,1.539-2.021,3.491-2.021,5.508v42.667H18.162z M101.824,428.789
				c-0.856,3.663-1.436,7.384-1.737,11.133c-1.8,3.374-4.565,6.134-7.943,7.927c-0.283,0.093-0.561,0.201-0.833,0.323
				c-3.663,1.069-7.019,2.994-9.791,5.617c-1.991,1.667-3.987,3.667-5.92,5.617l-0.646,0.7c-4.28,1.041-8.745,1.058-13.033,0.05
				c-0.549-0.095-1.07-0.315-1.521-0.642c-2.664-1.674-5.719-2.624-8.862-2.758c-0.387-0.025-0.763-0.033-1.129-0.033
				c-3.464,0.064-6.841,1.094-9.75,2.975c-0.531,0.329-1.095,0.6-1.684,0.809c-0.411-0.225-0.803-0.484-1.171-0.775
				c-0.281-0.221-0.576-0.425-0.883-0.608c-2.08-1.536-3.909-3.385-5.421-5.483c-1.53-4.321-3.511-8.468-5.908-12.375
				c-1.871-3.392-3.975-7.2-5.775-11.017c-2.109-6.12-2.317-12.735-0.596-18.975c0.25-1.792,0.508-3.65,0.733-5.525
				c0.119-2.265,0.714-4.48,1.746-6.5c1.643-0.097,3.261-0.443,4.8-1.025c4.081-1.567,7.743-4.057,10.701-7.275
				c4.702-3.978,9.629-7.682,14.758-11.092c5.284-2.398,11.203-3.02,16.871-1.775c2.188,0.275,4.092,0.442,5.487,0.475
				c5.295,1.929,10.174,4.853,14.372,8.613c0.176,0.195,0.344,0.379,0.537,0.556c0.129,0.14,0.315,0.303,0.416,0.431
				c1.909,5.642,5.272,10.681,9.749,14.608c2.829,2.925,3.379,6.15,4.033,13.358l0.012,0.108
				C103.422,420.468,102.881,424.686,101.824,428.789z M214.429,494.981H103.496v-34.229c7.224-4.334,12.2-11.602,13.629-19.904
				c0.282-2.911,0.757-5.801,1.421-8.65c1.478-5.77,2.11-11.724,1.875-17.675c0.095-8.687-3.026-17.102-8.763-23.625
				c-4.725-4.883-5.121-5.758-5.917-8.45c-0.525-1.452-1.284-2.808-2.246-4.015v-37.052h51.2v76.8
				c-0.001,2.263,0.898,4.434,2.499,6.035c1.6,1.6,3.771,2.499,6.035,2.499h51.2V494.981z M171.762,409.648V284.773l76.8-90.765
				v215.64h-25.6H171.762z M282.696,494.981h-51.2v-68.267h51.2V494.981z M410.696,494.981H299.762v-68.267h51.2
				c2.263,0.001,4.434-0.898,6.035-2.499s2.499-3.771,2.499-6.035v-76.8h51.2v41.124c-0.196,0.033-0.438,0.032-0.621,0.067v0.009
				c-0.562,0.118-1.113,0.286-1.646,0.5c-2.397,0.745-4.555,2.111-6.254,3.958c-4.018,4.637-6.353,10.495-6.625,16.625
				c-0.221,1.817-0.463,3.567-0.7,5.258c-2.295,9.51-1.577,19.499,2.054,28.583c1.967,4.167,4.242,8.308,6.271,12
				c1.617,2.743,3.072,5.579,4.358,8.492c0.688,2.19,1.759,4.242,3.162,6.058V494.981z M429.733,390.948
				c4.702-3.978,9.629-7.682,14.758-11.092c5.284-2.398,11.203-3.02,16.871-1.775c2.192,0.275,4.105,0.442,5.488,0.475
				c5.731,2.078,10.955,5.35,15.325,9.6c1.909,5.642,5.272,10.681,9.75,14.608c2.829,2.925,3.379,6.15,4.033,13.358l0.012,0.108
				c-0.015,4.237-0.556,8.455-1.613,12.558c-0.856,3.663-1.436,7.384-1.737,11.133c-1.801,3.378-4.571,6.141-7.954,7.933
				c-3.996,1.014-7.656,3.06-10.612,5.933c-1.992,1.667-3.988,3.667-5.921,5.617l-0.646,0.7c-4.28,1.041-8.745,1.058-13.033,0.05
				c-0.549-0.095-1.07-0.314-1.521-0.642c-2.664-1.674-5.719-2.624-8.862-2.758c-0.388-0.025-0.763-0.033-1.129-0.033
				c-3.464,0.064-6.841,1.094-9.75,2.975c-0.531,0.329-1.095,0.6-1.682,0.809c-0.411-0.225-0.803-0.484-1.171-0.775
				c-0.281-0.221-0.576-0.425-0.883-0.608c-1.475-1.109-2.832-2.367-4.047-3.756c-0.086-0.092-0.153-0.193-0.244-0.28
				c-0.412-0.454-0.79-0.938-1.13-1.447c-1.53-4.321-3.511-8.468-5.908-12.375c-1.871-3.392-3.975-7.2-5.775-11.017
				c-2.109-6.12-2.317-12.735-0.596-18.975c0.25-1.792,0.508-3.65,0.733-5.525c0.119-2.265,0.714-4.48,1.746-6.5
				c1.643-0.097,3.261-0.443,4.8-1.025C423.114,396.656,426.776,394.166,429.733,390.948z M419.229,324.314h-59.733v-42.667
				c0.001-2.018-0.716-3.97-2.021-5.508l-81.985-96.892h220.54v145.067H419.229z"/>
			<path d="M461.896,34.181h-68.267c-2.263-0.001-4.434,0.898-6.035,2.499c-1.6,1.6-2.499,3.771-2.499,6.035v93.867
				c-0.001,2.263,0.898,4.434,2.499,6.035c1.6,1.6,3.771,2.499,6.035,2.499h68.267c2.263,0.001,4.434-0.898,6.035-2.499
				c1.6-1.6,2.499-3.771,2.499-6.035V42.714c0.001-2.263-0.898-4.434-2.499-6.035C466.33,35.079,464.159,34.18,461.896,34.181z
				 M453.362,128.048h-51.2v-17.067h51.2V128.048z M453.362,93.914h-51.2V51.248h51.2V93.914z"/>
			<path d="M120.562,34.181H52.296c-1.815,0.039-3.567,0.669-4.991,1.795c-0.369,0.206-0.725,0.433-1.068,0.68
				c-0.361,0.455-0.677,0.944-0.944,1.459c-0.957,1.347-1.49,2.948-1.531,4.599v93.867c-0.001,2.263,0.898,4.434,2.499,6.035
				c1.6,1.6,3.771,2.499,6.035,2.499h68.267c2.263,0.001,4.434-0.898,6.035-2.499c1.6-1.6,2.499-3.771,2.499-6.035V42.714
				c0.001-2.263-0.898-4.434-2.499-6.035C124.996,35.079,122.826,34.18,120.562,34.181z M112.029,128.048h-51.2v-17.067h51.2
				V128.048z M112.029,93.914h-51.2V51.248h51.2V93.914z"/>
			<path d="M157.938,34.864c-3.181-1.299-6.83-0.596-9.301,1.792c-0.773,0.815-1.383,1.772-1.796,2.817
				c-1.122,2.625-0.844,5.639,0.74,8.013c1.584,2.375,4.26,3.79,7.114,3.762c1.115-0.014,2.216-0.246,3.242-0.683
				c1.034-0.432,1.987-1.038,2.817-1.791c1.604-1.606,2.496-3.789,2.475-6.059c-0.033-2.259-0.917-4.422-2.475-6.059
				C159.924,35.902,158.972,35.296,157.938,34.864z"/>
			<path d="M209.138,34.864c-2.077-0.858-4.41-0.858-6.487,0c-1.033,0.433-1.984,1.039-2.813,1.792
				c-1.56,1.635-2.444,3.799-2.475,6.059c-0.022,2.27,0.87,4.453,2.475,6.058c1.605,1.605,3.788,2.497,6.058,2.475
				c1.115-0.014,2.216-0.246,3.242-0.683c1.034-0.432,1.987-1.038,2.817-1.791c1.604-1.606,2.496-3.789,2.475-6.059
				c-0.033-2.259-0.917-4.422-2.475-6.059C211.138,35.884,210.182,35.276,209.138,34.864z"/>
			<path d="M186.354,62.256c-0.419-0.387-0.877-0.731-1.367-1.025c-0.434-0.34-0.925-0.6-1.45-0.767
				c-0.509-0.259-1.056-0.433-1.621-0.517c-1.636-0.343-3.339-0.162-4.867,0.517c-1.033,0.433-1.984,1.039-2.813,1.792
				c-0.773,0.815-1.383,1.772-1.796,2.817c-0.906,2.066-0.906,4.417,0,6.483c0.435,1.034,1.042,1.986,1.795,2.817
				c3.365,3.3,8.752,3.3,12.117,0c0.751-0.832,1.357-1.784,1.792-2.817c0.911-2.065,0.911-4.418,0-6.483
				C187.733,64.029,187.125,63.073,186.354,62.256z"/>
			<path d="M260.368,34.784c-3.202-1.329-6.89-0.59-9.331,1.872c-0.773,0.815-1.383,1.772-1.796,2.817
				c-1.357,3.176-0.646,6.858,1.796,9.301c0.829,0.753,1.78,1.359,2.813,1.791c2.067,0.911,4.421,0.911,6.487,0
				c1.034-0.432,1.987-1.038,2.817-1.791c1.604-1.606,2.496-3.789,2.475-6.059C265.649,39.247,263.57,36.113,260.368,34.784z"/>
			<path d="M237.554,62.256c-2.05-2.002-4.956-2.866-7.767-2.308c-0.535,0.096-1.053,0.27-1.538,0.517
				c-0.543,0.185-1.059,0.443-1.533,0.767c-0.447,0.315-0.875,0.657-1.28,1.025c-0.773,0.815-1.383,1.772-1.796,2.817
				c-0.906,2.066-0.906,4.417,0,6.483c0.435,1.034,1.042,1.987,1.796,2.817c3.365,3.3,8.752,3.3,12.117,0
				c0.751-0.832,1.357-1.784,1.792-2.817c0.911-2.065,0.911-4.418,0-6.483C238.933,64.029,238.325,63.073,237.554,62.256z"/>
			<path d="M311.538,34.864c-2.077-0.858-4.41-0.858-6.487,0c-1.054,0.392-2.012,1.002-2.813,1.792
				c-1.56,1.635-2.444,3.799-2.475,6.059c-0.022,2.27,0.87,4.453,2.475,6.058c1.605,1.605,3.789,2.497,6.058,2.475
				c2.27,0.022,4.453-0.87,6.058-2.475c1.605-1.605,2.497-3.788,2.475-6.058c-0.033-2.259-0.917-4.422-2.475-6.059
				C313.538,35.884,312.582,35.276,311.538,34.864z"/>
			<path d="M288.754,62.256c-2.453-2.425-6.126-3.133-9.304-1.792c-1.033,0.433-1.984,1.039-2.813,1.792
				c-0.773,0.815-1.383,1.772-1.796,2.817c-0.436,1.026-0.667,2.127-0.68,3.242c-0.029,1.119,0.204,2.229,0.679,3.242
				c0.435,1.034,1.042,1.986,1.796,2.817c0.829,0.753,1.78,1.359,2.813,1.792c2.066,0.911,4.421,0.911,6.487,0
				c1.034-0.433,1.987-1.039,2.817-1.792c0.751-0.832,1.357-1.784,1.792-2.817c0.911-2.065,0.911-4.418,0-6.483
				C290.133,64.029,289.525,63.072,288.754,62.256z"/>
			<path d="M362.738,34.864c-2.077-0.858-4.41-0.858-6.487,0c-1.033,0.433-1.984,1.039-2.813,1.792
				c-1.56,1.635-2.444,3.799-2.475,6.059c-0.023,2.27,0.869,4.454,2.475,6.059c0.829,0.753,1.78,1.359,2.813,1.791
				c2.067,0.911,4.421,0.911,6.487,0c1.034-0.432,1.987-1.038,2.817-1.791c1.604-1.606,2.496-3.789,2.475-6.059
				c-0.033-2.259-0.917-4.422-2.475-6.059C364.738,35.884,363.782,35.276,362.738,34.864z"/>
			<path d="M339.954,62.256c-0.407-0.366-0.834-0.708-1.279-1.025c-0.475-0.325-0.992-0.582-1.538-0.767
				c-0.485-0.246-1.003-0.42-1.538-0.517c-1.124-0.25-2.289-0.25-3.412,0c-0.535,0.096-1.053,0.27-1.538,0.517
				c-0.543,0.185-1.059,0.443-1.533,0.767c-0.447,0.315-0.875,0.657-1.28,1.025c-0.773,0.815-1.383,1.772-1.796,2.817
				c-0.906,2.066-0.906,4.417,0,6.483c0.435,1.034,1.042,1.987,1.796,2.817c3.365,3.3,8.752,3.3,12.117,0
				c0.751-0.832,1.357-1.784,1.792-2.817c0.911-2.065,0.911-4.418,0-6.483C341.333,64.029,340.725,63.073,339.954,62.256z"/>
			<path d="M467.954,292.656c-3.421-3.158-8.695-3.158-12.117,0c-0.755,0.829-1.363,1.782-1.796,2.817
				c-0.906,2.066-0.906,4.417,0,6.483c0.435,1.034,1.042,1.986,1.795,2.817c3.365,3.3,8.752,3.3,12.117,0
				c0.751-0.832,1.357-1.784,1.792-2.817c0.911-2.065,0.911-4.418,0-6.483C469.313,294.439,468.707,293.486,467.954,292.656z"/>
			<path d="M416.754,292.656c-0.419-0.387-0.877-0.731-1.367-1.025c-0.434-0.34-0.925-0.6-1.45-0.767
				c-0.485-0.246-1.003-0.42-1.538-0.517c-2.81-0.558-5.715,0.305-7.763,2.308c-0.755,0.829-1.363,1.782-1.796,2.817
				c-0.906,2.066-0.906,4.417,0,6.483c0.435,1.034,1.042,1.986,1.796,2.817c3.365,3.3,8.752,3.3,12.117,0
				c0.751-0.832,1.357-1.784,1.792-2.817c0.911-2.065,0.911-4.418,0-6.483C418.113,294.439,417.507,293.486,416.754,292.656z"/>
			<path d="M439.537,265.264c-3.177-1.341-6.849-0.634-9.3,1.792c-1.559,1.635-2.443,3.799-2.475,6.058
				c0,4.713,3.82,8.533,8.533,8.533s8.533-3.821,8.533-8.533c-0.033-2.259-0.917-4.422-2.475-6.059
				C441.538,266.285,440.582,265.677,439.537,265.264z"/>
			<path d="M388.337,265.264c-3.177-1.341-6.849-0.634-9.3,1.792c-1.574,1.625-2.461,3.795-2.475,6.058
				c0,4.713,3.82,8.533,8.533,8.533s8.533-3.821,8.533-8.533c-0.033-2.259-0.917-4.422-2.475-6.059
				C390.352,266.267,389.392,265.657,388.337,265.264z"/>
			<path d="M109.554,292.656c-3.421-3.158-8.695-3.158-12.117,0c-0.755,0.829-1.363,1.782-1.796,2.817
				c-0.906,2.066-0.906,4.417,0,6.483c0.435,1.034,1.042,1.986,1.796,2.817c3.365,3.3,8.752,3.3,12.117,0
				c0.751-0.832,1.357-1.784,1.792-2.817c0.911-2.065,0.911-4.418,0-6.483C110.912,294.439,110.306,293.487,109.554,292.656z"/>
			<path d="M125.85,265.264c-1.033,0.433-1.984,1.039-2.813,1.792c-1.56,1.635-2.444,3.799-2.475,6.059
				c-0.022,2.27,0.87,4.453,2.475,6.058c1.605,1.605,3.788,2.497,6.058,2.475c2.27,0.022,4.453-0.87,6.058-2.475
				c1.605-1.605,2.497-3.788,2.475-6.058c-0.033-2.259-0.917-4.422-2.475-6.059C132.701,264.63,129.028,263.923,125.85,265.264z"/>
			<path d="M58.354,292.656c-3.421-3.158-8.695-3.158-12.117,0c-0.755,0.829-1.363,1.782-1.796,2.817
				c-0.906,2.066-0.906,4.417,0,6.483c0.435,1.034,1.042,1.986,1.795,2.817c3.365,3.3,8.752,3.3,12.117,0
				c0.751-0.832,1.357-1.784,1.792-2.817c0.911-2.065,0.911-4.418,0-6.483C59.713,294.439,59.107,293.486,58.354,292.656z"/>
			<path d="M81.168,265.184c-3.202-1.329-6.89-0.59-9.331,1.872c-1.559,1.635-2.443,3.799-2.475,6.059
				c0,4.713,3.82,8.533,8.533,8.533s8.533-3.821,8.533-8.533C86.449,269.647,84.37,266.513,81.168,265.184z"/>
			<path d="M194.116,323.632c3.175,1.363,6.86,0.655,9.304-1.788c2.444-2.443,3.153-6.128,1.792-9.304
				c-0.433-1.034-1.038-1.987-1.791-2.818c-3.421-3.158-8.695-3.158-12.117,0c-0.773,0.815-1.383,1.772-1.796,2.817
				c-1.357,3.176-0.646,6.858,1.795,9.301C192.132,322.593,193.083,323.199,194.116,323.632z"/>
			<path d="M197.362,358.448c4.713,0,8.533-3.82,8.533-8.533c0.02-3.467-2.059-6.601-5.261-7.931
				c-3.202-1.329-6.89-0.59-9.331,1.872c-1.559,1.635-2.443,3.799-2.475,6.059C188.829,354.627,192.649,358.448,197.362,358.448z"/>
			<path d="M203.421,377.989c-0.419-0.387-0.877-0.731-1.367-1.025c-0.434-0.34-0.925-0.6-1.45-0.767
				c-0.485-0.246-1.003-0.42-1.538-0.517c-2.81-0.558-5.715,0.305-7.763,2.308c-0.773,0.815-1.383,1.772-1.796,2.817
				c-0.906,2.066-0.906,4.417,0,6.483c0.78,2.141,2.467,3.828,4.608,4.608c3.176,1.363,6.862,0.653,9.305-1.791
				c0.751-0.832,1.357-1.784,1.792-2.817c0.911-2.065,0.911-4.418,0-6.483C204.8,379.762,204.192,378.806,203.421,377.989z"/>
			<path d="M316.829,324.314c2.855,0.03,5.531-1.385,7.115-3.761c1.584-2.376,1.86-5.39,0.735-8.014
				c-0.433-1.034-1.039-1.986-1.792-2.817c-3.421-3.158-8.695-3.158-12.117,0c-0.773,0.816-1.383,1.772-1.796,2.817
				c-1.122,2.625-0.844,5.639,0.741,8.013C311.299,322.927,313.975,324.342,316.829,324.314z"/>
			<path d="M310.771,343.856c-1.56,1.635-2.444,3.799-2.475,6.059c-0.022,2.27,0.87,4.453,2.475,6.058
				c1.605,1.605,3.789,2.497,6.058,2.475c2.27,0.022,4.453-0.87,6.058-2.475c1.605-1.605,2.497-3.789,2.475-6.058
				c-0.033-2.259-0.917-4.422-2.475-6.059C319.488,340.641,314.17,340.641,310.771,343.856z"/>
			<path d="M322.887,377.99c-0.419-0.387-0.877-0.731-1.367-1.025c-0.434-0.34-0.925-0.6-1.45-0.767
				c-0.485-0.246-1.003-0.42-1.538-0.517c-2.81-0.558-5.714,0.305-7.762,2.308c-0.773,0.815-1.383,1.772-1.796,2.817
				c-0.906,2.066-0.906,4.417,0,6.483c0.435,1.034,1.042,1.987,1.796,2.817c3.365,3.3,8.752,3.3,12.117,0
				c0.751-0.832,1.357-1.784,1.792-2.817c0.911-2.065,0.911-4.418,0-6.483C324.266,379.762,323.658,378.806,322.887,377.99z"/>
		</g>
	</g>
</g>
<g>
</g>
<g>
</g>
<g>
</g>
<g>
</g>
<g>
</g>
<g>
</g>
<g>
</g>
<g>
</g>
<g>
</g>
<g>
</g>
<g>
</g>
<g>
</g>
<g>
</g>
<g>
</g>
<g>
</g>
</svg>
