<?xml version="1.0" encoding="iso-8859-1"?>
<!-- Generator: Adobe Illustrator 19.0.0, SVG Export Plug-In . SVG Version: 6.00 Build 0)  -->
<svg version="1.1" id="Capa_1" xmlns="http://www.w3.org/2000/svg" xmlns:xlink="http://www.w3.org/1999/xlink" x="0px" y="0px"
	 viewBox="0 0 512 512" style="enable-background:new 0 0 512 512;" xml:space="preserve">
<g>
	<g>
		<g>
			<path d="M469.333,0h-409.6C26.759,0.037,0.037,26.759,0,59.733v409.6C0.028,492.886,19.114,511.972,42.667,512h51.2
				c23.553-0.028,42.639-19.114,42.667-42.667v-307.2c0.015-14.132,11.468-25.585,25.6-25.6h307.2
				c23.553-0.028,42.639-19.114,42.667-42.667v-51.2C511.972,19.114,492.886,0.028,469.333,0z M494.933,93.867
				c-0.015,14.132-11.468,25.585-25.6,25.6h-307.2c-23.553,0.028-42.639,19.114-42.667,42.667v307.2
				c-0.015,14.132-11.468,25.585-25.6,25.6h-51.2c-14.132-0.015-25.585-11.468-25.6-25.6v-409.6
				c0.028-23.553,19.114-42.639,42.667-42.667h409.6c14.132,0.015,25.585,11.468,25.6,25.6V93.867z"/>
			<path d="M443.733,34.133c-18.851,0-34.133,15.282-34.133,34.133s15.282,34.133,34.133,34.133
				c18.851,0,34.133-15.282,34.133-34.133C477.847,49.424,462.576,34.153,443.733,34.133z M443.733,85.333
				c-9.426,0-17.067-7.641-17.067-17.067S434.308,51.2,443.733,51.2S460.8,58.841,460.8,68.267
				C460.789,77.688,453.155,85.323,443.733,85.333z"/>
			<path d="M68.267,34.133c-18.851,0-34.133,15.282-34.133,34.133S49.415,102.4,68.267,102.4S102.4,87.118,102.4,68.267
				C102.378,49.424,87.109,34.155,68.267,34.133z M68.267,85.333c-9.426,0-17.067-7.641-17.067-17.067S58.841,51.2,68.267,51.2
				s17.067,7.641,17.067,17.067C85.324,77.688,77.688,85.324,68.267,85.333z"/>
			<path d="M68.267,221.867c-18.851,0-34.133,15.282-34.133,34.133c0,18.851,15.282,34.133,34.133,34.133S102.4,274.851,102.4,256
				C102.378,237.158,87.109,221.888,68.267,221.867z M68.267,273.067c-9.426,0-17.067-7.641-17.067-17.067
				s7.641-17.067,17.067-17.067S85.333,246.574,85.333,256C85.324,265.422,77.688,273.057,68.267,273.067z"/>
			<path d="M68.267,409.6c-18.851,0-34.133,15.282-34.133,34.133c0,18.851,15.282,34.133,34.133,34.133s34.133-15.282,34.133-34.133
				C102.378,424.891,87.109,409.622,68.267,409.6z M68.267,460.8c-9.426,0-17.067-7.641-17.067-17.067s7.641-17.067,17.067-17.067
				s17.067,7.641,17.067,17.067C85.324,453.155,77.688,460.791,68.267,460.8z"/>
			<path d="M256,34.133c-18.851,0-34.133,15.282-34.133,34.133S237.149,102.4,256,102.4c18.851,0,34.133-15.282,34.133-34.133
				C290.112,49.424,274.842,34.155,256,34.133z M256,85.333c-9.426,0-17.067-7.641-17.067-17.067S246.574,51.2,256,51.2
				s17.067,7.641,17.067,17.067C273.057,77.688,265.422,85.324,256,85.333z"/>
		</g>
	</g>
</g>
<g>
</g>
<g>
</g>
<g>
</g>
<g>
</g>
<g>
</g>
<g>
</g>
<g>
</g>
<g>
</g>
<g>
</g>
<g>
</g>
<g>
</g>
<g>
</g>
<g>
</g>
<g>
</g>
<g>
</g>
</svg>
