<?xml version="1.0" encoding="iso-8859-1"?>
<!-- Generator: Adobe Illustrator 19.0.0, SVG Export Plug-In . SVG Version: 6.00 Build 0)  -->
<svg version="1.1" id="Capa_1" xmlns="http://www.w3.org/2000/svg" xmlns:xlink="http://www.w3.org/1999/xlink" x="0px" y="0px"
	 viewBox="0 0 512 512" style="enable-background:new 0 0 512 512;" xml:space="preserve">
<g>
	<g>
		<g>
			<path d="M486.4,0H25.6C11.468,0.015,0.015,11.468,0,25.6v460.8c0.015,14.132,11.468,25.585,25.6,25.6h460.8
				c14.132-0.015,25.585-11.468,25.6-25.6V25.6C511.985,11.468,500.532,0.015,486.4,0z M494.933,486.4
				c-0.006,4.71-3.823,8.527-8.533,8.533H25.6c-4.71-0.006-8.527-3.823-8.533-8.533V25.6c0.006-4.71,3.823-8.527,8.533-8.533h460.8
				c4.71,0.006,8.527,3.823,8.533,8.533V486.4z"/>
			<path d="M469.333,34.133H42.667c-4.713,0-8.533,3.82-8.533,8.533v426.667c0,4.713,3.82,8.533,8.533,8.533h426.667
				c4.713,0,8.533-3.82,8.533-8.533V42.667C477.867,37.954,474.046,34.133,469.333,34.133z M51.2,85.333h34.133v34.133H51.2V85.333z
				 M51.2,136.533h85.333v34.133H51.2V136.533z M341.333,375.467H256v-34.133h85.333V375.467z M401.067,392.533v34.133H307.2
				v-34.133H401.067z M153.6,375.467v-34.133h85.333v34.133H153.6z M187.733,392.533v34.133H102.4v-34.133H187.733z M102.4,324.267
				v-34.133h85.333v34.133H102.4z M204.8,392.533h85.333v34.133H204.8V392.533z M307.2,324.267v-34.133h93.867v34.133H307.2z
				 M341.333,273.067H256v-34.133h85.333V273.067z M290.133,290.133v34.133H204.8v-34.133H290.133z M238.933,273.067H153.6v-34.133
				h85.333V273.067z M187.733,221.867H102.4v-34.133h85.333V221.867z M51.2,187.733h34.133v34.133H51.2V187.733z M51.2,238.933
				h85.333v34.133H51.2V238.933z M51.2,290.133h34.133v34.133H51.2V290.133z M51.2,341.333h85.333v34.133H51.2V341.333z
				 M51.2,392.533h34.133v34.133H51.2V392.533z M136.533,460.8H51.2v-17.067h85.333V460.8z M238.933,460.8H153.6v-17.067h85.333
				V460.8z M341.333,460.8H256v-17.067h85.333V460.8z M460.8,460.8H358.4v-17.067h102.4V460.8z M460.8,426.667h-42.667v-34.133
				H460.8V426.667z M460.8,375.467H358.4v-34.133h102.4V375.467z M460.8,324.267h-42.667v-34.133H460.8V324.267z M460.8,273.067
				H358.4V230.4c0-4.713-3.82-8.533-8.533-8.533H204.8V179.2c0-4.713-3.82-8.533-8.533-8.533H153.6V128
				c0-4.713-3.821-8.533-8.533-8.533H102.4V76.8c0-4.713-3.821-8.533-8.533-8.533H51.2V51.2h409.6V273.067z"/>
		</g>
	</g>
</g>
<g>
</g>
<g>
</g>
<g>
</g>
<g>
</g>
<g>
</g>
<g>
</g>
<g>
</g>
<g>
</g>
<g>
</g>
<g>
</g>
<g>
</g>
<g>
</g>
<g>
</g>
<g>
</g>
<g>
</g>
</svg>
