<?xml version="1.0" encoding="iso-8859-1"?>
<!-- Generator: Adobe Illustrator 19.0.0, SVG Export Plug-In . SVG Version: 6.00 Build 0)  -->
<svg version="1.1" id="Capa_1" xmlns="http://www.w3.org/2000/svg" xmlns:xlink="http://www.w3.org/1999/xlink" x="0px" y="0px"
	 viewBox="0 0 504.111 504.111" style="enable-background:new 0 0 504.111 504.111;" xml:space="preserve">
<g>
	<g>
		<g>
			<path d="M305.941,374.512c-0.185-0.534-0.44-1.041-0.758-1.508c-0.332-0.422-0.668-0.84-1.004-1.258
				c-3.365-3.107-8.553-3.107-11.918,0c-1.547,1.6-2.419,3.734-2.435,5.959c0.012,1.096,0.239,2.18,0.668,3.189
				c0.407,1.027,1.007,1.968,1.766,2.771c2.401,2.421,6.029,3.149,9.178,1.841c3.149-1.308,5.195-4.391,5.175-7.801
				c-0.019-0.563-0.075-1.124-0.168-1.68C306.352,375.499,306.182,374.989,305.941,374.512z"/>
			<path d="M432.514,125.902h-8.393v-8.393c-0.015-13.9-11.28-25.165-25.18-25.18V8.393c0-4.636-3.758-8.393-8.393-8.393H239.465
				c-4.636,0-8.393,3.758-8.393,8.393v85.481c-10.032,3.534-16.754,12.998-16.787,23.634v8.393h-8.393
				c-7.122,0.02-13.898,3.072-18.631,8.393H54.809c-4.636,0-8.393,3.758-8.393,8.393v16.787c0.015,13.9,11.28,25.165,25.18,25.18
				h109.115v2.316c0.003,5.89,2.068,11.593,5.836,16.119l36.713,44.057l1.908,9.541c-46.758,30.173-70.096,86.033-58.7,140.502
				s55.171,96.288,110.103,105.185c54.933,8.897,109.669-16.967,137.675-65.055c28.006-48.087,23.493-108.459-11.351-151.848
				l51.634-92.941c2.073-3.742,3.161-7.948,3.164-12.225v-29.225C457.68,137.182,446.415,125.917,432.514,125.902z M180.711,167.869
				H71.596c-4.633-0.006-8.387-3.76-8.393-8.393v-8.393h117.508V167.869z M247.859,16.787h134.295v16.787H247.859V16.787z
				 M247.859,50.361h134.295v41.967H247.859V50.361z M231.072,117.508c0.006-4.633,3.76-8.387,8.393-8.393h159.475
				c4.633,0.006,8.387,3.76,8.393,8.393v8.393H231.072V117.508z M415.728,369.311c0.04,55.432-38.664,103.353-92.862,114.979
				s-109.152-16.205-131.85-66.776c-22.699-50.571-6.969-110.128,37.74-142.896l5.64,28.195
				c-34.655,32.906-38.53,86.798-8.939,124.324c29.591,37.526,82.901,46.324,122.981,20.297
				c40.08-26.027,53.728-78.306,31.484-120.603l14.106-25.39C408.126,321.265,415.71,344.984,415.728,369.311z M238.475,323.211
				l11.237,56.179c4.122,20.6,20.654,36.442,41.41,39.683c20.756,3.241,41.331-6.808,51.536-25.171l27.001-48.601
				c11.511,34.138-2.712,71.651-33.962,89.576c-31.25,17.925-70.812,11.263-94.468-15.908
				C217.572,391.799,216.419,351.696,238.475,323.211z M440.908,180.307c-0.001,1.425-0.363,2.827-1.053,4.074l-54.571,98.228
				l-0.036,0.064l-57.262,103.073c-6.787,12.212-20.469,18.895-34.273,16.741c-13.804-2.154-24.799-12.689-27.542-26.389
				l-26.869-134.336c-0.274-1.371-0.887-2.652-1.783-3.725l-38.074-45.693c-1.256-1.509-1.945-3.41-1.947-5.373v-35.889
				c0.006-4.633,3.76-8.387,8.393-8.393h226.623c4.633,0.006,8.387,3.76,8.393,8.393V180.307z"/>
			<path d="M362.933,61.188c-0.816-0.742-1.753-1.339-2.771-1.766c-3.127-1.308-6.733-0.611-9.148,1.766
				c-0.742,0.815-1.339,1.75-1.766,2.766c-0.429,1.01-0.656,2.095-0.668,3.193c-0.022,2.233,0.856,4.38,2.434,5.959
				c1.579,1.579,3.726,2.456,5.959,2.434c1.101,0.029,2.193-0.202,3.188-0.672c1.016-0.427,1.953-1.023,2.771-1.762
				c1.531-1.61,2.4-3.738,2.434-5.959c-0.013-1.098-0.241-2.183-0.672-3.193C364.268,62.94,363.672,62.004,362.933,61.188z"/>
		</g>
	</g>
</g>
<g>
</g>
<g>
</g>
<g>
</g>
<g>
</g>
<g>
</g>
<g>
</g>
<g>
</g>
<g>
</g>
<g>
</g>
<g>
</g>
<g>
</g>
<g>
</g>
<g>
</g>
<g>
</g>
<g>
</g>
</svg>
