<?xml version="1.0" encoding="iso-8859-1"?>
<!-- Generator: Adobe Illustrator 19.0.0, SVG Export Plug-In . SVG Version: 6.00 Build 0)  -->
<svg version="1.1" id="Capa_1" xmlns="http://www.w3.org/2000/svg" xmlns:xlink="http://www.w3.org/1999/xlink" x="0px" y="0px"
	 viewBox="0 0 512.187 512.187" style="enable-background:new 0 0 512.187 512.187;" xml:space="preserve">
<g>
	<g>
		<path d="M493.812,447.822l-10.579-21.155h3.258c14.138,0,25.6-11.462,25.6-25.6c0-14.138-11.462-25.6-25.6-25.6h-8.533V179.2
			V85.333h8.533c14.138,0,25.6-11.461,25.6-25.6s-11.462-25.6-25.6-25.6h-8.533V25.6c0-14.138-11.462-25.6-25.6-25.6
			c-14.138,0-25.6,11.461-25.6,25.6v8.533H85.424V25.6c0-14.138-11.461-25.6-25.6-25.6s-25.6,11.461-25.6,25.6v8.533h-8.533
			c-14.138,0-25.6,11.461-25.6,25.6s11.461,25.6,25.6,25.6h8.533v290.133h-8.533c-14.138,0-25.6,11.462-25.6,25.6
			c0,14.138,11.461,25.6,25.6,25.6h3.259L18.374,447.82C3.61,455.625-3.319,472.982,2.011,488.808
			c5.33,15.827,21.348,25.455,37.825,22.738c16.478-2.717,28.555-16.979,28.521-33.679c-0.038-5.458-1.401-10.825-3.972-15.639
			l17.781-35.561h347.85l17.779,35.564c-2.57,4.814-3.932,10.179-3.97,15.636c-0.09,16.762,12.004,31.109,28.54,33.856
			c16.536,2.747,32.619-6.92,37.953-22.811C515.651,473.02,508.657,455.608,493.812,447.822z M443.824,25.6
			c0-4.713,3.821-8.533,8.533-8.533c4.713,0,8.533,3.82,8.533,8.533v8.533h-17.067V25.6z M51.291,25.6
			c0-4.713,3.82-8.533,8.533-8.533s8.533,3.82,8.533,8.533v8.533H51.291V25.6z M25.691,68.267c-4.71-0.006-8.527-3.823-8.533-8.533
			c0.006-4.71,3.823-8.527,8.533-8.533h460.8c4.713,0,8.533,3.82,8.533,8.533s-3.82,8.533-8.533,8.533H25.691z M51.291,204.8
			v-17.067h409.6V204.8H51.291z M460.891,221.867v153.6h-17.067v-153.6H460.891z M236.246,298.667l-150.821,71.82v-143.64
			L236.246,298.667z M114.656,221.867h282.869l-141.434,67.35L114.656,221.867z M256.091,308.117l141.434,67.35H114.656
			L256.091,308.117z M275.936,298.667l150.821-71.82v143.64L275.936,298.667z M68.358,221.867v153.6H51.291v-153.6H68.358z
			 M51.291,170.667V85.333h17.067v85.333H51.291z M85.424,170.667V85.333h341.333v85.333H85.424z M443.824,170.667V85.333h17.067
			v85.333H443.824z M49.995,484.393c-2.64,6.381-8.865,10.542-15.771,10.54c-8.08,0.006-15.055-5.658-16.707-13.568
			c-1.652-7.909,2.474-15.892,9.881-19.12c0.097-0.031,0.177-0.094,0.273-0.129c6.375-2.653,13.721-1.203,18.609,3.675
			C51.169,470.669,52.635,478.012,49.995,484.393z M51.986,448.859c-3.891-2.385-8.225-3.956-12.74-4.618l8.786-17.574h15.05
			L51.986,448.859z M25.691,409.6c-4.713,0-8.533-3.82-8.533-8.533s3.82-8.533,8.533-8.533h460.8
			c4.711,0.005,8.529,3.823,8.533,8.533c-0.005,4.711-3.822,8.529-8.533,8.533H25.691z M449.099,426.667h15.05l8.789,17.574
			c-4.517,0.662-8.852,2.233-12.745,4.619L449.099,426.667z M494.664,481.366c-1.652,7.909-8.627,13.573-16.707,13.567
			c-6.913,0.007-13.147-4.157-15.789-10.545c-2.641-6.388-1.168-13.739,3.731-18.616c4.899-4.877,12.256-6.317,18.633-3.647
			c0.089,0.032,0.162,0.093,0.252,0.122C492.191,465.475,496.316,473.457,494.664,481.366z"/>
	</g>
</g>
<g>
</g>
<g>
</g>
<g>
</g>
<g>
</g>
<g>
</g>
<g>
</g>
<g>
</g>
<g>
</g>
<g>
</g>
<g>
</g>
<g>
</g>
<g>
</g>
<g>
</g>
<g>
</g>
<g>
</g>
</svg>
