<?xml version="1.0" encoding="iso-8859-1"?>
<!-- Generator: Adobe Illustrator 19.0.0, SVG Export Plug-In . SVG Version: 6.00 Build 0)  -->
<svg version="1.1" id="Capa_1" xmlns="http://www.w3.org/2000/svg" xmlns:xlink="http://www.w3.org/1999/xlink" x="0px" y="0px"
	 viewBox="0 0 512 512" style="enable-background:new 0 0 512 512;" xml:space="preserve">
<g>
	<g>
		<g>
			<path d="M486.4,0H213.333c-14.132,0.015-25.585,11.468-25.6,25.6c-0.006,4.71-3.823,8.527-8.533,8.533H17.067
				C7.645,34.143,0.009,41.778,0,51.2V128c0.015,14.132,11.468,25.585,25.6,25.6h59.733v290.133H68.267
				c-14.132,0.015-25.585,11.468-25.6,25.6v34.133c0,4.713,3.82,8.533,8.533,8.533h187.733c4.713,0,8.533-3.82,8.533-8.533v-34.133
				c-0.015-14.132-11.468-25.585-25.6-25.6H204.8v-230.4h59.733c32.974-0.037,59.696-26.759,59.733-59.733V85.333h93.867v110.933
				c-9.422,0.009-17.057,7.645-17.067,17.067v85.333c0.009,9.422,7.645,17.057,17.067,17.067h25.6v18.278
				c-17.135,4.463-27.997,21.306-24.995,38.756c3.003,17.45,18.87,29.694,36.512,28.172c17.642-1.521,31.179-16.3,31.15-34.007
				c0-4.713-3.82-8.533-8.533-8.533s-8.533,3.82-8.533,8.533c0,9.426-7.641,17.067-17.067,17.067
				c-9.426,0-17.067-7.641-17.067-17.067s7.641-17.067,17.067-17.067c4.713,0,8.533-3.82,8.533-8.533v-25.6h25.6
				c9.422-0.009,17.057-7.645,17.067-17.067v-85.333c-0.009-9.422-7.645-17.057-17.067-17.067V85.333h17.067
				c4.713,0,8.533-3.82,8.533-8.533V25.6C511.985,11.468,500.532,0.015,486.4,0z M431.941,68.267l20.326-40.654l20.326,40.654
				H431.941z M469.333,85.333v110.933H435.2V85.333H469.333z M301.925,17.067L281.6,57.717l-20.325-40.65H301.925z M267.792,68.267
				h-40.651l20.326-40.654L267.792,68.267z M17.067,85.333h68.267V102.4H17.067V85.333z M25.6,136.533
				c-4.71-0.006-8.527-3.823-8.533-8.533v-8.533h68.267v17.067H25.6z M221.867,460.8c4.71,0.006,8.527,3.823,8.533,8.533v25.6
				H59.733v-25.6c0.006-4.71,3.823-8.527,8.533-8.533H221.867z M185.241,327.112l-40.175,49.101l-40.174-49.101l40.174-49.104
				L185.241,327.112z M104.892,201.954l40.174-49.101l40.175,49.101l-40.175,49.103L104.892,201.954z M178.259,443.733h-66.384
				l33.192-40.567L178.259,443.733z M156.093,389.69l31.641-38.672v77.344L156.093,389.69z M156.092,264.533l31.641-38.673v77.346
				L156.092,264.533z M156.093,139.377l31.641-38.672v77.344L156.093,139.377z M145.067,125.901l-33.192-40.568h66.384
				L145.067,125.901z M134.041,139.377L102.4,178.049v-32.982v-44.361L134.041,139.377z M134.041,264.533L102.4,303.206V225.86
				L134.041,264.533z M134.041,389.69L102.4,428.361v-77.344L134.041,389.69z M17.067,68.267V51.2H179.2
				c14.132-0.015,25.585-11.468,25.6-25.6c0.006-4.71,3.823-8.527,8.533-8.533h20.325l-25.6,51.2H17.067z M307.2,153.6
				c-0.028,23.553-19.114,42.639-42.667,42.667H204.8V85.333h102.4V153.6z M315.733,68.267h-20.326l20.326-40.654l20.326,40.654
				H315.733z M329.542,17.067h40.65l-20.325,40.65L329.542,17.067z M363.674,68.267L384,27.612l20.326,40.654H363.674z
				 M397.808,17.067h40.65l-20.325,40.65L397.808,17.067z M486.412,298.667h-68.279v-85.333H486.4L486.412,298.667z M494.933,68.267
				h-3.258l-25.6-51.2H486.4c4.71,0.006,8.527,3.823,8.533,8.533V68.267z"/>
			<path d="M230.4,153.6h34.133c14.138,0,25.6-11.462,25.6-25.6s-11.462-25.6-25.6-25.6H230.4c-4.713,0-8.533,3.82-8.533,8.533
				v34.133C221.867,149.779,225.687,153.6,230.4,153.6z M238.933,119.467h25.6c4.71,0.006,8.527,3.823,8.533,8.533
				c-0.006,4.71-3.823,8.527-8.533,8.533h-25.6V119.467z"/>
		</g>
	</g>
</g>
<g>
</g>
<g>
</g>
<g>
</g>
<g>
</g>
<g>
</g>
<g>
</g>
<g>
</g>
<g>
</g>
<g>
</g>
<g>
</g>
<g>
</g>
<g>
</g>
<g>
</g>
<g>
</g>
<g>
</g>
</svg>
