<?xml version="1.0" encoding="iso-8859-1"?>
<!-- Generator: Adobe Illustrator 19.0.0, SVG Export Plug-In . SVG Version: 6.00 Build 0)  -->
<svg version="1.1" id="Capa_1" xmlns="http://www.w3.org/2000/svg" xmlns:xlink="http://www.w3.org/1999/xlink" x="0px" y="0px"
	 viewBox="0 0 512 512" style="enable-background:new 0 0 512 512;" xml:space="preserve">
<g>
	<g>
		<g>
			<path d="M256,0C114.615,0,0,114.615,0,256s114.615,256,256,256s256-114.615,256-256C511.84,114.682,397.318,0.16,256,0z
				 M256,494.933C124.041,494.933,17.067,387.959,17.067,256S124.041,17.067,256,17.067S494.933,124.041,494.933,256
				C494.785,387.898,387.898,494.785,256,494.933z"/>
			<path d="M380.675,302.108l-106.033-67.742c-11.859-7.519-27.566-4.019-35.11,7.824c-7.544,11.843-4.076,27.558,7.751,35.126
				l21.581,13.775h-81.131v-41.188c0.191-0.16,0.429-0.225,0.608-0.404l18.1-18.1c3.201-3.2,5-7.54,5-12.067s-1.799-8.867-5-12.067
				L321.3,92.4c9.983-10.002,9.983-26.198,0-36.2l-6.033-6.033c-10.002-9.983-26.198-9.983-36.2,0L164.201,165.026
				c-6.67-6.65-17.463-6.65-24.133,0l-18.1,18.1c-1.601,1.6-2.5,3.77-2.5,6.033c0,2.263,0.899,4.433,2.5,6.033l48.7,48.7v28.494
				c-10.503-6.825-23.078-9.724-35.508-8.185c-6.351,0.443-12.733-0.085-18.925-1.567c-11.608-3.717-14.558-24.842-14.675-31.967
				c-0.065-4.667-3.866-8.415-8.533-8.417h-0.108c-4.713,0.06-8.484,3.929-8.425,8.642c0.017,1.617,0.792,39.758,26.542,47.991
				c7.924,2.133,16.147,2.935,24.333,2.375c14.367-0.046,23.134,0.362,29.444,9.833h-19.027c-8.263-0.07-16.036,3.911-20.808,10.656
				c-4.773,6.745-5.94,15.4-3.125,23.169h-1.475c-9.115-0.033-17.551,4.81-22.118,12.698c-4.567,7.888-4.567,17.616,0,25.504
				c4.567,7.888,13.003,12.731,22.118,12.698h1.513c-0.988,2.686-1.508,5.522-1.538,8.383c0.041,14.074,11.467,25.459,25.542,25.45
				h1.489c-0.988,2.683-1.509,5.516-1.539,8.375c-0.015,6.754,2.661,13.236,7.438,18.012s11.258,7.453,18.013,7.438h175.65
				c34.589-0.039,62.619-28.069,62.658-62.658v-25.9C409.653,333.518,398.736,313.585,380.675,302.108z M291.133,62.234
				c1.6-1.601,3.77-2.5,6.033-2.5c2.263,0,4.433,0.899,6.033,2.5l6.033,6.033c3.325,3.335,3.325,8.732,0,12.067L194.375,195.2
				l-18.108-18.108L291.133,62.234z M140.067,189.158l12.059-12.075l6.042,6.042l30.175,30.175l6.033,6.033l-11.783,11.783
				c-0.234-0.102-0.506-0.104-0.752-0.184L140.067,189.158z M392.533,380.817c-0.027,25.168-20.423,45.565-45.592,45.592h-175.65
				c-2.228,0.016-4.37-0.862-5.946-2.437c-1.576-1.576-2.454-3.718-2.437-5.946c0.044-4.662,3.854-8.409,8.516-8.375h68.033
				c4.713,0,8.533-3.82,8.533-8.533s-3.82-8.533-8.533-8.533h-93.566c-3.017,0.033-5.819-1.557-7.338-4.165
				c-1.518-2.607-1.518-5.83,0-8.437c1.518-2.607,4.321-4.198,7.338-4.165h93.567c4.713,0,8.533-3.82,8.533-8.533
				s-3.82-8.533-8.533-8.533H120.375c-3.017,0.033-5.82-1.557-7.338-4.165c-1.518-2.608-1.518-5.83,0-8.437
				c1.518-2.607,4.321-4.198,7.338-4.165H239.45c4.713,0,8.533-3.82,8.533-8.533s-3.821-8.533-8.533-8.533h-93.525
				c-2.274,0.004-4.458-0.892-6.075-2.492c-1.577-1.549-2.459-3.672-2.442-5.883c0.003-4.626,3.749-8.376,8.375-8.383h152.309
				c0.303-0.044,0.603-0.104,0.898-0.181c0.561-0.055,1.115-0.166,1.653-0.333c1.019-0.331,1.968-0.847,2.799-1.522
				c0.456-0.38,0.87-0.809,1.235-1.278c0.185-0.231,0.442-0.371,0.606-0.627c0.128-0.2,0.137-0.431,0.246-0.638
				c0.502-1.027,0.826-2.131,0.957-3.267c0.02-0.24,0.139-0.444,0.139-0.688c-0.042-0.296-0.101-0.59-0.177-0.879
				c-0.054-0.575-0.169-1.143-0.341-1.694c-0.333-1.016-0.851-1.963-1.527-2.792c-0.377-0.45-0.801-0.859-1.264-1.219
				c-0.233-0.185-0.374-0.444-0.631-0.608l-46.175-29.475c-3.909-2.482-5.069-7.662-2.592-11.575
				c2.549-3.806,7.628-4.955,11.567-2.617l106.008,67.725c13.138,8.354,21.079,22.856,21.041,38.425V380.817z"/>
			<path d="M93.867,204.8c2.264,0.001,4.435-0.897,6.035-2.498s2.499-3.772,2.498-6.035V179.2c0-4.713-3.821-8.533-8.533-8.533
				c-4.713,0-8.533,3.82-8.533,8.533v17.067c-0.001,2.264,0.897,4.435,2.498,6.035S91.603,204.801,93.867,204.8z"/>
			<path d="M93.867,162.133c2.264,0.001,4.435-0.897,6.035-2.498s2.499-3.772,2.498-6.035v-8.533c0-4.713-3.821-8.533-8.533-8.533
				c-4.713,0-8.533,3.82-8.533,8.533v8.533c-0.001,2.264,0.897,4.435,2.498,6.035S91.603,162.135,93.867,162.133z"/>
		</g>
	</g>
</g>
<g>
</g>
<g>
</g>
<g>
</g>
<g>
</g>
<g>
</g>
<g>
</g>
<g>
</g>
<g>
</g>
<g>
</g>
<g>
</g>
<g>
</g>
<g>
</g>
<g>
</g>
<g>
</g>
<g>
</g>
</svg>
