<?xml version="1.0" encoding="iso-8859-1"?>
<!-- Generator: Adobe Illustrator 19.0.0, SVG Export Plug-In . SVG Version: 6.00 Build 0)  -->
<svg version="1.1" id="Capa_1" xmlns="http://www.w3.org/2000/svg" xmlns:xlink="http://www.w3.org/1999/xlink" x="0px" y="0px"
	 viewBox="0 0 512 512" style="enable-background:new 0 0 512 512;" xml:space="preserve">
<g>
	<g>
		<g>
			<path d="M256,0C114.615,0,0,114.615,0,256s114.615,256,256,256s256-114.615,256-256C511.84,114.682,397.318,0.16,256,0z
				 M256,494.933C124.041,494.933,17.067,387.959,17.067,256S124.041,17.067,256,17.067S494.933,124.041,494.933,256
				C494.785,387.898,387.898,494.785,256,494.933z"/>
			<path d="M452.618,271.822c-12.82-31.345-39.255-55.119-71.78-64.554c-0.418-0.161-0.849-0.288-1.287-0.38
				c-7.512-2.132-15.227-3.468-23.018-3.988c14.106-29.593,14.441-63.901,0.916-93.764c-13.526-29.863-39.535-52.239-71.082-61.153
				c-2.573-0.732-5.34-0.214-7.474,1.399c-2.134,1.613-3.387,4.134-3.384,6.809v1.883c-0.001,3.405,2.024,6.484,5.15,7.834
				c25.745,11.659,42.093,37.509,41.591,65.766c0,1.666-0.128,3.298-0.234,4.935c-41.04-22.857-90.983-22.858-132.025-0.004
				c-0.106-1.636-0.233-3.267-0.233-4.931c-0.502-28.255,15.842-54.104,41.583-65.766c3.126-1.349,5.151-4.429,5.15-7.834v-1.883
				c0.003-2.675-1.25-5.196-3.384-6.809c-2.134-1.613-4.901-2.131-7.474-1.4c-31.545,8.915-57.551,31.291-71.076,61.151
				c-13.524,29.861-13.188,64.167,0.917,93.757c-38.167,2.353-72.448,24.154-90.764,57.722s-18.097,74.193,0.58,107.562
				c1.302,2.333,3.621,3.921,6.267,4.292c2.646,0.397,5.322-0.495,7.2-2.4l1.333-1.325c2.423-2.407,3.177-6.026,1.917-9.2
				c-9.967-26.449-3.248-56.291,17.092-75.917c6.106-6.089,13.218-11.078,21.022-14.747c4.322,46.112,31.756,86.877,72.846,108.245
				l-0.177,0.194c-19.626,20.332-49.46,27.052-75.908,17.1c-3.159-1.239-6.752-0.501-9.167,1.883l-1.333,1.325
				c-1.897,1.89-2.798,4.56-2.433,7.213c0.365,2.653,1.954,4.98,4.291,6.287c51.222,28.769,115.991,12.635,147.733-36.8
				c4.247,6.636,9.197,12.794,14.767,18.367c35.28,35.053,89.482,42.567,132.966,18.433c2.337-1.307,3.926-3.634,4.291-6.287
				s-0.535-5.323-2.433-7.213l-1.333-1.325c-2.414-2.386-6.008-3.125-9.167-1.883c-26.448,9.954-56.283,3.233-75.908-17.1
				l-0.178-0.196c41.122-21.325,68.583-62.091,72.896-108.213c7.783,3.664,14.875,8.643,20.966,14.717
				c20.334,19.628,27.055,49.466,17.1,75.917c-1.253,3.166-0.506,6.774,1.9,9.184l1.325,1.325c1.879,1.91,4.558,2.808,7.208,2.417
				c2.65-0.366,4.973-1.955,6.275-4.292C463.241,338.652,465.438,303.167,452.618,271.822z M256,136.533
				c22.16-0.023,43.881,6.183,62.682,17.912c-8.159,28.001-33.525,47.484-62.682,48.146c-29.157-0.664-54.52-20.149-62.676-48.15
				C212.125,142.716,233.843,136.51,256,136.533z M136.814,263.327c21.361-4.667,43.636,1.72,59.278,16.998
				c12.489,12.595,19.158,29.829,18.4,47.55c-0.424,12.585-4.148,24.838-10.797,35.531
				C164.973,344.562,139.411,306.313,136.814,263.327z M308.26,363.396c-16.995-26.111-13.855-60.472,7.59-83.071
				c15.66-15.285,37.959-21.668,59.335-16.983C372.601,306.338,347.013,344.592,308.26,363.396z M441.55,294.183
				c-4.363-8.345-9.975-15.974-16.642-22.625c-32.577-34.269-86.731-35.745-121.125-3.3c-29.076,30.528-31.36,77.763-5.365,110.953
				c0.156,0.211,0.294,0.431,0.466,0.624c8.159,10.956,18.702,19.915,30.832,26.198c-29.212-6.121-53.734-25.846-65.975-53.067
				c-1.385-3.045-4.421-5-7.767-5s-6.382,1.955-7.767,5c-12.242,27.224-36.768,46.949-65.983,53.066
				c12.18-6.313,22.763-15.316,30.948-26.326l0.076-0.101c11.284-14.75,17.685-32.654,18.31-51.215
				c0.959-21.983-7.17-43.391-22.478-59.197s-36.445-24.616-58.447-24.362c-23.905,0.121-46.783,9.734-63.6,26.725
				c-6.664,6.65-12.276,14.276-16.642,22.617c9.746-46.078,52.125-77.804,99.083-74.175c3.243,0.244,6.343-1.379,7.991-4.183
				c1.648-2.804,1.558-6.302-0.233-9.017c-20.573-31.181-20.698-71.593-0.317-102.9c-4.936,15.694-5.56,32.427-1.806,48.446
				l0.009,0.035c7.993,38.531,41.539,66.434,80.881,67.277c47.265-1.375,84.517-40.714,83.317-87.983
				c0.011-9.417-1.414-18.78-4.225-27.767c20.381,31.304,20.257,71.714-0.317,102.892c-1.792,2.715-1.883,6.213-0.233,9.017
				c1.663,2.784,4.747,4.401,7.983,4.183C389.468,216.388,431.822,248.117,441.55,294.183L441.55,294.183z"/>
		</g>
	</g>
</g>
<g>
</g>
<g>
</g>
<g>
</g>
<g>
</g>
<g>
</g>
<g>
</g>
<g>
</g>
<g>
</g>
<g>
</g>
<g>
</g>
<g>
</g>
<g>
</g>
<g>
</g>
<g>
</g>
<g>
</g>
</svg>
