<?xml version="1.0" encoding="iso-8859-1"?>
<!-- Generator: Adobe Illustrator 19.0.0, SVG Export Plug-In . SVG Version: 6.00 Build 0)  -->
<svg version="1.1" id="Capa_1" xmlns="http://www.w3.org/2000/svg" xmlns:xlink="http://www.w3.org/1999/xlink" x="0px" y="0px"
	 viewBox="0 0 512 512" style="enable-background:new 0 0 512 512;" xml:space="preserve">
<g>
	<g>
		<g>
			<path d="M256,0C114.615,0,0,114.615,0,256s114.615,256,256,256s256-114.615,256-256C511.84,114.682,397.318,0.16,256,0z
				 M256,494.933C124.041,494.933,17.067,387.959,17.067,256S124.041,17.067,256,17.067S494.933,124.041,494.933,256
				C494.785,387.898,387.898,494.785,256,494.933z"/>
			<path d="M450.313,251.766c-2.241-10.057-9.541-18.23-19.281-21.59l3.684-3.683c11.694-11.672,11.731-30.608,0.083-42.325
				c-3.156-3.119-6.974-5.488-11.171-6.929l3.696-3.696c8.59-8.515,11.186-21.376,6.571-32.556
				c-4.615-11.181-15.526-18.466-27.621-18.444c-7.958,0.029-15.585,3.194-21.225,8.809l-3.647,3.648
				c-3.342-9.736-11.496-17.04-21.539-19.296s-20.537,0.86-27.722,8.231L307.2,148.875v-35.5
				c0.014-16.521-13.346-29.936-29.867-29.992c-4.439,0.024-8.815,1.053-12.8,3.008v-5.2c0-10.67-5.693-20.53-14.933-25.865
				c-9.241-5.335-20.626-5.335-29.867,0c-9.241,5.335-14.933,15.195-14.933,25.865v5.2c-3.985-1.955-8.361-2.984-12.8-3.008
				c-16.521,0.055-29.88,13.471-29.867,29.992v5.2c-3.985-1.955-8.361-2.984-12.8-3.008c-16.521,0.055-29.88,13.471-29.867,29.992
				v268.183c-0.014,16.521,13.346,29.936,29.867,29.992h128c16.254-0.066,29.484-13.093,29.802-29.344l134.89-134.89
				C449.417,272.322,452.555,261.822,450.313,251.766z M290.133,413.742c0.026,7.1-5.7,12.882-12.8,12.925h-128
				c-7.1-0.043-12.826-5.825-12.8-12.925V145.558c-0.044-4.602,2.385-8.874,6.364-11.189c3.979-2.314,8.893-2.314,12.872,0
				c3.979,2.314,6.409,6.586,6.364,11.189v85.825c0,4.713,3.82,8.533,8.533,8.533s8.533-3.82,8.533-8.533V113.375
				c-0.044-4.602,2.385-8.875,6.364-11.189c3.979-2.314,8.893-2.314,12.872,0c3.979,2.314,6.409,6.586,6.364,11.189v118.008
				c0,4.713,3.821,8.533,8.533,8.533c4.713,0,8.533-3.82,8.533-8.533V81.192c-0.044-4.602,2.385-8.875,6.364-11.189
				c3.979-2.314,8.893-2.314,12.872,0c3.979,2.314,6.409,6.586,6.364,11.189v150.183c0,4.713,3.82,8.533,8.533,8.533
				s8.533-3.821,8.533-8.533v-118c-0.044-4.602,2.385-8.875,6.364-11.189c3.979-2.314,8.893-2.314,12.872,0
				c3.979,2.314,6.408,6.586,6.364,11.189V413.742z M307.2,173.008L344.212,136c3.631-3.717,9.149-4.87,13.964-2.918
				c4.815,1.952,7.973,6.622,7.99,11.818c-0.018,3.434-1.39,6.721-3.817,9.15L307.2,209.2V173.008z M307.2,233.333l67.207-67.21
				l0.009-0.006l0.014-0.017l22.682-22.683c5.1-4.84,13.085-4.876,18.229-0.083c4.979,5.041,4.938,13.16-0.091,18.15v0
				l-59.487,59.49L309.033,267.7l-0.009,0.012l-0.004,0.004c-0.78,0.783-1.398,1.712-1.821,2.733V233.333z M430.017,267.375
				L307.2,390.192V277.05c1.094,2.621,3.423,4.524,6.21,5.073c2.787,0.549,5.664-0.329,7.669-2.34l0.009-0.008l0.012-0.008
				l83.45-83.442c2.416-2.435,5.703-3.809,9.133-3.817h0.042c3.38-0.011,6.623,1.33,9.008,3.725
				c4.989,5.051,4.952,13.187-0.083,18.192l-22.69,22.69l-0.064,0.052l-0.022,0.033l-60.669,60.667
				c-2.155,2.155-2.997,5.297-2.208,8.242c0.789,2.944,3.089,5.244,6.033,6.033c2.944,0.789,6.086-0.053,8.242-2.208l60.736-60.733
				c2.409-2.403,5.673-3.752,9.076-3.75h0.025c3.37-0.02,6.608,1.309,8.992,3.692C435.11,254.2,435.073,262.362,430.017,267.375z"/>
		</g>
	</g>
</g>
<g>
</g>
<g>
</g>
<g>
</g>
<g>
</g>
<g>
</g>
<g>
</g>
<g>
</g>
<g>
</g>
<g>
</g>
<g>
</g>
<g>
</g>
<g>
</g>
<g>
</g>
<g>
</g>
<g>
</g>
</svg>
