<?xml version="1.0" encoding="iso-8859-1"?>
<!-- Generator: Adobe Illustrator 19.0.0, SVG Export Plug-In . SVG Version: 6.00 Build 0)  -->
<svg version="1.1" id="Capa_1" xmlns="http://www.w3.org/2000/svg" xmlns:xlink="http://www.w3.org/1999/xlink" x="0px" y="0px"
	 viewBox="0 0 512.012 512.012" style="enable-background:new 0 0 512.012 512.012;" xml:space="preserve">
<g transform="translate(-1)">
	<g>
		<g>
			<path d="M492.158,154.658C451.727,60.744,359.254-0.073,257.006,0.006C154.758-0.073,62.285,60.744,21.854,154.658
				S0.801,357.543,71.132,431.76c0.52,0.766,1.164,1.442,1.905,1.998c48.142,49.998,114.561,78.248,183.969,78.248
				s135.827-28.25,183.969-78.248c0.741-0.556,1.384-1.231,1.905-1.998C513.211,357.543,532.589,248.573,492.158,154.658z
				 M92.45,428.996L92.45,428.996c11.139-6.075,23.068-10.575,35.443-13.373c9.389-1.781,18.438-5.029,26.817-9.625
				c3.379-1.762,6.496-3.592,9.348-5.37c6.043,29.522,44.642,51.645,92.947,51.645s86.904-22.123,92.947-51.644
				c2.841,1.772,5.944,3.592,9.303,5.344c8.396,4.61,17.468,7.867,26.879,9.65c12.37,2.799,24.292,7.299,35.427,13.373
				C329.475,516.921,184.537,516.921,92.45,428.996z M231.406,213.34c0.011,9.421,7.645,17.056,17.067,17.067h17.067
				c9.421-0.011,17.056-7.646,17.067-17.067h79.48c-1.128,11.393-2.723,19.698-4.168,27.2c-1.167,6.081-2.184,11.684-2.793,17.798
				l-55.107,19.585c-3.495,1.272-7.41,0.108-9.642-2.867l-6.829-8.958c-4.854-6.343-12.379-10.072-20.367-10.092h-12.35
				c-7.984,0.02-15.507,3.745-20.362,10.083l-6.833,8.967c-2.242,2.963-6.15,4.124-9.646,2.867l-55.103-19.585
				c-0.609-6.113-1.627-11.716-2.793-17.798c-1.445-7.502-3.04-15.807-4.168-27.2H231.406z M150.76,196.273
				c-0.512-12.542-0.475-28.125,0.508-48.225c3.658-74.833,94.058-79.617,97.546-79.775l16.033-0.009
				c3.846,0.158,94.225,4.725,97.896,79.783c0.983,20.1,1.02,35.683,0.508,48.225h-80.646c-9.421,0.011-17.056,7.645-17.067,17.067
				h-17.067c-0.011-9.421-7.645-17.056-17.067-17.067H150.76z M158.989,284.081l0.013-0.4c0.318-1.209,0.358-2.474,0.118-3.701
				c0.05-1.124,0.068-2.271,0.109-3.405l49.04,17.431c10.49,3.754,22.203,0.273,28.942-8.6l6.837-8.975
				c1.618-2.111,4.124-3.352,6.783-3.358h12.35c2.663,0.007,5.171,1.251,6.788,3.367l6.833,8.967
				c6.738,8.871,18.448,12.351,28.938,8.6l49.044-17.431c0.041,1.142,0.059,2.295,0.109,3.427c-0.234,1.213-0.194,2.463,0.117,3.658
				l0.013,0.421c1.009,20.729,1.763,37.498-16.193,56.585l-5.353-18.735c-0.837-2.931-3.173-5.193-6.13-5.934
				c-2.957-0.741-6.084,0.152-8.204,2.342c-2.12,2.19-2.911,5.345-2.074,8.276l6.74,23.59
				c-20.204-11.929-43.347-17.956-66.803-17.398c-23.456-0.559-46.599,5.469-66.803,17.398l6.74-23.59
				c0.837-2.931,0.046-6.086-2.074-8.276c-2.12-2.19-5.247-3.083-8.204-2.342c-2.957,0.741-5.293,3.003-6.13,5.934l-5.352,18.731
				C157.228,321.558,157.981,304.798,158.989,284.081z M333.806,392.54c0,23.125-35.171,42.667-76.8,42.667
				c-41.629,0-76.8-19.541-76.8-42.667c0-23.125,35.171-42.667,76.8-42.667C298.635,349.873,333.806,369.414,333.806,392.54z
				 M434.059,416.273c-14.065-8.028-29.248-13.915-45.049-17.467c-7.639-1.505-14.998-4.184-21.817-7.942
				c-5.961-3.144-11.675-6.737-17.092-10.746l-5.943-20.8l0.209-0.196c28.755-25.816,28.915-49.649,27.85-72.677
				c16.218-10.253,27.418-26.812,30.896-45.681c3.475-29.075,0.321-46.108-9.383-50.625c-4.149-1.946-8.893-2.195-13.223-0.695
				c0.261-11.649,0.106-25.461-0.715-42.23c-4.429-90.45-113.15-95.958-114.596-96.008l-16.734,0.009
				c-1.096,0.042-109.817,5.55-114.246,96c-0.821,16.773-0.976,30.587-0.714,42.237c-4.331-1.5-9.078-1.251-13.228,0.696
				c-9.7,4.508-12.854,21.542-9.338,50.9c3.534,18.76,14.711,35.205,30.854,45.396c-1.065,23.029-0.903,46.865,27.895,72.721
				l0.164,0.154l-5.943,20.798c-5.432,4.019-11.161,7.621-17.138,10.773c-6.801,3.743-14.139,6.413-21.754,7.917
				c-15.807,3.55-30.996,9.437-45.066,17.467C16.492,346.27,0.272,245.432,38.58,159.06
				C76.888,72.687,162.519,17.023,257.006,17.073c94.487-0.05,180.118,55.615,218.426,141.987S497.52,346.27,434.059,416.273z
				 M371.741,265.406c0.409-7.28,1.392-14.516,2.939-21.642c2.224-10.889,3.809-21.899,4.745-32.973
				c1.655-2.201,3.818-3.969,6.305-5.152c1.954,10.825,2.116,21.897,0.479,32.775C384.133,248.634,379.102,258.019,371.741,265.406
				L371.741,265.406z M142.27,265.406c-7.295-7.303-12.307-16.572-14.423-26.675c-1.677-10.976-1.532-22.154,0.429-33.084
				c2.498,1.168,4.666,2.939,6.31,5.153c0.937,11.071,2.521,22.078,4.745,32.964C140.879,250.889,141.862,258.126,142.27,265.406z"
				/>
			<path d="M243.181,367.622c-2.06-0.942-4.427-0.942-6.487,0c-1.033,0.433-1.984,1.039-2.813,1.792
				c-0.773,0.815-1.383,1.772-1.796,2.817c-1.357,3.176-0.646,6.858,1.795,9.301c0.829,0.753,1.78,1.359,2.813,1.791
				c2.067,0.911,4.421,0.911,6.487,0c1.034-0.433,1.987-1.039,2.817-1.792c1.604-1.606,2.496-3.788,2.475-6.058
				c-0.033-2.259-0.917-4.422-2.475-6.059C245.168,368.661,244.215,368.055,243.181,367.622z"/>
			<path d="M219.119,385.456c-0.475-0.325-0.992-0.582-1.538-0.767c-0.485-0.246-1.003-0.42-1.538-0.517
				c-1.664-0.348-3.394-0.167-4.95,0.517c-1.044,0.412-1.998,1.02-2.813,1.792c-1.559,1.635-2.444,3.799-2.475,6.058
				c-0.038,2.248,0.858,4.412,2.475,5.975c0.804,0.805,1.76,1.443,2.813,1.875c1.027,0.438,2.13,0.67,3.246,0.683
				c4.699-0.033,8.501-3.834,8.533-8.533c-0.033-2.259-0.917-4.422-2.475-6.059C219.992,386.115,219.564,385.773,219.119,385.456z"
				/>
			<path d="M302.915,384.689c-2.077-0.858-4.41-0.858-6.487,0c-2.141,0.78-3.828,2.467-4.608,4.608
				c-1.294,3.156-0.588,6.778,1.795,9.218c1.606,1.609,3.785,2.513,6.058,2.513c2.273,0,4.452-0.904,6.058-2.513
				c1.616-1.564,2.512-3.727,2.475-5.975c-0.033-2.259-0.917-4.422-2.475-6.059C304.915,385.71,303.959,385.102,302.915,384.689z"/>
			<path d="M244.719,402.523c-0.475-0.325-0.992-0.582-1.538-0.767c-0.485-0.246-1.003-0.42-1.537-0.517
				c-2.811-0.571-5.721,0.295-7.763,2.308c-1.559,1.635-2.443,3.799-2.475,6.059c-0.023,2.27,0.869,4.454,2.475,6.059
				c0.829,0.753,1.78,1.359,2.813,1.791c2.624,1.125,5.639,0.848,8.015-0.735s3.792-4.26,3.764-7.115
				c-0.033-2.259-0.917-4.422-2.475-6.059C245.592,403.182,245.165,402.84,244.719,402.523z"/>
			<path d="M274.073,366.94c-4.713,0-8.533,3.82-8.533,8.533c-0.023,2.27,0.869,4.454,2.475,6.059
				c0.829,0.753,1.78,1.359,2.813,1.791c2.067,0.911,4.421,0.911,6.487,0c1.034-0.433,1.987-1.039,2.817-1.792
				c1.604-1.606,2.496-3.788,2.475-6.058C282.606,370.76,278.786,366.94,274.073,366.94z"/>
			<path d="M277.315,401.756c-2.077-0.858-4.41-0.858-6.487,0c-2.141,0.78-3.828,2.467-4.608,4.608
				c-0.906,2.066-0.906,4.417,0,6.483c0.435,1.034,1.042,1.987,1.795,2.818c0.829,0.753,1.78,1.359,2.813,1.792
				c2.625,1.125,5.64,0.848,8.016-0.735c2.376-1.584,3.792-4.26,3.764-7.115c-0.033-2.259-0.917-4.422-2.475-6.059
				C279.315,402.776,278.359,402.168,277.315,401.756z"/>
		</g>
	</g>
</g>
<g>
</g>
<g>
</g>
<g>
</g>
<g>
</g>
<g>
</g>
<g>
</g>
<g>
</g>
<g>
</g>
<g>
</g>
<g>
</g>
<g>
</g>
<g>
</g>
<g>
</g>
<g>
</g>
<g>
</g>
</svg>
