<?xml version="1.0" encoding="iso-8859-1"?>
<!-- Generator: Adobe Illustrator 19.0.0, SVG Export Plug-In . SVG Version: 6.00 Build 0)  -->
<svg version="1.1" id="Capa_1" xmlns="http://www.w3.org/2000/svg" xmlns:xlink="http://www.w3.org/1999/xlink" x="0px" y="0px"
	 viewBox="0 0 512.144 512.144" style="enable-background:new 0 0 512.144 512.144;" xml:space="preserve">
<g>
	<g>
		<path d="M483.044,137.722c-0.147-0.342-0.317-0.673-0.508-0.992c-6.663-12.591-14.363-24.604-23.02-35.917
			c-0.124-0.152-0.202-0.326-0.337-0.469c-0.077-0.081-0.141-0.165-0.221-0.242c-67.14-87.376-182.663-121.981-286.783-85.905
			C68.055,50.275-1.294,148.934,0.018,259.119s72.99,207.165,177.94,240.752s219.616-3.759,284.656-92.709
			c0.057-0.056,0.084-0.137,0.14-0.196c10.252-14.006,19.055-29.018,26.271-44.804c0.122-0.237,0.232-0.481,0.33-0.729
			C521.821,289.871,519.493,207.34,483.044,137.722z M465.456,140.968l-15.8,35.058c-22.55,49.864-66.588,86.741-119.637,100.183
			l-0.045-17.687c16.209-4.559,31.609-11.615,45.646-20.915l0.079-0.04l0.041-0.044c25.526-16.867,45.753-40.619,58.339-68.506
			l20.602-45.742C458.521,129.002,462.113,134.899,465.456,140.968z M367.233,158.355l28.058,39.379
			c-6.785,7.735-14.369,14.73-22.626,20.87l-25.7-36.077C355.041,175.676,361.895,167.502,367.233,158.355z M375.74,140.887
			l13.066-28.983l32.046,44.923l-2.342,5.2c-3.466,7.546-7.589,14.772-12.32,21.596L375.74,140.887z M358.391,227.979
			c-10.539,6.092-21.805,10.827-33.532,14.092l-27.09-37.981c12.408-1.535,24.384-5.534,35.224-11.763L358.391,227.979z
			 M407.205,71.089c13.211,10.828,25.234,23.03,35.866,36.4l-14.105,31.321l-32.041-44.917L407.205,71.089z M256.144,494.985
			C153.068,495.093,61.542,429.088,29.101,331.25S30.62,125.799,113.34,64.302s195.554-63.014,279.899-3.763l-36.937,81.938
			c-12.401,27.565-39.812,45.298-70.037,45.308h-72.788c-70.66,0.079-127.921,57.34-128,128v68.267
			c-0.022,5.939,2.056,11.695,5.867,16.25c4.84,5.922,12.085,9.354,19.733,9.35h327.896
			C393.657,463.745,326.711,494.991,256.144,494.985z M213.477,324.318c18.843-0.02,34.113-15.29,34.133-34.133v-85.333h17.067
			v145.067H102.544v-25.6H213.477z M102.976,307.252c4.49-57.729,52.598-102.31,110.501-102.4h17.067v85.333
			c-0.011,9.421-7.646,17.056-17.067,17.067H102.976z M452.332,392.196c-0.193-4.627-4.055-8.248-8.685-8.142
			c-4.63,0.106-8.323,3.9-8.303,8.531h-17.067c0-4.713-3.82-8.533-8.533-8.533s-8.533,3.821-8.533,8.533h-17.067
			c0-4.713-3.82-8.533-8.533-8.533s-8.533,3.821-8.533,8.533H350.01c0-4.713-3.82-8.533-8.533-8.533s-8.533,3.821-8.533,8.533
			h-17.067c0-4.713-3.82-8.533-8.533-8.533s-8.533,3.821-8.533,8.533h-17.067c0-4.713-3.821-8.533-8.533-8.533
			c-4.713,0-8.533,3.821-8.533,8.533H247.61c0-4.713-3.82-8.533-8.533-8.533s-8.533,3.821-8.533,8.533h-17.067
			c0-4.713-3.821-8.533-8.533-8.533s-8.533,3.821-8.533,8.533h-17.067c0-4.713-3.82-8.533-8.533-8.533s-8.533,3.821-8.533,8.533
			H145.21c0-4.713-3.82-8.533-8.533-8.533s-8.533,3.821-8.533,8.533h-17.067c-4.693-0.048-8.485-3.841-8.533-8.533v-17.067h365.122
			C463.078,375.696,457.957,384.116,452.332,392.196z M475.841,349.918H281.744V211.015l31.153,43.678l0.081,31.417
			c0.014,4.703,3.83,8.508,8.533,8.508h4.008c0.678-0.001,1.354-0.082,2.013-0.242l3.783-0.917
			c59.331-14.089,108.785-54.876,133.908-110.442l10.003-22.192C501.479,221.079,501.701,289.496,475.841,349.918z"/>
	</g>
</g>
<g>
</g>
<g>
</g>
<g>
</g>
<g>
</g>
<g>
</g>
<g>
</g>
<g>
</g>
<g>
</g>
<g>
</g>
<g>
</g>
<g>
</g>
<g>
</g>
<g>
</g>
<g>
</g>
<g>
</g>
</svg>
