<?xml version="1.0" encoding="iso-8859-1"?>
<!-- Generator: Adobe Illustrator 19.0.0, SVG Export Plug-In . SVG Version: 6.00 Build 0)  -->
<svg version="1.1" id="Capa_1" xmlns="http://www.w3.org/2000/svg" xmlns:xlink="http://www.w3.org/1999/xlink" x="0px" y="0px"
	 viewBox="0 0 511.38 511.38" style="enable-background:new 0 0 511.38 511.38;" xml:space="preserve">
<g>
	<g>
		<g>
			<path d="M127.38,319.69c-32.99,0-59.733,26.744-59.733,59.733s26.744,59.733,59.733,59.733s59.733-26.744,59.733-59.733
				C187.075,346.449,160.354,319.728,127.38,319.69z M127.38,422.09c-23.564,0-42.667-19.103-42.667-42.667
				s19.103-42.667,42.667-42.667s42.667,19.103,42.667,42.667C170.019,402.976,150.933,422.062,127.38,422.09z"/>
			<path d="M494.314,328.223h-17.875c-15.261-33.705-47.641-56.447-84.524-59.366v-4.476c0-4.351-1.108-8.63-3.221-12.433
				l-38.083-68.55c-3.012-5.414-8.721-8.773-14.917-8.775h-12.046c-14.132,0.015-25.585,11.468-25.6,25.6v42.667
				c-0.005,4.711-3.822,8.529-8.533,8.533h-25.6c-4.711-0.005-8.529-3.822-8.533-8.533v-42.667
				c-0.015-14.132-11.468-25.585-25.6-25.6h-68.267V89.29h137.15c14.138,0,25.6-11.461,25.6-25.6s-11.461-25.6-25.6-25.6h-162.75
				c-14.132,0.015-25.585,11.468-25.6,25.6v118.467c0.01,2.965-1.528,5.72-4.058,7.267L8.126,249.807
				c-5.695,3.51-8.82,10.019-7.996,16.658l16.383,131.083c0.534,4.27,4.164,7.474,8.467,7.475h12.172
				c11.41,40.383,48.264,68.267,90.228,68.267c41.964,0,78.818-27.884,90.228-68.267h69.346
				c13.868,39.32,50.213,66.287,91.864,68.163c41.651,1.876,80.273-21.716,97.62-59.63h17.875
				c9.421-0.012,17.054-7.646,17.067-17.067v-51.2C511.368,335.869,503.734,328.235,494.314,328.223z M127.38,456.223
				c-42.415,0-76.8-34.385-76.8-76.8s34.385-76.8,76.8-76.8s76.8,34.385,76.8,76.8C204.133,421.819,169.776,456.176,127.38,456.223z
				 M282.522,387.957h-61.707c0.255-2.815,0.432-5.653,0.432-8.533c0-51.841-42.026-93.867-93.867-93.867
				c-51.841,0-93.867,42.026-93.867,93.867c0,2.88,0.177,5.719,0.432,8.533h-1.432l-15.45-123.608l98.138-60.392
				c7.594-4.635,12.213-12.903,12.179-21.8V63.69c0.005-4.711,3.823-8.529,8.533-8.533h162.75c4.713,0,8.533,3.82,8.533,8.533
				s-3.82,8.533-8.533,8.533h-137.15c-9.421,0.011-17.056,7.645-17.067,17.067v85.333c0.011,9.421,7.646,17.056,17.067,17.067
				h68.267c4.711,0.005,8.529,3.822,8.533,8.533v42.667c0.015,14.132,11.468,25.585,25.6,25.6h25.6
				c14.132-0.015,25.585-11.468,25.6-25.6v-42.667c0.005-4.711,3.822-8.529,8.533-8.533h12.05l38.079,68.55
				c0.702,1.267,1.071,2.693,1.071,4.142v4.541c-28.606,2.206-54.949,16.393-72.532,39.064
				C284.731,330.657,277.542,359.701,282.522,387.957z M361.343,453.316c-37.306-9.996-63.247-43.803-63.247-82.426
				s25.941-72.43,63.247-82.426c37.306-9.996,76.676,6.311,95.987,39.759h-65.416c-23.564,0-42.667,19.103-42.667,42.667
				s19.102,42.667,42.667,42.667h65.416C438.018,447.005,398.649,463.312,361.343,453.316z M494.314,396.49h-102.4
				c-14.138,0-25.6-11.461-25.6-25.6s11.461-25.6,25.6-25.6h102.4V396.49z"/>
		</g>
	</g>
</g>
<g>
</g>
<g>
</g>
<g>
</g>
<g>
</g>
<g>
</g>
<g>
</g>
<g>
</g>
<g>
</g>
<g>
</g>
<g>
</g>
<g>
</g>
<g>
</g>
<g>
</g>
<g>
</g>
<g>
</g>
</svg>
