<?xml version="1.0" encoding="iso-8859-1"?>
<!-- Generator: Adobe Illustrator 19.0.0, SVG Export Plug-In . SVG Version: 6.00 Build 0)  -->
<svg version="1.1" id="Capa_1" xmlns="http://www.w3.org/2000/svg" xmlns:xlink="http://www.w3.org/1999/xlink" x="0px" y="0px"
	 viewBox="0 0 512 512" style="enable-background:new 0 0 512 512;" xml:space="preserve">
<g>
	<g>
		<g>
			<path d="M506.725,34.79c-1.033-0.43-2.14-0.653-3.258-0.656H8.533C3.828,34.151,0.018,37.961,0,42.667v426.667
				c0.017,4.706,3.828,8.516,8.533,8.533h494.933c4.706-0.016,8.517-3.827,8.533-8.533V42.667
				C511.988,39.218,509.909,36.114,506.725,34.79z M482.867,51.2L465.8,68.267H46.2L29.133,51.2H482.867z M460.8,85.333v341.333
				H51.2V85.333H460.8z M17.067,63.267l17.067,17.067v351.333l-17.067,17.067V63.267z M29.133,460.8L46.2,443.733h419.6
				l17.067,17.067H29.133z M494.933,448.733l-17.067-17.067V80.333l17.067-17.067V448.733z"/>
			<path d="M76.8,409.6h162.133c2.264,0.001,4.435-0.897,6.035-2.498s2.499-3.772,2.498-6.035V110.933
				c0.001-2.264-0.897-4.435-2.498-6.035s-3.772-2.499-6.035-2.498H76.8c-2.264-0.001-4.435,0.897-6.035,2.498
				s-2.499,3.772-2.498,6.035v290.133c-0.001,2.264,0.897,4.435,2.498,6.035S74.536,409.601,76.8,409.6z M85.333,119.467H230.4
				v273.067H85.333V119.467z"/>
			<path d="M273.067,409.6H435.2c2.264,0.001,4.435-0.897,6.035-2.498c1.601-1.601,2.499-3.772,2.498-6.035V110.933
				c0.001-2.264-0.897-4.435-2.498-6.035c-1.601-1.601-3.772-2.499-6.035-2.498H273.067c-2.264-0.001-4.435,0.897-6.035,2.498
				s-2.499,3.772-2.498,6.035v290.133c-0.001,2.264,0.897,4.435,2.498,6.035S270.803,409.601,273.067,409.6z M281.6,119.467h145.067
				v273.067H281.6V119.467z"/>
			<path d="M110.933,170.667c2.264,0.003,4.435-0.897,6.033-2.5l17.067-17.067c3.281-3.341,3.256-8.701-0.054-12.012
				s-8.671-3.335-12.012-0.054L104.9,156.1c-2.44,2.44-3.169,6.11-1.849,9.298C104.372,168.587,107.482,170.666,110.933,170.667z"/>
			<path d="M164.634,147.567L104.9,207.3c-2.44,2.44-3.169,6.11-1.849,9.298c1.32,3.188,4.431,5.267,7.882,5.268
				c2.264,0.003,4.435-0.897,6.033-2.5l59.733-59.733c3.281-3.341,3.256-8.701-0.054-12.012S167.974,144.286,164.634,147.567z"/>
			<path d="M307.2,170.667c2.264,0.003,4.435-0.897,6.033-2.5L330.3,151.1c3.281-3.341,3.256-8.701-0.054-12.012
				s-8.671-3.335-12.012-0.054L301.167,156.1c-2.44,2.44-3.169,6.11-1.849,9.298C300.638,168.587,303.749,170.666,307.2,170.667z"/>
			<path d="M360.9,147.567L301.167,207.3c-2.44,2.44-3.169,6.11-1.849,9.298c1.321,3.188,4.431,5.267,7.882,5.268
				c2.264,0.003,4.435-0.897,6.033-2.5l59.733-59.733c3.281-3.341,3.256-8.701-0.054-12.012
				C369.601,144.311,364.241,144.286,360.9,147.567z"/>
		</g>
	</g>
</g>
<g>
</g>
<g>
</g>
<g>
</g>
<g>
</g>
<g>
</g>
<g>
</g>
<g>
</g>
<g>
</g>
<g>
</g>
<g>
</g>
<g>
</g>
<g>
</g>
<g>
</g>
<g>
</g>
<g>
</g>
</svg>
