<?xml version="1.0" encoding="iso-8859-1"?>
<!-- Generator: Adobe Illustrator 19.0.0, SVG Export Plug-In . SVG Version: 6.00 Build 0)  -->
<svg version="1.1" id="Capa_1" xmlns="http://www.w3.org/2000/svg" xmlns:xlink="http://www.w3.org/1999/xlink" x="0px" y="0px"
	 viewBox="0 0 512 512" style="enable-background:new 0 0 512 512;" xml:space="preserve">
<g>
	<g>
		<g>
			<path d="M509.501,156.099c-1.6-1.6-3.771-2.499-6.035-2.499h-50.658c-21.155-40.324-54.084-73.253-94.408-94.408V8.533
				c0.001-2.263-0.898-4.434-2.499-6.035c-1.6-1.6-3.771-2.499-6.035-2.499H162.133c-2.263-0.001-4.434,0.898-6.035,2.499
				c-1.6,1.6-2.499,3.771-2.499,6.035v50.658c-40.324,21.155-73.253,54.084-94.408,94.408H8.533
				c-2.263-0.001-4.434,0.898-6.035,2.499c-1.6,1.6-2.499,3.771-2.499,6.035v187.733c-0.001,2.263,0.898,4.434,2.499,6.035
				c1.6,1.6,3.771,2.499,6.035,2.499h50.658c21.155,40.324,54.084,73.253,94.408,94.408v50.658
				c-0.001,2.263,0.898,4.434,2.499,6.035c1.6,1.6,3.771,2.499,6.035,2.499h187.733c2.263,0.001,4.434-0.898,6.035-2.499
				c1.6-1.6,2.499-3.771,2.499-6.035v-50.658c40.324-21.155,73.253-54.084,94.408-94.408h50.658
				c2.263,0.001,4.434-0.898,6.035-2.499c1.6-1.6,2.499-3.771,2.499-6.035V162.133C512.001,159.87,511.102,157.699,509.501,156.099z
				 M17.067,170.667h47.362c3.252-0.002,6.221-1.85,7.658-4.767c20.127-40.719,53.093-73.684,93.813-93.808
				c2.918-1.437,4.766-4.406,4.767-7.658V17.067h17.067v64.042c-48.795,19.212-87.415,57.831-106.629,106.625H17.067V170.667z
				 M187.733,494.933h-17.067v-47.367c-0.001-3.252-1.849-6.222-4.767-7.658c-40.72-20.125-73.686-53.089-93.813-93.808
				c-1.437-2.917-4.406-4.765-7.658-4.767H17.067v-17.067h64.037c19.214,48.794,57.835,87.413,106.629,106.625V494.933z
				 M494.933,341.333h-47.362c-3.252,0.002-6.221,1.85-7.658,4.767c-20.127,40.719-53.093,73.684-93.813,93.808
				c-2.918,1.437-4.766,4.406-4.767,7.658v47.367h-17.067v-64.042c48.795-19.212,87.415-57.831,106.629-106.625h64.037V341.333z
				 M494.933,247.467H435.2c-4.713,0-8.533,3.82-8.533,8.533s3.82,8.533,8.533,8.533h59.733V307.2h-69.975
				c-3.621-0.001-6.849,2.284-8.05,5.7c-17.29,48.53-55.478,86.718-104.008,104.008c-3.416,1.202-5.701,4.429-5.7,8.05v69.975
				h-42.667V435.2c0-4.713-3.82-8.533-8.533-8.533s-8.533,3.82-8.533,8.533v59.733H204.8v-69.975c0.001-3.621-2.284-6.848-5.7-8.05
				c-48.53-17.29-86.718-55.478-104.008-104.008c-1.201-3.416-4.429-5.701-8.05-5.7H17.067v-42.667H76.8
				c4.713,0,8.533-3.82,8.533-8.533s-3.82-8.533-8.533-8.533H17.067V204.8h69.975c3.621,0.001,6.849-2.284,8.05-5.7
				c17.29-48.53,55.478-86.718,104.008-104.008c3.416-1.202,5.701-4.429,5.7-8.05V17.067h42.667V76.8
				c0,4.713,3.82,8.533,8.533,8.533s8.533-3.82,8.533-8.533V17.067H307.2v69.975c-0.001,3.621,2.284,6.848,5.7,8.05
				c48.53,17.29,86.718,55.478,104.008,104.008c1.201,3.416,4.429,5.702,8.05,5.7h69.975V247.467z M494.933,187.733h-64.037
				c-19.214-48.794-57.835-87.413-106.629-106.625V17.067h17.067v47.367c0.001,3.252,1.849,6.222,4.767,7.658
				c40.72,20.125,73.686,53.089,93.813,93.808c1.437,2.917,4.406,4.765,7.658,4.767h47.362V187.733z"/>
			<path d="M256,221.867c-18.851,0-34.133,15.282-34.133,34.133c0,18.851,15.282,34.133,34.133,34.133
				c18.851,0,34.133-15.282,34.133-34.133C290.113,237.157,274.843,221.887,256,221.867z M256,273.067
				c-9.426,0-17.067-7.641-17.067-17.067s7.641-17.067,17.067-17.067s17.067,7.641,17.067,17.067
				C273.056,265.421,265.421,273.056,256,273.067z"/>
			<path d="M324.267,256c0-37.703-30.564-68.267-68.267-68.267S187.733,218.297,187.733,256s30.564,68.267,68.267,68.267
				C293.685,324.224,324.224,293.685,324.267,256z M256,307.2c-28.277,0-51.2-22.923-51.2-51.2s22.923-51.2,51.2-51.2
				s51.2,22.923,51.2,51.2C307.169,284.264,284.264,307.169,256,307.2z"/>
			<path d="M171.541,180.041L171.541,180.041c2.264,0.003,4.435-0.897,6.034-2.5c9.354-9.366,20.31-16.981,32.35-22.483
				c2.782-1.26,4.678-3.912,4.971-6.952c0.293-3.04-1.062-6.005-3.553-7.773c-2.49-1.768-5.736-2.07-8.51-0.791
				c-13.893,6.341-26.536,15.125-37.325,25.933c-2.44,2.44-3.169,6.11-1.849,9.298C164.98,177.961,168.09,180.04,171.541,180.041z"
				/>
			<path d="M255.991,366.933c-13.24,0.023-26.375-2.337-38.779-6.967c-4.404-1.616-9.287,0.628-10.93,5.022
				s0.571,9.291,4.955,10.961c14.314,5.346,29.474,8.073,44.754,8.05c4.713,0,8.533-3.82,8.533-8.533
				S260.704,366.933,255.991,366.933z"/>
			<path d="M334.433,334.458c-9.354,9.368-20.311,16.985-32.35,22.492c-2.784,1.261-4.681,3.914-4.974,6.956
				s1.065,6.008,3.558,7.776s5.741,2.067,8.515,0.784c13.887-6.351,26.526-15.137,37.317-25.942c3.332-3.332,3.332-8.734,0-12.067
				C343.168,331.126,337.766,331.126,334.433,334.458z"/>
			<path d="M155.063,302.067c-1.967-4.276-7.024-6.154-11.305-4.196c-4.281,1.958-6.169,7.011-4.22,11.296
				c6.35,13.889,15.134,26.53,25.937,37.325c3.338,3.302,8.715,3.289,12.036-0.03s3.338-8.697,0.038-12.036
				C168.181,325.069,160.565,314.11,155.063,302.067z"/>
			<path d="M256.021,145.067c13.24-0.017,26.375,2.345,38.779,6.975c4.404,1.616,9.287-0.628,10.93-5.022s-0.571-9.291-4.955-10.961
				c-14.314-5.35-29.473-8.08-44.754-8.059c-4.713,0-8.533,3.82-8.533,8.533S251.308,145.067,256.021,145.067z"/>
			<path d="M145.067,255.983c-0.019-13.244,2.342-26.383,6.971-38.792c1.62-4.409-0.626-9.298-5.027-10.94
				c-4.401-1.642-9.301,0.581-10.965,4.973c-5.34,14.317-8.065,29.477-8.046,44.758c0,4.713,3.82,8.533,8.533,8.533
				S145.067,260.696,145.067,255.983z"/>
			<path d="M368.251,214.138c4.281-1.958,6.169-7.011,4.22-11.296c-6.347-13.89-15.13-26.531-25.933-37.325
				c-3.338-3.302-8.715-3.289-12.036,0.03c-3.321,3.319-3.338,8.697-0.038,12.036c9.37,9.354,16.985,20.313,22.483,32.358
				C358.913,214.218,363.97,216.095,368.251,214.138z"/>
			<path d="M375.467,247.467c-4.713,0-8.533,3.82-8.533,8.533c0.017,13.243-2.343,26.382-6.967,38.792
				c-1.62,4.409,0.626,9.298,5.027,10.94c4.401,1.642,9.301-0.581,10.965-4.973C381.295,286.44,384.019,271.28,384,256
				C384,251.287,380.18,247.467,375.467,247.467z"/>
		</g>
	</g>
</g>
<g>
</g>
<g>
</g>
<g>
</g>
<g>
</g>
<g>
</g>
<g>
</g>
<g>
</g>
<g>
</g>
<g>
</g>
<g>
</g>
<g>
</g>
<g>
</g>
<g>
</g>
<g>
</g>
<g>
</g>
</svg>
