<?xml version="1.0" encoding="iso-8859-1"?>
<!-- Generator: Adobe Illustrator 19.0.0, SVG Export Plug-In . SVG Version: 6.00 Build 0)  -->
<svg version="1.1" id="Capa_1" xmlns="http://www.w3.org/2000/svg" xmlns:xlink="http://www.w3.org/1999/xlink" x="0px" y="0px"
	 viewBox="0 0 512.413 512.413" style="enable-background:new 0 0 512.413 512.413;" xml:space="preserve">
<g>
	<g>
		<path d="M512.413,311.676V21.543c0.001-3.206-1.795-6.141-4.65-7.6c-2.852-1.465-6.285-1.201-8.879,0.683L198.567,231.57
			L13.68,108.31c-3.921-2.614-9.219-1.555-11.833,2.366c-1.172,1.784-1.626,3.946-1.269,6.05c-0.069,0.269-0.124,0.542-0.165,0.817
			v243.703c-1.162,3.579,0.188,7.495,3.308,9.597l191.917,127.15c0.587,0.274,1.174,0.547,1.76,0.821
			c0.938,0.372,1.935,0.574,2.944,0.596H503.88c2.263,0.001,4.434-0.898,6.035-2.499c1.6-1.6,2.499-3.771,2.499-6.035v-45.308
			c-0.04-0.269-0.094-0.535-0.161-0.798c-0.146-1.877-0.921-3.649-2.199-5.03c-0.113-0.119-0.222-0.23-0.341-0.344
			c-0.33-0.402-0.697-0.772-1.098-1.103l-86.019-57.356l86.281-62.344C511.096,316.989,512.412,314.416,512.413,311.676z
			 M17.48,131.353l203.64,135.758l-108.778,43.506L17.48,247.376V131.353z M119.88,336.153l110.933,73.956v30.692L119.88,366.843
			V336.153z M202.925,482.343L17.48,359.48v-91.594l85.333,56.89v46.633c0.001,2.853,1.426,5.517,3.8,7.1l128,85.333
			c2.618,1.746,5.985,1.909,8.76,0.424c2.775-1.485,4.507-4.377,4.507-7.524v-35.256l91.283,60.856H202.925z M495.346,449.959
			v32.384H369.93l-119.053-79.369l48.63-83.599L495.346,449.959z M495.346,307.318l-87.905,63.515l-40.24-26.832l128.145-92.45
			V307.318z M495.346,230.51L352.049,333.897l-50.623-33.754c-0.077-0.05-0.166-0.052-0.244-0.1
			c-0.078-0.048-0.119-0.129-0.198-0.175c-0.45-0.201-0.917-0.36-1.396-0.475c-0.502-0.227-1.024-0.404-1.56-0.529
			c-0.555-0.054-1.114-0.051-1.669,0.009c-0.53-0.015-1.06,0.02-1.583,0.104c-0.52,0.157-1.024,0.364-1.505,0.619
			c-0.51,0.187-1,0.423-1.463,0.706c-0.437,0.357-0.837,0.755-1.195,1.191c-0.37,0.308-0.712,0.649-1.021,1.018
			c-0.051,0.077-0.051,0.167-0.1,0.245c-0.049,0.078-0.129,0.118-0.175,0.197l-52.668,90.539l-107.076-71.385l111.718-44.704
			l1.108-0.425l0.046-0.029c0.171-0.066,0.322-0.16,0.489-0.237c0.816-0.371,1.567-0.871,2.224-1.479
			c0.073-0.069,0.173-0.092,0.245-0.162c0.149-0.15,0.204-0.352,0.34-0.51c0.253-0.256,0.489-0.528,0.706-0.815
			c0.134-0.202,0.148-0.437,0.263-0.645l0.109-0.165c0.092-0.174,0.246-0.309,0.325-0.489c0.12-0.361,0.214-0.73,0.284-1.104
			c0.14-0.461,0.24-0.934,0.297-1.413c0.03-0.265,0.118-0.508,0.122-0.776l0.028-0.143c-0.04-0.264-0.094-0.526-0.16-0.785
			c-0.045-0.537-0.143-1.069-0.291-1.587c-0.066-0.227-0.029-0.459-0.116-0.685c-0.019-0.05-0.062-0.08-0.082-0.129
			c-0.105-0.26-0.302-0.461-0.43-0.711c-0.244-0.474-0.534-0.923-0.866-1.34c-0.162-0.283-0.338-0.557-0.529-0.821
			c-0.24-0.216-0.539-0.315-0.792-0.504c-0.202-0.162-0.317-0.392-0.537-0.538l-30.366-20.245l281.637-203.43V230.51z"/>
	</g>
</g>
<g>
</g>
<g>
</g>
<g>
</g>
<g>
</g>
<g>
</g>
<g>
</g>
<g>
</g>
<g>
</g>
<g>
</g>
<g>
</g>
<g>
</g>
<g>
</g>
<g>
</g>
<g>
</g>
<g>
</g>
</svg>
