<?xml version="1.0" encoding="iso-8859-1"?>
<!-- Generator: Adobe Illustrator 19.0.0, SVG Export Plug-In . SVG Version: 6.00 Build 0)  -->
<svg version="1.1" id="Capa_1" xmlns="http://www.w3.org/2000/svg" xmlns:xlink="http://www.w3.org/1999/xlink" x="0px" y="0px"
	 viewBox="0 0 512.413 512.413" style="enable-background:new 0 0 512.413 512.413;" xml:space="preserve">
<g transform="translate(-1)">
	<g>
		<g>
			<path d="M512.906,455.854c-0.492-1.575-1.437-2.97-2.716-4.012c-0.221-0.181-0.351-0.432-0.594-0.594l-187.05-123.992
				c-0.316-0.153-0.642-0.285-0.976-0.396c-1.468-0.72-3.107-1.017-4.734-0.859c-1.658,0.173-3.219,0.868-4.456,1.987
				c-0.286,0.181-0.56,0.379-0.822,0.594l-23.811,25.79l-38.868-25.932v-46.632c-0.041-0.277-0.096-0.552-0.166-0.823
				c-0.045-0.531-0.142-1.056-0.288-1.569c-0.065-0.222-0.028-0.448-0.112-0.667l-0.074-0.117c-0.409-0.729-0.858-1.435-1.345-2.115
				c-0.171-0.21-0.275-0.479-0.464-0.671c-0.254-0.208-0.52-0.4-0.796-0.577c-0.223-0.182-0.355-0.434-0.6-0.596l-230.4-151.467
				c-2.622-1.72-5.977-1.865-8.737-0.375c-2.76,1.489-4.482,4.372-4.484,7.509v243.703c-1.162,3.579,0.188,7.495,3.308,9.597
				l191.917,127.15c0.587,0.274,1.174,0.547,1.76,0.821c0.938,0.372,1.935,0.574,2.944,0.596H504.88
				c2.263,0.001,4.434-0.898,6.035-2.499c1.6-1.6,2.499-3.771,2.499-6.035v-45.308c-0.041-0.272-0.095-0.543-0.164-0.809
				C513.195,456.978,513.08,456.408,512.906,455.854z M276.023,367.07l-41.435,44.878c-0.158,0.175-0.308,0.358-0.454,0.542
				c-0.179,0.191-0.254,0.447-0.414,0.652c-0.154,0.194-0.372,0.304-0.511,0.515c-0.118,0.254-0.222,0.515-0.313,0.78
				c-0.511,0.977-0.829,2.043-0.938,3.14c-0.024,0.261-0.146,0.499-0.146,0.763v35.258L130.58,386.107L239.346,342.6L276.023,367.07
				z M231.813,327.226L120.88,371.6v-32.819l110.933-44.39V327.226z M18.48,146.165l203.516,133.793l-108.654,43.457L18.48,260.173
				V146.165z M203.925,495.14L18.48,372.277v-91.594l85.333,56.89v46.633c0.018,0.967,0.203,1.924,0.546,2.829
				c0.039,0.112,0.018,0.227,0.062,0.337c0.05,0.125,0.144,0.217,0.2,0.339c0.236,0.511,0.523,0.998,0.857,1.452
				c0.141,0.195,0.257,0.405,0.412,0.586c0.5,0.595,1.079,1.119,1.722,1.556l0.003,0.002l0.003,0.002l127.994,85.329
				c2.618,1.746,5.985,1.909,8.76,0.424s4.507-4.377,4.507-7.524v-35.402l93.029,61.002H203.925z M496.346,495.14H373.024
				l-119.602-78.427l65.748-71.208l177.177,117.447V495.14z"/>
			<path d="M513.385,8.603c-0.004-0.844-0.134-1.682-0.385-2.488c-0.045-0.139-0.143-0.245-0.194-0.38
				c-0.136-0.315-0.292-0.621-0.468-0.917c-0.307-0.6-0.685-1.16-1.126-1.669c-0.234-0.265-0.484-0.515-0.75-0.748
				c-0.516-0.448-1.084-0.83-1.692-1.14c-0.28-0.165-0.569-0.313-0.866-0.444c-0.962-0.388-1.988-0.595-3.026-0.61H231.813
				c-0.698-0.001-1.394,0.085-2.071,0.258l-34.133,8.533c-0.929,0.232-1.812,0.618-2.612,1.143c-0.054,0.035-0.09,0.095-0.142,0.131
				c-0.805,0.563-1.506,1.262-2.072,2.065c-0.057,0.08-0.147,0.119-0.203,0.202c-0.14,0.21-0.156,0.456-0.276,0.673
				c-0.35,0.617-0.62,1.275-0.803,1.96c-0.097,0.393-0.165,0.792-0.202,1.195c-0.068,0.299-0.119,0.601-0.153,0.905v53.821
				l-62.729,23.521c-0.123,0.046-0.201,0.149-0.32,0.2c-0.182,0.077-0.377,0.101-0.555,0.192c-0.717,0.365-1.378,0.83-1.964,1.381
				c-0.06,0.056-0.094,0.129-0.152,0.185c-0.633,0.643-1.16,1.382-1.56,2.191c-0.125,0.245-0.224,0.484-0.324,0.739
				c-0.292,0.74-0.478,1.518-0.552,2.31c-0.019,0.202-0.077,0.39-0.082,0.594c-0.002,0.069-0.028,0.131-0.028,0.2v51.2
				c0.001,2.729,1.306,5.293,3.513,6.9l93.796,68.217c1.47,1.094,3.255,1.684,5.087,1.683h0.058c0.4-0.001,0.8-0.032,1.196-0.092
				h0.004c1.783-0.262,3.437-1.085,4.721-2.35c0.142-0.133,0.275-0.283,0.408-0.425l57.103-63.451l59.827,39.318
				c0.194,0.127,0.411,0.174,0.611,0.283c0.171,0.094,0.322,0.192,0.498,0.273c0.206,0.096,0.411,0.169,0.625,0.248
				c0.938,0.372,1.935,0.574,2.944,0.596h0.009l0.005-0.001l0.004,0.001l0.061-0.009c0.77-0.015,1.534-0.133,2.272-0.352
				c0.222-0.064,0.43-0.159,0.648-0.242c0.187-0.071,0.368-0.13,0.548-0.213c0.371-0.175,0.73-0.377,1.072-0.604
				c0.124-0.081,0.266-0.108,0.386-0.196l153.6-110.933c0.185-0.133,0.275-0.337,0.446-0.482c1.676-1.49,2.732-3.554,2.96-5.784
				c0.017-0.226,0.131-0.419,0.131-0.65V8.781V8.74L513.385,8.603z M206.213,33.218l30.217,20.146l-30.217,11.329V33.218z
				 M214.746,205.315l-76.8-55.85v-30.1l76.8,55.85V205.315z M291.546,133.465l-59.733,66.375v-25.692l59.733-66.375V133.465z
				 M342.746,180.651l-44.429-29.199l8.104-9.004c1.412-1.566,2.192-3.6,2.192-5.708v-35.256l34.133,22.756V180.651z
				 M351.086,109.288L304.813,78.44c-0.174-0.117-0.377-0.127-0.556-0.228c-0.58-0.484-1.295-0.777-2.048-0.839
				c-0.33-0.093-0.666-0.166-1.005-0.217c-0.719-0.089-1.447-0.086-2.165,0.01c-0.268,0.033-0.532,0.01-0.795,0.069
				c-0.944,0.211-1.845,0.582-2.665,1.096c-0.233,0.146-0.418,0.351-0.638,0.52c-0.431,0.288-0.833,0.617-1.203,0.98l-71.658,79.616
				l-74.824-54.417l110.766-41.533c0.106-0.04,0.173-0.129,0.276-0.173c0.925-0.37,1.776-0.902,2.514-1.57
				c0.101-0.093,0.168-0.207,0.264-0.305c0.388-0.369,0.739-0.774,1.05-1.21c0.129-0.194,0.143-0.421,0.254-0.621
				c1.045-1.976,1.311-4.272,0.746-6.434c-0.064-0.226-0.025-0.454-0.109-0.678c-0.149-0.273-0.314-0.538-0.494-0.792
				c-0.499-1.037-1.225-1.948-2.124-2.666c-0.236-0.198-0.378-0.468-0.64-0.643l-41.294-27.531l14.398-3.602h245.625
				L351.086,109.288z M496.346,81.177l-136.533,98.608V124.04l136.533-98.612V81.177z"/>
		</g>
	</g>
</g>
<g>
</g>
<g>
</g>
<g>
</g>
<g>
</g>
<g>
</g>
<g>
</g>
<g>
</g>
<g>
</g>
<g>
</g>
<g>
</g>
<g>
</g>
<g>
</g>
<g>
</g>
<g>
</g>
<g>
</g>
</svg>
