<?xml version="1.0" encoding="iso-8859-1"?>
<!-- Generator: Adobe Illustrator 19.0.0, SVG Export Plug-In . SVG Version: 6.00 Build 0)  -->
<svg version="1.1" id="Capa_1" xmlns="http://www.w3.org/2000/svg" xmlns:xlink="http://www.w3.org/1999/xlink" x="0px" y="0px"
	 viewBox="0 0 512 512" style="enable-background:new 0 0 512 512;" xml:space="preserve">
<g>
	<g>
		<g>
			<path d="M324.267,273.067c0,4.713,3.82,8.533,8.533,8.533v42.667c-4.713,0-8.533,3.821-8.533,8.533
				c0,4.713,3.82,8.533,8.533,8.533h8.533c2.264,0.001,4.435-0.897,6.035-2.498s2.499-3.772,2.498-6.035v-59.733
				c0.001-2.264-0.897-4.435-2.498-6.035s-3.772-2.499-6.035-2.498H332.8C328.087,264.533,324.267,268.354,324.267,273.067z"/>
			<path d="M187.733,153.6h51.2c2.264,0.001,4.435-0.897,6.035-2.498s2.499-3.772,2.498-6.035v-51.2
				c0.001-2.264-0.897-4.435-2.498-6.035s-3.772-2.499-6.035-2.498h-17.067C198.314,85.361,179.228,104.447,179.2,128v17.067
				c-0.001,2.264,0.897,4.435,2.498,6.035C183.299,152.703,185.47,153.601,187.733,153.6z M196.267,128
				c0.015-14.132,11.468-25.585,25.6-25.6h8.533v34.133h-34.133V128z"/>
			<path d="M273.067,153.6h51.2c2.264,0.001,4.435-0.897,6.035-2.498c1.601-1.601,2.499-3.772,2.498-6.035V128
				c-0.028-23.553-19.114-42.639-42.667-42.667h-17.067c-2.264-0.001-4.435,0.897-6.035,2.498s-2.499,3.772-2.498,6.035v51.2
				c-0.001,2.264,0.897,4.435,2.498,6.035S270.803,153.601,273.067,153.6z M281.6,102.4h8.533c14.132,0.015,25.585,11.468,25.6,25.6
				v8.533H281.6V102.4z"/>
			<path d="M187.733,238.933h51.2c2.264,0.001,4.435-0.897,6.035-2.498s2.499-3.772,2.498-6.035v-51.2
				c0.001-2.264-0.897-4.435-2.498-6.035c-1.601-1.601-3.772-2.499-6.035-2.498h-51.2c-2.264-0.001-4.435,0.897-6.035,2.498
				c-1.601,1.601-2.499,3.772-2.498,6.035v51.2c-0.001,2.264,0.897,4.435,2.498,6.035
				C183.299,238.036,185.47,238.935,187.733,238.933z M196.267,187.733H230.4v34.133h-34.133V187.733z"/>
			<path d="M273.067,238.933h51.2c2.264,0.001,4.435-0.897,6.035-2.498c1.601-1.601,2.499-3.772,2.498-6.035v-51.2
				c0.001-2.264-0.897-4.435-2.498-6.035c-1.601-1.601-3.772-2.499-6.035-2.498h-51.2c-2.264-0.001-4.435,0.897-6.035,2.498
				c-1.601,1.601-2.499,3.772-2.498,6.035v51.2c-0.001,2.264,0.897,4.435,2.498,6.035S270.803,238.935,273.067,238.933z
				 M281.6,187.733h34.133v34.133H281.6V187.733z"/>
			<path d="M290.133,281.6h-68.267c-2.264-0.001-4.435,0.897-6.035,2.498c-1.601,1.601-2.499,3.772-2.498,6.035V307.2
				c0,4.713,3.82,8.533,8.533,8.533s8.533-3.82,8.533-8.533v-8.533h51.2v8.533c0,4.713,3.821,8.533,8.533,8.533
				c4.713,0,8.533-3.82,8.533-8.533v-17.067c0.001-2.264-0.897-4.435-2.498-6.035C294.568,282.497,292.397,281.599,290.133,281.6z"
				/>
			<path d="M415.635,2.498C414.035,0.897,411.864-0.001,409.6,0H102.4c-2.264-0.001-4.435,0.897-6.035,2.498
				s-2.499,3.772-2.498,6.035v494.933c-0.001,2.264,0.897,4.435,2.498,6.035s3.772,2.499,6.035,2.498h34.133H409.6
				c2.264,0.001,4.435-0.897,6.035-2.498s2.499-3.772,2.498-6.035V8.533C418.135,6.27,417.236,4.099,415.635,2.498z M128,494.933
				h-17.067V51.2H128V494.933z M366.933,494.933H145.067V51.2h221.867V494.933z M401.067,494.933H384V51.2h17.067V494.933z
				 M401.067,34.133H110.933V17.067h290.133V34.133z"/>
		</g>
	</g>
</g>
<g>
</g>
<g>
</g>
<g>
</g>
<g>
</g>
<g>
</g>
<g>
</g>
<g>
</g>
<g>
</g>
<g>
</g>
<g>
</g>
<g>
</g>
<g>
</g>
<g>
</g>
<g>
</g>
<g>
</g>
</svg>
