<?xml version="1.0" encoding="iso-8859-1"?>
<!-- Generator: Adobe Illustrator 19.0.0, SVG Export Plug-In . SVG Version: 6.00 Build 0)  -->
<svg version="1.1" id="Capa_1" xmlns="http://www.w3.org/2000/svg" xmlns:xlink="http://www.w3.org/1999/xlink" x="0px" y="0px"
	 viewBox="0 0 512 512" style="enable-background:new 0 0 512 512;" xml:space="preserve">
<g>
	<g>
		<g>
			<path d="M102.4,324.267h307.2c9.421-0.011,17.056-7.645,17.067-17.067V136.533c-0.011-9.421-7.646-17.056-17.067-17.067H102.4
				c-9.421,0.011-17.056,7.645-17.067,17.067V307.2C85.344,316.621,92.979,324.256,102.4,324.267z M366.933,136.533H409.6v76.8
				h-42.667V136.533z M366.933,230.4H409.6v76.8l-42.667,0.001V230.4z M298.667,136.533h51.2v76.8h-51.2V136.533z M298.667,230.4
				h51.2v76.802l-51.2,0.002V230.4z M230.4,136.533h51.2v76.8h-51.2V136.533z M230.4,230.4h51.2v76.804l-51.2,0.001V230.4z
				 M162.133,136.533h51.2v76.8h-51.2V136.533z M162.133,230.4h51.2v76.805l-51.2,0.002V230.4z M102.4,136.533h42.667v76.8H102.4
				V136.533z M102.4,230.4h42.667v76.807l-42.667,0.001V230.4z"/>
			<path d="M435.2,375.467h-128V358.4h110.933c23.553-0.028,42.639-19.114,42.667-42.667V128
				c-0.028-23.553-19.114-42.639-42.667-42.667H93.867c-9.262,0.032-18.257,3.107-25.6,8.752v-8.752
				c0.015-14.132,11.468-25.585,25.6-25.6h62.108c3.024,5.262,8.623,8.514,14.692,8.533h230.4c14.132-0.015,25.585-11.468,25.6-25.6
				V25.6c-0.015-14.132-11.468-25.585-25.6-25.6h-230.4c-6.069,0.02-11.668,3.272-14.692,8.533H93.867
				c-42.396,0.048-76.752,34.404-76.8,76.8v264.533c0.048,42.396,34.404,76.752,76.8,76.8H435.2
				c4.711,0.005,8.529,3.822,8.533,8.533v17.067c-0.005,4.711-3.822,8.529-8.533,8.533H42.667
				c-14.113,0.062-25.538,11.487-25.6,25.6c0.015,14.132,11.468,25.585,25.6,25.6H435.2c32.974-0.038,59.695-26.759,59.733-59.733
				V435.2C494.895,402.226,468.174,375.505,435.2,375.467z M170.667,17.067h230.4c4.711,0.005,8.529,3.822,8.533,8.533v17.067
				c-0.005,4.711-3.822,8.529-8.533,8.533h-230.4V17.067z M93.867,102.4h324.267c14.132,0.015,25.585,11.468,25.6,25.6v187.733
				c-0.015,14.132-11.468,25.585-25.6,25.6H93.867c-14.132-0.015-25.585-11.468-25.6-25.6V128
				C68.282,113.868,79.735,102.415,93.867,102.4z M290.133,358.4v17.067h-68.267V358.4H290.133z M204.8,358.4v17.067H93.867
				c-14.132-0.015-25.585-11.468-25.6-25.6v-0.218c7.343,5.644,16.338,8.719,25.6,8.752H204.8z M477.867,452.267
				c-0.028,23.553-19.114,42.639-42.667,42.667H42.667c-4.711-0.005-8.529-3.822-8.533-8.533c-0.006-2.301,0.939-4.503,2.612-6.083
				c1.56-1.586,3.697-2.47,5.921-2.45H435.2c14.132-0.015,25.585-11.468,25.6-25.6V435.2c-0.015-14.132-11.468-25.585-25.6-25.6
				H93.867c-32.974-0.039-59.695-26.759-59.733-59.733V85.333C34.172,52.359,60.893,25.638,93.867,25.6H153.6v17.067H93.867
				C70.314,42.694,51.228,61.781,51.2,85.333v264.533c0.028,23.553,19.114,42.639,42.667,42.667H435.2
				c23.553,0.028,42.639,19.114,42.667,42.667V452.267z"/>
		</g>
	</g>
</g>
<g>
</g>
<g>
</g>
<g>
</g>
<g>
</g>
<g>
</g>
<g>
</g>
<g>
</g>
<g>
</g>
<g>
</g>
<g>
</g>
<g>
</g>
<g>
</g>
<g>
</g>
<g>
</g>
<g>
</g>
</svg>
