<?xml version="1.0" encoding="iso-8859-1"?>
<!-- Generator: Adobe Illustrator 19.0.0, SVG Export Plug-In . SVG Version: 6.00 Build 0)  -->
<svg version="1.1" id="Capa_1" xmlns="http://www.w3.org/2000/svg" xmlns:xlink="http://www.w3.org/1999/xlink" x="0px" y="0px"
	 viewBox="0 0 503.833 503.833" style="enable-background:new 0 0 503.833 503.833;" xml:space="preserve">
<g transform="translate(-1)">
	<g>
		<g>
			<path d="M387.223,386.325v-25.18c-0.038-32.433-26.321-58.716-58.754-58.754h-4.748c54.242-26.881,88.593-82.151,88.682-142.689
				c0.105-78.699-57.215-145.708-134.98-157.796s-152.721,34.359-176.51,109.377c-23.789,75.017,10.702,156.172,81.222,191.108
				h-4.748c-32.433,0.038-58.716,26.321-58.754,58.754v25.18c-9.267,0.011-16.776,7.52-16.787,16.787v41.967
				c0.011,9.267,7.52,16.776,16.787,16.787v16.787c0.015,13.9,11.28,25.165,25.18,25.18h218.229
				c13.9-0.015,25.165-11.28,25.18-25.18v-16.787c9.267-0.011,16.776-7.52,16.787-16.787v-41.967
				C404,393.845,396.49,386.336,387.223,386.325z M110.24,159.702c0-78.805,63.884-142.688,142.689-142.688
				s142.689,63.884,142.689,142.688c-0.088,78.768-63.92,142.601-142.689,142.689C174.124,302.391,110.24,238.507,110.24,159.702z
				 M135.42,361.145c0.027-23.167,18.801-41.94,41.967-41.967h151.082c23.167,0.027,41.94,18.801,41.967,41.967v25.18h-80.077
				c-9.511-10.679-23.13-16.787-37.431-16.787c-14.3,0-27.92,6.108-37.431,16.787H135.42V361.145z M286.502,419.899
				c0,18.542-15.031,33.574-33.574,33.574s-33.574-15.031-33.574-33.574s15.031-33.574,33.574-33.574
				C271.462,386.345,286.482,401.365,286.502,419.899z M118.633,445.079v-41.967h86.872c-4.992,13.872-3.573,29.244,3.876,41.967
				H118.633z M370.436,478.653c-0.005,4.634-3.76,8.389-8.393,8.393H143.813c-4.634-0.005-8.389-3.76-8.393-8.393v-16.787h89.729
				c16.828,11.191,38.729,11.191,55.557,0h89.729V478.653z M387.223,445.079h-90.748c7.448-12.723,8.868-28.095,3.876-41.967h86.872
				V445.079z"/>
			<path d="M378.83,159.702C378.753,90.201,322.43,33.878,252.928,33.8c-69.534,0-125.902,56.368-125.902,125.902
				s56.368,125.902,125.902,125.902S378.83,229.236,378.83,159.702z M143.813,159.702c0-60.262,48.852-109.115,109.115-109.115
				S362.043,99.44,362.043,159.702c-0.068,60.234-48.881,109.047-109.115,109.115C192.666,268.817,143.813,219.965,143.813,159.702z
				"/>
			<path d="M261.322,243.637c0,4.636,3.758,8.393,8.393,8.393s8.393-3.758,8.393-8.393v-41.967h16.787v16.787
				c0,4.636,3.758,8.393,8.393,8.393s8.393-3.758,8.393-8.393v-16.787h8.393c4.636,0,8.393-3.758,8.393-8.393
				s-3.758-8.393-8.393-8.393h-8.393v-16.787h16.787c4.636,0,8.393-3.758,8.393-8.393s-3.758-8.393-8.393-8.393h-16.787v-16.787
				h8.393c4.636,0,8.393-3.758,8.393-8.393c0-4.636-3.758-8.393-8.393-8.393h-8.393v-16.787c0-4.636-3.758-8.393-8.393-8.393
				s-8.393,3.758-8.393,8.393v16.787h-16.787V75.768c0-4.636-3.758-8.393-8.393-8.393s-8.393,3.758-8.393,8.393v41.967h-16.787
				V75.768c0-4.636-3.758-8.393-8.393-8.393s-8.393,3.758-8.393,8.393v41.967h-16.787v-16.787c0-4.636-3.758-8.393-8.393-8.393
				s-8.393,3.758-8.393,8.393v16.787h-8.393c-4.636,0-8.393,3.758-8.393,8.393c0,4.636,3.758,8.393,8.393,8.393h8.393v16.787
				h-16.787c-4.636,0-8.393,3.758-8.393,8.393s3.758,8.393,8.393,8.393h16.787v16.787h-8.393c-4.636,0-8.393,3.758-8.393,8.393
				s3.758,8.393,8.393,8.393h8.393v16.787c0,4.636,3.758,8.393,8.393,8.393s8.393-3.758,8.393-8.393v-16.787h16.787v41.967
				c0,4.636,3.758,8.393,8.393,8.393s8.393-3.758,8.393-8.393v-41.967h16.787V243.637z M278.109,134.522h16.787v16.787h-16.787
				V134.522z M278.109,168.096h16.787v16.787h-16.787V168.096z M227.748,184.882h-16.787v-16.787h16.787V184.882z M227.748,151.309
				h-16.787v-16.787h16.787V151.309z M244.535,134.522h16.787v16.787h-16.787V134.522z M244.535,184.882v-16.787h16.787v16.787
				H244.535z"/>
		</g>
	</g>
</g>
<g>
</g>
<g>
</g>
<g>
</g>
<g>
</g>
<g>
</g>
<g>
</g>
<g>
</g>
<g>
</g>
<g>
</g>
<g>
</g>
<g>
</g>
<g>
</g>
<g>
</g>
<g>
</g>
<g>
</g>
</svg>
