<?xml version="1.0" encoding="iso-8859-1"?>
<!-- Generator: Adobe Illustrator 19.0.0, SVG Export Plug-In . SVG Version: 6.00 Build 0)  -->
<svg version="1.1" id="Capa_1" xmlns="http://www.w3.org/2000/svg" xmlns:xlink="http://www.w3.org/1999/xlink" x="0px" y="0px"
	 viewBox="0 0 512 512" style="enable-background:new 0 0 512 512;" xml:space="preserve">
<g>
	<g>
		<g>
			<path d="M486.4,0H25.6C11.468,0.015,0.015,11.468,0,25.6v460.8c0.015,14.132,11.468,25.585,25.6,25.6h460.8
				c14.132-0.015,25.585-11.468,25.6-25.6V25.6C511.985,11.468,500.532,0.015,486.4,0z M68.267,494.933H25.6
				c-4.711-0.005-8.529-3.822-8.533-8.533V25.6c0.005-4.711,3.822-8.529,8.533-8.533h42.667V494.933z M102.4,494.933H85.333V17.067
				H102.4V494.933z M392.533,494.933h-128v-25.6c0-4.713-3.82-8.533-8.533-8.533s-8.533,3.82-8.533,8.533v25.6h-128V17.067h128v25.6
				c0,4.713,3.82,8.533,8.533,8.533s8.533-3.82,8.533-8.533v-25.6h128V494.933z M426.667,494.933H409.6V17.067h17.067V494.933z
				 M494.933,486.4c-0.003,4.711-3.822,8.53-8.533,8.533h-42.667V17.067H486.4c4.711,0.003,8.53,3.822,8.533,8.533V486.4z"/>
			<path d="M256,384c-2.263-0.001-4.434,0.898-6.035,2.499c-1.6,1.6-2.499,3.771-2.499,6.035v34.133c0,4.713,3.82,8.533,8.533,8.533
				s8.533-3.82,8.533-8.533v-34.133c0.001-2.263-0.898-4.434-2.499-6.035C260.434,384.898,258.263,383.999,256,384z"/>
			<path d="M256,76.8c-4.713,0-8.533,3.82-8.533,8.533v34.133c-0.001,2.263,0.898,4.434,2.499,6.035
				c1.6,1.6,3.771,2.499,6.035,2.499c2.263,0.001,4.434-0.898,6.035-2.499c1.6-1.6,2.499-3.771,2.499-6.035V85.333
				C264.533,80.62,260.713,76.8,256,76.8z"/>
			<path d="M153.6,179.2c-2.263-0.001-4.434,0.898-6.035,2.499c-1.6,1.6-2.499,3.771-2.499,6.035v136.533
				c0,4.713,3.821,8.533,8.533,8.533c4.713,0,8.533-3.82,8.533-8.533V187.733c0.001-2.263-0.898-4.434-2.499-6.035
				C158.034,180.098,155.863,179.199,153.6,179.2z"/>
			<path d="M196.267,179.2c-2.263-0.001-4.434,0.898-6.035,2.499c-1.6,1.6-2.499,3.771-2.499,6.035v136.533
				c0,4.713,3.82,8.533,8.533,8.533s8.533-3.82,8.533-8.533V187.733c0.001-2.263-0.898-4.434-2.499-6.035
				C200.701,180.098,198.53,179.199,196.267,179.2z"/>
			<path d="M247.467,187.733c0-4.713-3.82-8.533-8.533-8.533s-8.533,3.82-8.533,8.533v136.533c0,4.713,3.82,8.533,8.533,8.533
				s8.533-3.82,8.533-8.533V187.733z"/>
			<path d="M281.6,332.8c2.263,0.001,4.434-0.898,6.035-2.499c1.6-1.6,2.499-3.771,2.499-6.035V187.733
				c0-4.713-3.82-8.533-8.533-8.533s-8.533,3.82-8.533,8.533v136.533c-0.001,2.263,0.898,4.434,2.499,6.035
				C277.166,331.902,279.337,332.801,281.6,332.8z"/>
			<path d="M324.267,332.8c2.263,0.001,4.434-0.898,6.035-2.499c1.6-1.6,2.499-3.771,2.499-6.035V187.733
				c0-4.713-3.82-8.533-8.533-8.533s-8.533,3.82-8.533,8.533v136.533c-0.001,2.263,0.898,4.434,2.499,6.035
				C319.833,331.902,322.003,332.801,324.267,332.8z"/>
			<path d="M366.933,332.8c2.263,0.001,4.434-0.898,6.035-2.499c1.6-1.6,2.499-3.771,2.499-6.035V187.733
				c0-4.713-3.82-8.533-8.533-8.533s-8.533,3.82-8.533,8.533v136.533c-0.001,2.263,0.898,4.434,2.499,6.035
				C362.499,331.902,364.67,332.801,366.933,332.8z"/>
		</g>
	</g>
</g>
<g>
</g>
<g>
</g>
<g>
</g>
<g>
</g>
<g>
</g>
<g>
</g>
<g>
</g>
<g>
</g>
<g>
</g>
<g>
</g>
<g>
</g>
<g>
</g>
<g>
</g>
<g>
</g>
<g>
</g>
</svg>
