<?xml version="1.0" encoding="iso-8859-1"?>
<!-- Generator: Adobe Illustrator 19.0.0, SVG Export Plug-In . SVG Version: 6.00 Build 0)  -->
<svg version="1.1" id="Capa_1" xmlns="http://www.w3.org/2000/svg" xmlns:xlink="http://www.w3.org/1999/xlink" x="0px" y="0px"
	 viewBox="0 0 512.083 512.083" style="enable-background:new 0 0 512.083 512.083;" xml:space="preserve">
<g>
	<g>
		<path d="M511.962,194.49c-0.311-2.241-1.5-4.267-3.304-5.632L261.191,1.725c-3.048-2.3-7.252-2.3-10.3,0L3.425,188.858
			c-1.805,1.365-2.993,3.39-3.304,5.632s0.281,4.514,1.646,6.318l20.566,27.225c2.805,3.727,8.091,4.496,11.842,1.723V503.55
			l0.024,0.121c0.053,0.708,0.193,1.406,0.419,2.079c0.061,0.399,0.15,0.794,0.265,1.181c0.162,0.271,0.339,0.534,0.53,0.786
			c0.365,0.71,0.828,1.366,1.375,1.947l0.061,0.086c0.289,0.208,0.591,0.396,0.905,0.564c0.556,0.456,1.169,0.839,1.824,1.138
			c0.613,0.2,1.247,0.328,1.889,0.381c0.406,0.116,0.821,0.2,1.241,0.251h426.667c0.42-0.051,0.835-0.135,1.242-0.251
			c1.381-0.041,2.701-0.581,3.715-1.52c0.313-0.167,0.614-0.355,0.902-0.563l0.061-0.086c0.551-0.584,1.016-1.243,1.382-1.958
			c0.501-0.535,0.784-1.238,0.791-1.971c0.223-0.668,0.363-1.361,0.416-2.064l0.025-0.121V229.761
			c1.459,1.074,3.221,1.657,5.033,1.664c0.393,0.001,0.786-0.027,1.175-0.083c2.243-0.31,4.27-1.501,5.633-3.308l20.567-27.225
			C511.681,199.004,512.273,196.731,511.962,194.49z M70.433,341.417l78.941-53.679l78.939,53.679H70.433z M167.982,358.483
			l-52.741,55.842l-52.741-55.842H167.982z M164.554,277.416l82.954-56.408v112.817L164.554,277.416z M232.135,196.35H78.386
			l79.894-60.427L232.135,196.35z M172.286,125.33l75.222-56.893v118.438L172.286,125.33z M228.312,213.417l-78.938,53.678
			l-78.937-53.678H228.312z M134.195,277.417l-82.954,56.408V221.008L134.195,277.417z M103.508,426.75l-52.267,55.342V371.408
			L103.508,426.75z M62.501,495.017l52.741-55.842l52.741,55.842H62.501z M179.241,482.083l-52.267-55.333l52.267-55.333V482.083z
			 M315.775,495.017H196.308V358.483h119.467V495.017z M283.77,341.417l78.938-53.678l78.938,53.678H283.77z M449.582,358.483
			l-52.741,55.842l-52.741-55.842H449.582z M283.771,213.417h157.875l-78.938,53.678L283.771,213.417z M279.945,196.35
			l73.858-60.427l79.894,60.427H279.945z M264.575,186.875V68.437l75.222,56.893L264.575,186.875z M347.528,277.417l-82.954,56.408
			V221.008L347.528,277.417z M332.841,371.417l52.267,55.333l-52.267,55.333V371.417z M344.101,495.017l52.741-55.842l52.741,55.842
			H344.101z M460.841,482.092l-52.267-55.342l52.267-55.342V482.092z M460.841,333.825l-82.954-56.408l82.954-56.408V333.825z
			 M481.283,210.933l-16.048-12.138l-0.66-0.971l-0.329,0.223L261.191,44.475c-3.048-2.3-7.252-2.3-10.3,0L47.837,198.048
			l-0.328-0.223l-0.66,0.971L30.8,210.933l-10.275-13.608L256.041,19.233l235.517,178.092L481.283,210.933z"/>
	</g>
</g>
<g>
</g>
<g>
</g>
<g>
</g>
<g>
</g>
<g>
</g>
<g>
</g>
<g>
</g>
<g>
</g>
<g>
</g>
<g>
</g>
<g>
</g>
<g>
</g>
<g>
</g>
<g>
</g>
<g>
</g>
</svg>
