<?xml version="1.0" encoding="iso-8859-1"?>
<!-- Generator: Adobe Illustrator 19.0.0, SVG Export Plug-In . SVG Version: 6.00 Build 0)  -->
<svg version="1.1" id="Capa_1" xmlns="http://www.w3.org/2000/svg" xmlns:xlink="http://www.w3.org/1999/xlink" x="0px" y="0px"
	 viewBox="0 0 512 512" style="enable-background:new 0 0 512 512;" xml:space="preserve">
<g>
	<g>
		<g>
			<path d="M401.067,34.133v-25.6c0.001-2.263-0.898-4.434-2.499-6.035c-1.6-1.6-3.771-2.499-6.035-2.499h-68.267
				c-2.263-0.001-4.434,0.898-6.035,2.499c-1.6,1.6-2.499,3.771-2.499,6.035v25.6c0.011,9.421,7.645,17.056,17.067,17.067v25.6
				H179.2V51.2c9.421-0.011,17.056-7.646,17.067-17.067v-25.6c0.001-2.263-0.898-4.434-2.499-6.035
				c-1.6-1.6-3.771-2.499-6.035-2.499h-68.267c-2.263-0.001-4.434,0.898-6.035,2.499c-1.6,1.6-2.499,3.771-2.499,6.035v25.6
				c0.011,9.421,7.645,17.056,17.067,17.067v409.6c-9.421,0.011-17.056,7.645-17.067,17.067v25.6
				c-0.001,2.263,0.898,4.434,2.499,6.035c1.6,1.6,3.771,2.499,6.035,2.499h68.267c2.263,0.001,4.434-0.898,6.035-2.499
				c1.6-1.6,2.499-3.771,2.499-6.035v-25.6c-0.011-9.421-7.645-17.056-17.067-17.067v-25.6h153.6v25.6
				c-9.421,0.011-17.056,7.645-17.067,17.067v25.6c-0.001,2.263,0.898,4.434,2.499,6.035c1.6,1.6,3.771,2.499,6.035,2.499h68.267
				c2.263,0.001,4.434-0.898,6.035-2.499c1.6-1.6,2.499-3.771,2.499-6.035v-25.6c-0.011-9.421-7.645-17.056-17.067-17.067V51.2
				C393.421,51.189,401.056,43.555,401.067,34.133z M128,17.067h51.204l0.009,17.067H128V17.067z M179.2,494.933H128v-17.067h51.2
				V494.933z M170.667,418.133c-2.263-0.001-4.434,0.898-6.035,2.499c-1.6,1.6-2.499,3.771-2.499,6.035V460.8h-17.067V51.2h17.067
				v34.133c-0.001,2.263,0.898,4.434,2.499,6.035c1.6,1.6,3.771,2.499,6.035,2.499h170.667c2.263,0.001,4.434-0.898,6.035-2.499
				c1.6-1.6,2.499-3.771,2.499-6.035V51.2h17.067v409.6h-17.067v-34.133c0.001-2.263-0.898-4.434-2.499-6.035
				c-1.6-1.6-3.771-2.499-6.035-2.499H170.667z M384,494.933h-51.2v-17.067H384V494.933z M332.8,34.133V17.067h51.204l0.009,17.067
				H332.8z"/>
			<path d="M170.667,247.467h170.667c2.263,0.001,4.434-0.898,6.035-2.499c1.6-1.6,2.499-3.771,2.499-6.035v-42.667
				c0.001-2.263-0.898-4.434-2.499-6.035c-1.6-1.6-3.771-2.499-6.035-2.499H170.667c-2.263-0.001-4.434,0.898-6.035,2.499
				c-1.6,1.6-2.499,3.771-2.499,6.035v42.667c-0.001,2.263,0.898,4.434,2.499,6.035
				C166.232,246.568,168.403,247.467,170.667,247.467z M179.2,204.8h153.6v25.6H179.2V204.8z"/>
			<path d="M347.368,398.568c1.6-1.6,2.499-3.771,2.499-6.035v-42.667c0.001-2.263-0.898-4.434-2.499-6.035
				c-1.6-1.6-3.771-2.499-6.035-2.499H170.667c-2.263-0.001-4.434,0.898-6.035,2.499c-1.6,1.6-2.499,3.771-2.499,6.035v42.667
				c-0.001,2.263,0.898,4.434,2.499,6.035c1.6,1.6,3.771,2.499,6.035,2.499h170.667
				C343.597,401.067,345.768,400.168,347.368,398.568z M332.8,384H179.2v-25.6h153.6V384z"/>
			<path d="M170.667,324.267h170.667c2.263,0.001,4.434-0.898,6.035-2.499c1.6-1.6,2.499-3.771,2.499-6.035v-42.667
				c0.001-2.263-0.898-4.434-2.499-6.035c-1.6-1.6-3.771-2.499-6.035-2.499H170.667c-2.263-0.001-4.434,0.898-6.035,2.499
				c-1.6,1.6-2.499,3.771-2.499,6.035v42.667c-0.001,2.263,0.898,4.434,2.499,6.035
				C166.232,323.368,168.403,324.267,170.667,324.267z M179.2,281.6h153.6v25.6H179.2V281.6z"/>
			<path d="M170.667,170.667h170.667c2.263,0.001,4.434-0.898,6.035-2.499c1.6-1.6,2.499-3.771,2.499-6.035v-42.667
				c0.001-2.263-0.898-4.434-2.499-6.035c-1.6-1.6-3.771-2.499-6.035-2.499H170.667c-2.263-0.001-4.434,0.898-6.035,2.499
				c-1.6,1.6-2.499,3.771-2.499,6.035v42.667c-0.001,2.263,0.898,4.434,2.499,6.035
				C166.232,169.768,168.403,170.667,170.667,170.667z M179.2,128h153.6v25.6H179.2V128z"/>
		</g>
	</g>
</g>
<g>
</g>
<g>
</g>
<g>
</g>
<g>
</g>
<g>
</g>
<g>
</g>
<g>
</g>
<g>
</g>
<g>
</g>
<g>
</g>
<g>
</g>
<g>
</g>
<g>
</g>
<g>
</g>
<g>
</g>
</svg>
