<?xml version="1.0" encoding="iso-8859-1"?>
<!-- Generator: Adobe Illustrator 19.0.0, SVG Export Plug-In . SVG Version: 6.00 Build 0)  -->
<svg version="1.1" id="Capa_1" xmlns="http://www.w3.org/2000/svg" xmlns:xlink="http://www.w3.org/1999/xlink" x="0px" y="0px"
	 viewBox="0 0 512 512" style="enable-background:new 0 0 512 512;" xml:space="preserve">
<g>
	<g>
		<g>
			<path d="M486.4,0H25.6C11.468,0.015,0.015,11.468,0,25.6v460.8c0.015,14.132,11.468,25.585,25.6,25.6h460.8
				c14.132-0.015,25.585-11.468,25.6-25.6V25.6C511.985,11.468,500.532,0.015,486.4,0z M494.933,486.4
				c-0.005,4.711-3.822,8.529-8.533,8.533H25.6c-4.711-0.005-8.529-3.822-8.533-8.533V25.6c0.005-4.711,3.822-8.529,8.533-8.533
				h460.8c4.711,0.005,8.529,3.822,8.533,8.533V486.4z"/>
			<path d="M452.267,34.133H59.733c-14.132,0.015-25.585,11.468-25.6,25.6v392.533c0.015,14.132,11.468,25.585,25.6,25.6h392.533
				c14.132-0.015,25.585-11.468,25.6-25.6V59.733C477.851,45.601,466.399,34.149,452.267,34.133z M460.8,452.267
				c-0.005,4.711-3.823,8.529-8.533,8.533H59.733c-4.711-0.005-8.529-3.823-8.533-8.533V59.733c0.005-4.711,3.822-8.529,8.533-8.533
				h392.533c4.711,0.005,8.529,3.822,8.533,8.533V452.267z"/>
			<path d="M256,68.267c-23.564,0-42.667,19.103-42.667,42.667S232.436,153.6,256,153.6s42.667-19.103,42.667-42.667
				C298.639,87.381,279.553,68.294,256,68.267z M256,85.333c10.813,0.033,20.435,6.868,24.028,17.067h-48.055
				C235.565,92.201,245.187,85.367,256,85.333z M256,136.533c-10.813-0.033-20.435-6.868-24.027-17.067h48.055
				C276.435,129.666,266.813,136.5,256,136.533z"/>
			<path d="M256,358.4c-23.564,0-42.667,19.102-42.667,42.667c0,23.564,19.102,42.667,42.667,42.667s42.667-19.102,42.667-42.667
				C298.639,377.514,279.553,358.428,256,358.4z M256,375.467c10.813,0.033,20.435,6.868,24.028,17.067h-48.055
				C235.565,382.334,245.187,375.5,256,375.467z M256,426.667c-10.813-0.033-20.435-6.868-24.027-17.067h48.055
				C276.435,419.799,266.813,426.633,256,426.667z"/>
			<path d="M110.933,76.8h-25.6c-9.421,0.011-17.056,7.646-17.067,17.067v25.6c0,4.713,3.82,8.533,8.533,8.533
				s8.533-3.82,8.533-8.533v-25.6h25.6c4.713,0,8.533-3.821,8.533-8.533S115.646,76.8,110.933,76.8z"/>
			<path d="M110.933,153.6h-25.6c-9.421,0.011-17.056,7.645-17.067,17.067v25.6c0,4.713,3.82,8.533,8.533,8.533
				s8.533-3.82,8.533-8.533v-25.6h25.6c4.713,0,8.533-3.82,8.533-8.533S115.646,153.6,110.933,153.6z"/>
			<path d="M110.933,230.4h-25.6c-9.421,0.011-17.056,7.645-17.067,17.067v25.6c0,4.713,3.82,8.533,8.533,8.533
				s8.533-3.821,8.533-8.533v-25.6h25.6c4.713,0,8.533-3.82,8.533-8.533S115.646,230.4,110.933,230.4z"/>
			<path d="M110.933,307.2h-25.6c-9.421,0.011-17.056,7.646-17.067,17.067v25.6c0,4.713,3.82,8.533,8.533,8.533
				s8.533-3.82,8.533-8.533v-25.6h25.6c4.713,0,8.533-3.82,8.533-8.533S115.646,307.2,110.933,307.2z"/>
			<path d="M110.933,384h-25.6c-9.421,0.011-17.056,7.646-17.067,17.067v25.6c0,4.713,3.82,8.533,8.533,8.533
				s8.533-3.82,8.533-8.533v-25.6h25.6c4.713,0,8.533-3.821,8.533-8.533C119.467,387.821,115.646,384,110.933,384z"/>
			<path d="M187.733,76.8h-25.6c-9.421,0.011-17.056,7.646-17.067,17.067v25.6c0,4.713,3.821,8.533,8.533,8.533
				c4.713,0,8.533-3.82,8.533-8.533v-25.6h25.6c4.713,0,8.533-3.821,8.533-8.533S192.446,76.8,187.733,76.8z"/>
			<path d="M187.733,153.6h-25.6c-9.421,0.011-17.056,7.645-17.067,17.067v25.6c0,4.713,3.821,8.533,8.533,8.533
				c4.713,0,8.533-3.82,8.533-8.533v-25.6h25.6c4.713,0,8.533-3.82,8.533-8.533S192.446,153.6,187.733,153.6z"/>
			<path d="M247.467,196.267V179.2c0-4.713-3.82-8.533-8.533-8.533s-8.533,3.82-8.533,8.533v17.067c0,4.713,3.82,8.533,8.533,8.533
				S247.467,200.979,247.467,196.267z"/>
			<path d="M358.4,76.8h-25.6c-9.421,0.011-17.056,7.646-17.067,17.067v25.6c0,4.713,3.82,8.533,8.533,8.533s8.533-3.82,8.533-8.533
				v-25.6h25.6c4.713,0,8.533-3.821,8.533-8.533S363.113,76.8,358.4,76.8z"/>
			<path d="M358.4,153.6h-25.6c-9.421,0.011-17.056,7.645-17.067,17.067v25.6c0,4.713,3.82,8.533,8.533,8.533
				s8.533-3.82,8.533-8.533v-25.6h25.6c4.713,0,8.533-3.82,8.533-8.533S363.113,153.6,358.4,153.6z"/>
			<path d="M358.4,230.4h-25.6c-9.421,0.011-17.056,7.645-17.067,17.067v25.6c0,4.713,3.82,8.533,8.533,8.533
				s8.533-3.821,8.533-8.533v-25.6h25.6c4.713,0,8.533-3.82,8.533-8.533S363.113,230.4,358.4,230.4z"/>
			<path d="M401.067,273.067v-25.6h25.6c4.713,0,8.533-3.82,8.533-8.533s-3.82-8.533-8.533-8.533h-25.6
				c-9.421,0.011-17.056,7.645-17.067,17.067v25.6c0,4.713,3.821,8.533,8.533,8.533C397.246,281.6,401.067,277.779,401.067,273.067z
				"/>
			<path d="M435.2,76.8h-25.6c-9.421,0.011-17.056,7.646-17.067,17.067v25.6c0,4.713,3.821,8.533,8.533,8.533
				s8.533-3.82,8.533-8.533v-25.6h25.6c4.713,0,8.533-3.821,8.533-8.533S439.913,76.8,435.2,76.8z"/>
			<path d="M435.2,153.6h-25.6c-9.421,0.011-17.056,7.645-17.067,17.067v25.6c0,4.713,3.821,8.533,8.533,8.533
				s8.533-3.82,8.533-8.533v-25.6h25.6c4.713,0,8.533-3.82,8.533-8.533S439.913,153.6,435.2,153.6z"/>
			<path d="M187.733,230.4h-25.6c-9.421,0.011-17.056,7.645-17.067,17.067v25.6c0,4.713,3.821,8.533,8.533,8.533
				c4.713,0,8.533-3.821,8.533-8.533v-25.6h25.6c4.713,0,8.533-3.82,8.533-8.533S192.446,230.4,187.733,230.4z"/>
			<path d="M230.4,273.067c0,4.713,3.82,8.533,8.533,8.533s8.533-3.821,8.533-8.533v-25.6h25.6c4.713,0,8.533-3.82,8.533-8.533
				s-3.821-8.533-8.533-8.533h-25.6c-9.421,0.011-17.056,7.645-17.067,17.067V273.067z"/>
			<path d="M230.4,332.8c0,4.713,3.82,8.533,8.533,8.533s8.533-3.821,8.533-8.533v-8.533h25.6c4.713,0,8.533-3.82,8.533-8.533
				s-3.821-8.533-8.533-8.533h-25.6c-9.421,0.011-17.056,7.646-17.067,17.067V332.8z"/>
			<path d="M187.733,307.2h-25.6c-9.421,0.011-17.056,7.646-17.067,17.067v25.6c0,4.713,3.821,8.533,8.533,8.533
				c4.713,0,8.533-3.82,8.533-8.533v-25.6h25.6c4.713,0,8.533-3.82,8.533-8.533S192.446,307.2,187.733,307.2z"/>
			<path d="M187.733,384h-25.6c-9.421,0.011-17.056,7.646-17.067,17.067v25.6c0,4.713,3.821,8.533,8.533,8.533
				c4.713,0,8.533-3.82,8.533-8.533v-25.6h25.6c4.713,0,8.533-3.821,8.533-8.533C196.267,387.821,192.446,384,187.733,384z"/>
			<path d="M358.4,307.2h-25.6c-9.421,0.011-17.056,7.646-17.067,17.067v25.6c0,4.713,3.82,8.533,8.533,8.533
				s8.533-3.82,8.533-8.533v-25.6h25.6c4.713,0,8.533-3.82,8.533-8.533S363.113,307.2,358.4,307.2z"/>
			<path d="M358.4,384h-25.6c-9.421,0.011-17.056,7.646-17.067,17.067v25.6c0,4.713,3.82,8.533,8.533,8.533s8.533-3.82,8.533-8.533
				v-25.6h25.6c4.713,0,8.533-3.821,8.533-8.533C366.933,387.821,363.113,384,358.4,384z"/>
			<path d="M435.2,307.2h-25.6c-9.421,0.011-17.056,7.646-17.067,17.067v25.6c0,4.713,3.821,8.533,8.533,8.533
				s8.533-3.82,8.533-8.533v-25.6h25.6c4.713,0,8.533-3.82,8.533-8.533S439.913,307.2,435.2,307.2z"/>
			<path d="M435.2,384h-25.6c-9.421,0.011-17.056,7.646-17.067,17.067v25.6c0,4.713,3.821,8.533,8.533,8.533s8.533-3.82,8.533-8.533
				v-25.6h25.6c4.713,0,8.533-3.821,8.533-8.533C443.733,387.821,439.913,384,435.2,384z"/>
		</g>
	</g>
</g>
<g>
</g>
<g>
</g>
<g>
</g>
<g>
</g>
<g>
</g>
<g>
</g>
<g>
</g>
<g>
</g>
<g>
</g>
<g>
</g>
<g>
</g>
<g>
</g>
<g>
</g>
<g>
</g>
<g>
</g>
</svg>
