<?xml version="1.0" encoding="iso-8859-1"?>
<!-- Generator: Adobe Illustrator 19.0.0, SVG Export Plug-In . SVG Version: 6.00 Build 0)  -->
<svg version="1.1" id="Capa_1" xmlns="http://www.w3.org/2000/svg" xmlns:xlink="http://www.w3.org/1999/xlink" x="0px" y="0px"
	 viewBox="0 0 512.129 512.129" style="enable-background:new 0 0 512.129 512.129;" xml:space="preserve">
<g>
	<g>
		<path d="M486.465,0c-14.138,0-25.6,11.461-25.6,25.6H170.731c0-14.138-11.462-25.6-25.6-25.6s-25.6,11.461-25.6,25.6H85.398
			c0-14.138-11.461-25.6-25.6-25.6s-25.6,11.461-25.6,25.6h-8.533c-14.138,0-25.6,11.462-25.6,25.6s11.461,25.6,25.6,25.6h8.533V128
			h-8.533c-14.132,0.015-25.585,11.468-25.6,25.6v153.6c0.015,14.132,11.468,25.585,25.6,25.6h25.6v8.533
			c0.015,14.132,11.468,25.585,25.6,25.6V384c-14.138,0-25.6,11.462-25.6,25.6s11.461,25.6,25.6,25.6v17.067
			c-0.001,2.263,0.898,4.434,2.499,6.035c1.6,1.6,3.771,2.499,6.035,2.499c9.426,0,17.067,7.641,17.067,17.067
			s-7.641,17.067-17.067,17.067s-17.067-7.641-17.067-17.067c0-4.713-3.82-8.533-8.533-8.533s-8.533,3.82-8.533,8.533
			C51.198,495.621,64.754,510.462,82.441,512c17.688,1.538,33.601-10.741,36.599-28.24c2.999-17.499-7.919-34.375-25.109-38.814
			V435.2c14.138,0,25.6-11.461,25.6-25.6S108.07,384,93.931,384v-17.067c14.132-0.015,25.585-11.468,25.6-25.6V332.8h25.6
			c14.132-0.015,25.585-11.468,25.6-25.6V153.6c-0.015-14.132-11.468-25.585-25.6-25.6h-8.533V76.8h34.133v25.6
			c-0.001,2.263,0.898,4.434,2.499,6.035c1.6,1.6,3.771,2.499,6.035,2.499h13.622l233.845,225.493v13.44
			c-0.001,2.263,0.898,4.434,2.499,6.035s3.771,2.499,6.035,2.499h25.6v145.067c-0.001,2.263,0.898,4.434,2.499,6.035
			c1.6,1.6,3.771,2.499,6.035,2.499h34.133c2.263,0.001,4.434-0.898,6.035-2.499c1.6-1.6,2.499-3.771,2.499-6.035V25.6
			C512.065,11.461,500.603,0,486.465,0z M34.198,315.733h-8.533c-4.711-0.005-8.529-3.822-8.533-8.533V153.6
			c0.005-4.711,3.822-8.529,8.533-8.533h8.533V315.733z M34.198,59.733h-8.533c-4.713,0-8.533-3.82-8.533-8.533
			s3.82-8.533,8.533-8.533h8.533V59.733z M59.798,17.067c4.711,0.005,8.529,3.822,8.533,8.533H51.265
			C51.269,20.889,55.087,17.071,59.798,17.067z M102.465,409.6c-0.005,4.711-3.822,8.529-8.533,8.533H76.865
			c-4.713,0-8.533-3.82-8.533-8.533s3.82-8.533,8.533-8.533h17.067C98.642,401.071,102.46,404.889,102.465,409.6z M102.465,341.333
			c-0.005,4.711-3.822,8.529-8.533,8.533H76.865c-4.711-0.005-8.529-3.822-8.533-8.533V332.8h34.133V341.333z M119.531,315.733
			h-8.533H51.265V281.6h68.267V315.733z M119.531,264.533H51.265V145.067h68.267V264.533z M119.531,128H51.265v-17.067h68.267V128z
			 M119.531,93.867H51.265V76.8h68.267V93.867z M119.531,59.733H51.265V42.667h68.267V59.733z M145.131,145.067
			c4.711,0.005,8.529,3.823,8.533,8.533v153.6c-0.005,4.711-3.823,8.529-8.533,8.533h-8.533V145.067H145.131z M145.131,17.067
			c4.711,0.005,8.529,3.822,8.533,8.533h-17.067C136.603,20.889,140.42,17.071,145.131,17.067z M187.798,93.867V76.8h68.267v17.067
			H187.798z M426.731,312.717L217.475,110.933h26.635L426.731,285.25V312.717z M460.865,341.333h-17.067v-76.8h17.067V341.333z
			 M460.865,247.467h-25.6c-2.263-0.001-4.434,0.898-6.035,2.499c-1.6,1.6-2.499,3.771-2.499,6.035v5.656L268.043,110.181
			c3.088-1.357,5.083-4.408,5.089-7.781V76.8h187.733V247.467z M460.865,59.733H136.598V42.667h324.267V59.733z M494.998,494.933
			h-17.067V25.6c0-4.713,3.82-8.533,8.533-8.533s8.533,3.82,8.533,8.533V494.933z"/>
	</g>
</g>
<g>
</g>
<g>
</g>
<g>
</g>
<g>
</g>
<g>
</g>
<g>
</g>
<g>
</g>
<g>
</g>
<g>
</g>
<g>
</g>
<g>
</g>
<g>
</g>
<g>
</g>
<g>
</g>
<g>
</g>
</svg>
