<?xml version="1.0" encoding="iso-8859-1"?>
<!-- Generator: Adobe Illustrator 19.0.0, SVG Export Plug-In . SVG Version: 6.00 Build 0)  -->
<svg version="1.1" id="Capa_1" xmlns="http://www.w3.org/2000/svg" xmlns:xlink="http://www.w3.org/1999/xlink" x="0px" y="0px"
	 viewBox="0 0 512 512" style="enable-background:new 0 0 512 512;" xml:space="preserve">
<g>
	<g>
		<g>
			<path d="M477.867,443.733h25.6c2.263,0.001,4.434-0.898,6.035-2.499c1.6-1.6,2.499-3.771,2.499-6.035v-17.067
				c-0.015-14.132-11.468-25.585-25.6-25.6h-0.862c-3.947-18.982-20.203-32.913-39.566-33.907l-167.565-68.549
				c9.56-8.259,13.728-21.152,10.812-33.444c-2.917-12.292-12.433-21.938-24.685-25.021v-9.745H281.6
				c2.263,0.001,4.434-0.898,6.035-2.499c1.6-1.6,2.499-3.771,2.499-6.035V179.2c0.001-2.263-0.898-4.434-2.499-6.035
				c-1.6-1.6-3.771-2.499-6.035-2.499V153.6h34.133c2.263,0.001,4.434-0.898,6.035-2.499c1.6-1.6,2.499-3.771,2.499-6.035V102.4
				c-0.039-27.795-16.908-52.798-42.667-63.241V8.533c0.001-2.263-0.898-4.434-2.499-6.035c-1.6-1.6-3.771-2.499-6.035-2.499
				h-34.133c-2.263-0.001-4.434,0.898-6.035,2.499c-1.6,1.6-2.499,3.771-2.499,6.035v30.626
				c-25.759,10.442-42.628,35.445-42.667,63.241v42.667c-0.001,2.263,0.898,4.434,2.499,6.035c1.6,1.6,3.771,2.499,6.035,2.499
				H230.4v17.067c-2.263-0.001-4.434,0.898-6.035,2.499c-1.6,1.6-2.499,3.771-2.499,6.035v34.133
				c-0.001,2.263,0.898,4.434,2.499,6.035c1.6,1.6,3.771,2.499,6.035,2.499h17.067v17.067c-0.001,2.263,0.898,4.434,2.499,6.035
				c1.6,1.6,3.771,2.499,6.035,2.499c9.426,0,17.067,7.641,17.067,17.067S265.426,281.6,256,281.6s-17.067-7.641-17.067-17.067
				c0-4.713-3.82-8.533-8.533-8.533s-8.533,3.82-8.533,8.533c0.031,9.81,4.308,19.126,11.727,25.544L66.028,358.627
				c-19.363,0.994-35.618,14.924-39.566,33.907H25.6c-14.132,0.015-25.585,11.468-25.6,25.6V435.2
				c-0.001,2.263,0.898,4.434,2.499,6.035c1.6,1.6,3.771,2.499,6.035,2.499h25.6c4.711,0.005,8.529,3.823,8.533,8.533
				c0.005,2.298-0.938,4.496-2.608,6.075c-1.559,1.591-3.698,2.479-5.925,2.458h-25.6c-2.263-0.001-4.434,0.898-6.035,2.499
				c-1.6,1.6-2.499,3.771-2.499,6.035V486.4c0.015,14.132,11.468,25.585,25.6,25.6h460.8c14.132-0.015,25.585-11.468,25.6-25.6
				v-17.067c0.001-2.263-0.898-4.434-2.499-6.035c-1.6-1.6-3.771-2.499-6.035-2.499h-25.6c-4.711-0.005-8.529-3.823-8.533-8.533
				c-0.005-2.298,0.938-4.496,2.608-6.075C473.5,444.601,475.64,443.713,477.867,443.733z M247.467,17.067h17.067v17.659
				c-5.661-0.79-11.405-0.79-17.067,0V17.067z M204.8,136.533V102.4c0-28.277,22.923-51.2,51.2-51.2s51.2,22.923,51.2,51.2v34.133
				H204.8z M264.533,153.6v17.067h-17.067V153.6H264.533z M238.933,204.8v-17.067h34.133V204.8H238.933z M443.719,375.468
				l0.014,0.003l0.017-0.003c10.806,0.04,20.42,6.873,24.01,17.065h-48.055C423.297,382.34,432.912,375.507,443.719,375.468z
				 M256,299.354l163.322,66.816c-8.953,6.242-15.177,15.676-17.393,26.363H110.071c-2.216-10.688-8.44-20.121-17.393-26.364
				L256,299.354z M68.267,375.467c10.813,0.033,20.435,6.868,24.028,17.067H44.239C47.832,382.334,57.454,375.5,68.267,375.467z
				 M477.867,477.867h17.067v8.533c-0.005,4.711-3.822,8.529-8.533,8.533H25.6c-4.711-0.005-8.529-3.822-8.533-8.533v-8.533h17.067
				c14.109-0.07,25.53-11.491,25.6-25.6c-0.015-14.132-11.468-25.585-25.6-25.6H17.067v-8.533c0.005-4.711,3.822-8.529,8.533-8.533
				h460.8c4.711,0.005,8.529,3.822,8.533,8.533v8.533h-17.067c-6.756-0.05-13.244,2.639-17.983,7.454
				c-4.905,4.758-7.656,11.312-7.617,18.146C452.282,466.399,463.735,477.851,477.867,477.867z"/>
			<path d="M128,426.667h-25.6c-14.138,0-25.6,11.462-25.6,25.6c0,14.138,11.462,25.6,25.6,25.6H128c14.138,0,25.6-11.462,25.6-25.6
				C153.6,438.128,142.138,426.667,128,426.667z M128,460.8h-25.6c-4.713,0-8.533-3.821-8.533-8.533c0-4.713,3.82-8.533,8.533-8.533
				H128c4.713,0,8.533,3.821,8.533,8.533C136.533,456.979,132.713,460.8,128,460.8z"/>
			<path d="M221.867,426.667h-25.6c-14.138,0-25.6,11.462-25.6,25.6c0,14.138,11.461,25.6,25.6,25.6h25.6
				c14.138,0,25.6-11.462,25.6-25.6C247.467,438.128,236.005,426.667,221.867,426.667z M221.867,460.8h-25.6
				c-4.713,0-8.533-3.821-8.533-8.533c0-4.713,3.82-8.533,8.533-8.533h25.6c4.713,0,8.533,3.821,8.533,8.533
				C230.4,456.979,226.58,460.8,221.867,460.8z"/>
			<path d="M315.733,426.667h-25.6c-14.138,0-25.6,11.462-25.6,25.6c0,14.138,11.462,25.6,25.6,25.6h25.6
				c14.138,0,25.6-11.462,25.6-25.6C341.333,438.128,329.872,426.667,315.733,426.667z M315.733,460.8h-25.6
				c-4.713,0-8.533-3.821-8.533-8.533c0-4.713,3.82-8.533,8.533-8.533h25.6c4.713,0,8.533,3.821,8.533,8.533
				C324.267,456.979,320.446,460.8,315.733,460.8z"/>
			<path d="M409.6,426.667H384c-14.138,0-25.6,11.462-25.6,25.6c0,14.138,11.462,25.6,25.6,25.6h25.6
				c14.138,0,25.6-11.462,25.6-25.6C435.2,438.128,423.739,426.667,409.6,426.667z M409.6,460.8H384
				c-4.713,0-8.533-3.821-8.533-8.533c0-4.713,3.82-8.533,8.533-8.533h25.6c4.713,0,8.533,3.821,8.533,8.533
				C418.133,456.979,414.313,460.8,409.6,460.8z"/>
		</g>
	</g>
</g>
<g>
</g>
<g>
</g>
<g>
</g>
<g>
</g>
<g>
</g>
<g>
</g>
<g>
</g>
<g>
</g>
<g>
</g>
<g>
</g>
<g>
</g>
<g>
</g>
<g>
</g>
<g>
</g>
<g>
</g>
</svg>
