<?xml version="1.0" encoding="iso-8859-1"?>
<!-- Generator: Adobe Illustrator 19.0.0, SVG Export Plug-In . SVG Version: 6.00 Build 0)  -->
<svg version="1.1" id="Capa_1" xmlns="http://www.w3.org/2000/svg" xmlns:xlink="http://www.w3.org/1999/xlink" x="0px" y="0px"
	 viewBox="0 0 512 512" style="enable-background:new 0 0 512 512;" xml:space="preserve">
<g>
	<g>
		<path d="M507.613,109.858c0.299-0.22,0.581-0.462,0.846-0.722c0.485-0.333,0.934-0.716,1.339-1.143
			c0.656-0.855,1.204-1.787,1.633-2.776c0.178-0.562,0.295-1.142,0.35-1.729c0.098-0.357,0.171-0.721,0.219-1.088V8.533
			c0-0.155-0.08-0.284-0.088-0.437c-0.055-0.566-0.168-1.124-0.337-1.667c-0.116-0.555-0.289-1.096-0.514-1.616
			c-0.067-0.138-0.06-0.29-0.136-0.426c-0.222-0.302-0.465-0.587-0.728-0.855c-0.329-0.479-0.707-0.923-1.128-1.323
			c-0.422-0.351-0.877-0.658-1.36-0.918c-0.449-0.286-0.924-0.528-1.42-0.721c-0.561-0.177-1.14-0.294-1.726-0.349
			c-0.36-0.099-0.727-0.174-1.097-0.222H315.733c-0.156,0-0.286,0.081-0.441,0.089c-0.558,0.056-1.109,0.167-1.645,0.332
			c-0.561,0.116-1.109,0.29-1.635,0.519c-0.138,0.067-0.29,0.06-0.425,0.135L4.388,171.742c-0.299,0.221-0.582,0.462-0.847,0.722
			c-0.485,0.332-0.933,0.715-1.337,1.141c-0.345,0.416-0.648,0.866-0.905,1.342c-0.29,0.453-0.534,0.934-0.73,1.435
			c-0.178,0.563-0.295,1.142-0.35,1.73c-0.098,0.357-0.172,0.721-0.22,1.088v324.267C0,508.18,3.82,512,8.533,512h187.733l0.003,0
			l0.005,0c1.003-0.023,1.994-0.224,2.927-0.593c0.227-0.084,0.443-0.161,0.66-0.263c0.181-0.084,0.373-0.12,0.55-0.219
			l307.2-170.667c0.299-0.22,0.581-0.462,0.846-0.722c0.485-0.333,0.934-0.716,1.339-1.143c0.656-0.855,1.204-1.787,1.633-2.776
			c0.178-0.562,0.295-1.142,0.35-1.729c0.098-0.357,0.171-0.721,0.219-1.089v-93.867c0-0.155-0.08-0.284-0.088-0.437
			c-0.164-1.122-0.449-2.223-0.851-3.283c-0.067-0.138-0.06-0.29-0.136-0.426c-0.222-0.302-0.465-0.587-0.728-0.855
			c-0.329-0.479-0.707-0.923-1.128-1.323c-0.856-0.659-1.79-1.209-2.78-1.639c-0.561-0.177-1.14-0.294-1.726-0.348
			c-0.36-0.099-0.727-0.174-1.097-0.222H435.2c-0.156,0-0.286,0.081-0.441,0.089c-1.121,0.165-2.221,0.45-3.28,0.851
			c-0.138,0.067-0.289,0.06-0.425,0.135l-55.588,30.882v-79.084L507.613,109.858z M317.944,17.067h152.592l-276.48,153.6H41.464
			L317.944,17.067z M128,281.6h68.267l0.003-0.001l0.005,0.001c1.003-0.023,1.994-0.224,2.927-0.593
			c0.227-0.084,0.443-0.161,0.66-0.263c0.181-0.084,0.373-0.12,0.55-0.219L358.4,192.754v79.084L123.854,402.142
			c-0.299,0.221-0.582,0.462-0.847,0.722c-0.485,0.332-0.933,0.715-1.337,1.141c-0.657,0.855-1.206,1.788-1.634,2.777
			c-0.178,0.563-0.295,1.142-0.35,1.73c-0.098,0.357-0.171,0.721-0.219,1.088v34.133h-51.2v-204.8h51.2v34.133
			C119.467,277.779,123.287,281.6,128,281.6z M187.733,494.933H17.067v-307.2h170.667v76.8h-51.2V230.4
			c0-4.713-3.82-8.533-8.533-8.533H59.733c-4.713,0-8.533,3.82-8.533,8.533v221.867c0,4.713,3.82,8.533,8.533,8.533H128
			c4.713,0,8.533-3.821,8.533-8.533v-34.133h51.2V494.933z M494.933,327.779L204.8,488.965v-74.344l290.133-161.185V327.779z
			 M437.411,247.467h33.125l-276.48,153.6h-33.125L437.411,247.467z M204.8,258.565v-74.344L494.933,23.035v74.344L204.8,258.565z"
			/>
	</g>
</g>
<g>
</g>
<g>
</g>
<g>
</g>
<g>
</g>
<g>
</g>
<g>
</g>
<g>
</g>
<g>
</g>
<g>
</g>
<g>
</g>
<g>
</g>
<g>
</g>
<g>
</g>
<g>
</g>
<g>
</g>
</svg>
