<?xml version="1.0" encoding="iso-8859-1"?>
<!-- Generator: Adobe Illustrator 19.0.0, SVG Export Plug-In . SVG Version: 6.00 Build 0)  -->
<svg version="1.1" id="Capa_1" xmlns="http://www.w3.org/2000/svg" xmlns:xlink="http://www.w3.org/1999/xlink" x="0px" y="0px"
	 viewBox="0 0 512 512" style="enable-background:new 0 0 512 512;" xml:space="preserve">
<g>
	<g>
		<g>
			<path d="M489.45,66.075l9.133-5.108l0.167-0.083c0.689-0.345,1.328-0.78,1.9-1.296c7.209-6.501,11.332-15.747,11.35-25.454v-25.6
				c0-0.154-0.079-0.283-0.087-0.435c-0.056-0.565-0.168-1.123-0.335-1.665c-0.118-0.557-0.291-1.1-0.517-1.622
				c-0.067-0.137-0.06-0.289-0.136-0.424c-0.219-0.296-0.458-0.576-0.716-0.839c-0.334-0.489-0.72-0.941-1.151-1.348
				c-0.412-0.341-0.856-0.641-1.327-0.895c-0.458-0.294-0.943-0.541-1.45-0.738c-0.562-0.177-1.141-0.294-1.727-0.349
				c-0.357-0.098-0.72-0.171-1.088-0.219H315.733c-0.154,0-0.282,0.08-0.434,0.087c-0.567,0.055-1.127,0.168-1.671,0.338
				c-0.556,0.117-1.099,0.29-1.62,0.517c-0.135,0.066-0.283,0.059-0.417,0.133L4.392,171.742c-0.293,0.217-0.571,0.453-0.831,0.708
				c-0.494,0.336-0.95,0.725-1.36,1.159c-0.343,0.414-0.645,0.861-0.9,1.334c-0.29,0.454-0.535,0.935-0.731,1.437
				c-0.178,0.565-0.296,1.147-0.35,1.737C0.121,178.473,0.048,178.835,0,179.2v324.267c-0.001,2.263,0.898,4.434,2.499,6.035
				c1.6,1.6,3.771,2.499,6.035,2.499h187.733l0.003,0l0.005,0c1.001-0.023,1.99-0.223,2.921-0.591
				c0.233-0.085,0.454-0.165,0.677-0.27c0.176-0.083,0.362-0.118,0.535-0.214l307.2-170.667c0.292-0.217,0.57-0.453,0.83-0.707
				c0.495-0.337,0.952-0.727,1.364-1.161c0.341-0.413,0.641-0.859,0.896-1.33c0.292-0.455,0.538-0.938,0.733-1.442
				c0.178-0.564,0.295-1.145,0.35-1.734c0.098-0.356,0.171-0.718,0.218-1.084v-25.6c-0.02-18.843-15.29-34.113-34.133-34.133h-102.4
				V129.469L489.45,66.075z M317.94,17.067h152.6l-276.479,153.6H41.46L317.94,17.067z M358.4,138.96v137.617L68.267,437.767
				V238.933h102.4c7.548-0.011,14.88-2.527,20.844-7.154L358.4,138.96z M187.733,494.933H17.067v-307.2h170.667V204.8
				c0.021,3.646-1.169,7.195-3.383,10.092c-3.163,4.403-8.262,7.002-13.683,6.975H59.733c-2.263-0.001-4.434,0.898-6.035,2.499
				c-1.6,1.6-2.499,3.771-2.499,6.035v221.867c0,0.154,0.079,0.283,0.087,0.435c0.165,1.123,0.45,2.225,0.852,3.286
				c0.067,0.137,0.06,0.289,0.135,0.424c0.383,0.69,0.861,1.323,1.419,1.881l0.039,0.03c0.692,0.662,1.491,1.201,2.364,1.593
				c0.233,0.111,0.461,0.201,0.704,0.291c0.93,0.367,1.918,0.566,2.918,0.589l0.015,0.003h110.933
				c9.421,0.011,17.056,7.645,17.067,17.067V494.933z M477.867,290.133c9.421,0.011,17.056,7.645,17.067,17.067v20.581
				L204.8,488.967v-11.1c-0.02-18.843-15.29-34.113-34.133-34.133H92.66l276.488-153.6H477.867z M204.796,204.856l0.004-0.056
				v-20.581L494.933,23.033v11.1c-0.018,4.583-1.861,8.971-5.121,12.193L204.796,204.856z"/>
			<path d="M447.758,323.263c1.399,0.002,2.776-0.343,4.008-1.004l7.525-4.017c4.158-2.218,5.731-7.388,3.513-11.546
				c-2.218-4.158-7.388-5.731-11.546-3.513l-7.525,4.017c-3.454,1.845-5.209,5.804-4.257,9.602
				C440.428,320.601,443.842,323.264,447.758,323.263z"/>
			<path d="M410.108,343.342L410.108,343.342c1.398,0,2.775-0.345,4.008-1.004l7.533-4.017c4.158-2.218,5.731-7.388,3.513-11.546
				c-2.218-4.158-7.388-5.731-11.546-3.512l-7.533,4.017c-3.458,1.842-5.217,5.803-4.265,9.604S406.19,343.348,410.108,343.342z"/>
			<path d="M346.845,363.707c-2.588-1.612-5.839-1.721-8.529-0.286l-7.525,4.017c-4.158,2.218-5.731,7.388-3.513,11.546
				c2.218,4.158,7.388,5.731,11.546,3.513l7.525-4.017c2.69-1.435,4.41-4.196,4.512-7.243S349.433,365.319,346.845,363.707z"/>
			<path d="M225.383,423.654l-7.533,4.017c-4.158,2.218-5.731,7.388-3.513,11.546c2.218,4.158,7.388,5.731,11.546,3.513l7.533-4.017
				c4.158-2.218,5.731-7.388,3.513-11.546C234.711,423.009,229.542,421.436,225.383,423.654z"/>
			<path d="M309.223,383.779c-2.591-1.615-5.847-1.723-8.54-0.283v0l-7.533,4.012c-4.161,2.214-5.739,7.381-3.525,11.542
				c2.214,4.161,7.381,5.739,11.542,3.525l7.533-4.013c2.699-1.428,4.428-4.189,4.536-7.241
				C313.344,388.271,311.814,385.394,309.223,383.779z"/>
			<path d="M363.93,354.601c-0.102,3.047,1.429,5.917,4.017,7.529c2.588,1.612,5.839,1.721,8.529,0.286L384,358.4
				c4.158-2.218,5.731-7.388,3.513-11.546c-2.218-4.158-7.388-5.731-11.546-3.512l-7.525,4.017
				C365.752,348.793,364.032,351.554,363.93,354.601z"/>
			<path d="M263.025,403.575l-7.525,4.017c-4.158,2.218-5.731,7.388-3.512,11.546c2.218,4.158,7.388,5.731,11.546,3.512l7.525-4.017
				c4.158-2.218,5.731-7.388,3.513-11.546C272.352,402.929,267.183,401.357,263.025,403.575z"/>
		</g>
	</g>
</g>
<g>
</g>
<g>
</g>
<g>
</g>
<g>
</g>
<g>
</g>
<g>
</g>
<g>
</g>
<g>
</g>
<g>
</g>
<g>
</g>
<g>
</g>
<g>
</g>
<g>
</g>
<g>
</g>
<g>
</g>
</svg>
