<?xml version="1.0" encoding="iso-8859-1"?>
<!-- Generator: Adobe Illustrator 19.0.0, SVG Export Plug-In . SVG Version: 6.00 Build 0)  -->
<svg version="1.1" id="Capa_1" xmlns="http://www.w3.org/2000/svg" xmlns:xlink="http://www.w3.org/1999/xlink" x="0px" y="0px"
	 viewBox="0 0 512 512" style="enable-background:new 0 0 512 512;" xml:space="preserve">
<g>
	<g>
		<g>
			<path d="M59.733,460.8h162.133c2.263,0.001,4.434-0.898,6.035-2.499c1.6-1.6,2.499-3.771,2.499-6.035V290.133
				c-0.013-3.447-2.091-6.55-5.273-7.875c-1.033-0.431-2.141-0.654-3.26-0.658H59.733c-2.263-0.001-4.434,0.898-6.035,2.499
				c-1.6,1.6-2.499,3.771-2.499,6.035v162.133C51.218,456.972,55.028,460.782,59.733,460.8z M213.333,443.733h-133l133-133V443.733z
				 M68.267,298.667h133l-133,133V298.667z"/>
			<path d="M506.727,0.658c-1.033-0.431-2.141-0.654-3.26-0.658H238.933c-2.264,0.013-4.433,0.913-6.041,2.507L2.506,232.894
				c-1.593,1.608-2.493,3.776-2.506,6.039v264.533c-0.001,2.263,0.898,4.434,2.499,6.035c1.6,1.6,3.771,2.499,6.035,2.499h264.533
				c2.264-0.012,4.433-0.913,6.041-2.507l230.386-230.387c1.594-1.607,2.494-3.776,2.506-6.039V8.533
				C511.987,5.086,509.909,1.983,506.727,0.658z M264.533,494.933H17.067V247.467h247.467V494.933z M269.533,230.4h-240.4
				L242.467,17.067h240.4L269.533,230.4z M494.933,269.533L281.6,482.867v-240.4L494.933,29.133V269.533z"/>
		</g>
	</g>
</g>
<g>
</g>
<g>
</g>
<g>
</g>
<g>
</g>
<g>
</g>
<g>
</g>
<g>
</g>
<g>
</g>
<g>
</g>
<g>
</g>
<g>
</g>
<g>
</g>
<g>
</g>
<g>
</g>
<g>
</g>
</svg>
