<?xml version="1.0" encoding="iso-8859-1"?>
<!-- Generator: Adobe Illustrator 19.0.0, SVG Export Plug-In . SVG Version: 6.00 Build 0)  -->
<svg version="1.1" id="Capa_1" xmlns="http://www.w3.org/2000/svg" xmlns:xlink="http://www.w3.org/1999/xlink" x="0px" y="0px"
	 viewBox="0 0 512 512" style="enable-background:new 0 0 512 512;" xml:space="preserve">
<g>
	<g>
		<g>
			<path d="M452.267,460.8H384c-18.842-0.022-34.112-15.291-34.133-34.133V162.133c-0.033-10.813-6.868-20.435-17.067-24.028V25.6
				C332.785,11.468,321.332,0.015,307.2,0H204.8c-14.132,0.015-25.585,11.468-25.6,25.6v112.506
				c-10.199,3.592-17.033,13.214-17.067,24.028v264.533c-0.022,18.842-15.291,34.112-34.133,34.133H59.733
				c-14.138,0-25.6,11.461-25.6,25.6s11.462,25.6,25.6,25.6h392.533c14.138,0,25.6-11.461,25.6-25.6S466.405,460.8,452.267,460.8z
				 M196.267,25.6c0.006-4.71,3.823-8.527,8.533-8.533h102.4c4.71,0.006,8.527,3.823,8.533,8.533v110.933H196.267V25.6z
				 M179.2,426.667V162.133c0.006-4.71,3.823-8.527,8.533-8.533h136.533c4.71,0.006,8.527,3.823,8.533,8.533v264.533
				c0.004,12.613,4.688,24.776,13.145,34.133H166.055C174.512,451.442,179.196,439.28,179.2,426.667z M452.267,494.933H59.733
				c-4.713,0-8.533-3.82-8.533-8.533s3.82-8.533,8.533-8.533h392.533c4.71,0.006,8.527,3.823,8.533,8.533
				C460.794,491.11,456.977,494.927,452.267,494.933z"/>
			<path d="M256,170.667c-32.99,0-59.733,26.744-59.733,59.733S223.01,290.133,256,290.133s59.733-26.744,59.733-59.733
				C315.696,197.426,288.975,170.704,256,170.667z M256,273.067c-23.564,0-42.667-19.102-42.667-42.667s19.103-42.667,42.667-42.667
				s42.667,19.103,42.667,42.667C298.639,253.953,279.553,273.039,256,273.067z"/>
			<path d="M256,204.8c-14.139,0-25.6,11.462-25.6,25.6S241.862,256,256,256c14.138,0,25.6-11.461,25.6-25.6
				C281.585,216.268,270.132,204.815,256,204.8z M256,238.933c-4.713,0-8.533-3.82-8.533-8.533s3.82-8.533,8.533-8.533
				c4.713,0,8.533,3.82,8.533,8.533C264.527,235.11,260.71,238.927,256,238.933z"/>
			<path d="M256,324.267c-32.99,0-59.733,26.744-59.733,59.733S223.01,443.733,256,443.733S315.733,416.99,315.733,384
				C315.696,351.026,288.975,324.304,256,324.267z M256,426.667c-23.564,0-42.667-19.102-42.667-42.667
				c0-23.564,19.103-42.667,42.667-42.667s42.667,19.102,42.667,42.667C298.639,407.553,279.553,426.639,256,426.667z"/>
			<path d="M256,358.4c-14.139,0-25.6,11.462-25.6,25.6c0,14.138,11.462,25.6,25.6,25.6c14.138,0,25.6-11.462,25.6-25.6
				C281.585,369.868,270.132,358.415,256,358.4z M256,392.533c-4.713,0-8.533-3.82-8.533-8.533s3.82-8.533,8.533-8.533
				c4.713,0,8.533,3.82,8.533,8.533C264.527,388.71,260.71,392.527,256,392.533z"/>
		</g>
	</g>
</g>
<g>
</g>
<g>
</g>
<g>
</g>
<g>
</g>
<g>
</g>
<g>
</g>
<g>
</g>
<g>
</g>
<g>
</g>
<g>
</g>
<g>
</g>
<g>
</g>
<g>
</g>
<g>
</g>
<g>
</g>
</svg>
