<?xml version="1.0" encoding="iso-8859-1"?>
<!-- Generator: Adobe Illustrator 19.0.0, SVG Export Plug-In . SVG Version: 6.00 Build 0)  -->
<svg version="1.1" id="Capa_1" xmlns="http://www.w3.org/2000/svg" xmlns:xlink="http://www.w3.org/1999/xlink" x="0px" y="0px"
	 viewBox="0 0 512 512" style="enable-background:new 0 0 512 512;" xml:space="preserve">
<g>
	<g>
		<path d="M512,136.533V42.667c-0.009-9.422-7.645-17.057-17.067-17.067c-0.015-14.132-11.468-25.585-25.6-25.6h-17.067
			c-14.132,0.015-25.585,11.468-25.6,25.6c-8.193,0.014-15.221,5.846-16.746,13.896l-79.35,79.346
			c-4.944,4.974-6.342,12.467-3.523,18.889l-70.023,70.02l-71.532-71.529c2.033-6.098,0.459-12.821-4.068-17.384l-79.346-79.342
			c-1.524-8.05-8.553-13.882-16.746-13.896C85.318,11.468,73.865,0.015,59.733,0H42.667c-14.132,0.015-25.585,11.468-25.6,25.6
			C7.645,25.609,0.009,33.245,0,42.667v93.867c0.009,9.422,7.645,17.057,17.067,17.067v204.8C7.645,358.409,0.009,366.045,0,375.467
			v93.867c0.009,9.422,7.645,17.057,17.067,17.067c0.015,14.132,11.468,25.585,25.6,25.6h17.067
			c14.132-0.015,25.585-11.468,25.6-25.6c8.193-0.014,15.221-5.846,16.746-13.896l79.35-79.346
			c4.525-4.562,6.096-11.283,4.062-17.379l71.533-71.53l70.022,70.019c-2.819,6.425-1.419,13.92,3.528,18.894l79.346,79.342
			c1.524,8.05,8.553,13.882,16.746,13.896c0.015,14.132,11.468,25.585,25.6,25.6h17.067c14.132-0.015,25.585-11.468,25.6-25.6
			c9.422-0.009,17.057-7.645,17.067-17.067v-93.867c-0.009-9.422-7.645-17.057-17.067-17.067V153.6
			C504.355,153.591,511.991,145.955,512,136.533z M452.267,17.067h17.067c4.71,0.006,8.527,3.823,8.533,8.533h-34.133
			C443.74,20.89,447.556,17.073,452.267,17.067z M409.6,63.949v72.379l-30.8,30.797l-34.482-34.542l-0.022-0.033l-0.033-0.022
			l-1.621-1.624L409.6,63.949z M102.4,63.949l66.958,66.955l-0.601,0.602l-0.028,0.019l-0.019,0.028l-35.51,35.576l-30.8-30.8
			V63.949z M42.667,17.067h17.067c4.71,0.006,8.527,3.823,8.533,8.533H34.133C34.139,20.89,37.956,17.073,42.667,17.067z
			 M17.067,42.667h68.267v0.684l0.013,93.183H17.067V42.667z M68.267,153.6v204.8H34.133V153.6H68.267z M59.733,494.933H42.667
			c-4.71-0.006-8.527-3.823-8.533-8.533h34.133C68.261,491.11,64.444,494.927,59.733,494.933z M85.333,469.333H17.067v-93.867
			h68.267V469.333z M93.411,360.526c-2.472-1.375-5.25-2.107-8.078-2.126V153.6c2.828-0.02,5.607-0.751,8.078-2.126l27.722,27.722
			c3.191,3.211,7.535,5.01,12.062,4.996h0.012c1.147-0.001,2.292-0.117,3.416-0.347L208.776,256l-72.152,72.155
			c-1.124-0.229-2.268-0.346-3.416-0.347h-0.012c-4.527-0.015-8.871,1.785-12.062,4.996L93.411,360.526z M102.4,448.051v-72.379
			l30.8-30.797l35.51,35.572l0.019,0.028l0.028,0.019l0.601,0.602L102.4,448.051z M263.058,286.15c-1.6-1.601-3.77-2.5-6.033-2.5
			s-4.433,0.899-6.033,2.5l-76.219,76.215l-24.092-24.133l76.194-76.198c1.601-1.6,2.5-3.77,2.5-6.033
			c0-2.263-0.899-4.433-2.5-6.033l-76.194-76.198l24.092-24.133l76.219,76.215c1.6,1.601,3.77,2.5,6.033,2.5s4.433-0.899,6.033-2.5
			l75.193-75.19l24.094,24.135l-75.175,75.171c-1.601,1.6-2.5,3.77-2.5,6.033c0,2.263,0.899,4.433,2.5,6.033l75.174,75.171
			l-24.094,24.135L263.058,286.15z M409.6,448.051l-66.958-66.955l1.62-1.624l0.034-0.022l0.022-0.034l34.482-34.545l30.8,30.8
			V448.051z M390.867,332.804c-3.191-3.211-7.535-5.01-12.063-4.996h-0.012c-0.529,0-1.036,0.105-1.556,0.153L305.271,256
			l71.965-71.961c0.52,0.047,1.027,0.153,1.556,0.153h0.012c4.527,0.015,8.871-1.785,12.062-4.996l27.722-27.722
			c2.472,1.375,5.25,2.107,8.078,2.126v204.8c-2.828,0.019-5.607,0.751-8.078,2.126L390.867,332.804z M469.333,494.933h-17.067
			c-4.71-0.006-8.527-3.823-8.533-8.533h34.133C477.861,491.11,474.044,494.927,469.333,494.933z M494.933,469.333h-68.267v-0.684
			l-0.012-93.183h68.279V469.333z M443.733,358.4V153.6h34.133v204.8H443.733z M426.667,136.533V42.667h68.267v93.867H426.667z"/>
	</g>
</g>
<g>
</g>
<g>
</g>
<g>
</g>
<g>
</g>
<g>
</g>
<g>
</g>
<g>
</g>
<g>
</g>
<g>
</g>
<g>
</g>
<g>
</g>
<g>
</g>
<g>
</g>
<g>
</g>
<g>
</g>
</svg>
