<?xml version="1.0" encoding="iso-8859-1"?>
<!-- Generator: Adobe Illustrator 19.0.0, SVG Export Plug-In . SVG Version: 6.00 Build 0)  -->
<svg version="1.1" id="Capa_1" xmlns="http://www.w3.org/2000/svg" xmlns:xlink="http://www.w3.org/1999/xlink" x="0px" y="0px"
	 viewBox="0 0 512 512" style="enable-background:new 0 0 512 512;" xml:space="preserve">
<g>
	<g>
		<g>
			<path d="M279.125,79.275c-3.398-3.219-8.719-3.219-12.117,0c-0.79,0.8-1.4,1.759-1.792,2.813c-0.438,1.027-0.67,2.13-0.683,3.246
				c-0.081,3.475,2.041,6.622,5.292,7.85c1.026,0.437,2.127,0.67,3.242,0.683c2.27,0.022,4.453-0.87,6.058-2.475
				s2.497-3.788,2.475-6.058c-0.013-1.116-0.245-2.219-0.683-3.246C280.525,81.034,279.915,80.075,279.125,79.275z"/>
			<path d="M273.067,281.6c-4.713,0-8.533,3.82-8.533,8.533c0.014,1.115,0.246,2.216,0.683,3.242
				c0.432,1.034,1.038,1.987,1.791,2.817c0.817,0.771,1.773,1.379,2.817,1.792c1.026,0.437,2.127,0.669,3.242,0.683
				c2.259-0.035,4.421-0.918,6.059-2.475c0.753-0.83,1.359-1.783,1.792-2.817c0.437-1.026,0.669-2.127,0.683-3.242
				C281.6,285.421,277.779,281.6,273.067,281.6z"/>
			<path d="M136.533,213.333c2.259-0.035,4.421-0.918,6.059-2.475c0.341-0.429,0.683-0.854,1.025-1.279
				c0.321-0.477,0.579-0.994,0.767-1.538c0.247-0.483,0.419-1.002,0.508-1.538c0.103-0.563,0.162-1.133,0.175-1.704
				c0.02-3.467-2.059-6.601-5.261-7.931s-6.89-0.59-9.331,1.872c-0.772,0.814-1.38,1.769-1.792,2.813
				c-0.438,1.027-0.67,2.13-0.683,3.246c0.014,2.263,0.9,4.433,2.475,6.059C132.101,212.431,134.271,213.317,136.533,213.333z"/>
			<path d="M477.867,128H348.294c-3.592-10.199-13.215-17.033-24.028-17.067h-8.533v-76.8C315.713,15.29,300.443,0.02,281.6,0h-51.2
				c-18.843,0.02-34.113,15.29-34.133,34.133v76.8h-8.533c-10.813,0.033-20.435,6.868-24.028,17.067H34.133
				C15.29,128.02,0.02,143.29,0,162.133v51.2c0.02,18.843,15.29,34.113,34.133,34.133h129.573
				c3.592,10.199,13.214,17.033,24.027,17.067h8.533v162.133c-14.132,0.015-25.585,11.468-25.6,25.6v8.533h-51.2
				c-14.132,0.015-25.585,11.468-25.6,25.6v17.067c-0.001,2.263,0.898,4.434,2.499,6.035c1.6,1.6,3.771,2.499,6.035,2.499h307.2
				c2.263,0.001,4.434-0.898,6.035-2.499c1.6-1.6,2.499-3.771,2.499-6.035V486.4c-0.015-14.132-11.468-25.585-25.6-25.6h-51.2
				v-8.533c-0.015-14.132-11.468-25.585-25.6-25.6V264.533h8.533c10.813-0.033,20.435-6.868,24.028-17.067h129.572
				c18.843-0.02,34.113-15.29,34.133-34.133v-51.2C511.98,143.29,496.71,128.02,477.867,128z M93.867,230.4H34.133
				c-9.421-0.011-17.056-7.646-17.067-17.067v-51.2c0.011-9.421,7.646-17.056,17.067-17.067h59.733V230.4z M162.133,230.4h-51.2
				v-85.333h51.2V230.4z M213.333,34.133c0.011-9.421,7.645-17.056,17.067-17.067h51.2c9.421,0.011,17.056,7.646,17.067,17.067
				v8.533h-85.333V34.133z M213.333,59.733h85.333v51.2h-85.333V59.733z M392.533,477.867c4.711,0.005,8.529,3.822,8.533,8.533
				v8.533H110.933V486.4c0.005-4.711,3.822-8.529,8.533-8.533H392.533z M324.267,452.267v8.533H187.733v-8.533
				c0.005-4.711,3.822-8.529,8.533-8.533h119.467C320.444,443.738,324.262,447.556,324.267,452.267z M298.667,332.8v93.867h-85.333
				V332.8H298.667z M213.333,315.733v-51.2h85.333v51.2H213.333z M332.8,238.933c-0.005,4.711-3.822,8.529-8.533,8.533H187.733
				c-4.711-0.005-8.529-3.822-8.533-8.533v-102.4c0.005-4.711,3.822-8.529,8.533-8.533h136.533c4.711,0.005,8.529,3.822,8.533,8.533
				V238.933z M401.067,230.4h-51.2v-85.333h51.2V230.4z M494.933,213.333c-0.011,9.421-7.645,17.056-17.067,17.067h-59.733v-85.333
				h59.733c9.421,0.011,17.056,7.646,17.067,17.067V213.333z"/>
			<path d="M369.408,210.858c3.365,3.3,8.752,3.3,12.117,0c0.753-0.83,1.359-1.783,1.792-2.817c0.911-2.067,0.911-4.421,0-6.487
				c-0.433-1.033-1.039-1.984-1.792-2.813c-3.421-3.158-8.695-3.158-12.117,0c-0.753,0.829-1.359,1.78-1.792,2.813
				c-0.911,2.067-0.911,4.421,0,6.487C368.049,209.076,368.655,210.028,369.408,210.858z"/>
		</g>
	</g>
</g>
<g>
</g>
<g>
</g>
<g>
</g>
<g>
</g>
<g>
</g>
<g>
</g>
<g>
</g>
<g>
</g>
<g>
</g>
<g>
</g>
<g>
</g>
<g>
</g>
<g>
</g>
<g>
</g>
<g>
</g>
</svg>
