<?xml version="1.0" encoding="iso-8859-1"?>
<!-- Generator: Adobe Illustrator 19.0.0, SVG Export Plug-In . SVG Version: 6.00 Build 0)  -->
<svg version="1.1" id="Capa_1" xmlns="http://www.w3.org/2000/svg" xmlns:xlink="http://www.w3.org/1999/xlink" x="0px" y="0px"
	 viewBox="0 0 512.076 512.076" style="enable-background:new 0 0 512.076 512.076;" xml:space="preserve">
<g transform="translate(0 -1)">
	<g>
		<g>
			<path d="M68.304,86.409c14.138,0,25.6-11.461,25.6-25.6s-11.462-25.6-25.6-25.6s-25.6,11.461-25.6,25.6
				C42.72,74.941,54.172,86.394,68.304,86.409z M68.304,52.276c4.713,0,8.533,3.82,8.533,8.533s-3.82,8.533-8.533,8.533
				s-8.533-3.82-8.533-8.533C59.777,56.099,63.594,52.282,68.304,52.276z"/>
			<path d="M486.438,137.609V109.76c16.026-11.147,25.587-29.429,25.6-48.951c0.033-28.362-19.883-52.837-47.66-58.57
				c-27.777-5.733-55.755,8.858-66.954,34.916c-11.198,26.058-2.529,56.398,20.747,72.605v27.849H102.438V109.76
				c21.418-14.914,30.674-42.006,22.859-66.908S94.404,1.006,68.304,1.006S19.128,17.95,11.312,42.852s1.441,51.994,22.859,66.908
				v27.849h-8.533c-14.132,0.015-25.585,11.468-25.6,25.6v153.6c0.015,14.132,11.468,25.585,25.6,25.6h8.533v119.467h-8.533
				c-14.132,0.015-25.585,11.468-25.6,25.6v17.067c0,4.713,3.82,8.533,8.533,8.533h119.467c4.713,0,8.533-3.82,8.533-8.533v-17.067
				c-0.015-14.132-11.468-25.585-25.6-25.6h-8.533V342.409h307.2v119.467h-8.533c-14.132,0.015-25.585,11.468-25.6,25.6v17.067
				c0,4.713,3.82,8.533,8.533,8.533h119.467c4.713,0,8.533-3.82,8.533-8.533v-17.067c-0.015-14.132-11.468-25.585-25.6-25.6h-8.533
				V342.409h8.533c14.132-0.015,25.585-11.468,25.6-25.6v-153.6C512.022,149.077,500.57,137.624,486.438,137.609z M409.638,60.809
				c0-23.564,19.102-42.667,42.667-42.667c23.564,0,42.667,19.103,42.667,42.667s-19.102,42.667-42.667,42.667
				C428.752,103.448,409.666,84.362,409.638,60.809z M469.371,118.027v19.582h-34.133v-19.582
				C446.368,121.381,458.241,121.381,469.371,118.027z M25.638,60.809c0-23.564,19.103-42.667,42.667-42.667
				s42.667,19.103,42.667,42.667s-19.103,42.667-42.667,42.667C44.752,103.448,25.666,84.362,25.638,60.809z M85.371,118.027v19.582
				H51.238v-19.582C62.368,121.381,74.241,121.381,85.371,118.027z M17.104,163.209c0.006-4.71,3.823-8.527,8.533-8.533h26.241
				l-34.774,55.599V163.209z M22.423,324.691c-3.209-1.304-5.311-4.419-5.319-7.882v-74.354l54.902-87.78h56.677L22.423,324.691z
				 M110.971,478.942c4.71,0.006,8.527,3.823,8.533,8.533v8.533h-102.4v-8.533c0.006-4.71,3.823-8.527,8.533-8.533H110.971z
				 M51.238,461.876V342.409h34.133v119.467H51.238z M42.142,325.342l106.667-170.667h65.207L107.35,325.342H42.142z
				 M127.476,325.342l106.667-170.667h56.674L184.15,325.342H127.476z M204.276,325.342l106.667-170.667h65.207L269.483,325.342
				H204.276z M289.609,325.342l106.667-170.667h56.674L346.283,325.342H289.609z M486.438,478.942
				c4.71,0.006,8.527,3.823,8.533,8.533v8.533h-102.4v-8.533c0.006-4.71,3.823-8.527,8.533-8.533H486.438z M426.704,461.876V342.409
				h34.133v119.467H426.704z M494.971,316.809c-0.006,4.71-3.823,8.527-8.533,8.533h-34.701l43.234-69.218V316.809z
				 M494.971,223.909l-63.356,101.434h-65.206l106.667-170.667h13.362c4.71,0.006,8.527,3.823,8.533,8.533V223.909z"/>
			<path d="M452.304,86.409c14.138,0,25.6-11.461,25.6-25.6s-11.462-25.6-25.6-25.6c-14.138,0-25.6,11.461-25.6,25.6
				C426.72,74.941,438.172,86.394,452.304,86.409z M452.304,52.276c4.713,0,8.533,3.82,8.533,8.533s-3.821,8.533-8.533,8.533
				c-4.713,0-8.533-3.82-8.533-8.533C443.777,56.099,447.594,52.282,452.304,52.276z"/>
		</g>
	</g>
</g>
<g>
</g>
<g>
</g>
<g>
</g>
<g>
</g>
<g>
</g>
<g>
</g>
<g>
</g>
<g>
</g>
<g>
</g>
<g>
</g>
<g>
</g>
<g>
</g>
<g>
</g>
<g>
</g>
<g>
</g>
</svg>
