<?xml version="1.0" encoding="iso-8859-1"?>
<!-- Generator: Adobe Illustrator 19.0.0, SVG Export Plug-In . SVG Version: 6.00 Build 0)  -->
<svg version="1.1" id="Capa_1" xmlns="http://www.w3.org/2000/svg" xmlns:xlink="http://www.w3.org/1999/xlink" x="0px" y="0px"
	 viewBox="0 0 512 512" style="enable-background:new 0 0 512 512;" xml:space="preserve">
<g>
	<g>
		<g>
			<path d="M256,0C114.615,0,0,114.615,0,256s114.615,256,256,256s256-114.615,256-256C511.84,114.682,397.318,0.16,256,0z
				 M256,494.933C124.041,494.933,17.067,387.959,17.067,256S124.041,17.067,256,17.067S494.933,124.041,494.933,256
				C494.785,387.898,387.898,494.785,256,494.933z"/>
			<path d="M349.308,112.158c-6.43-16.24-22.15-26.884-39.617-26.825h-11.025V68.267c-0.012-9.421-7.646-17.054-17.067-17.067h-51.2
				c-9.421,0.012-17.054,7.646-17.067,17.067v17.067h-11.025c-17.466-0.059-33.186,10.585-39.617,26.825l-55,137.5
				c-2.101,5.258-1.459,11.215,1.714,15.905c3.173,4.689,8.465,7.5,14.128,7.504h24.442c6.83,0.006,13.003-4.068,15.683-10.35
				l32.608-76.083v36.45c0,4.044-0.575,8.068-1.708,11.95L143.25,410.967c-2.259,7.735-0.742,16.083,4.093,22.529
				c4.835,6.447,12.424,10.24,20.482,10.237H192.1c11.325,0.051,21.321-7.388,24.525-18.25L256,294.233l39.375,131.25
				c3.204,10.862,13.2,18.301,24.525,18.25h24.275c8.058,0.002,15.647-3.791,20.482-10.237c4.835-6.447,6.351-14.794,4.093-22.529
				l-51.308-175.933c-1.133-3.882-1.708-7.906-1.708-11.95v-36.45l32.6,76.075c2.682,6.286,8.858,10.363,15.692,10.359h24.442
				c5.661-0.003,10.952-2.812,14.125-7.5s3.816-10.643,1.717-15.9L349.308,112.158z M247.467,263.277l-47.192,157.306
				c-1.066,3.622-4.399,6.102-8.175,6.083h-24.275c-2.686,0.003-5.216-1.26-6.828-3.409c-1.612-2.148-2.118-4.93-1.364-7.508
				l51.308-175.933c1.584-5.437,2.39-11.07,2.392-16.733V165.85c-0.001-6.078-4.277-11.316-10.231-12.536
				c-5.954-1.22-11.945,1.915-14.336,7.503L147.975,256h-24.433l55-137.508c3.86-9.741,13.289-16.125,23.767-16.092h45.158V263.277z
				 M247.467,85.333H230.4V68.267h17.067V85.333z M264.533,68.267H281.6v17.067h-17.067V68.267z M364.025,256l-40.792-95.192
				c-2.395-5.584-8.386-8.716-14.339-7.494c-5.952,1.222-10.226,6.459-10.228,12.536v57.233c0.002,5.663,0.807,11.297,2.392,16.733
				l51.309,175.934c0.753,2.578,0.248,5.36-1.364,7.508c-1.612,2.148-4.142,3.411-6.828,3.409H319.9
				c-3.776,0.019-7.109-2.461-8.175-6.083l-47.192-157.3V102.4h45.158c10.477-0.034,19.907,6.351,23.767,16.092L388.467,256H364.025
				z"/>
			<path d="M296.192,130.475c-1.994-2.072-4.909-2.981-7.727-2.41c-2.818,0.571-5.15,2.542-6.181,5.227
				c-0.481,1.012-0.715,2.122-0.684,3.242c-0.018,1.109,0.183,2.211,0.592,3.242c0.5,1.018,1.133,1.966,1.883,2.817
				c0.829,0.754,1.782,1.36,2.817,1.792c2.065,0.911,4.418,0.911,6.483,0c2.143-0.777,3.831-2.465,4.608-4.608
				c0.911-2.065,0.911-4.418,0-6.483C297.572,132.247,296.964,131.291,296.192,130.475z"/>
		</g>
	</g>
</g>
<g>
</g>
<g>
</g>
<g>
</g>
<g>
</g>
<g>
</g>
<g>
</g>
<g>
</g>
<g>
</g>
<g>
</g>
<g>
</g>
<g>
</g>
<g>
</g>
<g>
</g>
<g>
</g>
<g>
</g>
</svg>
