<?xml version="1.0" encoding="iso-8859-1"?>
<!-- Generator: Adobe Illustrator 19.0.0, SVG Export Plug-In . SVG Version: 6.00 Build 0)  -->
<svg version="1.1" id="Capa_1" xmlns="http://www.w3.org/2000/svg" xmlns:xlink="http://www.w3.org/1999/xlink" x="0px" y="0px"
	 viewBox="0 0 512 512" style="enable-background:new 0 0 512 512;" xml:space="preserve">
<g>
	<g>
		<g>
			<path d="M256,0C114.615,0,0,114.615,0,256s114.615,256,256,256s256-114.615,256-256C511.84,114.682,397.318,0.16,256,0z
				 M273.067,494.256c-5.644,0.4-11.322,0.677-17.067,0.677c-5.744,0-11.422-0.277-17.067-0.677V435.2h34.133V494.256z
				 M179.2,418.133c-14.132-0.015-25.585-11.468-25.6-25.6v-25.6h204.8v25.6c-0.015,14.132-11.468,25.585-25.6,25.6h-51.2H179.2z
				 M290.133,492.456V435.2H332.8c23.553-0.028,42.639-19.114,42.667-42.667V358.4c0.001-2.263-0.898-4.434-2.499-6.035
				c-1.6-1.6-3.771-2.499-6.035-2.499H145.067c-2.263-0.001-4.434,0.898-6.035,2.499c-1.6,1.6-2.499,3.771-2.499,6.035v34.133
				c0.028,23.553,19.114,42.639,42.667,42.667h42.667v57.256C97.832,474.553,8.706,363.861,17.68,238.863S130.68,17.04,256,17.04
				s229.345,96.825,238.32,221.823C503.294,363.861,414.168,474.553,290.133,492.456z"/>
			<path d="M416.517,143.717L416.517,143.717c2.154-2.985,2.154-7.015,0-10c-35.293-48.669-90.737-78.726-150.78-81.74
				c-6.45-1.036-13.023-1.036-19.473,0c-60.043,3.013-115.488,33.07-150.78,81.74c-2.154,2.985-2.154,7.015,0,10
				c37.24,51.52,96.947,82.033,160.517,82.033S379.276,195.237,416.517,143.717z M247.785,68.989
				c2.732-0.125,5.467-0.239,8.215-0.239c2.748,0,5.483,0.114,8.215,0.239c24.752,4.038,42.942,25.399,42.985,50.478
				c0.031,27.216-21.236,49.701-48.412,51.182s-50.762-18.556-53.691-45.615C202.169,97.976,220.921,73.355,247.785,68.989z
				 M256,208.683c-55.877-0.071-108.606-25.881-142.938-69.967c22.852-29.325,54.162-50.92,89.692-61.864
				c-22.39,27.904-19.439,68.36,6.762,92.72c26.201,24.36,66.765,24.36,92.966,0c26.201-24.36,29.152-64.816,6.762-92.72
				c35.53,10.943,66.84,32.539,89.692,61.864C364.605,182.802,311.877,208.613,256,208.683z"/>
			<path d="M256,136.533c14.138,0,25.6-11.461,25.6-25.6s-11.462-25.6-25.6-25.6c-14.132,0.015-25.585,11.468-25.6,25.6
				C230.4,125.072,241.862,136.533,256,136.533z M256,102.4c4.711,0.005,8.529,3.822,8.533,8.533c0,4.713-3.82,8.533-8.533,8.533
				s-8.533-3.82-8.533-8.533S251.287,102.4,256,102.4z"/>
			<path d="M230.4,298.667c-2.263-0.001-4.434,0.898-6.035,2.499c-1.6,1.6-2.499,3.771-2.499,6.035v17.067
				c0,4.713,3.82,8.533,8.533,8.533s8.533-3.82,8.533-8.533V307.2c0.001-2.263-0.898-4.434-2.499-6.035
				C234.834,299.565,232.663,298.666,230.4,298.667z"/>
			<path d="M230.4,247.467c-2.263-0.001-4.434,0.898-6.035,2.499c-1.6,1.6-2.499,3.771-2.499,6.035v17.067
				c0,4.713,3.82,8.533,8.533,8.533s8.533-3.821,8.533-8.533V256c0.001-2.263-0.898-4.434-2.499-6.035
				C234.834,248.365,232.663,247.466,230.4,247.467z"/>
			<path d="M146.188,305.225c-1.2-2.802-3.803-4.75-6.829-5.112c-3.026-0.362-6.015,0.918-7.842,3.358
				c-1.826,2.44-2.212,5.669-1.012,8.47l6.721,15.683c1.341,3.142,4.43,5.179,7.846,5.175c1.155,0.002,2.298-0.233,3.358-0.692
				c4.329-1.856,6.335-6.87,4.479-11.2L146.188,305.225z"/>
			<path d="M132.742,273.85l-6.725-15.692c-1.855-4.331-6.869-6.338-11.2-4.483c-4.331,1.855-6.338,6.869-4.483,11.2l6.725,15.692
				c1.341,3.142,4.43,5.179,7.846,5.175c1.155,0.002,2.298-0.233,3.358-0.692C132.592,283.194,134.597,278.18,132.742,273.85z"/>
			<path d="M112.652,233.322c0.842-2.101,0.814-4.45-0.077-6.53l-6.721-15.692c-1.855-4.333-6.871-6.342-11.204-4.487
				c-4.333,1.855-6.342,6.871-4.488,11.204l6.721,15.692c1.344,3.142,4.433,5.178,7.85,5.175c1.154,0.002,2.295-0.233,3.354-0.692
				C110.168,237.102,111.81,235.422,112.652,233.322z"/>
			<path d="M191.875,305.642c-1.161-4.55-5.779-7.307-10.335-6.17c-4.556,1.137-7.337,5.741-6.223,10.303l4.137,16.558
				c1.162,4.549,5.78,7.305,10.335,6.168c4.555-1.137,7.336-5.74,6.224-10.301L191.875,305.642z"/>
			<path d="M183.596,272.517l-4.142-16.55c-1.146-4.572-5.782-7.35-10.354-6.204s-7.35,5.782-6.204,10.354l4.142,16.55
				c0.548,2.196,1.947,4.084,3.889,5.247s4.266,1.506,6.461,0.953C181.96,281.723,184.739,277.089,183.596,272.517z"/>
			<path d="M281.6,298.667c-2.263-0.001-4.434,0.898-6.035,2.499c-1.6,1.6-2.499,3.771-2.499,6.035v17.067
				c0,4.713,3.82,8.533,8.533,8.533s8.533-3.82,8.533-8.533V307.2c0.001-2.263-0.898-4.434-2.499-6.035
				C286.034,299.565,283.863,298.666,281.6,298.667z"/>
			<path d="M281.6,247.467c-2.263-0.001-4.434,0.898-6.035,2.499c-1.6,1.6-2.499,3.771-2.499,6.035v17.067
				c0,4.713,3.82,8.533,8.533,8.533s8.533-3.821,8.533-8.533V256c0.001-2.263-0.898-4.434-2.499-6.035
				C286.034,248.365,283.863,247.466,281.6,247.467z"/>
			<path d="M377.017,300.742c-2.079-0.904-4.433-0.938-6.538-0.096s-3.785,2.491-4.667,4.579l-6.721,15.683
				c-1.855,4.33,0.15,9.344,4.479,11.2c1.06,0.458,2.203,0.694,3.358,0.692c3.416,0.004,6.505-2.033,7.846-5.175l6.721-15.683
				C383.351,307.612,381.346,302.598,377.017,300.742z"/>
			<path d="M397.188,253.675c-2.079-0.904-4.433-0.938-6.538-0.096c-2.105,0.842-3.785,2.491-4.667,4.579l-6.725,15.692
				c-1.855,4.33,0.15,9.344,4.479,11.2c1.06,0.458,2.203,0.694,3.358,0.692c3.416,0.004,6.505-2.033,7.846-5.175l6.725-15.692
				C403.522,260.545,401.517,255.531,397.188,253.675z"/>
			<path d="M417.35,206.617c-2.079-0.901-4.432-0.935-6.536-0.093s-3.784,2.489-4.668,4.576l-6.721,15.692
				c-0.891,2.08-0.919,4.429-0.077,6.53s2.484,3.781,4.565,4.67c1.059,0.458,2.2,0.694,3.354,0.692
				c3.417,0.003,6.506-2.033,7.85-5.175l6.721-15.692c0.891-2.08,0.919-4.429,0.077-6.53
				C421.073,209.186,419.431,207.506,417.35,206.617z"/>
			<path d="M330.471,299.433c-4.57-1.131-9.194,1.644-10.346,6.208l-4.137,16.558c-0.756,2.964,0.132,6.107,2.328,8.236
				c2.196,2.13,5.365,2.92,8.304,2.073c2.939-0.847,5.2-3.204,5.926-6.176l4.137-16.558c0.548-2.195,0.201-4.518-0.964-6.458
				C334.554,301.378,332.666,299.981,330.471,299.433z"/>
			<path d="M342.896,249.767c-4.57-1.142-9.201,1.632-10.35,6.2l-4.142,16.55c-1.146,4.572,1.632,9.208,6.204,10.354
				s9.208-1.632,10.354-6.204l4.142-16.55C350.247,255.544,347.468,250.911,342.896,249.767z"/>
		</g>
	</g>
</g>
<g>
</g>
<g>
</g>
<g>
</g>
<g>
</g>
<g>
</g>
<g>
</g>
<g>
</g>
<g>
</g>
<g>
</g>
<g>
</g>
<g>
</g>
<g>
</g>
<g>
</g>
<g>
</g>
<g>
</g>
</svg>
