<?xml version="1.0" encoding="iso-8859-1"?>
<!-- Generator: Adobe Illustrator 19.0.0, SVG Export Plug-In . SVG Version: 6.00 Build 0)  -->
<svg version="1.1" id="Capa_1" xmlns="http://www.w3.org/2000/svg" xmlns:xlink="http://www.w3.org/1999/xlink" x="0px" y="0px"
	 viewBox="0 0 512 512" style="enable-background:new 0 0 512 512;" xml:space="preserve">
<g>
	<g>
		<g>
			<path d="M256,0C114.615,0,0,114.615,0,256s114.615,256,256,256s256-114.615,256-256C511.84,114.682,397.318,0.16,256,0z
				 M256,494.933C124.041,494.933,17.067,387.959,17.067,256S124.041,17.067,256,17.067S494.933,124.041,494.933,256
				C494.785,387.898,387.898,494.785,256,494.933z"/>
			<path d="M443.733,196.267h-8.367c-1.66-8.172-5.692-15.673-11.592-21.567c-7.981-8.07-18.867-12.597-30.217-12.567H118.442
				c-20.267,0.024-37.73,14.281-41.808,34.133h-8.367c-9.421,0.012-17.054,7.646-17.067,17.067v76.8
				c0.012,9.421,7.646,17.054,17.067,17.067h27.151l1.682,8.317c3.993,19.943,21.486,34.31,41.825,34.35h53.333
				c21.201-0.073,39.16-15.641,42.242-36.617l2.2-15.692c0.583-4.236,4.191-7.4,8.467-7.425h21.667
				c4.242,0.013,7.835,3.128,8.45,7.325l2.217,15.808c3.089,20.969,21.046,36.528,42.242,36.6h53.333
				c20.327-0.036,37.815-14.387,41.817-34.317l1.671-8.35h27.171c9.421-0.012,17.054-7.646,17.067-17.067v-76.8
				C460.788,203.913,453.154,196.279,443.733,196.267z M68.267,290.133v-76.8h8.4l15.325,76.8H68.267z M418.642,209.792
				L398.15,312.201c-2.391,11.959-12.879,20.576-25.075,20.599h-53.333c-12.704-0.035-23.475-9.35-25.342-21.917l-2.233-15.892
				c-1.806-12.597-12.607-21.945-25.333-21.925h-21.667c-12.761-0.009-23.576,9.388-25.35,22.025l-2.217,15.775
				c-1.859,12.573-12.632,21.897-25.342,21.933h-53.333c-12.208-0.028-22.702-8.66-25.083-20.634l-3.075-15.192l-0.009-0.023
				l-17.382-87.094c-0.337-1.665-0.516-3.359-0.533-5.058l-0.004-0.021l0.004-0.021c0.05-14.111,11.489-25.531,25.6-25.558h275.117
				c14.127,0.027,25.573,11.473,25.6,25.6C419.142,206.476,418.969,208.148,418.642,209.792z M443.733,290.133h-23.758l15.362-76.8
				h8.397V290.133z"/>
			<path d="M134.033,236.433l25.6-25.6c3.281-3.341,3.256-8.701-0.054-12.012s-8.671-3.335-12.012-0.054l-25.6,25.6
				c-2.188,2.149-3.055,5.307-2.27,8.271c0.785,2.965,3.1,5.28,6.065,6.065C128.727,239.488,131.884,238.621,134.033,236.433z"/>
			<path d="M198.767,249.967l-25.6,25.6c-2.188,2.149-3.055,5.307-2.27,8.271c0.785,2.965,3.1,5.28,6.065,6.065
				c2.965,0.785,6.122-0.082,8.271-2.27l25.6-25.6c3.281-3.341,3.256-8.701-0.054-12.012S202.108,246.686,198.767,249.967z"/>
			<path d="M204.799,213.333c0-2.263-0.899-4.433-2.5-6.033c-1.6-1.601-3.77-2.5-6.033-2.5s-4.433,0.899-6.033,2.5L130.5,267.034
				c-2.178,2.151-3.037,5.304-2.251,8.262c0.786,2.958,3.097,5.269,6.055,6.055c2.958,0.786,6.111-0.073,8.262-2.251l59.733-59.733
				C203.9,217.767,204.799,215.596,204.799,213.333z"/>
		</g>
	</g>
</g>
<g>
</g>
<g>
</g>
<g>
</g>
<g>
</g>
<g>
</g>
<g>
</g>
<g>
</g>
<g>
</g>
<g>
</g>
<g>
</g>
<g>
</g>
<g>
</g>
<g>
</g>
<g>
</g>
<g>
</g>
</svg>
