<?xml version="1.0" encoding="iso-8859-1"?>
<!-- Generator: Adobe Illustrator 19.0.0, SVG Export Plug-In . SVG Version: 6.00 Build 0)  -->
<svg version="1.1" id="Capa_1" xmlns="http://www.w3.org/2000/svg" xmlns:xlink="http://www.w3.org/1999/xlink" x="0px" y="0px"
	 viewBox="0 0 512 512" style="enable-background:new 0 0 512 512;" xml:space="preserve">
<g>
	<g>
		<g>
			<path d="M119.467,360.902c-14.138,0-25.6,11.461-25.6,25.6s11.461,25.6,25.6,25.6s25.6-11.462,25.6-25.6
				C145.051,372.37,133.599,360.918,119.467,360.902z M119.467,395.036c-4.713,0-8.533-3.82-8.533-8.533s3.82-8.533,8.533-8.533
				s8.533,3.82,8.533,8.533C127.995,391.213,124.178,395.031,119.467,395.036z"/>
			<path d="M392.533,360.902c-14.138,0-25.6,11.461-25.6,25.6s11.462,25.6,25.6,25.6c14.138,0,25.6-11.462,25.6-25.6
				C418.118,372.37,406.665,360.918,392.533,360.902z M392.533,395.036c-4.713,0-8.533-3.82-8.533-8.533s3.821-8.533,8.533-8.533
				c4.713,0,8.533,3.82,8.533,8.533C401.062,391.213,397.244,395.031,392.533,395.036z"/>
			<path d="M505.496,239.436l-58.783-66.2c-4.87-5.484-11.858-8.615-19.192-8.6h-86.188c-2.263-0.001-4.434,0.898-6.035,2.499
				c-1.6,1.6-2.499,3.771-2.499,6.035v153.6h-34.133v-17.067c9.421-0.011,17.056-7.646,17.067-17.067V82.827
				c-0.001-5.524-2.676-10.706-7.178-13.906c-4.502-3.201-10.275-4.024-15.493-2.21l-281.67,96.4
				C4.571,165.522,0.008,171.967,0,179.202v113.434c0.011,9.421,7.645,17.056,17.067,17.067h93.867v17.067H25.6
				c-2.263-0.001-4.434,0.898-6.035,2.499c-1.6,1.6-2.499,3.771-2.499,6.035v34.133c0.015,14.132,11.468,25.585,25.6,25.6h17.748
				c4.206,29.38,29.372,51.2,59.052,51.2s54.846-21.82,59.052-51.2h154.964c4.206,29.38,29.372,51.2,59.052,51.2
				c29.68,0,54.846-21.82,59.052-51.2H486.4c14.132-0.015,25.585-11.468,25.6-25.6V256.452
				C511.994,250.174,509.679,244.117,505.496,239.436z M256,97.431l42.667-14.603l0.012,209.808H256V97.431z M196.267,117.875
				l42.667-14.604v189.365h-42.667V117.875z M179.2,123.717v168.919h-42.667v-153.6c0-0.237-0.116-0.438-0.135-0.67L179.2,123.717z
				 M59.733,292.636H17.067l-0.079-113.4l42.746-14.63V292.636z M76.8,292.636V158.765l42.667-14.604v148.475H76.8z M60.415,377.969
				H42.667c-4.711-0.005-8.529-3.822-8.533-8.533v-25.6h43.61C68.37,352.998,62.279,364.995,60.415,377.969z M119.467,429.169
				c-23.564,0-42.667-19.103-42.667-42.667s19.103-42.667,42.667-42.667s42.667,19.103,42.667,42.667
				C162.106,410.055,143.019,429.141,119.467,429.169z M204.8,377.969h-26.282c-1.864-12.974-7.954-24.971-17.328-34.133h43.61
				V377.969z M281.6,377.969h-59.733v-34.133H281.6V377.969z M281.6,326.769H128v-17.067h153.6V326.769z M333.482,377.969h-34.815
				v-34.133h52.143C341.436,352.998,335.346,364.995,333.482,377.969z M392.533,429.169c-23.564,0-42.667-19.103-42.667-42.667
				s19.102-42.667,42.667-42.667c23.564,0,42.667,19.103,42.667,42.667C435.172,410.055,416.086,429.141,392.533,429.169z
				 M494.933,369.436c-0.005,4.711-3.822,8.529-8.533,8.533h-34.815c-4.255-29.353-29.391-51.147-59.052-51.2h-42.667V181.702H384
				v85.333c0.015,14.132,11.468,25.585,25.6,25.6h85.333V369.436z M494.933,275.569H409.6c-4.711-0.005-8.529-3.822-8.533-8.533
				v-85.333h26.454c2.45-0.014,4.788,1.024,6.421,2.85l58.804,66.225c1.4,1.56,2.178,3.579,2.188,5.675V275.569z"/>
		</g>
	</g>
</g>
<g>
</g>
<g>
</g>
<g>
</g>
<g>
</g>
<g>
</g>
<g>
</g>
<g>
</g>
<g>
</g>
<g>
</g>
<g>
</g>
<g>
</g>
<g>
</g>
<g>
</g>
<g>
</g>
<g>
</g>
</svg>
