<?xml version="1.0" encoding="iso-8859-1"?>
<!-- Generator: Adobe Illustrator 19.0.0, SVG Export Plug-In . SVG Version: 6.00 Build 0)  -->
<svg version="1.1" id="Capa_1" xmlns="http://www.w3.org/2000/svg" xmlns:xlink="http://www.w3.org/1999/xlink" x="0px" y="0px"
	 viewBox="0 0 512 512" style="enable-background:new 0 0 512 512;" xml:space="preserve">
<g>
	<g>
		<g>
			<path d="M469.333,298.667H273.067c-2.263-0.001-4.434,0.898-6.035,2.499c-1.6,1.6-2.499,3.771-2.499,6.035v162.133
				c-0.001,2.263,0.898,4.434,2.499,6.035c1.6,1.6,3.771,2.499,6.035,2.499h196.267c2.264,0.001,4.435-0.897,6.035-2.498
				c1.601-1.601,2.499-3.772,2.498-6.035V307.2c0.001-2.264-0.897-4.435-2.498-6.035
				C473.768,299.564,471.597,298.665,469.333,298.667z M460.8,426.04c-14.156-1.357-26.578-10.003-32.767-22.806l32.767-32.767
				V426.04z M460.8,346.333l-48.7,48.7c-2.121,2.117-2.972,5.194-2.242,8.1c7.063,22.61,27.305,38.546,50.941,40.104V460.8H281.6
				V315.733h179.2V346.333z"/>
			<path d="M509.502,121.965c-1.601-1.601-3.772-2.499-6.035-2.498H435.2V8.533c0.001-2.264-0.897-4.435-2.498-6.035
				c-1.601-1.601-3.772-2.499-6.035-2.498H85.333c-2.263-0.001-4.434,0.898-6.035,2.499c-1.6,1.6-2.499,3.771-2.499,6.035v110.933
				H8.533c-2.263-0.001-4.434,0.898-6.035,2.499c-1.6,1.6-2.499,3.771-2.499,6.035v375.467c-0.001,2.263,0.898,4.434,2.499,6.035
				c1.6,1.6,3.771,2.499,6.035,2.499h494.933c2.264,0.001,4.435-0.897,6.035-2.498s2.499-3.772,2.498-6.035V128
				C512.001,125.736,511.103,123.565,509.502,121.965z M494.933,494.933H17.067v-358.4h68.267c2.263,0.001,4.434-0.898,6.035-2.499
				c1.6-1.6,2.499-3.771,2.499-6.035V17.067h324.267V128c-0.001,2.264,0.897,4.435,2.498,6.035c1.601,1.601,3.772,2.499,6.035,2.498
				h68.267V494.933z"/>
			<path d="M401.067,42.667c0.001-2.263-0.898-4.434-2.499-6.035c-1.6-1.6-3.771-2.499-6.035-2.499H273.067
				c-2.263-0.001-4.434,0.898-6.035,2.499c-1.6,1.6-2.499,3.771-2.499,6.035v230.4c-0.001,2.263,0.898,4.434,2.499,6.035
				c1.6,1.6,3.771,2.499,6.035,2.499h196.267c2.264,0.001,4.435-0.897,6.035-2.498c1.601-1.601,2.499-3.772,2.498-6.035V162.133
				c0.001-2.264-0.897-4.435-2.498-6.035c-1.601-1.601-3.772-2.499-6.035-2.498h-68.267V42.667z M341.96,264.533
				c1.357-14.157,10.005-26.579,22.81-32.767l32.763,32.767H341.96z M460.8,170.667v93.867h-39.133l-48.7-48.7
				c-2.118-2.122-5.197-2.974-8.104-2.242c-22.609,7.063-38.544,27.306-40.1,50.941H281.6V51.2H384v110.933
				c-0.001,2.263,0.898,4.434,2.499,6.035c1.6,1.6,3.771,2.499,6.035,2.499H460.8z"/>
			<path d="M238.933,34.133H119.467c-2.263-0.001-4.434,0.898-6.035,2.499c-1.6,1.6-2.499,3.771-2.499,6.035V153.6H42.667
				c-2.263-0.001-4.434,0.898-6.035,2.499c-1.6,1.6-2.499,3.771-2.499,6.035v307.2c-0.001,2.263,0.898,4.434,2.499,6.035
				c1.6,1.6,3.771,2.499,6.035,2.499h196.267c2.263,0.001,4.434-0.898,6.035-2.499c1.6-1.6,2.499-3.771,2.499-6.035V42.667
				c0.001-2.263-0.898-4.434-2.499-6.035C243.368,35.032,241.197,34.133,238.933,34.133z M230.4,417.506
				c-14.156-1.355-26.577-10.002-32.763-22.806l32.763-32.766V417.506z M230.4,212.706c-14.156-1.355-26.577-10.002-32.763-22.806
				l32.763-32.766V212.706z M230.4,133l-48.7,48.7c-2.12,2.118-2.972,5.193-2.246,8.1c7.065,22.61,27.309,38.546,50.946,40.104
				V337.8l-48.7,48.7c-2.12,2.118-2.972,5.193-2.246,8.1c7.065,22.61,27.309,38.546,50.946,40.105V460.8H51.2V170.667h68.267
				c2.263,0.001,4.434-0.898,6.035-2.499c1.6-1.6,2.499-3.771,2.499-6.035V51.2h102.4V133z"/>
		</g>
	</g>
</g>
<g>
</g>
<g>
</g>
<g>
</g>
<g>
</g>
<g>
</g>
<g>
</g>
<g>
</g>
<g>
</g>
<g>
</g>
<g>
</g>
<g>
</g>
<g>
</g>
<g>
</g>
<g>
</g>
<g>
</g>
</svg>
