<?xml version="1.0" encoding="iso-8859-1"?>
<!-- Generator: Adobe Illustrator 19.0.0, SVG Export Plug-In . SVG Version: 6.00 Build 0)  -->
<svg version="1.1" id="Capa_1" xmlns="http://www.w3.org/2000/svg" xmlns:xlink="http://www.w3.org/1999/xlink" x="0px" y="0px"
	 viewBox="0 0 512 512" style="enable-background:new 0 0 512 512;" xml:space="preserve">
<g>
	<g>
		<g>
			<path d="M341.333,341.333c4.713,0,8.533-3.821,8.533-8.533v-59.733c0.001-2.264-0.897-4.435-2.498-6.035
				s-3.772-2.499-6.035-2.498c-2.264-0.001-4.435,0.897-6.035,2.498s-2.499,3.772-2.498,6.035V332.8
				C332.8,337.513,336.621,341.333,341.333,341.333z"/>
			<path d="M415.635,2.498C414.035,0.897,411.864-0.001,409.6,0H102.4c-2.264-0.001-4.435,0.897-6.035,2.498
				s-2.499,3.772-2.498,6.035v494.933c-0.001,2.264,0.897,4.435,2.498,6.035s3.772,2.499,6.035,2.498h307.2
				c2.264,0.001,4.435-0.897,6.035-2.498s2.499-3.772,2.498-6.035V8.533C418.135,6.27,417.236,4.099,415.635,2.498z M128,494.933
				h-17.067V51.2H128V494.933z M366.933,494.933H145.067V51.2h221.867V494.933z M401.067,494.933H384V51.2h17.067V494.933z
				 M401.067,34.133H110.933V17.067h290.133V34.133z"/>
			<path d="M204.8,238.933h102.4c2.264,0.001,4.435-0.897,6.035-2.498s2.499-3.772,2.498-6.035V128
				c-0.04-32.973-26.76-59.693-59.733-59.733c-32.973,0.04-59.693,26.76-59.733,59.733v102.4c-0.001,2.264,0.897,4.435,2.498,6.035
				C200.365,238.036,202.536,238.935,204.8,238.933z M213.333,128c0-23.564,19.103-42.667,42.667-42.667
				s42.667,19.103,42.667,42.667v93.867h-85.333V128z"/>
			<path d="M204.8,349.867h102.4c2.264,0.001,4.435-0.897,6.035-2.498s2.499-3.772,2.498-6.035v-76.8
				c0.001-2.264-0.897-4.435-2.498-6.035s-3.772-2.499-6.035-2.498H204.8c-2.264-0.001-4.435,0.897-6.035,2.498
				c-1.601,1.601-2.499,3.772-2.498,6.035v76.8c-0.001,2.264,0.897,4.435,2.498,6.035
				C200.365,348.969,202.536,349.868,204.8,349.867z M213.333,273.067h85.333V332.8h-85.333V273.067z"/>
			<path d="M204.8,477.867h102.4c2.264,0.001,4.435-0.897,6.035-2.498c1.601-1.601,2.499-3.772,2.498-6.035v-93.867
				c0.001-2.264-0.897-4.435-2.498-6.035c-1.601-1.601-3.772-2.499-6.035-2.498H204.8c-2.264-0.001-4.435,0.897-6.035,2.498
				c-1.601,1.601-2.499,3.772-2.498,6.035v93.867c-0.001,2.264,0.897,4.435,2.498,6.035
				C200.365,476.969,202.536,477.868,204.8,477.867z M213.333,384h85.333v76.8h-85.333V384z"/>
			<path d="M262.767,117.7L232.9,147.567c-2.188,2.149-3.055,5.307-2.27,8.271c0.785,2.965,3.1,5.28,6.065,6.065
				c2.965,0.785,6.122-0.082,8.271-2.27l29.867-29.867c3.281-3.341,3.256-8.701-0.054-12.012
				C271.468,114.444,266.108,114.42,262.767,117.7z"/>
			<path d="M262.767,164.634L232.9,194.5c-2.188,2.149-3.055,5.307-2.27,8.271c0.785,2.965,3.1,5.28,6.065,6.065
				c2.965,0.785,6.122-0.082,8.271-2.27l29.867-29.867c3.281-3.341,3.256-8.701-0.054-12.012S266.108,161.353,262.767,164.634z"/>
		</g>
	</g>
</g>
<g>
</g>
<g>
</g>
<g>
</g>
<g>
</g>
<g>
</g>
<g>
</g>
<g>
</g>
<g>
</g>
<g>
</g>
<g>
</g>
<g>
</g>
<g>
</g>
<g>
</g>
<g>
</g>
<g>
</g>
</svg>
