<?xml version="1.0" encoding="iso-8859-1"?>
<!-- Generator: Adobe Illustrator 19.0.0, SVG Export Plug-In . SVG Version: 6.00 Build 0)  -->
<svg version="1.1" id="Capa_1" xmlns="http://www.w3.org/2000/svg" xmlns:xlink="http://www.w3.org/1999/xlink" x="0px" y="0px"
	 viewBox="0 0 512 512" style="enable-background:new 0 0 512 512;" xml:space="preserve">
<g>
	<g>
		<g>
			<path d="M486.4,0H25.6C11.468,0.015,0.015,11.468,0,25.6v460.8c0.015,14.132,11.468,25.585,25.6,25.6h460.8
				c14.132-0.015,25.585-11.468,25.6-25.6V25.6C511.985,11.468,500.532,0.015,486.4,0z M494.933,486.4
				c-0.003,4.711-3.822,8.53-8.533,8.533H25.6c-4.711-0.003-8.53-3.822-8.533-8.533V25.6c0.003-4.711,3.822-8.53,8.533-8.533h460.8
				c4.711,0.003,8.53,3.822,8.533,8.533V486.4z"/>
			<path d="M469.333,34.133H42.667c-2.264-0.001-4.435,0.897-6.035,2.498s-2.499,3.772-2.498,6.035v426.667
				c-0.001,2.264,0.897,4.435,2.498,6.035c1.601,1.601,3.772,2.499,6.035,2.498h426.667c2.264,0.001,4.435-0.897,6.035-2.498
				c1.601-1.601,2.499-3.772,2.498-6.035V42.667c0.001-2.264-0.897-4.435-2.498-6.035C473.768,35.031,471.597,34.132,469.333,34.133
				z M298.667,51.2h119.467v21.333l-25.6,19.2l-29.017-21.758c-3.029-2.283-7.204-2.283-10.233,0l-29.017,21.758l-25.6-19.2V51.2z
				 M182.617,143.358l30.717,23.042V192l-25.6,19.2l-29.017-21.758c-3.029-2.283-7.204-2.283-10.233,0L119.467,211.2l-25.6-19.2
				v-25.6l30.717-23.042c2.15-1.61,3.416-4.139,3.417-6.825v-29.867l25.6-19.2l25.6,19.2v29.867
				C179.201,139.219,180.467,141.748,182.617,143.358z M285.017,203.092l30.717,23.042v25.6l-25.6,19.2l-29.017-21.758
				c-3.029-2.283-7.204-2.283-10.233,0l-29.017,21.758l-25.6-19.2v-25.6l30.717-23.042c2.15-1.61,3.416-4.139,3.417-6.825V166.4
				l25.6-19.2l25.6,19.2v29.867C281.601,198.953,282.867,201.482,285.017,203.092z M124.583,262.825
				c2.15-1.61,3.416-4.139,3.417-6.825v-29.867l25.6-19.2l25.6,19.2V256c0.001,2.686,1.267,5.215,3.417,6.825l30.717,23.042v25.6
				l-25.6,19.2l-29.017-21.758c-3.029-2.283-7.204-2.283-10.233,0l-29.017,21.758l-25.6-19.2v-25.6L124.583,262.825z M196.267,345.6
				l30.717-23.042c2.15-1.61,3.416-4.139,3.417-6.825v-29.867l25.6-19.2l25.6,19.2v29.867c0.001,2.686,1.267,5.215,3.417,6.825
				l30.717,23.042v25.6l-25.6,19.2l-29.017-21.758c-3.029-2.283-7.204-2.283-10.233,0L221.867,390.4l-25.6-19.2V345.6z
				 M298.667,311.467v-25.6l30.717-23.042c2.15-1.61,3.416-4.139,3.417-6.825v-29.867l25.6-19.2l25.6,19.2V256
				c0.001,2.686,1.267,5.215,3.417,6.825l30.717,23.042v25.6l-25.6,19.2l-29.017-21.758c-3.029-2.283-7.204-2.283-10.233,0
				l-29.017,21.758L298.667,311.467z M363.517,189.442c-3.029-2.283-7.204-2.283-10.233,0L324.267,211.2l-25.6-19.2v-25.6
				l30.717-23.042c2.15-1.61,3.416-4.139,3.417-6.825v-29.867l25.6-19.2l25.6,19.2v29.867c0.001,2.686,1.267,5.215,3.417,6.825
				l30.717,23.042V192l-25.6,19.2L363.517,189.442z M230.4,76.8V51.2h51.2v25.6c0.001,2.686,1.267,5.215,3.417,6.825l30.717,23.042
				v25.6l-25.6,19.2l-29.017-21.758c-3.029-2.283-7.204-2.283-10.233,0l-29.017,21.758l-25.6-19.2v-25.6l30.717-23.042
				C229.133,82.015,230.399,79.486,230.4,76.8z M93.867,51.2h119.467v21.333l-25.6,19.2l-29.017-21.758
				c-3.029-2.283-7.204-2.283-10.233,0l-29.017,21.758l-25.6-19.2V51.2z M51.2,51.2h25.6v25.6c0.001,2.686,1.267,5.215,3.417,6.825
				l30.717,23.042v25.6l-25.6,19.2l-29.017-21.758c-1.474-1.112-3.27-1.713-5.117-1.713V51.2z M51.2,147.2l25.6,19.2v29.867
				c0.001,2.686,1.267,5.215,3.417,6.825l30.717,23.042v25.6l-25.6,19.2l-29.017-21.758c-1.474-1.112-3.27-1.713-5.117-1.713V147.2z
				 M51.2,266.667l25.6,19.2v29.867c0.001,2.686,1.267,5.215,3.417,6.825l30.717,23.042v25.6l-25.6,19.2l-29.017-21.758
				c-1.474-1.112-3.27-1.713-5.117-1.713V266.667z M51.2,460.8v-74.667l25.6,19.2V435.2c0.001,2.686,1.267,5.215,3.417,6.825
				l25.029,18.775H51.2z M133.685,460.8l19.915-14.933l19.915,14.933H133.685z M158.717,428.375c-3.031-2.278-7.203-2.278-10.233,0
				l-29.017,21.758l-25.6-19.2v-25.6l30.717-23.042c2.15-1.61,3.416-4.139,3.417-6.825V345.6l25.6-19.2l25.6,19.2v29.867
				c0.001,2.686,1.267,5.215,3.417,6.825l30.717,23.042v25.6l-25.6,19.2L158.717,428.375z M201.955,460.8l25.029-18.775
				c2.15-1.61,3.416-4.139,3.417-6.825v-29.867l25.6-19.2l25.6,19.2V435.2c0.001,2.686,1.267,5.215,3.417,6.825l25.029,18.775
				H201.955z M338.485,460.8l19.915-14.933l19.915,14.933H338.485z M363.517,428.375c-3.031-2.278-7.202-2.278-10.233,0
				l-29.017,21.758l-25.6-19.2v-25.6l30.717-23.042c2.15-1.61,3.416-4.139,3.417-6.825V345.6l25.6-19.2l25.6,19.2v29.867
				c0.001,2.686,1.267,5.215,3.417,6.825l30.717,23.042v25.6l-25.6,19.2L363.517,428.375z M460.8,460.8h-54.045l25.028-18.775
				c2.15-1.61,3.416-4.139,3.417-6.825v-29.867l25.6-19.2V460.8z M460.8,366.929c-1.846,0-3.643,0.601-5.117,1.713L426.667,390.4
				l-25.6-19.2v-25.6l30.717-23.042c2.15-1.61,3.416-4.139,3.417-6.825v-29.867l25.6-19.2V366.929z M460.8,247.463
				c-1.846,0-3.643,0.601-5.117,1.712l-29.017,21.758l-25.6-19.2v-25.6l30.717-23.042c2.15-1.61,3.416-4.139,3.417-6.825V166.4
				l25.6-19.2V247.463z M460.8,127.996c-1.846,0-3.643,0.601-5.117,1.712l-29.017,21.758l-25.6-19.2v-25.6l30.717-23.042
				c2.15-1.61,3.416-4.139,3.417-6.825V51.2h25.6V127.996z"/>
		</g>
	</g>
</g>
<g>
</g>
<g>
</g>
<g>
</g>
<g>
</g>
<g>
</g>
<g>
</g>
<g>
</g>
<g>
</g>
<g>
</g>
<g>
</g>
<g>
</g>
<g>
</g>
<g>
</g>
<g>
</g>
<g>
</g>
</svg>
