<?xml version="1.0" encoding="iso-8859-1"?>
<!-- Generator: Adobe Illustrator 19.0.0, SVG Export Plug-In . SVG Version: 6.00 Build 0)  -->
<svg version="1.1" id="Capa_1" xmlns="http://www.w3.org/2000/svg" xmlns:xlink="http://www.w3.org/1999/xlink" x="0px" y="0px"
	 viewBox="0 0 512 512" style="enable-background:new 0 0 512 512;" xml:space="preserve">
<g>
	<g>
		<g>
			<polygon points="124.505,201.866 124.567,202.033 124.483,201.8 			"/>
			<polygon points="124.505,355.466 124.567,355.633 124.483,355.4 			"/>
			<path d="M469.333,34.133H42.667c-2.263-0.001-4.434,0.898-6.035,2.499c-1.6,1.6-2.499,3.771-2.499,6.035v426.667
				c-0.001,2.263,0.898,4.434,2.499,6.035c1.6,1.6,3.771,2.499,6.035,2.499h53.265c0.358,0.08,0.72,0.135,1.085,0.167
				c0.293-0.041,0.585-0.096,0.872-0.167h151.643c0.358,0.08,0.72,0.135,1.085,0.167c0.293-0.041,0.585-0.096,0.872-0.167h217.844
				c2.264,0.001,4.435-0.897,6.035-2.498c1.601-1.601,2.499-3.772,2.498-6.035V42.667c0.001-2.264-0.897-4.435-2.498-6.035
				C473.768,35.031,471.597,34.132,469.333,34.133z M428.941,401.908c0.058-0.108,0.108-0.225,0.158-0.341l0.07-0.147
				c0.345-0.711,0.696-1.415,1.012-2.139c0.046-0.11,0.138-0.272,0.177-0.373c0.425-0.954,0.723-1.898,1.083-2.846
				c0.257-0.695,0.558-1.371,0.789-2.075c0.389-1.178,0.681-2.372,0.974-3.559c0.364-1.398,0.683-2.804,0.946-4.23
				c0.178-0.914,0.368-1.796,0.5-2.823c0.052-0.302,0.087-0.607,0.106-0.913c0.592-4.645,0.592-9.346,0-13.991
				c-0.019-0.306-0.054-0.611-0.106-0.913c-0.127-0.978-0.321-1.893-0.5-2.823c-0.251-1.364-0.552-2.709-0.896-4.048
				c-0.31-1.281-0.627-2.551-1.036-3.789c-0.147-0.447-0.341-0.875-0.499-1.318c-0.391-1.074-0.747-2.169-1.21-3.197
				c-0.071-0.182-0.173-0.353-0.25-0.535c-0.344-0.795-0.72-1.573-1.099-2.354l-0.06-0.128c-0.05-0.117-0.1-0.233-0.158-0.341
				l0.009-0.009c-0.176-0.382-0.424-0.735-0.615-1.114c-0.725-1.387-1.491-2.749-2.325-4.079c-0.268-0.473-0.541-0.956-0.779-1.314
				l0.168-0.143c0.287-0.235,0.603-0.465,0.909-0.694c0.334-0.248,0.636-0.482,1.042-0.765c1.092-0.742,2.167-1.483,3.308-2.2
				c0.73-0.477,1.503-0.884,2.308-1.217c0.429-0.171,0.844-0.374,1.242-0.608c0.401-0.233,0.822-0.428,1.258-0.583l0.077-0.033
				c0.184-0.076,0.305-0.13,0.548-0.226c0.7-0.317,1.408-0.567,2.208-0.858l0.067-0.017c0.429-0.092,0.849-0.217,1.258-0.375
				c0.711-0.274,1.438-0.5,2.179-0.677c0.243-0.058,0.868-0.228,1.004-0.273c0.388-0.042,0.773-0.115,1.15-0.217
				c0.979-0.224,1.973-0.38,2.974-0.466c3.556-0.439,7.153-0.436,10.708,0.009c0.987,0.083,1.968,0.236,2.933,0.458l0.225,0.05
				v83.582l-0.225,0.051c-0.98,0.225-1.974,0.38-2.975,0.467c-3.559,0.439-7.158,0.436-10.717-0.008
				c-0.378-0.029-0.754-0.082-1.125-0.158c-0.325-0.075-1.25-0.225-1.583-0.267c-0.441-0.117-0.889-0.203-1.342-0.258l-1.008-0.258
				c-0.748-0.178-1.483-0.406-2.2-0.683c-0.283-0.108-0.867-0.267-1.283-0.375l-0.142-0.05l-0.383-0.143
				c-0.315-0.106-0.603-0.224-0.891-0.339c-0.387-0.152-0.805-0.321-1.351-0.56c-0.358-0.133-0.675-0.267-1.533-0.675
				c-1.139-0.488-2.232-1.076-3.267-1.758c-0.236-0.167-0.494-0.302-0.767-0.4c-0.331-0.269-0.679-0.516-1.042-0.742
				c-0.692-0.417-1.383-0.9-2.058-1.383c-0.567-0.395-1.102-0.869-1.648-1.32c0.346-0.538,0.669-1.087,0.984-1.643
				c0.75-1.214,1.43-2.461,2.09-3.723c0.191-0.378,0.439-0.732,0.615-1.113L428.941,401.908z M459.733,316.224
				c-4.946-0.594-9.945-0.597-14.892-0.008c-1.596,0.175-3.182,0.437-4.75,0.784v0c-0.678,0.111-1.349,0.264-2.008,0.458
				l-0.071,0.021l-0.054,0.012c-0.421,0.097-0.841,0.259-1.262,0.374c-0.896,0.242-1.813,0.464-2.638,0.776l-0.042,0.013
				c-0.526,0.108-1.041,0.27-1.534,0.482l-0.174,0.055c-0.189,0.065-0.344,0.143-0.528,0.209c-0.761,0.28-1.422,0.536-1.856,0.733
				c-0.229,0.099-0.494,0.179-0.716,0.283c-1.083,0.414-2.136,0.904-3.15,1.467c-1.537,0.658-3.017,1.441-4.425,2.342l-0.084,0.054
				l-0.024,0.013l-0.158,0.104l-1.075,0.688c-0.289,0.185-0.565,0.388-0.861,0.583c-1.319-1.561-2.527-3.214-3.614-4.945
				l-0.222-0.38c-1.214-2.048-2.256-4.194-3.115-6.415l-0.186-0.479c-0.846-2.262-1.497-4.591-1.947-6.963
				c-0.033-0.156-0.051-0.334-0.078-0.495c-0.894-4.838-0.894-9.799,0-14.636c0.028-0.166,0.044-0.345,0.079-0.507
				c0.454-2.414,1.117-4.785,1.98-7.084l0.069-0.184c0.881-2.299,1.958-4.517,3.22-6.631l0.174-0.289l0.031-0.053
				c1.085-1.729,2.291-3.38,3.609-4.94l0.21,0.134c0.438,0.326,0.955,0.614,1.452,0.913c0.321,0.193,0.623,0.437,0.956,0.604
				c0.083,0.051,0.168,0.083,0.252,0.133c1.233,0.751,2.509,1.429,3.821,2.029c0.256,0.124,0.525,0.294,0.777,0.413
				c0.661,0.339,1.342,0.639,2.039,0.899c0.162,0.062,0.306,0.161,0.47,0.218c0.9,0.408,1.875,0.783,2.9,1.133
				c0.567,0.225,1.149,0.409,1.742,0.55c1.196,0.456,2.425,0.824,3.675,1.1c0.862,0.251,1.738,0.446,2.625,0.583
				c0.608,0.142,1.233,0.25,1.9,0.341c0.833,0.167,1.667,0.283,2.55,0.392c4.942,0.653,9.949,0.656,14.892,0.009
				c0.375-0.05,0.742-0.092,1.108-0.142v35.383C460.45,316.316,460.092,316.266,459.733,316.224z M398.696,272.425
				c-0.094,0.168-0.161,0.323-0.25,0.49c-0.097,0.202-0.208,0.394-0.303,0.596c-0.32,0.626-0.603,1.271-0.847,1.93
				c-0.399,0.864-0.744,1.752-1.033,2.658c-0.372,0.789-0.657,1.616-0.85,2.467l-0.055,0.183c-0.156,0.492-0.301,0.984-0.444,1.48
				c-0.197,0.649-0.44,1.335-0.576,1.92c-0.222,0.773-0.403,1.558-0.542,2.35c-0.197,0.819-0.292,1.715-0.423,2.58
				c-0.078,0.479-0.168,0.951-0.235,1.432c-0.03,0.236-0.084,0.449-0.113,0.688c-0.654,4.942-0.656,9.949-0.004,14.892
				c0.03,0.247,0.084,0.461,0.115,0.704c0.069,0.497,0.161,0.986,0.242,1.481c0.13,0.855,0.225,1.747,0.418,2.556
				c0.12,0.723,0.284,1.439,0.492,2.142c0.16,0.682,0.402,1.364,0.607,2.046c0.152,0.529,0.303,1.054,0.469,1.578l0.045,0.151
				c0.124,0.636,0.318,1.257,0.579,1.85c0.4,1.092,0.812,2.192,1.075,2.717c0.204,0.557,0.502,1.089,0.748,1.641
				c0.261,0.582,0.513,1.163,0.792,1.737l0.093,0.205c0.595,1.381,1.307,2.708,2.129,3.967c0.265,0.487,0.638,0.946,0.931,1.429
				c0.247,0.394,0.427,0.823,0.683,1.213c-1.096,0.88-2.238,1.701-3.42,2.46c-0.68,0.445-1.315,0.963-2.019,1.365
				c-1.566,0.856-3.185,1.611-4.849,2.259c-0.677,0.276-1.316,0.639-2.005,0.88c-1.503,0.485-3.032,0.887-4.579,1.205
				c-0.921,0.213-1.815,0.529-2.748,0.683c-1.013,0.169-2.044,0.163-3.066,0.261c-2.897,0.276-5.814,0.273-8.71-0.011
				c-0.973-0.097-1.954-0.089-2.918-0.249c-0.974-0.16-1.909-0.488-2.87-0.713c-1.506-0.311-2.993-0.703-4.457-1.172
				c-0.713-0.248-1.372-0.622-2.07-0.908c-1.644-0.642-3.245-1.388-4.794-2.234c-0.698-0.398-1.328-0.911-2.002-1.352
				c-1.19-0.764-2.339-1.59-3.441-2.476c0.154-0.234,0.26-0.493,0.411-0.729c1.27-1.973,2.423-4.019,3.452-6.127
				c0.143-0.293,0.312-0.572,0.449-0.867c1.109-2.395,2.059-4.861,2.841-7.381c0.175-0.558,0.304-1.126,0.463-1.69
				c0.56-1.997,1.016-4.021,1.365-6.066c0.122-0.712,0.251-1.417,0.346-2.134c0.776-5.202,0.776-10.49,0-15.692
				c-0.096-0.717-0.224-1.422-0.346-2.134c-0.349-2.044-0.804-4.069-1.365-6.066c-0.159-0.563-0.287-1.132-0.463-1.69
				c-0.783-2.521-1.732-4.987-2.841-7.381c-0.138-0.295-0.307-0.574-0.449-0.867c-1.03-2.108-2.182-4.154-3.452-6.127
				c-0.151-0.236-0.257-0.495-0.411-0.729c1.1-0.883,2.246-1.707,3.432-2.47c0.678-0.443,1.312-0.96,2.014-1.36
				c1.546-0.844,3.145-1.588,4.786-2.229c0.7-0.287,1.362-0.661,2.076-0.911c1.457-0.467,2.937-0.857,4.435-1.167
				c0.969-0.227,1.912-0.557,2.895-0.719c0.942-0.157,1.901-0.147,2.851-0.243c2.938-0.292,5.898-0.296,8.837-0.011
				c1,0.098,2.009,0.09,3,0.255c0.942,0.155,1.845,0.474,2.774,0.689c1.539,0.317,3.06,0.717,4.555,1.199
				c0.692,0.242,1.333,0.605,2.01,0.882c1.66,0.647,3.277,1.401,4.841,2.256c0.708,0.404,1.346,0.924,2.03,1.372
				c1.179,0.758,2.318,1.578,3.412,2.455c-0.18,0.273-0.304,0.576-0.479,0.851c-0.279,0.435-0.636,0.912-0.837,1.283v0
				C400.196,269.379,399.384,270.873,398.696,272.425z M401.353,244.929c-0.25-0.121-0.488-0.266-0.74-0.383
				c-2.416-1.121-4.903-2.079-7.447-2.868c-0.527-0.165-1.063-0.286-1.595-0.436c-2.025-0.571-4.079-1.033-6.153-1.386
				c-0.7-0.119-1.394-0.246-2.099-0.341c-5.205-0.777-10.497-0.777-15.703,0c-0.71,0.095-1.408,0.223-2.114,0.343
				c-2.061,0.351-4.101,0.811-6.114,1.377c-0.546,0.154-1.097,0.279-1.638,0.448c-2.533,0.786-5.01,1.74-7.415,2.855
				c-0.275,0.128-0.534,0.285-0.806,0.418c-2.129,1.038-4.195,2.201-6.186,3.484c-0.234,0.151-0.492,0.255-0.724,0.408
				c-0.879-1.071-1.673-2.194-2.439-3.335c-0.479-0.712-1.024-1.381-1.458-2.119c-0.857-1.52-1.62-3.092-2.285-4.705
				c-0.302-0.697-0.688-1.356-0.953-2.068c-0.61-1.737-1.106-3.512-1.485-5.313c-0.149-0.65-0.395-1.271-0.514-1.929
				c-0.917-4.967-0.917-10.06,0-15.027c0.118-0.657,0.364-1.279,0.514-1.929c0.38-1.801,0.876-3.576,1.485-5.313
				c0.265-0.713,0.65-1.371,0.953-2.068c0.665-1.614,1.428-3.185,2.285-4.705c0.434-0.738,0.979-1.407,1.458-2.119
				c0.766-1.141,1.559-2.264,2.439-3.335c0.214,0.142,0.453,0.234,0.669,0.372c9.589,6.202,20.758,9.515,32.178,9.545
				c11.426-0.029,22.602-3.346,32.194-9.555c0.232-0.149,0.49-0.248,0.721-0.401c0.115,0.139,0.233,0.29,0.346,0.433
				c1.309,1.633,2.496,3.359,3.553,5.166c0.227,0.358,0.395,0.729,0.595,1.088c1.019,1.841,1.9,3.755,2.637,5.726
				c0.043,0.128,0.096,0.237,0.14,0.367c0.765,2.155,1.354,4.368,1.763,6.618c0.045,0.235,0.081,0.492,0.116,0.736
				c0.802,4.553,0.803,9.211,0.001,13.764c-0.035,0.251-0.071,0.51-0.118,0.753c-0.409,2.248-0.998,4.46-1.762,6.613
				c-0.044,0.131-0.097,0.24-0.14,0.367c-0.791,2.161-1.754,4.254-2.882,6.259l-0.232,0.384c-1.089,1.872-2.317,3.658-3.676,5.344
				l-0.341,0.426c-0.248-0.165-0.524-0.277-0.775-0.437C405.595,247.153,403.507,245.977,401.353,244.929z M281.018,367.621
				c-0.096-0.717-0.224-1.422-0.346-2.134c-0.349-2.044-0.804-4.069-1.365-6.066c-0.159-0.563-0.287-1.132-0.462-1.69
				c-0.783-2.521-1.732-4.987-2.841-7.381c-0.137-0.295-0.307-0.574-0.449-0.867c-1.03-2.108-2.182-4.154-3.452-6.127
				c-0.151-0.236-0.257-0.495-0.411-0.729c1.104-0.887,2.255-1.715,3.446-2.48c0.672-0.439,1.299-0.951,1.995-1.347
				c1.559-0.852,3.172-1.603,4.827-2.249c0.685-0.281,1.334-0.647,2.033-0.892c1.478-0.475,2.98-0.87,4.499-1.184
				c0.948-0.22,1.869-0.545,2.831-0.703c0.968-0.161,1.952-0.153,2.928-0.25c2.937-0.289,5.895-0.289,8.832,0
				c0.976,0.097,1.96,0.089,2.928,0.25c0.961,0.158,1.882,0.482,2.83,0.703c1.52,0.314,3.023,0.71,4.5,1.185
				c0.7,0.244,1.348,0.612,2.034,0.892c1.655,0.646,3.267,1.397,4.826,2.248c0.696,0.396,1.323,0.908,1.995,1.347
				c1.192,0.765,2.342,1.593,3.446,2.48c-0.154,0.234-0.26,0.493-0.411,0.729c-1.27,1.973-2.423,4.019-3.452,6.127
				c-0.143,0.293-0.312,0.572-0.449,0.867c-1.109,2.395-2.059,4.861-2.841,7.381c-0.175,0.558-0.304,1.126-0.463,1.69
				c-0.56,1.997-1.016,4.021-1.365,6.066c-0.122,0.712-0.251,1.417-0.346,2.134c-0.776,5.202-0.776,10.49,0,15.692
				c0.096,0.717,0.224,1.422,0.346,2.134c0.349,2.044,0.804,4.069,1.365,6.066c0.159,0.563,0.287,1.132,0.463,1.69
				c0.783,2.521,1.732,4.986,2.841,7.381c0.138,0.295,0.307,0.574,0.449,0.867c1.03,2.108,2.182,4.154,3.452,6.127
				c0.165,0.257,0.28,0.541,0.448,0.795c-0.156,0.13-0.323,0.26-0.485,0.388v0c-15.341,11.671-36.513,11.925-52.129,0.625
				c-0.467-0.346-0.944-0.668-1.394-1.043c0.162-0.246,0.273-0.518,0.432-0.766c1.27-1.973,2.423-4.019,3.452-6.127
				c0.143-0.293,0.312-0.572,0.449-0.867c1.109-2.395,2.059-4.861,2.841-7.381c0.175-0.558,0.304-1.126,0.462-1.69
				c0.56-1.997,1.016-4.021,1.365-6.066c0.122-0.712,0.25-1.417,0.346-2.134C281.794,378.11,281.794,372.822,281.018,367.621z
				 M324.603,321.757c-0.272-0.132-0.532-0.29-0.806-0.418c-2.406-1.116-4.883-2.069-7.415-2.855
				c-0.542-0.169-1.092-0.294-1.638-0.448c-2.012-0.566-4.053-1.026-6.114-1.377c-0.706-0.12-1.404-0.248-2.114-0.343
				c-5.203-0.776-10.493-0.776-15.697,0c-0.71,0.095-1.408,0.223-2.114,0.343c-2.061,0.351-4.101,0.811-6.114,1.377
				c-0.546,0.154-1.097,0.279-1.638,0.448c-2.533,0.786-5.01,1.74-7.415,2.855c-0.275,0.128-0.534,0.285-0.806,0.418
				c-2.129,1.038-4.195,2.201-6.186,3.484c-0.234,0.151-0.492,0.255-0.724,0.408c-0.879-1.071-1.673-2.194-2.439-3.335
				c-0.479-0.712-1.024-1.381-1.458-2.119c-0.857-1.52-1.62-3.092-2.285-4.705c-0.302-0.697-0.688-1.356-0.953-2.068
				c-0.61-1.737-1.106-3.512-1.485-5.313c-0.15-0.65-0.395-1.271-0.514-1.929c-0.917-4.967-0.917-10.06,0-15.027
				c0.118-0.657,0.364-1.279,0.514-1.929c0.38-1.801,0.876-3.576,1.485-5.313c0.265-0.713,0.65-1.371,0.953-2.068
				c0.665-1.614,1.428-3.185,2.285-4.705c0.434-0.738,0.979-1.407,1.458-2.119c0.766-1.141,1.559-2.264,2.439-3.335
				c0.214,0.142,0.453,0.234,0.669,0.372c19.564,12.726,44.79,12.726,64.354,0c0.216-0.139,0.455-0.23,0.669-0.372
				c0.879,1.072,1.672,2.195,2.439,3.335c0.479,0.712,1.024,1.381,1.458,2.119c0.857,1.52,1.62,3.092,2.285,4.705
				c0.302,0.697,0.688,1.356,0.953,2.068c0.61,1.737,1.106,3.512,1.485,5.313c0.149,0.65,0.395,1.271,0.514,1.929
				c0.917,4.967,0.917,10.06,0,15.027c-0.118,0.657-0.364,1.279-0.514,1.929c-0.38,1.801-0.876,3.576-1.485,5.313
				c-0.265,0.713-0.651,1.371-0.953,2.068c-0.665,1.614-1.428,3.185-2.285,4.705c-0.434,0.738-0.979,1.407-1.458,2.119
				c-0.766,1.141-1.559,2.264-2.439,3.335c-0.232-0.154-0.49-0.258-0.724-0.408C328.797,323.959,326.732,322.795,324.603,321.757z
				 M239.515,306.513c0.096,0.717,0.225,1.422,0.346,2.134c0.349,2.044,0.804,4.069,1.365,6.066c0.159,0.563,0.287,1.132,0.463,1.69
				c0.783,2.521,1.732,4.987,2.841,7.381c0.137,0.295,0.307,0.574,0.449,0.867c1.03,2.108,2.182,4.154,3.452,6.127
				c0.151,0.236,0.257,0.495,0.411,0.729c-1.107,0.889-2.26,1.719-3.455,2.485c-0.668,0.436-1.292,0.945-1.984,1.34
				c-1.561,0.853-3.175,1.606-4.832,2.252c-0.684,0.28-1.331,0.646-2.029,0.89c-1.485,0.478-2.995,0.875-4.523,1.19
				c-0.94,0.218-1.852,0.54-2.804,0.696c-0.99,0.165-1.996,0.158-2.995,0.256c-2.895,0.28-5.81,0.28-8.705,0
				c-0.998-0.097-2.005-0.091-2.995-0.256c-0.952-0.157-1.865-0.478-2.805-0.696c-1.528-0.315-3.038-0.712-4.523-1.19
				c-0.697-0.244-1.344-0.61-2.028-0.89c-1.658-0.647-3.272-1.399-4.834-2.253c-0.692-0.395-1.316-0.904-1.984-1.34
				c-1.195-0.767-2.348-1.596-3.455-2.485c0.154-0.234,0.26-0.493,0.411-0.729c1.27-1.973,2.423-4.019,3.452-6.127
				c0.143-0.293,0.312-0.572,0.449-0.867c1.109-2.395,2.059-4.861,2.841-7.381c0.175-0.558,0.304-1.126,0.463-1.69
				c0.56-1.997,1.016-4.021,1.365-6.066c0.122-0.712,0.251-1.417,0.346-2.134c0.776-5.202,0.776-10.49,0-15.692
				c-0.096-0.717-0.224-1.422-0.346-2.134c-0.349-2.044-0.804-4.069-1.365-6.066c-0.159-0.563-0.287-1.132-0.463-1.69
				c-0.783-2.521-1.732-4.987-2.841-7.381c-0.138-0.295-0.307-0.574-0.449-0.867c-1.03-2.108-2.182-4.154-3.452-6.127
				c-0.151-0.236-0.257-0.495-0.411-0.729c1.104-0.887,2.254-1.715,3.446-2.48c0.673-0.439,1.3-0.951,1.996-1.347
				c1.559-0.852,3.172-1.603,4.827-2.249c0.685-0.281,1.334-0.647,2.033-0.892c1.478-0.475,2.98-0.87,4.499-1.184
				c0.948-0.22,1.869-0.545,2.831-0.703c0.968-0.161,1.952-0.153,2.928-0.25c2.937-0.289,5.895-0.289,8.832,0
				c0.976,0.097,1.96,0.089,2.928,0.25c0.961,0.158,1.882,0.482,2.83,0.703c1.52,0.314,3.023,0.709,4.5,1.185
				c0.7,0.244,1.348,0.612,2.034,0.892c1.655,0.646,3.267,1.397,4.826,2.248c0.696,0.396,1.323,0.908,1.995,1.347
				c1.192,0.765,2.342,1.593,3.446,2.48c-0.154,0.234-0.26,0.493-0.411,0.729c-1.27,1.973-2.422,4.019-3.452,6.127
				c-0.143,0.293-0.312,0.572-0.449,0.867c-1.109,2.395-2.059,4.861-2.841,7.381c-0.175,0.558-0.304,1.126-0.463,1.69
				c-0.56,1.997-1.016,4.021-1.365,6.066c-0.122,0.712-0.251,1.417-0.346,2.134C238.739,296.023,238.739,301.311,239.515,306.513z
				 M247.803,244.957c-0.272-0.132-0.532-0.29-0.806-0.418c-2.406-1.116-4.883-2.07-7.415-2.855
				c-0.542-0.169-1.092-0.294-1.638-0.448c-2.012-0.566-4.053-1.026-6.114-1.377c-0.706-0.12-1.404-0.248-2.114-0.343
				c-5.203-0.776-10.493-0.776-15.697,0c-0.71,0.095-1.408,0.223-2.114,0.343c-2.061,0.351-4.101,0.811-6.114,1.377
				c-0.546,0.154-1.097,0.279-1.638,0.448c-2.533,0.786-5.01,1.74-7.415,2.855c-0.275,0.128-0.534,0.285-0.806,0.418
				c-2.129,1.038-4.195,2.201-6.186,3.484c-0.234,0.151-0.492,0.255-0.724,0.408c-0.879-1.071-1.673-2.194-2.439-3.335
				c-0.479-0.712-1.024-1.381-1.458-2.119c-0.857-1.52-1.62-3.092-2.285-4.705c-0.302-0.697-0.688-1.356-0.953-2.068
				c-0.61-1.737-1.106-3.512-1.485-5.313c-0.15-0.65-0.395-1.271-0.514-1.929c-0.917-4.967-0.917-10.06,0-15.027
				c0.118-0.657,0.364-1.279,0.514-1.929c0.38-1.801,0.876-3.576,1.485-5.313c0.265-0.713,0.651-1.371,0.953-2.068
				c0.665-1.614,1.428-3.185,2.285-4.705c0.434-0.738,0.979-1.407,1.458-2.119c0.766-1.141,1.559-2.264,2.439-3.335
				c0.214,0.142,0.453,0.234,0.669,0.372c9.588,6.202,20.758,9.515,32.177,9.545c11.419-0.03,22.589-3.343,32.177-9.545
				c0.216-0.139,0.455-0.23,0.669-0.372c0.879,1.072,1.673,2.195,2.439,3.335c0.479,0.712,1.024,1.381,1.458,2.119
				c0.857,1.52,1.62,3.092,2.285,4.705c0.302,0.697,0.688,1.356,0.953,2.068c0.61,1.737,1.106,3.512,1.485,5.313
				c0.15,0.65,0.395,1.271,0.514,1.929c0.917,4.967,0.917,10.06,0,15.027c-0.118,0.657-0.364,1.279-0.514,1.929
				c-0.38,1.801-0.876,3.576-1.485,5.313c-0.265,0.713-0.65,1.371-0.953,2.068c-0.665,1.614-1.428,3.185-2.285,4.705
				c-0.434,0.738-0.979,1.407-1.458,2.119c-0.766,1.141-1.559,2.264-2.439,3.335c-0.232-0.154-0.49-0.258-0.724-0.408
				C251.997,247.159,249.932,245.995,247.803,244.957z M171.036,409.138c-1.428,1.115-2.932,2.131-4.5,3.04
				c-0.29,0.169-0.579,0.339-0.87,0.497c-14.779,7.751-32.67,6.478-46.202-3.289c-0.464-0.344-0.939-0.664-1.386-1.037
				c0.089-0.137,0.19-0.266,0.271-0.408c0.159-0.221,0.298-0.455,0.417-0.7c0.353-0.471,0.657-0.976,0.908-1.508l0.012-0.017
				c0.154-0.233,0.429-0.7,0.563-0.942c0.429-0.783,0.854-1.567,1.375-2.6l0.192-0.433c0.044-0.079,0.069-0.167,0.112-0.247
				c0.279-0.571,0.529-1.149,0.789-1.729c0.247-0.554,0.548-1.089,0.753-1.649l0.037-0.108l0.142-0.3
				c0.158-0.317,0.571-1.4,0.692-1.733l0.167-0.475c0.264-0.645,0.474-1.311,0.625-1.992l0.021-0.071
				c0.176-0.55,0.334-1.101,0.493-1.657c0.101-0.352,0.23-0.702,0.311-1.047c0.067-0.2,0.125-0.4,0.179-0.592h0.009
				c0.266-0.866,0.473-1.748,0.621-2.642c0.05-0.183,0.254-1,0.292-1.183c0.061-0.294,0.106-0.592,0.133-0.892l0.121-0.917
				c0.083-0.608,0.167-1.225,0.154-1.283c0.079-0.5,0.129-0.992,0.221-2.008c0.21-1.909,0.314-3.829,0.312-5.75
				c-0.003-2.091-0.126-4.181-0.367-6.258c0-0.042-0.092-0.892-0.096-0.933c-0.047-0.502-0.114-0.995-0.181-1.487l-0.01-0.08
				l-0.034-0.283l-0.121-0.917c-0.027-0.299-0.072-0.597-0.133-0.892l-0.237-0.733c-0.145-1.058-0.373-2.103-0.683-3.125
				l-0.029,0.009l-0.104-0.358c-0.083-0.368-0.221-0.742-0.326-1.116c-0.171-0.603-0.336-1.203-0.526-1.801l-0.019-0.067
				c-0.157-0.669-0.367-1.324-0.629-1.959l-0.046-0.125c-0.1-0.242-0.212-0.483-0.338-0.742c0.112,0.209,0.214,0.423,0.304,0.642
				c-0.087-0.225-0.179-0.475-0.192-0.517c-0.229-0.617-0.475-1.258-0.75-1.875l-0.012-0.033c-0.206-0.561-0.506-1.098-0.755-1.654
				c-0.258-0.576-0.507-1.15-0.783-1.718c-0.041-0.076-0.066-0.161-0.108-0.236c-0.1-0.233-0.217-0.492-0.287-0.633
				c-0.433-0.85-0.858-1.633-1.413-2.642c-0.058-0.108-0.225-0.383-0.396-0.658c-0.204-0.391-0.44-0.764-0.704-1.117
				c-0.177-0.35-0.375-0.69-0.592-1.017c-0.1-0.181-0.211-0.355-0.323-0.529c1.098-0.882,2.242-1.705,3.427-2.466
				c0.672-0.439,1.299-0.951,1.995-1.347c1.559-0.852,3.172-1.603,4.827-2.249c0.685-0.281,1.334-0.647,2.033-0.892
				c1.478-0.475,2.98-0.87,4.499-1.184c0.948-0.22,1.869-0.545,2.831-0.703c0.968-0.161,1.952-0.153,2.928-0.25
				c2.937-0.289,5.895-0.289,8.832,0c0.976,0.097,1.96,0.089,2.928,0.25c0.961,0.158,1.882,0.482,2.83,0.703
				c1.52,0.314,3.023,0.71,4.5,1.185c0.7,0.244,1.348,0.612,2.034,0.892c1.655,0.646,3.267,1.397,4.826,2.248
				c0.696,0.396,1.323,0.908,1.995,1.347c1.192,0.765,2.342,1.593,3.446,2.48c-0.154,0.234-0.26,0.493-0.411,0.729
				c-1.27,1.973-2.422,4.019-3.452,6.127c-0.143,0.293-0.312,0.572-0.449,0.867c-1.109,2.395-2.059,4.861-2.841,7.381
				c-0.175,0.558-0.304,1.126-0.463,1.69c-0.56,1.997-1.016,4.021-1.365,6.066c-0.122,0.712-0.251,1.417-0.346,2.134
				c-0.776,5.202-0.776,10.49,0,15.692c0.096,0.717,0.224,1.422,0.346,2.134c0.349,2.044,0.804,4.069,1.365,6.066
				c0.159,0.563,0.287,1.132,0.463,1.69c0.783,2.521,1.732,4.987,2.841,7.381c0.138,0.295,0.307,0.574,0.449,0.867
				c1.03,2.108,2.182,4.154,3.452,6.127c0.159,0.249,0.27,0.522,0.433,0.769C171.726,408.625,171.379,408.873,171.036,409.138
				L171.036,409.138z M171.003,321.757c-0.272-0.132-0.532-0.29-0.806-0.418c-2.406-1.116-4.883-2.069-7.415-2.855
				c-0.542-0.169-1.092-0.294-1.638-0.448c-2.012-0.566-4.053-1.026-6.114-1.377c-0.706-0.12-1.404-0.248-2.114-0.343
				c-5.204-0.776-10.493-0.776-15.697,0c-0.71,0.095-1.408,0.223-2.114,0.343c-2.061,0.351-4.101,0.811-6.114,1.377
				c-0.546,0.154-1.097,0.279-1.638,0.448c-2.533,0.786-5.01,1.74-7.415,2.855c-0.274,0.128-0.534,0.285-0.806,0.418
				c-2.129,1.038-4.195,2.201-6.186,3.484c-0.262,0.168-0.55,0.284-0.811,0.457l-0.139-0.166c-2.911-3.588-5.22-7.625-6.837-11.953
				c-0.116-0.297-0.232-0.594-0.338-0.89c-0.725-2.067-1.29-4.187-1.689-6.342c-0.064-0.265-0.092-0.562-0.135-0.844
				c-0.797-4.523-0.797-9.151,0-13.674c0.043-0.282,0.071-0.579,0.135-0.844c0.397-2.141,0.958-4.249,1.678-6.304
				c0.118-0.33,0.255-0.673,0.386-1.011c0.724-1.927,1.586-3.799,2.58-5.602c0.158-0.279,0.306-0.559,0.477-0.831
				c1.067-1.828,2.268-3.573,3.594-5.223l0.303-0.372c0.236,0.156,0.5,0.258,0.739,0.411c19.564,12.726,44.79,12.726,64.354,0
				c0.216-0.139,0.455-0.23,0.669-0.372c0.879,1.072,1.673,2.195,2.439,3.335c0.479,0.712,1.024,1.381,1.458,2.119
				c0.857,1.52,1.62,3.092,2.285,4.705c0.302,0.697,0.688,1.356,0.953,2.068c0.61,1.737,1.106,3.512,1.485,5.313
				c0.149,0.65,0.395,1.271,0.514,1.929c0.917,4.967,0.917,10.06,0,15.027c-0.118,0.657-0.364,1.279-0.514,1.929
				c-0.38,1.801-0.876,3.576-1.485,5.313c-0.265,0.713-0.651,1.371-0.953,2.068c-0.665,1.614-1.428,3.185-2.285,4.705
				c-0.434,0.738-0.979,1.407-1.458,2.119c-0.766,1.141-1.559,2.264-2.439,3.335c-0.232-0.154-0.49-0.258-0.724-0.408
				C175.197,323.959,173.132,322.795,171.003,321.757z M101.102,248.866l-0.051-0.033c-0.273-0.206-0.558-0.395-0.854-0.567
				c-0.498-0.345-1.014-0.662-1.546-0.95c-1.331-0.847-2.724-1.594-4.167-2.233c-1.024-0.563-2.085-1.056-3.175-1.475
				c-0.589-0.265-1.191-0.499-1.804-0.7c-0.959-0.419-1.948-0.767-2.958-1.042c-1.22-0.466-2.472-0.842-3.746-1.125
				c-0.918-0.269-1.853-0.473-2.8-0.608c-1.175-0.289-2.372-0.481-3.579-0.575c-4.798-0.767-9.68-0.86-14.504-0.275
				c-0.633,0.028-1.262,0.115-1.879,0.258c-1.367,0.156-2.725,0.387-4.067,0.692l-0.304,0.075c-0.65,0.112-1.294,0.257-1.929,0.433
				c-0.879,0.2-1.725,0.433-2.537,0.7v-39.133l0.055,0.015c0.469,0.154,0.948,0.28,1.432,0.377c1.029,0.283,2.063,0.55,3.092,0.767
				c0.7,0.18,1.409,0.321,2.125,0.425c0.904,0.198,1.822,0.32,2.746,0.367c0.916,0.159,1.842,0.251,2.771,0.275
				c1.573,0.174,3.155,0.261,4.737,0.261l0.108,0.006c1.492,0,2.988-0.075,4.421-0.217c0.707,0.016,1.413-0.051,2.104-0.2
				c1.645-0.14,3.281-0.371,4.9-0.692l1.171-0.258c0.746-0.175,1.496-0.35,2.242-0.575c1.193-0.223,2.362-0.558,3.492-1
				c0.375-0.098,0.743-0.224,1.1-0.375c0.669-0.174,1.324-0.394,1.963-0.658c1.213-0.467,2.342-0.942,3.4-1.475
				c0.627-0.246,1.232-0.544,1.808-0.892c1.984-0.932,3.89-2.021,5.7-3.258l0.208-0.15l0.314-0.201
				c1.359,1.601,2.6,3.299,3.713,5.079l0.028,0.046l0.025,0.042c1.255,2.104,2.327,4.311,3.204,6.598l0.183,0.473
				c4.52,12.018,3.304,25.442-3.302,36.453c-0.08,0.131-0.16,0.262-0.233,0.395C103.621,245.662,102.417,247.31,101.102,248.866z
				 M162.715,229.713c0.096,0.717,0.224,1.422,0.346,2.134c0.349,2.044,0.804,4.069,1.365,6.066c0.159,0.563,0.287,1.132,0.463,1.69
				c0.783,2.521,1.732,4.986,2.841,7.381c0.138,0.295,0.307,0.574,0.449,0.867c1.03,2.108,2.182,4.154,3.452,6.127
				c0.151,0.236,0.257,0.495,0.411,0.729c-1.107,0.889-2.26,1.719-3.455,2.485c-0.668,0.437-1.292,0.945-1.984,1.34
				c-1.561,0.853-3.175,1.606-4.832,2.252c-0.684,0.28-1.331,0.646-2.029,0.89c-1.485,0.478-2.995,0.875-4.523,1.19
				c-0.94,0.218-1.852,0.54-2.804,0.696c-0.99,0.165-1.996,0.158-2.995,0.256c-2.895,0.28-5.81,0.28-8.705,0
				c-0.998-0.097-2.005-0.091-2.995-0.256c-0.952-0.157-1.865-0.478-2.805-0.696c-1.528-0.315-3.038-0.712-4.523-1.19
				c-0.697-0.244-1.344-0.61-2.028-0.89c-1.658-0.647-3.272-1.399-4.834-2.253c-0.692-0.395-1.316-0.904-1.984-1.34
				c-1.191-0.765-2.341-1.592-3.444-2.478c0.081-0.125,0.173-0.243,0.248-0.373c0.159-0.221,0.298-0.455,0.417-0.7
				c0.353-0.471,0.657-0.976,0.908-1.508l0.012-0.017c0.154-0.233,0.429-0.7,0.563-0.942c0.429-0.783,0.854-1.567,1.375-2.6
				l0.192-0.433c0.044-0.079,0.069-0.167,0.112-0.247c0.279-0.571,0.529-1.149,0.789-1.729c0.247-0.554,0.548-1.089,0.753-1.65
				l0.037-0.108l0.142-0.3c0.158-0.317,0.571-1.4,0.692-1.733l0.167-0.475c0.264-0.645,0.474-1.311,0.625-1.992l0.021-0.071
				c0.176-0.55,0.334-1.101,0.493-1.657c0.101-0.352,0.23-0.702,0.311-1.047c0.067-0.2,0.125-0.4,0.179-0.592h0.009
				c0.266-0.866,0.473-1.748,0.621-2.642c0.05-0.183,0.254-1,0.292-1.183c0.061-0.294,0.106-0.592,0.133-0.892l0.121-0.917
				c0.083-0.608,0.167-1.225,0.154-1.283c0.079-0.5,0.129-0.992,0.221-2.008c0.211-1.91,0.315-3.829,0.314-5.751
				c-0.003-2.091-0.126-4.181-0.367-6.258c0-0.042-0.092-0.892-0.096-0.933c-0.047-0.502-0.114-0.995-0.181-1.487l-0.01-0.08
				l-0.034-0.283l-0.121-0.917c-0.027-0.299-0.072-0.597-0.133-0.892l-0.237-0.733c-0.145-1.058-0.373-2.103-0.683-3.125
				l-0.029,0.009l-0.104-0.358c-0.083-0.368-0.221-0.742-0.326-1.116c-0.171-0.603-0.336-1.203-0.526-1.801l-0.019-0.067
				c-0.157-0.669-0.367-1.324-0.629-1.959l-0.046-0.125c-0.1-0.242-0.212-0.483-0.338-0.742c0.112,0.209,0.214,0.423,0.304,0.642
				c-0.087-0.225-0.179-0.475-0.192-0.517c-0.229-0.617-0.475-1.258-0.75-1.875l-0.012-0.033c-0.334-0.902-0.714-1.786-1.138-2.649
				l-0.056-0.112c-0.199-0.406-0.401-0.834-0.59-1.172c-0.533-1.16-1.135-2.287-1.804-3.375l-0.2-0.383
				c-0.236-0.474-0.515-0.926-0.833-1.35l-0.1-0.133c-0.156-0.257-0.348-0.495-0.509-0.749c-0.056-0.085-0.093-0.181-0.15-0.266
				c1.104-0.887,2.255-1.715,3.446-2.48c0.672-0.439,1.299-0.951,1.995-1.347c1.559-0.852,3.172-1.603,4.827-2.249
				c0.685-0.281,1.334-0.647,2.033-0.892c1.478-0.475,2.98-0.87,4.499-1.184c0.948-0.22,1.869-0.545,2.831-0.703
				c0.968-0.161,1.952-0.153,2.928-0.25c2.937-0.289,5.895-0.289,8.832,0c0.976,0.097,1.96,0.089,2.928,0.25
				c0.961,0.158,1.882,0.482,2.83,0.703c1.52,0.314,3.023,0.709,4.5,1.185c0.7,0.244,1.348,0.612,2.034,0.892
				c1.655,0.646,3.267,1.397,4.826,2.248c0.696,0.396,1.323,0.908,1.995,1.347c1.192,0.765,2.342,1.593,3.446,2.48
				c-0.154,0.234-0.26,0.493-0.411,0.729c-1.27,1.973-2.423,4.019-3.452,6.127c-0.143,0.293-0.312,0.572-0.449,0.867
				c-1.109,2.395-2.059,4.861-2.841,7.381c-0.175,0.558-0.304,1.126-0.463,1.69c-0.56,1.997-1.016,4.021-1.365,6.066
				c-0.122,0.712-0.251,1.417-0.346,2.134C161.939,219.223,161.939,224.511,162.715,229.713z M248.523,111.859l0.362,0.291
				c-0.171,0.258-0.287,0.545-0.454,0.806c-1.27,1.973-2.422,4.019-3.452,6.127c-0.143,0.293-0.312,0.572-0.449,0.867
				c-1.109,2.395-2.059,4.861-2.841,7.381c-0.175,0.558-0.304,1.126-0.463,1.69c-0.56,1.997-1.016,4.021-1.365,6.066
				c-0.122,0.712-0.251,1.417-0.346,2.134c-0.776,5.202-0.776,10.49,0,15.692c0.096,0.717,0.225,1.422,0.346,2.134
				c0.349,2.044,0.804,4.069,1.365,6.066c0.159,0.563,0.287,1.132,0.463,1.69c0.783,2.521,1.732,4.987,2.841,7.381
				c0.137,0.295,0.307,0.574,0.449,0.867c1.03,2.108,2.182,4.154,3.452,6.127c0.151,0.236,0.257,0.495,0.411,0.729
				c-1.107,0.889-2.26,1.719-3.455,2.485c-0.668,0.436-1.292,0.945-1.984,1.34c-1.561,0.853-3.175,1.606-4.832,2.252
				c-0.684,0.28-1.331,0.646-2.029,0.89c-1.485,0.478-2.995,0.875-4.523,1.19c-0.94,0.218-1.852,0.54-2.804,0.696
				c-0.99,0.165-1.996,0.158-2.995,0.256c-2.895,0.28-5.81,0.28-8.705,0c-0.998-0.097-2.005-0.091-2.995-0.256
				c-0.952-0.157-1.865-0.478-2.805-0.696c-1.528-0.315-3.038-0.712-4.523-1.19c-0.697-0.244-1.344-0.61-2.028-0.89
				c-1.658-0.647-3.272-1.399-4.834-2.253c-0.692-0.395-1.316-0.904-1.984-1.34c-1.195-0.767-2.348-1.596-3.455-2.485
				c0.154-0.234,0.26-0.493,0.411-0.729c1.27-1.973,2.423-4.019,3.452-6.127c0.143-0.293,0.312-0.572,0.449-0.867
				c1.109-2.395,2.059-4.861,2.841-7.381c0.175-0.558,0.304-1.126,0.463-1.69c0.56-1.997,1.016-4.021,1.365-6.066
				c0.122-0.712,0.251-1.417,0.346-2.134c0.776-5.202,0.776-10.49,0-15.692c-0.096-0.717-0.224-1.422-0.346-2.134
				c-0.349-2.044-0.804-4.069-1.365-6.066c-0.159-0.563-0.287-1.132-0.463-1.69c-0.783-2.521-1.732-4.986-2.841-7.381
				c-0.138-0.295-0.307-0.574-0.449-0.867c-1.03-2.108-2.182-4.154-3.452-6.127c-0.159-0.247-0.269-0.52-0.432-0.766
				c0.339-0.281,0.695-0.535,1.04-0.804v0C211.593,99.801,233.051,99.993,248.523,111.859z M281.017,214.021
				c-0.096-0.717-0.225-1.422-0.346-2.134c-0.349-2.044-0.804-4.069-1.365-6.066c-0.159-0.563-0.288-1.132-0.463-1.69
				c-0.783-2.521-1.732-4.987-2.841-7.381c-0.137-0.295-0.307-0.574-0.449-0.867c-1.03-2.108-2.182-4.154-3.452-6.127
				c-0.151-0.236-0.257-0.495-0.411-0.729c1.104-0.887,2.255-1.715,3.446-2.48c0.673-0.439,1.3-0.951,1.996-1.347
				c1.559-0.852,3.172-1.603,4.827-2.249c0.685-0.281,1.334-0.647,2.033-0.892c1.478-0.475,2.979-0.87,4.499-1.184
				c0.948-0.22,1.869-0.545,2.831-0.703c0.968-0.161,1.952-0.153,2.928-0.25c2.937-0.289,5.895-0.289,8.832,0
				c0.976,0.097,1.96,0.089,2.928,0.25c0.961,0.158,1.882,0.482,2.83,0.703c1.52,0.314,3.023,0.709,4.5,1.185
				c0.7,0.244,1.348,0.612,2.034,0.892c1.655,0.646,3.267,1.397,4.826,2.248c0.696,0.396,1.323,0.908,1.995,1.347
				c1.192,0.765,2.342,1.593,3.446,2.48c-0.154,0.234-0.26,0.493-0.411,0.729c-1.27,1.973-2.423,4.019-3.452,6.127
				c-0.143,0.293-0.312,0.572-0.449,0.867c-1.109,2.395-2.059,4.861-2.841,7.381c-0.175,0.558-0.304,1.126-0.462,1.69
				c-0.56,1.997-1.016,4.021-1.365,6.066c-0.122,0.712-0.25,1.417-0.346,2.134c-0.776,5.202-0.776,10.49,0,15.692
				c0.096,0.717,0.224,1.422,0.346,2.134c0.349,2.044,0.804,4.069,1.365,6.066c0.159,0.563,0.287,1.132,0.462,1.69
				c0.783,2.521,1.732,4.986,2.841,7.381c0.137,0.295,0.307,0.574,0.449,0.867c1.03,2.108,2.182,4.154,3.452,6.127
				c0.151,0.236,0.257,0.495,0.411,0.729c-1.107,0.889-2.26,1.719-3.455,2.485c-0.668,0.437-1.292,0.945-1.984,1.34
				c-1.561,0.853-3.175,1.606-4.832,2.252c-0.684,0.28-1.331,0.646-2.029,0.89c-1.485,0.478-2.995,0.875-4.523,1.19
				c-0.94,0.218-1.852,0.54-2.804,0.696c-0.99,0.165-1.996,0.158-2.995,0.256c-2.895,0.28-5.81,0.28-8.705,0
				c-0.998-0.097-2.005-0.091-2.995-0.256c-0.952-0.157-1.865-0.478-2.805-0.696c-1.528-0.315-3.038-0.712-4.523-1.19
				c-0.697-0.244-1.344-0.61-2.028-0.89c-1.658-0.647-3.272-1.399-4.834-2.253c-0.692-0.395-1.316-0.904-1.984-1.34
				c-1.195-0.767-2.348-1.596-3.455-2.485c0.154-0.234,0.26-0.493,0.411-0.729c1.27-1.973,2.423-4.019,3.452-6.127
				c0.143-0.293,0.312-0.572,0.449-0.867c1.109-2.395,2.059-4.861,2.841-7.381c0.175-0.558,0.304-1.126,0.463-1.69
				c0.56-1.997,1.016-4.021,1.365-6.066c0.122-0.712,0.251-1.417,0.346-2.134C281.793,224.511,281.793,219.223,281.017,214.021z
				 M402.164,111.89l0.32,0.256c-0.118,0.179-0.198,0.378-0.315,0.558c-0.076,0.12-0.195,0.267-0.261,0.379
				c-0.372,0.481-0.696,0.997-0.967,1.542l-0.087,0.183c-0.179,0.267-0.421,0.683-0.558,0.933c-0.438,0.792-0.875,1.592-1.237,2.325
				c-0.033,0.058-0.175,0.383-0.283,0.625c-0.04,0.069-0.061,0.148-0.1,0.218c-0.316,0.645-0.605,1.296-0.897,1.952
				c-0.231,0.524-0.522,1.027-0.715,1.555l-0.012,0.033c-0.3,0.675-0.563,1.383-0.788,2.05c-0.381,0.81-0.67,1.659-0.862,2.533
				l-0.009,0.028c-0.18,0.564-0.344,1.129-0.507,1.697c-0.097,0.339-0.222,0.673-0.302,1.008c-0.087,0.258-0.162,0.517-0.229,0.783
				h-0.017c-0.24,0.804-0.428,1.622-0.563,2.45c-0.186,0.694-0.331,1.398-0.433,2.108l-0.117,0.875
				c-0.087,0.633-0.175,1.283-0.158,1.325c-0.079,0.5-0.129,0.992-0.221,2.008c-0.21,1.909-0.314,3.829-0.312,5.75
				c0.004,2.091,0.126,4.181,0.367,6.258l0.092,0.892c0.046,0.518,0.117,1.031,0.186,1.54l0.007,0.063l0.04,0.331l0.233,1.692
				c0.083,0.425,0.196,0.808,0.246,0.758c0.143,1.058,0.369,2.103,0.675,3.125l0.029-0.008l0.121,0.408
				c0.082,0.368,0.22,0.741,0.325,1.115c0.171,0.602,0.334,1.202,0.524,1.797l0.014,0.046c0.126,0.659,0.326,1.302,0.596,1.917
				c0.4,1.092,0.812,2.192,1.075,2.717c0.202,0.553,0.499,1.08,0.742,1.627c0.266,0.593,0.523,1.186,0.808,1.771
				c0.041,0.076,0.065,0.16,0.107,0.235c0.096,0.217,0.204,0.45,0.263,0.575c0.438,0.875,0.875,1.675,1.425,2.675l0.267,0.45
				c0.239,0.508,0.524,0.993,0.85,1.45c0.267,0.493,0.568,0.967,0.901,1.419c-1.092,0.875-2.229,1.693-3.406,2.451
				c-0.68,0.445-1.315,0.963-2.019,1.365c-1.566,0.856-3.185,1.611-4.848,2.259c-0.677,0.276-1.316,0.639-2.005,0.88
				c-1.503,0.485-3.032,0.887-4.579,1.205c-0.921,0.213-1.815,0.529-2.748,0.683c-1.013,0.169-2.044,0.163-3.066,0.261
				c-2.897,0.276-5.814,0.273-8.71-0.011c-0.973-0.097-1.954-0.089-2.918-0.249c-0.974-0.16-1.909-0.488-2.87-0.713
				c-1.506-0.311-2.993-0.703-4.457-1.172c-0.713-0.248-1.372-0.622-2.07-0.908c-1.644-0.642-3.245-1.388-4.794-2.234
				c-0.698-0.398-1.328-0.911-2.002-1.352c-1.19-0.764-2.339-1.59-3.441-2.476c0.154-0.234,0.26-0.493,0.411-0.729
				c1.27-1.973,2.423-4.019,3.452-6.127c0.143-0.293,0.312-0.572,0.449-0.867c1.109-2.395,2.059-4.861,2.841-7.381
				c0.175-0.558,0.304-1.126,0.462-1.69c0.56-1.997,1.016-4.021,1.365-6.066c0.122-0.712,0.251-1.417,0.346-2.134
				c0.776-5.202,0.776-10.49,0-15.692c-0.096-0.717-0.224-1.422-0.346-2.134c-0.349-2.044-0.804-4.069-1.365-6.066
				c-0.159-0.563-0.287-1.132-0.462-1.69c-0.783-2.521-1.732-4.987-2.841-7.381c-0.137-0.295-0.307-0.574-0.449-0.867
				c-1.03-2.108-2.182-4.154-3.452-6.127c-0.159-0.247-0.269-0.52-0.432-0.766c0.336-0.279,0.692-0.534,1.037-0.801v0
				C365.206,99.788,386.69,99.992,402.164,111.89z M442.25,127.116c0.833,0.167,1.667,0.283,2.55,0.392
				c4.942,0.653,9.949,0.656,14.892,0.009c0.375-0.05,0.742-0.092,1.108-0.142v35.35c-0.456-0.085-0.919-0.127-1.383-0.125
				c-0.142-0.025-0.35-0.042-0.567-0.067c-1.395-0.191-2.8-0.297-4.208-0.317c-3.051-0.215-6.116-0.101-9.142,0.341v0.008
				c-0.439,0.02-0.877,0.073-1.308,0.158c-1.284,0.105-2.558,0.314-3.808,0.625c-0.099,0.015-0.148,0.037-0.245,0.054
				c-0.693,0.112-1.379,0.263-2.055,0.454c-1.369,0.295-2.714,0.69-4.025,1.183c-0.597,0.138-1.182,0.322-1.75,0.55
				c-1.003,0.334-1.988,0.721-2.95,1.158c-0.431,0.156-0.851,0.339-1.258,0.55c-0.7,0.27-1.375,0.602-2.017,0.992l-0.825,0.408
				l-0.029,0.015l-0.171,0.085l0.003,0.004c-0.288,0.129-0.567,0.275-0.836,0.438c-0.937,0.411-1.84,0.896-2.7,1.45
				c-0.661,0.417-1.338,0.863-2.096,1.372c-2.925-3.519-5.27-7.481-6.948-11.737l-0.186-0.479
				c-3.591-9.518-3.593-20.018-0.007-29.538l0.004-0.009c0.055-0.155,0.122-0.317,0.183-0.48c0.862-2.232,1.908-4.387,3.129-6.445
				c0.074-0.121,0.151-0.243,0.221-0.367l0.024-0.04c1.079-1.717,2.276-3.355,3.584-4.905l0.176,0.111
				c0.759,0.586,1.571,1.099,2.425,1.533c1.546,0.997,3.174,1.861,4.867,2.583c0.688,0.355,1.398,0.666,2.125,0.933
				c1.025,0.467,2.05,0.858,3.158,1.258c0.634,0.264,1.289,0.473,1.958,0.625c1.173,0.43,2.369,0.792,3.583,1.084
				c0.862,0.251,1.739,0.445,2.625,0.583h0C440.958,126.917,441.583,127.025,442.25,127.116z M434.738,214.75
				c-0.012-0.099-0.009-0.211-0.02-0.309c-0.172-1.594-0.431-3.176-0.775-4.742c-0.024-0.143-0.055-0.217-0.081-0.352l-0.068-0.292
				c-0.107-0.501-0.216-1.038-0.318-1.372c-0.237-1.008-0.528-2.001-0.873-2.977c-0.218-0.72-0.417-1.444-0.661-2.155
				c-0.072-0.212-0.11-0.406-0.2-0.626c-0.351-1.063-0.76-2.106-1.225-3.125c-0.074-0.194-0.185-0.374-0.264-0.567
				c-0.332-0.767-0.693-1.517-1.057-2.269c-0.058-0.107-0.095-0.226-0.154-0.331c-0.482-1.104-1.042-2.172-1.674-3.197
				c-0.326-0.573-0.671-1.132-1.015-1.694c-0.363-0.621-0.716-1.253-1.106-1.844l0.092-0.078c0.565-0.463,1.201-0.939,2.012-1.511
				c1.092-0.742,2.167-1.483,3.433-2.283c0.342-0.196,0.699-0.366,1.067-0.508c0.371-0.167,0.73-0.359,1.075-0.575l0.2-0.1
				c0.142-0.067,0.75-0.475,0.883-0.55c0.548-0.16,1.079-0.375,1.583-0.642c0.267-0.1,0.525-0.217,0.783-0.341
				c0.554-0.255,1.125-0.472,1.708-0.65l0.225-0.083l0.058-0.009c0.502-0.107,0.993-0.261,1.467-0.458
				c0.603-0.247,1.228-0.437,1.867-0.567c0.133-0.033,0.733-0.192,1-0.267c0.396-0.034,0.789-0.098,1.175-0.192
				c0.721-0.189,1.457-0.317,2.2-0.383c0.431-0.031,0.86-0.093,1.283-0.183c0.192-0.017,0.383-0.033,0.575-0.058
				c1.663-0.211,3.34-0.297,5.016-0.259c1.225,0.183,2.233,0.05,4.1,0.3l0.308,0.033c0.338,0.075,0.68,0.125,1.025,0.15
				c0.218,0.039,0.436,0.063,0.655,0.086c0.438,0.04,0.872,0.12,1.295,0.239c0.15,0.033,0.308,0.075,0.467,0.108v83.54l-0.225,0.051
				c-0.98,0.224-1.974,0.38-2.975,0.467c-3.559,0.439-7.158,0.436-10.717-0.009c-0.378-0.029-0.754-0.082-1.125-0.158
				c-0.325-0.075-1.25-0.225-1.583-0.267c-0.441-0.117-0.889-0.204-1.342-0.258l-1.008-0.258c-0.748-0.178-1.483-0.406-2.2-0.683
				c-0.283-0.108-0.867-0.267-1.283-0.375l-0.142-0.05l-0.383-0.143c-0.315-0.106-0.603-0.224-0.891-0.339
				c-0.246-0.097-0.556-0.228-0.861-0.357c-0.536-0.273-1.089-0.511-1.657-0.711c-1.252-0.561-2.466-1.204-3.633-1.925
				c-0.236-0.167-0.494-0.302-0.767-0.4c-0.331-0.269-0.679-0.516-1.042-0.742c-0.692-0.417-1.383-0.9-2.058-1.383
				c-0.563-0.393-1.095-0.864-1.638-1.313c0.468-0.707,0.84-1.337,1.152-1.918c0.786-1.288,1.488-2.617,2.174-3.959
				c0.133-0.278,0.324-0.536,0.446-0.818c0.072-0.129,0.118-0.272,0.188-0.404c0.351-0.728,0.699-1.454,1.02-2.195
				c0.081-0.196,0.192-0.38,0.268-0.576c0.465-1.019,0.874-2.062,1.225-3.125c0.09-0.22,0.128-0.414,0.2-0.626
				c0.225-0.655,0.412-1.32,0.614-1.983c0.331-0.922,0.61-1.862,0.836-2.816c0.153-0.536,0.27-1.1,0.389-1.662l0.082-0.348
				c0.022-0.117,0.059-0.219,0.079-0.339c0.34-1.552,0.596-3.121,0.767-4.7c0.012-0.094,0.008-0.2,0.019-0.295
				C435.355,224.297,435.358,219.493,434.738,214.75z M429.042,94.508l0.081-0.173c0.484-0.859,0.901-1.755,1.245-2.679
				c0.044-0.11,0.107-0.212,0.149-0.322c0.089-0.193,0.157-0.421,0.243-0.619c0.222-0.533,0.393-0.966,0.524-1.338
				c0.148-0.396,0.318-0.751,0.458-1.169c0.229-0.569,0.416-1.154,0.558-1.75c0.453-1.197,0.818-2.425,1.092-3.675
				c0.227-0.772,0.411-1.557,0.55-2.35c0.34-1.552,0.596-3.121,0.767-4.7c0.653-4.942,0.656-9.949,0.009-14.892
				c-0.172-1.593-0.431-3.176-0.775-4.742c-0.115-0.681-0.271-1.354-0.467-2.017l-0.03-0.109l-0.004-0.016l-0.008-0.025
				c-0.21-0.944-0.458-1.864-0.742-2.732H460.8v58.857l-0.225,0.051c-0.98,0.225-1.974,0.38-2.975,0.467
				c-3.559,0.439-7.158,0.436-10.717-0.009c-0.378-0.029-0.754-0.082-1.125-0.158c-0.325-0.075-1.25-0.225-1.583-0.267
				c-0.441-0.117-0.889-0.203-1.342-0.258l-1.008-0.258c-0.748-0.178-1.483-0.406-2.2-0.683c-0.283-0.108-0.867-0.267-1.283-0.375
				l-0.142-0.05c-0.7-0.258-1.408-0.508-2.625-1.042c-0.358-0.133-0.675-0.267-1.533-0.675c-1.139-0.488-2.232-1.076-3.267-1.758
				c-0.236-0.167-0.494-0.302-0.767-0.4c-0.331-0.269-0.679-0.516-1.042-0.742c-0.692-0.417-1.383-0.9-2.058-1.383
				c-0.563-0.393-1.095-0.864-1.638-1.313c0.487-0.718,0.934-1.462,1.339-2.229C427.539,97.554,428.352,96.06,429.042,94.508z
				 M333.167,62.867c0.083-0.979,0.235-1.951,0.454-2.908c0.054-0.208,0.175-0.867,0.212-1.075l0.288-1.084
				c0.172-0.74,0.396-1.467,0.671-2.175c0.112-0.292,0.267-0.858,0.371-1.275l0.054-0.15c0.258-0.708,0.513-1.425,1.071-2.717
				c0.036-0.096,0.092-0.186,0.131-0.283l78.094,0c0.038,0.096,0.094,0.187,0.129,0.283c0.049,0.132,0.11,0.256,0.166,0.384
				l0.076,0.191c0.313,0.707,0.567,1.414,0.822,2.112l0.045,0.13l0.047,0.153c0.086,0.399,0.201,0.791,0.344,1.172
				c0.275,0.713,0.502,1.443,0.679,2.187c0.06,0.245,0.226,0.846,0.271,0.988c0.042,0.391,0.115,0.778,0.217,1.158
				c0.225,0.98,0.38,1.974,0.467,2.975c0.48,3.553,0.478,7.156-0.009,10.708c-0.083,0.987-0.236,1.968-0.458,2.933
				c-0.042,0.175-0.175,0.908-0.208,1.084l8.367,1.667l-8.642-0.617c-0.178,0.748-0.406,1.483-0.683,2.2
				c-0.103,0.273-0.227,0.742-0.325,1.13l-0.042,0.137l-0.047,0.128l-0.011,0.03l-0.129,0.347c-0.117,0.351-0.248,0.674-0.38,0.996
				c-0.154,0.391-0.323,0.811-0.566,1.373c-0.145,0.426-0.332,0.836-0.558,1.225c-0.252,0.411-0.467,0.843-0.642,1.292
				c-0.377,0.864-0.834,1.689-1.367,2.467c-0.711,1.233-1.492,2.424-2.342,3.567c-0.411,0.581-0.898,1.141-1.365,1.707l-0.101-0.066
				c-0.278-0.207-0.568-0.399-0.867-0.575c-0.332-0.229-0.685-0.429-1.035-0.635c-0.869-0.528-1.763-1-2.656-1.482
				c-0.549-0.291-1.106-0.649-1.633-0.892c-0.092-0.05-0.208-0.1-0.325-0.15c-0.177-0.102-0.319-0.137-0.493-0.229
				c-0.703-0.338-1.404-0.673-2.119-0.984c-0.188-0.076-0.42-0.208-0.6-0.279L398.492,90c-0.983-0.447-1.988-0.842-3.012-1.183
				c-0.184-0.078-0.447-0.136-0.659-0.21c-0.681-0.234-1.373-0.43-2.063-0.64c-0.903-0.326-1.823-0.601-2.757-0.825
				c-0.412-0.113-0.862-0.183-1.285-0.282c-0.405-0.093-0.811-0.182-1.218-0.267c-0.084-0.013-0.153-0.041-0.239-0.052l-0.009-0.009
				c-0.875-0.183-1.75-0.341-2.625-0.467c-0.653-0.18-1.327-0.27-2.004-0.267l-0.057-0.006c-1.481-0.178-2.978-0.253-4.478-0.319
				c-1.827-0.097-3.658-0.093-5.484,0.013c-1.524,0.074-3.043,0.168-4.547,0.357c-0.222,0.027-0.442,0.038-0.664,0.08
				c-1.308,0.109-2.605,0.324-3.879,0.642l-0.251,0.056c-0.335,0.071-0.666,0.151-1,0.227l-0.507,0.117l-0.471,0.1v-0.009
				c-0.99,0.233-1.966,0.52-2.925,0.86c-0.733,0.22-1.469,0.422-2.193,0.67c-0.223,0.074-0.401,0.105-0.641,0.203
				c-1.048,0.348-2.078,0.751-3.083,1.208l-0.046,0.017c-0.159,0.063-0.368,0.188-0.534,0.255c-0.994,0.43-1.959,0.912-2.929,1.395
				l-0.087,0.042l-0.375,0.183c-0.359,0.16-0.708,0.341-1.046,0.542c-0.27,0.126-0.468,0.263-0.727,0.391
				c-0.535,0.295-1.087,0.557-1.614,0.869c-0.062,0.04-0.155,0.076-0.214,0.115c-0.408,0.242-0.858,0.533-1.3,0.842
				c-0.351,0.189-0.679,0.395-0.996,0.606c-0.623-0.772-1.266-1.534-1.804-2.348c-0.179-0.272-0.374-0.534-0.583-0.783
				c-0.566-0.737-1.064-1.523-1.487-2.35c-0.476-0.704-0.884-1.452-1.217-2.233c-0.174-0.429-0.38-0.844-0.617-1.242
				c-0.322-0.584-0.593-1.195-0.812-1.825c-0.325-0.717-0.579-1.434-0.875-2.242c-0.092-0.452-0.222-0.895-0.388-1.325
				c-0.275-0.708-0.499-1.435-0.671-2.175c-0.033-0.142-0.242-0.908-0.283-1.05c-0.047-0.374-0.119-0.744-0.217-1.108
				c-0.221-0.974-0.376-1.962-0.462-2.958C332.678,70.05,332.681,66.434,333.167,62.867z M272.992,98.992
				c0.937-1.424,1.755-2.924,2.446-4.483c0.318-0.569,0.606-1.142,0.846-1.664l0.003-0.007c0.237-0.515,0.427-0.982,0.551-1.345
				c0.359-0.796,0.664-1.62,0.976-2.454c0.084-0.225,0.181-0.433,0.266-0.663c0.271-0.65,0.485-1.322,0.642-2.008
				c0.408-1.109,0.748-2.241,1.017-3.392l0.006-0.026l0.002-0.007c0.042-0.148,0.067-0.308,0.107-0.456
				c0.179-0.658,0.359-1.316,0.48-2.028c0.352-1.564,0.611-3.147,0.775-4.742c0.653-4.928,0.656-9.921,0.008-14.85
				c-0.168-1.611-0.43-3.211-0.783-4.792c-0.118-0.707-0.281-1.405-0.488-2.092c-0.212-0.925-0.471-1.858-0.771-2.783l39.183,0
				c-0.292,0.883-0.521,1.717-0.671,2.392c-0.243,0.819-0.44,1.651-0.587,2.492c-0.352,1.561-0.611,3.142-0.775,4.733
				c-0.653,4.928-0.656,9.921-0.009,14.85c0.168,1.608,0.429,3.206,0.783,4.783c0.115,0.71,0.278,1.412,0.487,2.1
				c0.295,1.285,0.668,2.552,1.117,3.792c0.12,0.64,0.316,1.264,0.583,1.858c0.4,1.092,0.813,2.192,1.075,2.717
				c0.45,1.235,0.996,2.433,1.633,3.583c0.594,1.375,1.303,2.696,2.121,3.95c0.535,0.982,1.067,1.854,1.613,2.666
				c-15.809,12.5-38.135,12.495-53.939-0.01C272.163,100.381,272.601,99.67,272.992,98.992z M266.015,118.191
				c0.148,0.107,0.296,0.213,0.447,0.309c0.609,0.448,1.257,0.838,1.938,1.167c0.242,0.172,0.496,0.328,0.758,0.467l2.592,1.417
				c0.549,0.329,1.126,0.608,1.725,0.833l0.017,0.008c0.842,0.446,1.719,0.825,2.621,1.133l1.712,0.683
				c0.208,0.083,0.417,0.15,0.625,0.225c0.699,0.295,1.422,0.526,2.162,0.692c0.903,0.322,1.823,0.598,2.754,0.825
				c0.254,0.083,0.513,0.158,0.771,0.225l-0.004,0.017c0.899,0.262,1.815,0.462,2.742,0.6c0.121,0.025,0.246,0.05,0.367,0.067
				l1.254,0.267c0.142,0.017,0.313,0.042,0.492,0.058c0.7,0.133,1.363,0.225,1.908,0.283c0.5,0.075,1,0.125,2.025,0.217
				c1.907,0.216,3.826,0.322,5.745,0.316c2.089-0.001,4.176-0.123,6.25-0.367c0.058,0,0.925-0.092,0.979-0.1
				c1.092-0.108,2.183-0.283,3.196-0.475c0.367-0.05,0.729-0.108,1-0.167l0.858-0.192l0.208-0.042l0.025-0.009l0.083-0.025
				c0.816-0.136,1.622-0.328,2.412-0.575l-0.008-0.025l0.083-0.025c1.002-0.238,1.99-0.528,2.963-0.867
				c0.642-0.151,1.272-0.346,1.888-0.583c0.271-0.092,0.55-0.2,0.812-0.317c0.233-0.067,0.458-0.142,0.683-0.225l1.296-0.567
				c0.879-0.323,1.74-0.693,2.579-1.108c0.396-0.179,0.781-0.379,1.154-0.6c0.171-0.083,0.338-0.158,0.429-0.2
				c1.129-0.567,2.258-1.142,3.313-1.784c0.133-0.075,0.263-0.142,0.392-0.225c0.4-0.233,0.792-0.483,1.279-0.833
				c0.244-0.13,0.435-0.296,0.664-0.438c0.099-0.064,0.209-0.106,0.308-0.171c0.879,1.072,1.673,2.195,2.439,3.335
				c0.479,0.712,1.024,1.381,1.458,2.119c0.857,1.52,1.62,3.092,2.285,4.705c0.302,0.697,0.688,1.356,0.953,2.068
				c0.61,1.737,1.106,3.512,1.485,5.313c0.149,0.65,0.395,1.271,0.513,1.929c0.917,4.967,0.917,10.06,0,15.027
				c-0.118,0.657-0.364,1.279-0.513,1.929c-0.38,1.801-0.876,3.576-1.485,5.313c-0.265,0.713-0.651,1.371-0.953,2.068
				c-0.665,1.614-1.428,3.185-2.285,4.705c-0.434,0.738-0.979,1.407-1.458,2.119c-0.766,1.141-1.559,2.263-2.439,3.335
				c-0.232-0.154-0.49-0.258-0.724-0.408c-1.991-1.283-4.057-2.447-6.186-3.484c-0.272-0.132-0.532-0.29-0.806-0.418
				c-2.406-1.116-4.883-2.069-7.415-2.855c-0.542-0.169-1.092-0.294-1.638-0.448c-2.012-0.566-4.053-1.026-6.114-1.377
				c-0.706-0.12-1.404-0.248-2.114-0.343c-5.203-0.776-10.493-0.776-15.697,0c-0.71,0.095-1.408,0.223-2.114,0.343
				c-2.061,0.351-4.101,0.811-6.114,1.377c-0.546,0.154-1.097,0.279-1.638,0.448c-2.533,0.786-5.01,1.74-7.415,2.855
				c-0.275,0.128-0.534,0.285-0.806,0.418c-2.129,1.038-4.195,2.201-6.186,3.484c-0.234,0.151-0.492,0.255-0.724,0.408
				c-0.879-1.071-1.673-2.194-2.439-3.335c-0.479-0.712-1.024-1.381-1.458-2.119c-0.857-1.52-1.62-3.092-2.285-4.705
				c-0.302-0.697-0.688-1.356-0.953-2.068c-0.61-1.737-1.106-3.512-1.485-5.313c-0.149-0.65-0.395-1.271-0.514-1.929
				c-0.917-4.967-0.917-10.06,0-15.027c0.118-0.657,0.364-1.279,0.514-1.929c0.38-1.801,0.876-3.576,1.485-5.313
				c0.265-0.713,0.65-1.371,0.953-2.068c0.665-1.614,1.428-3.185,2.285-4.705c0.434-0.738,0.979-1.407,1.458-2.119
				c0.766-1.141,1.559-2.264,2.439-3.335L266.015,118.191z M179.567,62.867c0.083-0.979,0.235-1.951,0.454-2.908
				c0.058-0.217,0.171-0.842,0.213-1.067l0.287-1.092c0.172-0.74,0.396-1.467,0.671-2.175c0.138-0.401,0.255-0.808,0.351-1.22
				l0.011-0.038l0.026-0.075l0.032-0.083l0.265-0.71c0.063-0.181,0.134-0.355,0.201-0.528c0.162-0.417,0.355-0.892,0.634-1.537
				l0.008-0.021l0.098-0.212h78.107c0.107,0.256,0.211,0.507,0.374,0.925c0.321,0.692,0.567,1.392,0.854,2.175
				c0.092,0.452,0.222,0.895,0.388,1.325c0.275,0.708,0.499,1.435,0.671,2.175c0.033,0.142,0.242,0.925,0.283,1.067
				c0.049,0.368,0.122,0.733,0.217,1.092c0.222,0.974,0.376,1.963,0.463,2.958c0.481,3.567,0.478,7.183-0.008,10.75
				c-0.083,0.979-0.235,1.951-0.454,2.908c-0.058,0.217-0.171,0.842-0.213,1.067l-0.287,1.092c-0.172,0.74-0.396,1.467-0.671,2.175
				c-0.112,0.292-0.267,0.858-0.371,1.275l-0.054,0.15l-0.27,0.727c-0.194,0.518-0.421,1.107-0.826,2.04
				c-0.147,0.416-0.333,0.818-0.554,1.2c-0.237,0.398-0.443,0.813-0.617,1.242c-0.375,0.86-0.831,1.682-1.362,2.455l-0.038,0.062
				c-0.294,0.505-0.677,1.022-0.99,1.516c-0.416,0.657-0.779,1.298-1.315,2.009c-0.418,0.589-0.907,1.153-1.379,1.724l-0.117-0.074
				c-0.273-0.206-0.558-0.395-0.854-0.567c-0.335-0.235-0.694-0.438-1.051-0.646c-0.835-0.506-1.694-0.96-2.551-1.425
				c-0.577-0.309-1.165-0.683-1.714-0.938c-0.092-0.05-0.2-0.1-0.313-0.15c-1.038-0.577-2.117-1.076-3.229-1.492l-0.046-0.017
				c-0.983-0.447-1.988-0.842-3.012-1.183c-0.223-0.098-0.527-0.171-0.792-0.259c-0.601-0.206-1.212-0.372-1.819-0.559
				c-0.939-0.339-1.897-0.625-2.868-0.857c-0.421-0.116-0.882-0.188-1.317-0.289c-0.386-0.088-0.771-0.174-1.159-0.254
				c-0.092-0.015-0.168-0.044-0.262-0.057l-0.012-0.009c-0.883-0.183-1.766-0.35-2.654-0.467c-0.643-0.181-1.307-0.27-1.975-0.267
				l-0.039-0.003c-1.904-0.23-3.827-0.346-5.76-0.391c-0.895-0.032-1.815-0.032-2.709,0c-2.124,0.048-4.245,0.21-6.352,0.486
				c-0.132,0.021-0.261,0.014-0.394,0.041c-1.222,0.121-2.434,0.321-3.629,0.6c-0.091,0.013-0.181,0.04-0.272,0.056
				c-0.403,0.083-0.803,0.169-1.204,0.26l-0.507,0.117l-0.471,0.1v-0.008c-1.034,0.241-2.054,0.54-3.054,0.895
				c-0.677,0.205-1.357,0.391-2.026,0.62c-0.232,0.077-0.444,0.12-0.687,0.218c-1.045,0.349-2.072,0.752-3.075,1.208l-0.046,0.017
				c-1.24,0.456-2.435,1.025-3.571,1.7l-0.396,0.2c-0.22,0.095-0.436,0.2-0.646,0.317c-0.542,0.251-1.069,0.534-1.578,0.846
				c-0.338,0.191-0.69,0.352-1.023,0.549l-0.024,0.013c-0.096,0.05-0.192,0.108-0.288,0.167c-0.408,0.242-0.862,0.533-1.308,0.85
				c-0.346,0.189-0.674,0.388-0.987,0.598c-0.623-0.772-1.266-1.534-1.804-2.348c-0.179-0.272-0.374-0.534-0.583-0.783
				c-0.308-0.392-0.587-0.807-0.835-1.24c-0.195-0.324-0.381-0.633-0.665-1.143c-0.474-0.691-0.877-1.428-1.204-2.2
				c-0.174-0.429-0.38-0.844-0.617-1.242c-0.212-0.367-0.39-0.753-0.533-1.152c-0.093-0.226-0.17-0.406-0.3-0.74
				c-0.321-0.692-0.567-1.392-0.854-2.175c-0.092-0.452-0.222-0.895-0.388-1.325c-0.275-0.708-0.499-1.435-0.671-2.175
				c-0.033-0.142-0.242-0.925-0.283-1.067c-0.049-0.368-0.122-0.733-0.217-1.092c-0.222-0.974-0.376-1.962-0.463-2.957
				C179.078,70.05,179.081,66.434,179.567,62.867z M119.392,98.991c0.937-1.425,1.755-2.924,2.446-4.483
				c0.531-0.938,0.987-1.916,1.363-2.926c0.034-0.085,0.083-0.164,0.116-0.249c0.46-1.012,0.868-2.046,1.221-3.1
				c0.232-0.576,0.419-1.17,0.558-1.775c0.444-1.142,0.795-2.318,1.05-3.517c0.244-0.819,0.44-1.651,0.588-2.492
				c0.352-1.561,0.611-3.142,0.775-4.733c0.653-4.928,0.656-9.921,0.009-14.85c-0.168-1.608-0.429-3.206-0.783-4.783
				c-0.106-0.668-0.259-1.328-0.458-1.975l-0.001-0.004l-0.028-0.121l-0.048-0.162c-0.204-0.903-0.432-1.787-0.702-2.621l39.142,0
				c-0.258,0.764-0.469,1.543-0.634,2.332l-0.008,0.026l-0.005,0.021l-0.004,0.012c-0.042,0.148-0.067,0.308-0.107,0.456
				c-0.179,0.658-0.359,1.316-0.48,2.028c-0.352,1.564-0.611,3.147-0.775,4.742c-0.653,4.928-0.656,9.921-0.008,14.85
				c0.168,1.611,0.43,3.211,0.783,4.792l0.012,0.053c0.105,0.647,0.254,1.286,0.446,1.914v0l0.029,0.125
				c0.136,0.591,0.352,1.183,0.524,1.776c0.205,0.713,0.37,1.463,0.621,2.133c0.143,0.605,0.331,1.198,0.563,1.775l0.115,0.292
				c0.277,0.75,0.527,1.391,0.733,1.862c0.128,0.307,0.235,0.651,0.372,0.945c0.416,1.09,0.911,2.148,1.479,3.167
				c0.594,1.375,1.303,2.696,2.121,3.95c0.535,0.982,1.067,1.854,1.613,2.666c-15.799,12.491-38.11,12.495-53.913,0.009
				C118.583,100.439,119.009,99.727,119.392,98.991z M112.153,118.046c0.083,0.055,0.176,0.09,0.259,0.144
				c0.15,0.108,0.303,0.215,0.459,0.319c0.608,0.442,1.158,0.758,1.563,1c1.69,1.062,3.457,1.995,5.288,2.792
				c0.683,0.354,1.387,0.666,2.108,0.933c1.042,0.467,2.083,0.858,3.163,1.258c0.633,0.261,1.286,0.468,1.954,0.617
				c1.174,0.431,2.372,0.792,3.588,1.084c0.859,0.251,1.733,0.446,2.617,0.583c0.608,0.142,1.233,0.25,1.904,0.341
				c0.825,0.167,1.662,0.283,2.546,0.392c2.476,0.319,4.97,0.484,7.467,0.491c2.417-0.004,4.832-0.16,7.229-0.467
				c1.213-0.117,2.429-0.325,3.404-0.517l1.504-0.283c0.154-0.033,0.308-0.067,0.463-0.108c0.579-0.085,1.152-0.214,1.712-0.383
				c1.284-0.298,2.549-0.674,3.788-1.125c0.609-0.111,1.202-0.295,1.766-0.55c1.121-0.408,2.246-0.825,2.863-1.125
				c0.879-0.323,1.74-0.693,2.579-1.108c0.371-0.167,0.732-0.354,1.084-0.558c1.504-0.659,2.953-1.436,4.333-2.325
				c0.49-0.278,0.966-0.581,1.425-0.908c0.213-0.122,0.387-0.27,0.589-0.399l0.108-0.06c0.879,1.072,1.673,2.195,2.439,3.335
				c0.479,0.712,1.024,1.381,1.458,2.119c0.857,1.52,1.62,3.092,2.285,4.705c0.302,0.697,0.688,1.356,0.953,2.068
				c0.61,1.737,1.106,3.512,1.485,5.313c0.15,0.65,0.395,1.271,0.514,1.929c0.917,4.967,0.917,10.06,0,15.027
				c-0.118,0.657-0.364,1.279-0.514,1.929c-0.38,1.801-0.876,3.576-1.485,5.313c-0.265,0.713-0.65,1.371-0.953,2.068
				c-0.665,1.614-1.428,3.185-2.285,4.705c-0.434,0.738-0.979,1.407-1.458,2.119c-0.766,1.141-1.559,2.264-2.439,3.335
				c-0.232-0.154-0.49-0.258-0.724-0.408c-1.991-1.283-4.057-2.447-6.186-3.484c-0.272-0.132-0.532-0.29-0.806-0.418
				c-2.406-1.116-4.883-2.07-7.415-2.855c-0.542-0.169-1.092-0.294-1.638-0.448c-2.012-0.566-4.053-1.026-6.114-1.377
				c-0.706-0.12-1.404-0.248-2.114-0.343c-5.203-0.776-10.493-0.776-15.697,0c-0.71,0.095-1.408,0.223-2.114,0.343
				c-2.061,0.351-4.101,0.811-6.114,1.377c-0.546,0.154-1.097,0.279-1.638,0.448c-2.533,0.786-5.01,1.74-7.415,2.855
				c-0.275,0.128-0.534,0.285-0.806,0.418c-2.129,1.038-4.195,2.201-6.186,3.484c-0.265,0.171-0.557,0.287-0.82,0.462l-0.063-0.074
				c-2.997-3.67-5.363-7.813-7-12.26c-0.073-0.196-0.145-0.388-0.219-0.595c-0.774-2.176-1.369-4.411-1.779-6.683l-0.026-0.122
				c-1.26-7.139-0.647-14.483,1.78-21.315c0.24-0.721,0.585-1.377,0.875-2.06c0.585-1.483,1.252-2.932,1.999-4.34
				c0.179-0.329,0.336-0.659,0.544-0.99c1.016-1.724,2.151-3.374,3.398-4.939C111.807,118.503,111.972,118.273,112.153,118.046z
				 M51.2,51.2h56.115c0.039,0.097,0.095,0.187,0.131,0.283l0.058,0.133l0.176,0.442c0.325,0.717,0.579,1.434,0.875,2.242
				c0.092,0.452,0.222,0.895,0.388,1.325c0.275,0.708,0.499,1.435,0.671,2.175c0.033,0.142,0.242,0.908,0.283,1.05
				c0.047,0.374,0.119,0.744,0.217,1.108c0.222,0.974,0.376,1.963,0.463,2.958c0.48,3.567,0.478,7.183-0.009,10.75
				c-0.083,0.979-0.235,1.951-0.454,2.908c-0.054,0.208-0.175,0.867-0.212,1.075l-0.287,1.084c-0.172,0.74-0.396,1.467-0.671,2.175
				c-0.112,0.292-0.267,0.858-0.371,1.275l-0.054,0.15l-0.262,0.706c-0.069,0.197-0.146,0.388-0.22,0.577
				c-0.157,0.403-0.335,0.847-0.589,1.434c-0.154,0.434-0.348,0.852-0.579,1.25c-0.237,0.398-0.443,0.813-0.617,1.242
				c-0.382,0.879-0.848,1.719-1.392,2.508c-0.7,1.223-1.472,2.403-2.313,3.533c-0.418,0.589-0.907,1.153-1.379,1.724l-0.117-0.074
				c-0.273-0.206-0.558-0.395-0.854-0.567c-0.498-0.345-1.014-0.662-1.546-0.95c-1.331-0.847-2.724-1.594-4.167-2.233
				c-1.015-0.56-2.068-1.05-3.15-1.467c-1.018-0.466-2.061-0.875-3.125-1.225c-0.562-0.225-1.14-0.408-1.729-0.55
				c-1.202-0.449-2.433-0.819-3.683-1.108c-0.692-0.192-1.396-0.333-2.188-0.475L80.325,86.6c-1.282-0.318-2.588-0.532-3.904-0.642
				c-4.798-0.767-9.68-0.859-14.504-0.275c-0.633,0.028-1.262,0.114-1.879,0.258c-1.367,0.156-2.725,0.387-4.067,0.692h-0.008
				c-0.506,0.086-1.007,0.2-1.5,0.341l-0.35,0.075c-0.986,0.212-1.958,0.482-2.912,0.809V51.2z M51.2,106.008l0.371-0.15
				c0.267-0.1,0.529-0.217,0.783-0.341c0.73-0.326,1.479-0.61,2.242-0.85l0.854-0.233c0.335-0.085,0.665-0.191,0.987-0.317
				c0.382-0.15,0.775-0.27,1.175-0.358c0.162-0.033,0.367-0.083,0.567-0.142c0.221-0.042,0.442-0.092,0.658-0.142
				c0.262-0.042,0.525-0.1,0.783-0.167c0.78-0.197,1.574-0.334,2.375-0.408c0.447-0.03,0.892-0.094,1.329-0.192
				c0.129-0.017,0.258-0.025,0.392-0.05c3.598-0.472,7.247-0.39,10.821,0.241v0c0.786,0.079,1.565,0.218,2.329,0.417
				c0.26,0.055,0.523,0.096,0.788,0.125c0.117,0.033,0.233,0.05,0.35,0.075c0.271,0.083,0.55,0.158,0.829,0.225
				c0.639,0.13,1.264,0.32,1.867,0.567c0.479,0.176,0.967,0.327,1.463,0.45l0.3,0.1c0.586,0.181,1.16,0.401,1.717,0.658
				c0.285,0.142,0.579,0.267,0.879,0.375c0.442,0.155,0.868,0.354,1.271,0.592c0.395,0.236,0.809,0.439,1.237,0.608
				c0.976,0.439,1.918,0.952,2.817,1.533c0.455,0.382,0.949,0.715,1.475,0.992c0.596,0.367,1.183,0.783,1.754,1.192
				c0.576,0.407,1.123,0.886,1.679,1.346c-0.445,0.635-0.856,1.293-1.232,1.97c-0.478,0.787-0.914,1.593-1.355,2.401
				c-0.251,0.463-0.536,0.925-0.771,1.391c-0.303,0.462-0.559,0.953-0.763,1.467c-0.049,0.118-0.091,0.239-0.134,0.361
				c-0.264,0.561-0.513,1.128-0.759,1.697c-0.6,1.293-1.122,2.62-1.565,3.975l-0.036,0.119c-0.339,0.973-0.617,1.965-0.905,2.955
				c-0.117,0.444-0.321,0.895-0.408,1.334c-0.105,0.34-0.149,0.678-0.235,1.017c-0.387,1.569-0.69,3.156-0.95,4.758
				c-0.047,0.351-0.147,0.696-0.178,1.042c-0.028,0.117-0.016,0.182-0.039,0.294c-0.788,5.105-0.834,10.298-0.137,15.417
				c0.018,0.343,0.055,0.684,0.114,1.022c0.111,0.889,0.289,1.73,0.469,2.569c0.212,1.136,0.452,2.261,0.73,3.38
				c0.083,0.325,0.125,0.652,0.226,0.977c0.214,1.117,0.528,2.213,0.938,3.275c0.091,0.276,0.202,0.544,0.296,0.819
				c0.51,1.549,1.105,3.069,1.781,4.553c0.262,0.599,0.549,1.184,0.831,1.774l0.092,0.196c0.349,0.803,0.744,1.584,1.183,2.342
				c0.259,0.542,0.547,1.071,0.86,1.584c0.151,0.262,0.305,0.521,0.461,0.78c0.18,0.337,0.383,0.661,0.608,0.97
				c0.253,0.46,0.534,0.905,0.84,1.332c-1.237,1.042-2.537,2.005-3.894,2.884c-0.244,0.151-0.479,0.315-0.704,0.492
				c-1.095,0.721-2.246,1.354-3.442,1.892c-0.271,0.125-0.542,0.258-0.8,0.408c-0.287,0.125-0.571,0.258-0.846,0.408
				c-0.608,0.333-1.279,0.592-1.912,0.892c-0.25,0.058-0.733,0.292-0.975,0.375c-1.021,0.185-2.02,0.473-2.983,0.858
				c-0.46,0.076-0.913,0.191-1.354,0.341c-0.417,0.142-0.842,0.217-1.479,0.367l-0.837,0.183c-1.017,0.186-2.044,0.314-3.075,0.383
				c-0.233,0.017-0.471,0.042-0.704,0.075c-0.267,0.009-0.529,0.025-0.796,0.058c-2.114,0.267-4.253,0.267-6.367,0
				c-0.358-0.042-1.225-0.117-1.587-0.117c-0.658-0.139-1.328-0.212-2-0.217c-0.275-0.067-0.804-0.125-1.087-0.167
				c-0.351-0.113-0.709-0.205-1.071-0.275c-0.704-0.125-1.413-0.325-2.116-0.517c-0.183-0.05-0.996-0.3-1.179-0.333
				c-0.349-0.158-0.708-0.292-1.075-0.4c-1.284-0.383-2.542-0.846-3.767-1.387V106.008z M51.2,259.62
				c0.094-0.037,0.181-0.094,0.275-0.128c0.171-0.058,0.538-0.225,0.808-0.35c0.235-0.077,0.466-0.166,0.692-0.267
				c0.259-0.123,0.526-0.229,0.8-0.317c0.179-0.058,0.358-0.117,0.533-0.183l0.042-0.009c0.508-0.106,1.004-0.26,1.483-0.458
				c0.603-0.247,1.228-0.437,1.867-0.567c0.279-0.067,0.958-0.192,1.233-0.283c0.229-0.042,0.458-0.092,0.688-0.15
				c0.78-0.197,1.574-0.334,2.375-0.408c0.447-0.03,0.892-0.094,1.329-0.192c0.129-0.017,0.258-0.025,0.392-0.05
				c3.598-0.472,7.247-0.39,10.821,0.242c0.786,0.079,1.565,0.218,2.329,0.417c0.624,0.126,1.259,0.19,1.896,0.192v-5.692
				l0.538-2.758l-0.467,8.683c0.639,0.13,1.264,0.32,1.867,0.567c0.738,0.305,1.495,0.561,2.267,0.767
				c0.275,0.125,0.888,0.325,1.171,0.417c0.299,0.15,0.607,0.284,0.921,0.4c0.442,0.155,0.867,0.354,1.271,0.592
				c0.395,0.236,0.809,0.439,1.237,0.608c0.976,0.439,1.918,0.952,2.817,1.533c0.455,0.382,0.949,0.715,1.475,0.992
				c0.596,0.367,1.183,0.783,1.754,1.192c0.582,0.411,1.135,0.896,1.697,1.362c-0.115,0.178-0.227,0.362-0.335,0.547
				c-0.162,0.225-0.313,0.45-0.45,0.683c-0.092,0.133-0.179,0.275-0.262,0.417l-0.003,0.005c-0.587,0.952-1.128,1.924-1.66,2.906
				c-0.258,0.478-0.576,0.931-0.808,1.414c-0.242,0.396-0.449,0.811-0.621,1.242l-0.021,0.05c-0.144,0.278-0.19,0.431-0.306,0.683
				c-0.129,0.279-0.253,0.559-0.377,0.84c-0.084,0.203-0.237,0.511-0.3,0.669c-0.485,1.091-0.836,2.173-1.235,3.258
				c-0.199,0.55-0.439,1.083-0.621,1.638c-0.393,1.192-0.69,2.401-0.986,3.604c-0.357,1.372-0.672,2.752-0.931,4.151
				c-0.186,0.951-0.384,1.892-0.514,2.891c-0.052,0.31-0.088,0.622-0.107,0.936c-0.585,4.624-0.585,9.304,0,13.928
				c0.019,0.314,0.055,0.626,0.107,0.936c0.129,1,0.327,1.94,0.514,2.891c0.25,1.352,0.552,2.685,0.893,4.012
				c0.308,1.273,0.625,2.542,1.034,3.78c0.128,0.389,0.299,0.762,0.434,1.148c0.417,1.161,0.805,2.333,1.308,3.46
				c0.092,0.23,0.259,0.565,0.37,0.83c0.141,0.319,0.279,0.638,0.425,0.955c0.108,0.232,0.162,0.404,0.289,0.649l0.025,0.058
				c0.184,0.468,0.413,0.918,0.683,1.342c0.196,0.392,0.408,0.783,0.629,1.167c0.259,0.542,0.547,1.071,0.86,1.584
				c0.142,0.246,0.285,0.491,0.431,0.735c0.185,0.342,0.391,0.672,0.617,0.989c0.263,0.476,0.555,0.935,0.875,1.374
				c-0.86,0.765-1.772,1.469-2.729,2.109v0c-0.328,0.204-0.643,0.43-0.942,0.675c-0.62,0.312-1.206,0.686-1.75,1.117
				c-0.87,0.523-1.775,0.985-2.708,1.383c-0.278,0.125-0.548,0.267-0.808,0.425c-0.403,0.238-0.829,0.436-1.271,0.592
				c-0.3,0.108-0.594,0.233-0.879,0.375c-0.557,0.258-1.13,0.478-1.717,0.658l-0.237,0.083l-0.042,0.009
				c-0.508,0.107-1.004,0.26-1.483,0.458c-0.807,0.313-1.639,0.556-2.487,0.725l-2.629,0.525c-0.467,0.108-0.937,0.142-1.821,0.25
				c-3.643,0.55-7.348,0.55-10.992,0c-0.347-0.058-0.698-0.092-1.05-0.1c-0.571-0.125-1.275-0.242-1.65-0.283
				c-0.221-0.058-0.979-0.2-1.2-0.242l-1.637,8.375l0.467-8.683c-0.639-0.13-1.264-0.32-1.867-0.567
				c-0.58-0.251-1.185-0.441-1.805-0.567c-0.742-0.267-1.413-0.533-2.75-1.084L51.2,337.74V259.62z M92.042,334.108
				c-0.1,0.042-0.2,0.092-0.296,0.142c0.089-0.062,0.182-0.118,0.279-0.167L92.042,334.108z M95.113,419.567
				c-0.171,0.258-0.413,0.625-0.667,1.092c-0.066,0.096-0.141,0.241-0.21,0.349c-0.134,0.208-0.27,0.401-0.398,0.634
				c-0.617,0.88-1.14,1.821-1.563,2.808c-0.117,0.207-0.228,0.421-0.337,0.634l-0.096,0.174c-0.263,0.421-0.488,0.864-0.671,1.325
				l-0.079,0.2c-0.383,0.729-0.716,1.484-0.996,2.258c-0.359,0.796-0.664,1.62-0.976,2.454c-0.084,0.225-0.181,0.433-0.266,0.663
				c-0.271,0.65-0.485,1.322-0.642,2.008c-0.408,1.109-0.748,2.241-1.017,3.392l-0.006,0.026l-0.002,0.007
				c-0.042,0.148-0.067,0.308-0.107,0.456c-0.179,0.658-0.359,1.316-0.48,2.028c-0.352,1.564-0.611,3.147-0.775,4.742
				c-0.653,4.928-0.656,9.921-0.009,14.85c0.046,0.383,0.092,0.758,0.142,1.133l-34.758,0v-47.58
				c0.094-0.037,0.181-0.094,0.275-0.128c0.171-0.058,0.538-0.225,0.808-0.35c0.235-0.077,0.466-0.166,0.692-0.267
				c0.259-0.123,0.526-0.229,0.8-0.317c0.179-0.058,0.358-0.117,0.533-0.183l0.042-0.009c0.508-0.107,1.004-0.26,1.483-0.458
				c0.603-0.247,1.228-0.437,1.867-0.567c0.279-0.067,0.958-0.192,1.233-0.283c0.229-0.042,0.458-0.092,0.688-0.15
				c0.78-0.197,1.574-0.334,2.375-0.408c0.447-0.03,0.892-0.094,1.329-0.192c0.129-0.017,0.258-0.025,0.392-0.05
				c3.598-0.467,7.247-0.386,10.821,0.242c0.786,0.079,1.565,0.218,2.329,0.417c0.624,0.126,1.259,0.19,1.896,0.192v-5.692
				l0.538-2.758l-0.467,8.683c0.639,0.13,1.264,0.32,1.867,0.567c0.738,0.305,1.495,0.561,2.267,0.767
				c0.275,0.125,0.888,0.325,1.171,0.417c0.299,0.15,0.607,0.284,0.921,0.4c0.442,0.155,0.867,0.354,1.271,0.592
				c0.395,0.236,0.809,0.439,1.237,0.608c0.976,0.439,1.918,0.952,2.817,1.533c0.455,0.382,0.949,0.715,1.475,0.992
				c0.596,0.367,1.183,0.783,1.754,1.192c0.57,0.403,1.112,0.879,1.664,1.334L95.113,419.567z M101.05,402.434
				c-0.273-0.206-0.558-0.395-0.854-0.567c-0.498-0.345-1.014-0.662-1.546-0.95c-1.331-0.847-2.724-1.594-4.167-2.233
				c-1.024-0.563-2.085-1.056-3.175-1.475c-0.589-0.265-1.191-0.499-1.804-0.7c-0.959-0.419-1.948-0.767-2.958-1.042
				c-1.22-0.466-2.472-0.842-3.746-1.125c-0.918-0.27-1.853-0.473-2.8-0.608c-1.175-0.289-2.372-0.481-3.579-0.575
				c-4.799-0.763-9.68-0.856-14.504-0.276c-0.633,0.028-1.262,0.114-1.879,0.258c-1.367,0.156-2.725,0.387-4.067,0.692l-0.304,0.075
				c-0.65,0.112-1.294,0.257-1.929,0.433c-0.879,0.2-1.725,0.433-2.537,0.7V355.9c0.832,0.274,1.677,0.505,2.533,0.692
				c0.787,0.227,1.585,0.411,2.392,0.55c0.608,0.142,1.258,0.25,1.921,0.341c0.861,0.209,1.74,0.337,2.625,0.383
				c2.279,0.306,4.576,0.467,6.876,0.483c0.246,0.004,0.473,0.051,0.72,0.051c1.461,0,2.896-0.062,4.257-0.167
				c1.245-0.092,2.421-0.226,3.484-0.399c1.071-0.117,2.133-0.25,2.892-0.417l0.896-0.192c0.899-0.106,1.787-0.29,2.654-0.55
				c1.369-0.295,2.714-0.69,4.025-1.183c0.591-0.138,1.171-0.322,1.733-0.55c1.064-0.349,2.107-0.758,3.125-1.225
				c1.143-0.44,2.251-0.964,3.317-1.567c1.453-0.645,2.86-1.389,4.212-2.225c0.408-0.242,0.858-0.533,1.3-0.842
				c0.34-0.186,0.657-0.382,0.964-0.582c1.289,1.529,2.471,3.145,3.536,4.837l0.067,0.111c0.056,0.099,0.123,0.188,0.182,0.285
				c1.229,2.068,2.282,4.236,3.147,6.48l0.183,0.473c4.52,12.018,3.304,25.442-3.302,36.453c-0.08,0.131-0.16,0.262-0.233,0.395
				c-1.084,1.726-2.288,3.373-3.604,4.93L101.05,402.434z M187.366,457.668c-0.083,0.979-0.235,1.951-0.454,2.908l-0.047,0.224
				h-83.599l-0.045-0.225c-0.222-0.974-0.376-1.963-0.463-2.958c-0.48-3.567-0.478-7.183,0.009-10.75
				c0.083-0.979,0.235-1.951,0.454-2.908c0.058-0.217,0.171-0.842,0.212-1.067l0.287-1.092c0.172-0.74,0.396-1.467,0.671-2.175
				c0.112-0.292,0.267-0.858,0.371-1.275l0.054-0.15l0.27-0.727c0.194-0.518,0.421-1.107,0.826-2.04
				c0.147-0.416,0.333-0.818,0.554-1.2c0.283-0.467,0.519-0.961,0.704-1.475c0.1-0.183,0.208-0.358,0.317-0.542
				c0.06-0.106,0.106-0.22,0.161-0.328c0.143-0.294,0.302-0.579,0.476-0.855c0.221-0.317,0.42-0.648,0.596-0.992
				c0.197-0.276,0.376-0.563,0.538-0.861c0.077-0.096,0.148-0.201,0.217-0.297c0.291-0.355,0.555-0.731,0.792-1.125
				c0.556-0.897,1.19-1.744,1.894-2.531l0.23,0.148l0.292,0.2c0.537,0.356,1.082,0.701,1.623,1.015
				c0.307,0.185,0.605,0.381,0.915,0.561c1.154,0.729,2.361,1.37,3.612,1.916l-0.009,0.017c0.463,0.23,0.898,0.423,1.141,0.526
				c0.587,0.273,1.187,0.511,1.783,0.765c0.117,0.048,0.235,0.106,0.352,0.151c0.308,0.147,0.594,0.205,0.905,0.34
				c1.271,0.508,2.536,1.025,3.84,1.445l0.172,0.065c1.417,0.467,2.833,0.858,4.338,1.233c0.298,0.079,0.601,0.141,0.906,0.184
				c0.164,0.036,0.328,0.065,0.492,0.1c0.103,0.016,0.277,0.06,0.364,0.074c0.322,0.065,0.603,0.093,0.901,0.131
				c0.386,0.073,0.777,0.123,1.165,0.189c0.149,0.017,0.297,0.044,0.443,0.08c0.099,0.02,0.28,0.034,0.387,0.055
				c1.987,0.306,3.988,0.511,5.996,0.614c1.978,0.127,3.962,0.13,5.941,0.009c1.579-0.077,3.149-0.184,4.707-0.385
				c0.093-0.015,0.198-0.018,0.29-0.034c1.373-0.12,2.736-0.335,4.079-0.642c0.101-0.022,0.189-0.058,0.289-0.08
				c2.715-0.588,5.386-1.365,7.993-2.325c0.127-0.049,0.265-0.085,0.39-0.137c0.975-0.324,1.932-0.7,2.867-1.125
				c0.246-0.083,0.492-0.183,0.733-0.292l0.012,0.025c0.815-0.346,1.609-0.739,2.379-1.175c0.319-0.157,0.621-0.377,0.939-0.54
				c1.478-0.773,2.922-1.597,4.333-2.493c0.338-0.214,0.693-0.368,1.028-0.591c0.488,0.59,0.974,1.151,1.471,1.84
				c0.891,1.169,1.689,2.407,2.388,3.7c0.474,0.691,0.877,1.428,1.204,2.2c0.174,0.429,0.38,0.844,0.617,1.242
				c0.222,0.382,0.407,0.784,0.554,1.2c0.12,0.333,0.259,0.658,0.417,0.975c0.252,0.543,0.467,1.103,0.642,1.675l0.075,0.217
				c0.108,0.525,0.266,1.038,0.471,1.533c0.24,0.596,0.427,1.212,0.558,1.842c0.042,0.183,0.258,1.008,0.312,1.192
				c0.049,0.368,0.122,0.733,0.217,1.092c0.222,0.974,0.376,1.963,0.463,2.958C187.855,450.485,187.852,454.101,187.366,457.668z
				 M248.355,420.191c-0.099,0.152-0.209,0.297-0.29,0.43c-0.252,0.41-0.434,0.742-0.523,0.92c-0.404,0.627-0.686,1.284-1.045,1.919
				c-0.512,0.83-0.979,1.686-1.401,2.565c-0.509,0.895-0.944,1.83-1.302,2.795c-0.052,0.13-0.128,0.25-0.178,0.38
				c-0.46,1.012-0.868,2.046-1.221,3.1c-0.232,0.576-0.419,1.17-0.558,1.775c-0.284,0.749-0.432,1.407-0.629,2.107
				c-0.129,0.453-0.331,1.008-0.413,1.377l-0.006,0.026l-0.002,0.007c-0.042,0.148-0.067,0.308-0.107,0.456
				c-0.179,0.658-0.359,1.316-0.48,2.028c-0.352,1.564-0.611,3.147-0.775,4.742c-0.653,4.928-0.656,9.921-0.009,14.85
				c0.046,0.383,0.092,0.758,0.142,1.133l-35.383,0.001c0.05-0.358,0.092-0.717,0.133-1.084c0.653-4.928,0.656-9.921,0.009-14.85
				c-0.168-1.611-0.43-3.211-0.783-4.792c-0.034-0.2-0.073-0.358-0.111-0.542c-0.091-0.481-0.207-0.956-0.347-1.425
				c-0.291-1.372-0.684-2.72-1.175-4.033c-0.085-0.354-0.245-0.812-0.398-1.257c-0.065-0.188-0.086-0.334-0.168-0.534
				c-0.092-0.266-0.203-0.49-0.297-0.748c-0.292-0.804-0.58-1.607-0.919-2.335c-0.417-1.09-0.911-2.148-1.479-3.167
				c-0.58-1.349-1.276-2.646-2.079-3.875c-0.503-0.942-1.061-1.865-1.647-2.746c15.814-12.5,38.147-12.488,53.949,0.028
				C248.661,419.714,248.513,419.947,248.355,420.191z M254.495,402.328c-0.149-0.106-0.298-0.211-0.453-0.311v0
				c-0.581-0.417-1.193-0.79-1.829-1.117c-1.314-0.844-2.694-1.583-4.125-2.208c-0.169-0.095-0.326-0.164-0.494-0.253
				c-0.188-0.09-0.368-0.196-0.556-0.284c-0.627-0.323-1.273-0.608-1.933-0.855c-1.042-0.467-2.083-0.858-3.163-1.258
				c-0.632-0.261-1.286-0.468-1.954-0.617l-0.188-0.057c-0.495-0.158-0.99-0.306-1.489-0.45c-0.646-0.198-1.335-0.443-1.91-0.577
				c-0.863-0.252-1.741-0.447-2.629-0.583c-0.715-0.169-1.534-0.26-2.301-0.38c-0.484-0.08-0.962-0.172-1.449-0.24
				c-0.241-0.032-0.439-0.081-0.687-0.114c-1.396-0.175-2.895-0.189-4.365-0.261c-1.037-0.055-2.059-0.23-3.102-0.23
				c-0.973,0-1.923,0.167-2.891,0.215c-1.53,0.07-3.096,0.091-4.53,0.269c-0.247,0.03-0.455,0.088-0.698,0.12
				c-0.57,0.079-1.128,0.194-1.694,0.29c-0.93,0.147-1.91,0.251-2.779,0.474l-0.008,0.009c-0.58,0.085-1.152,0.214-1.713,0.383
				c-0.682,0.157-1.364,0.401-2.045,0.607c-0.523,0.15-1.042,0.299-1.561,0.464l-0.181,0.054c-0.609,0.111-1.202,0.295-1.766,0.55
				c-1.121,0.408-2.246,0.825-2.767,1.092c-0.547,0.199-1.059,0.496-1.599,0.735c-0.638,0.285-1.273,0.566-1.902,0.874
				c-0.08,0.044-0.171,0.07-0.25,0.115c-1.499,0.664-2.95,1.433-4.342,2.3c-0.321,0.183-0.788,0.458-1.321,0.833l-0.279,0.175
				c-0.177,0.105-0.321,0.23-0.49,0.341l-0.032,0.018c-0.879-1.071-1.672-2.194-2.439-3.335c-0.479-0.712-1.024-1.381-1.458-2.119
				c-0.857-1.52-1.62-3.092-2.285-4.705c-0.302-0.697-0.688-1.356-0.953-2.068c-0.61-1.737-1.106-3.512-1.485-5.313
				c-0.149-0.65-0.395-1.271-0.514-1.929c-0.917-4.967-0.917-10.06,0-15.027c0.118-0.657,0.364-1.279,0.514-1.929
				c0.38-1.801,0.876-3.576,1.485-5.313c0.265-0.713,0.651-1.371,0.953-2.068c0.665-1.614,1.428-3.185,2.285-4.705
				c0.434-0.738,0.979-1.407,1.458-2.119c0.766-1.141,1.559-2.264,2.439-3.335c0.214,0.142,0.453,0.234,0.669,0.372
				c19.564,12.726,44.79,12.726,64.354,0c0.216-0.139,0.455-0.23,0.669-0.372c0.879,1.072,1.673,2.195,2.439,3.335
				c0.479,0.712,1.024,1.381,1.458,2.119c0.857,1.52,1.62,3.092,2.285,4.705c0.302,0.697,0.688,1.356,0.953,2.068
				c0.61,1.737,1.106,3.512,1.485,5.313c0.15,0.65,0.395,1.271,0.514,1.929c0.917,4.967,0.917,10.06,0,15.027
				c-0.118,0.657-0.364,1.279-0.514,1.929c-0.38,1.801-0.876,3.576-1.485,5.313c-0.265,0.713-0.65,1.371-0.953,2.068
				c-0.665,1.614-1.428,3.185-2.285,4.705c-0.434,0.738-0.979,1.407-1.458,2.119c-0.766,1.141-1.559,2.264-2.439,3.335
				C254.643,402.404,254.565,402.374,254.495,402.328z M340.967,457.666c-0.083,0.979-0.235,1.951-0.454,2.908l-0.048,0.226h-83.599
				l-0.045-0.225c-0.222-0.974-0.376-1.963-0.462-2.958c-0.48-3.567-0.478-7.183,0.009-10.75c0.083-0.979,0.235-1.951,0.454-2.908
				c0.058-0.217,0.171-0.842,0.213-1.067l0.287-1.092c0.172-0.74,0.396-1.467,0.671-2.175c0.138-0.401,0.255-0.808,0.351-1.22
				l0.011-0.038l0.027-0.075l0.032-0.083l0.265-0.71c0.063-0.181,0.134-0.355,0.201-0.528c0.162-0.417,0.355-0.892,0.634-1.537
				c0.147-0.416,0.333-0.818,0.554-1.2c0.237-0.398,0.443-0.813,0.617-1.242c0.424-0.955,0.932-1.87,1.521-2.733
				c0.146-0.267,0.275-0.542,0.4-0.717c0.28-0.319,0.535-0.659,0.763-1.017c0.751-1.135,1.566-2.226,2.441-3.269l0.184,0.119
				l0.292,0.2c0.448,0.301,0.902,0.569,1.355,0.839c0.651,0.397,1.31,0.776,1.976,1.148c0.543,0.309,1.071,0.646,1.628,0.922
				c0.519,0.326,1.07,0.597,1.646,0.808h-0.004c0.089,0.044,0.186,0.063,0.275,0.106c2.651,1.254,5.392,2.311,8.198,3.162
				c0.706,0.215,1.404,0.392,2.115,0.579c3.881,1.028,7.857,1.658,11.866,1.882c2.208,0.149,4.424,0.149,6.632,0.001
				c1.305-0.073,2.608-0.142,3.898-0.299c0.306-0.021,0.61-0.059,0.911-0.114c1.382-0.126,2.752-0.36,4.098-0.699
				c0.323-0.068,0.643-0.144,0.964-0.218c0.211-0.048,0.39-0.079,0.621-0.142c0.669-0.133,1.252-0.367,1.892-0.546
				c1.521-0.417,3.024-0.872,4.504-1.407c1.349-0.456,2.628-0.956,3.855-1.508c0.488-0.216,0.962-0.454,1.444-0.683
				c0.316-0.159,0.686-0.302,0.984-0.465c1.066-0.5,2.106-1.053,3.115-1.659c0.544-0.311,1.07-0.651,1.605-0.98
				c0.579-0.356,1.159-0.71,1.712-1.068c0.492,0.595,0.983,1.161,1.485,1.857c0.891,1.169,1.689,2.407,2.388,3.7
				c0.474,0.691,0.877,1.428,1.204,2.2c0.174,0.429,0.38,0.844,0.617,1.242c0.222,0.382,0.407,0.784,0.554,1.2
				c0.12,0.333,0.259,0.658,0.417,0.975c0.252,0.543,0.467,1.103,0.642,1.675l0.075,0.217c0.108,0.525,0.266,1.038,0.471,1.533
				c0.24,0.596,0.427,1.212,0.558,1.842c0.042,0.183,0.258,1.008,0.313,1.192c0.049,0.368,0.122,0.733,0.217,1.092
				c0.222,0.974,0.376,1.963,0.462,2.958C341.456,450.483,341.453,454.099,340.967,457.666z M343.421,401.917l-0.279,0.175
				c-0.177,0.105-0.321,0.23-0.49,0.341l-0.032,0.018c-0.879-1.071-1.673-2.194-2.439-3.335c-0.479-0.712-1.024-1.381-1.458-2.119
				c-0.857-1.52-1.62-3.092-2.285-4.705c-0.302-0.697-0.688-1.356-0.953-2.068c-0.61-1.737-1.106-3.512-1.485-5.313
				c-0.15-0.65-0.395-1.271-0.514-1.929c-0.917-4.967-0.917-10.06,0-15.027c0.118-0.657,0.364-1.279,0.514-1.929
				c0.38-1.801,0.876-3.576,1.485-5.313c0.265-0.713,0.651-1.371,0.953-2.068c0.665-1.614,1.428-3.185,2.285-4.705
				c0.434-0.738,0.979-1.407,1.458-2.119c0.766-1.141,1.559-2.264,2.439-3.335c0.214,0.142,0.453,0.234,0.669,0.372
				c19.57,12.73,44.805,12.726,64.371-0.01c0.234-0.15,0.494-0.251,0.727-0.404l0.246,0.3c1.384,1.712,2.633,3.529,3.737,5.433
				c0.142,0.224,0.254,0.465,0.384,0.696c1.012,1.83,1.888,3.732,2.621,5.69c0.115,0.295,0.23,0.591,0.335,0.885
				c0.73,2.078,1.298,4.21,1.698,6.375c0.055,0.234,0.086,0.535,0.125,0.792c0.8,4.554,0.799,9.212-0.005,13.765
				c-0.036,0.241-0.064,0.495-0.116,0.723c-0.399,2.153-0.963,4.272-1.689,6.338c-0.121,0.338-0.262,0.693-0.397,1.041
				c-0.728,1.939-1.595,3.823-2.596,5.636c-0.111,0.2-0.182,0.351-0.324,0.59c-1.091,1.877-2.322,3.668-3.684,5.357l-0.341,0.426
				c-0.086-0.057-0.182-0.095-0.268-0.152c-0.153-0.111-0.308-0.221-0.471-0.321v0c-0.583-0.423-1.199-0.799-1.842-1.125
				c-1.312-0.84-2.689-1.576-4.117-2.2c-0.157-0.089-0.303-0.152-0.46-0.235c-0.201-0.096-0.392-0.21-0.593-0.304
				c-0.625-0.322-1.268-0.606-1.926-0.853c-1.042-0.467-2.083-0.858-3.163-1.258c-0.633-0.261-1.286-0.468-1.954-0.617l-0.188-0.057
				c-0.495-0.158-0.99-0.306-1.489-0.45c-0.646-0.198-1.335-0.443-1.91-0.577c-0.863-0.252-1.741-0.447-2.629-0.583
				c-0.715-0.169-1.534-0.26-2.301-0.38c-0.484-0.08-0.962-0.172-1.449-0.24c-0.241-0.032-0.439-0.081-0.687-0.114
				c-1.396-0.175-2.895-0.189-4.365-0.261c-1.038-0.055-2.059-0.23-3.102-0.23c-0.973,0-1.923,0.167-2.891,0.215
				c-1.53,0.07-3.096,0.091-4.53,0.269c-0.247,0.03-0.455,0.088-0.698,0.12c-0.57,0.079-1.128,0.194-1.694,0.29
				c-0.93,0.147-1.91,0.251-2.779,0.474l-0.009,0.009c-0.579,0.085-1.152,0.214-1.712,0.383c-0.682,0.157-1.364,0.401-2.045,0.607
				c-0.523,0.15-1.042,0.299-1.561,0.464l-0.181,0.054c-0.609,0.111-1.202,0.295-1.766,0.55c-1.121,0.408-2.246,0.825-2.767,1.092
				c-0.547,0.199-1.059,0.496-1.599,0.735c-0.638,0.285-1.273,0.566-1.902,0.874c-0.08,0.044-0.171,0.07-0.25,0.115
				c-1.499,0.664-2.95,1.433-4.342,2.3C344.421,401.267,343.954,401.542,343.421,401.917z M398.696,426.025
				c-0.53,0.936-0.985,1.913-1.361,2.921c-0.034,0.086-0.085,0.167-0.118,0.254c-0.077,0.167-0.136,0.364-0.21,0.534
				c-0.221,0.524-0.393,0.957-0.527,1.338c-0.16,0.422-0.339,0.805-0.493,1.253c-0.227,0.569-0.411,1.154-0.55,1.75
				c-0.458,1.196-0.825,2.424-1.1,3.675c-0.222,0.773-0.403,1.558-0.542,2.35c-0.347,1.551-0.605,3.12-0.771,4.7
				c-0.654,4.942-0.656,9.949-0.004,14.892l0.137,1.109h-35.383c0.05-0.358,0.092-0.717,0.133-1.084
				c0.653-4.928,0.656-9.921,0.008-14.85c-0.168-1.611-0.43-3.211-0.783-4.792c-0.034-0.2-0.073-0.358-0.111-0.542
				c-0.091-0.481-0.207-0.956-0.347-1.425c-0.291-1.372-0.684-2.72-1.175-4.033c-0.085-0.354-0.245-0.812-0.398-1.257
				c-0.065-0.188-0.086-0.334-0.168-0.534c-0.092-0.266-0.203-0.49-0.297-0.748c-0.292-0.804-0.58-1.607-0.919-2.335
				c-0.417-1.09-0.911-2.148-1.479-3.167c-0.58-1.349-1.276-2.646-2.079-3.875c-0.503-0.942-1.061-1.865-1.647-2.746
				c15.817-12.501,38.153-12.488,53.955,0.032c-0.489,0.678-0.937,1.384-1.341,2.115
				C400.196,422.979,399.384,424.473,398.696,426.025z M460.8,460.8h-50.325l-0.05-0.225c-0.224-0.98-0.38-1.974-0.467-2.975
				c-0.48-3.553-0.478-7.156,0.008-10.708c0.083-0.987,0.236-1.968,0.458-2.933c0.042-0.175,0.175-0.908,0.208-1.084l-8.367-1.667
				l8.642,0.617c0.178-0.748,0.406-1.483,0.683-2.2c0.103-0.273,0.227-0.742,0.325-1.13l0.042-0.137l0.047-0.128l0.011-0.03
				l0.129-0.347c0.117-0.351,0.248-0.674,0.38-0.996c0.154-0.391,0.323-0.811,0.566-1.373c0.145-0.426,0.332-0.836,0.558-1.225
				c0.252-0.411,0.467-0.843,0.642-1.292c0.42-0.945,0.922-1.851,1.5-2.708c0.158-0.267,0.292-0.55,0.425-0.742
				c0.27-0.308,0.515-0.637,0.733-0.983c0.759-1.138,1.58-2.234,2.459-3.282l0.232,0.148c0.716,0.531,1.471,1.007,2.258,1.425
				l0.01,0.005l0.123,0.078c1.485,0.953,3.045,1.784,4.664,2.487c0.099,0.045,0.204,0.119,0.303,0.162
				c0.171,0.09,0.357,0.146,0.53,0.231c0.393,0.183,0.733,0.333,1.055,0.46c0.277,0.113,0.538,0.262,0.823,0.359
				c0.9,0.408,1.875,0.783,2.9,1.133c0.567,0.225,1.149,0.409,1.742,0.55c1.196,0.456,2.425,0.824,3.675,1.1
				c0.862,0.251,1.738,0.446,2.625,0.583c0.608,0.142,1.233,0.25,1.9,0.341c0.833,0.167,1.667,0.283,2.55,0.392
				c4.942,0.653,9.949,0.656,14.892,0.009c0.375-0.05,0.742-0.092,1.108-0.142L460.8,460.8z"/>
			<path d="M486.4,0H25.6C11.468,0.015,0.015,11.468,0,25.6v460.8c0.015,14.132,11.468,25.585,25.6,25.6h460.8
				c14.132-0.015,25.585-11.468,25.6-25.6V25.6C511.985,11.468,500.532,0.015,486.4,0z M494.933,486.4
				c-0.003,4.711-3.822,8.53-8.533,8.533H25.6c-4.711-0.005-8.529-3.822-8.533-8.533V25.6c0.005-4.711,3.822-8.529,8.533-8.533
				h460.8c4.711,0.003,8.53,3.822,8.533,8.533V486.4z"/>
		</g>
	</g>
</g>
<g>
</g>
<g>
</g>
<g>
</g>
<g>
</g>
<g>
</g>
<g>
</g>
<g>
</g>
<g>
</g>
<g>
</g>
<g>
</g>
<g>
</g>
<g>
</g>
<g>
</g>
<g>
</g>
<g>
</g>
</svg>
