<?xml version="1.0" encoding="iso-8859-1"?>
<!-- Generator: Adobe Illustrator 19.0.0, SVG Export Plug-In . SVG Version: 6.00 Build 0)  -->
<svg version="1.1" id="Capa_1" xmlns="http://www.w3.org/2000/svg" xmlns:xlink="http://www.w3.org/1999/xlink" x="0px" y="0px"
	 viewBox="0 0 512 512" style="enable-background:new 0 0 512 512;" xml:space="preserve">
<g>
	<g>
		<g>
			<path d="M507.042,98.917l-110.933-51.2l-0.131-0.031c-1.094-0.278-2.197-0.52-3.308-0.724l-0.136-0.028H119.467l-0.133,0.027
				c-0.556,0.057-1.105,0.168-1.64,0.331c-0.569,0.076-1.129,0.208-1.671,0.395l-0.131,0.031L4.958,98.917
				c-3.022,1.396-4.957,4.421-4.958,7.75V422.4c-0.002,3.748,2.442,7.058,6.025,8.158l110.933,34.133
				c0.809,0.248,1.65,0.374,2.496,0.372l0.012,0.003h273.067l0.012-0.003c0.846,0.002,1.688-0.124,2.496-0.372l110.933-34.133
				c3.583-1.1,6.027-4.41,6.025-8.158V106.667C511.999,103.338,510.063,100.313,507.042,98.917z M110.933,444.978L17.067,416.1
				v-24.811l93.867,28.882V444.978z M110.933,402.311l-93.867-28.882V154.795l93.867-43.324V402.311z M110.933,92.672
				l-93.867,43.323v-23.87l93.867-43.321V92.672z M384,448H128v-25.6h256V448z M384,405.333H128V106.667h256V405.333z M384,89.6H128
				V64h256V89.6z M494.933,416.1l-93.867,28.878v-24.806l93.867-28.882V416.1z M494.933,373.429l-93.867,28.882v-290.84
				l93.867,43.324V373.429z M494.933,135.995l-93.867-43.323V68.804l93.867,43.32V135.995z"/>
			<path d="M153.6,388.267h204.8c2.263,0.001,4.434-0.898,6.035-2.499c1.6-1.6,2.499-3.771,2.499-6.035V140.8
				c0.001-2.263-0.898-4.434-2.499-6.035c-1.6-1.6-3.771-2.499-6.035-2.499H153.6c-2.263-0.001-4.434,0.898-6.035,2.499
				c-1.6,1.6-2.499,3.771-2.499,6.035v238.933c-0.001,2.263,0.898,4.434,2.499,6.035C149.166,387.368,151.337,388.267,153.6,388.267
				z M162.133,149.333h187.733V371.2H162.133V149.333z"/>
			<path d="M40.154,364.258l42.667,13.133c0.815,0.248,1.661,0.374,2.512,0.375c2.264,0.002,4.435-0.897,6.036-2.497
				s2.499-3.772,2.497-6.036v-212.65c0-2.908-1.482-5.616-3.931-7.184c-2.449-1.568-5.528-1.782-8.17-0.566L39.1,168.467
				c-3.028,1.391-4.968,4.418-4.966,7.75V356.1C34.136,359.845,36.576,363.152,40.154,364.258z M51.2,181.683L76.8,169.9v187.775
				L51.2,349.8V181.683z"/>
			<path d="M421.596,376.1c1.47,1.081,3.246,1.665,5.071,1.667c0.851-0.001,1.698-0.127,2.512-0.375l42.667-13.133
				c3.578-1.106,6.018-4.413,6.021-8.158V176.217c0.001-3.332-1.939-6.359-4.966-7.75l-42.667-19.633
				c-2.642-1.216-5.721-1.003-8.17,0.566c-2.449,1.568-3.93,4.276-3.931,7.184v212.65
				C418.134,371.942,419.419,374.489,421.596,376.1z M435.2,169.9l25.6,11.783V349.8l-25.6,7.875V169.9z"/>
			<path d="M187.733,192c2.281,0.001,4.467-0.912,6.071-2.533l8.533-8.633c3.296-3.356,3.256-8.745-0.09-12.052
				c-3.345-3.306-8.735-3.283-12.052,0.052l-8.533,8.633c-2.419,2.449-3.13,6.112-1.803,9.288
				C181.186,189.931,184.291,191.999,187.733,192z"/>
			<path d="M232.9,168.9l-51.2,51.2c-2.188,2.149-3.055,5.307-2.27,8.271c0.785,2.965,3.1,5.28,6.065,6.065s6.122-0.082,8.271-2.27
				l51.2-51.2c3.281-3.341,3.256-8.701-0.054-12.012C241.601,165.644,236.241,165.62,232.9,168.9z"/>
		</g>
	</g>
</g>
<g>
</g>
<g>
</g>
<g>
</g>
<g>
</g>
<g>
</g>
<g>
</g>
<g>
</g>
<g>
</g>
<g>
</g>
<g>
</g>
<g>
</g>
<g>
</g>
<g>
</g>
<g>
</g>
<g>
</g>
</svg>
