<?xml version="1.0" encoding="iso-8859-1"?>
<!-- Generator: Adobe Illustrator 19.0.0, SVG Export Plug-In . SVG Version: 6.00 Build 0)  -->
<svg version="1.1" id="Capa_1" xmlns="http://www.w3.org/2000/svg" xmlns:xlink="http://www.w3.org/1999/xlink" x="0px" y="0px"
	 viewBox="0 0 512 512" style="enable-background:new 0 0 512 512;" xml:space="preserve">
<g>
	<g>
		<g>
			<path d="M486.4,76.8V59.733h8.533c9.421-0.012,17.054-7.646,17.067-17.067v-25.6C511.988,7.646,504.354,0.012,494.933,0H17.067
				C7.646,0.012,0.012,7.646,0,17.067v25.6c0.012,9.421,7.646,17.054,17.067,17.067H25.6V76.8
				c0.012,9.421,7.646,17.054,17.067,17.067v324.267h-25.6C7.646,418.146,0.012,425.779,0,435.2v34.133
				c-0.001,2.264,0.897,4.435,2.498,6.035c1.601,1.601,3.772,2.499,6.035,2.498H25.6v17.067c0.012,9.421,7.646,17.054,17.067,17.067
				h426.667c9.421-0.012,17.054-7.646,17.067-17.067v-17.067h17.067c2.264,0.001,4.435-0.897,6.035-2.498
				c1.601-1.601,2.499-3.772,2.498-6.035V435.2c-0.012-9.421-7.646-17.054-17.067-17.067h-25.6V93.867
				C478.754,93.854,486.388,86.221,486.4,76.8z M17.067,42.667v-25.6h477.867l0.017,25.6h-17.084H17.067z M42.667,494.933v-17.067
				h426.675l0.009,17.067H42.667z M494.933,435.2v25.6H17.067v-25.6H494.933z M59.733,418.133V93.867H76.8v324.267H59.733z
				 M288.56,187.733h27.173c4.713,0,8.533-3.82,8.533-8.533s-3.82-8.533-8.533-8.533h-68.267c-14.132,0.015-25.585,11.468-25.6,25.6
				v8.533h-128V93.867h324.267V204.8h-128v-8.533C290.104,193.353,289.572,190.466,288.56,187.733z M273.067,196.267v8.533h-34.133
				v-8.533c0.003-4.711,3.822-8.53,8.533-8.533H256h8.533C269.245,187.737,273.063,191.555,273.067,196.267z M230.4,221.867h187.733
				v17.067H93.867v-17.067H230.4z M418.133,256v162.133H93.867V256H418.133z M435.2,418.133V93.867h17.067v324.267H435.2z
				 M42.667,76.8V59.733h426.675L469.35,76.8H42.667z"/>
			<path d="M119.467,145.067c2.264,0.003,4.435-0.897,6.033-2.5l17.067-17.067c3.281-3.341,3.256-8.701-0.054-12.012
				s-8.671-3.335-12.012-0.054L113.434,130.5c-2.44,2.44-3.169,6.11-1.849,9.298C112.905,142.987,116.016,145.066,119.467,145.067z"
				/>
			<path d="M173.167,113.434l-59.733,59.733c-1.6,1.6-2.5,3.77-2.5,6.033s0.899,4.433,2.5,6.033c1.6,1.601,3.77,2.5,6.033,2.5
				s4.433-0.899,6.033-2.5l59.733-59.733c3.296-3.338,3.279-8.711-0.038-12.029S176.505,110.137,173.167,113.434z"/>
			<path d="M119.467,307.2c2.264,0.003,4.435-0.897,6.033-2.5l17.067-17.067c3.281-3.341,3.256-8.701-0.054-12.012
				s-8.671-3.335-12.012-0.054l-17.067,17.067c-2.44,2.44-3.169,6.11-1.849,9.298C112.905,305.12,116.016,307.199,119.467,307.2z"/>
			<path d="M117.238,349.618c2.958,0.786,6.111-0.073,8.262-2.251l59.733-59.733c1.6-1.6,2.5-3.77,2.5-6.033
				c0-2.263-0.899-4.433-2.5-6.033c-1.6-1.601-3.77-2.5-6.033-2.5s-4.433,0.899-6.033,2.5L113.433,335.3
				c-2.178,2.151-3.037,5.304-2.251,8.262C111.968,346.521,114.279,348.832,117.238,349.618z"/>
		</g>
	</g>
</g>
<g>
</g>
<g>
</g>
<g>
</g>
<g>
</g>
<g>
</g>
<g>
</g>
<g>
</g>
<g>
</g>
<g>
</g>
<g>
</g>
<g>
</g>
<g>
</g>
<g>
</g>
<g>
</g>
<g>
</g>
</svg>
