<?xml version="1.0" encoding="iso-8859-1"?>
<!-- Generator: Adobe Illustrator 19.0.0, SVG Export Plug-In . SVG Version: 6.00 Build 0)  -->
<svg version="1.1" id="Capa_1" xmlns="http://www.w3.org/2000/svg" xmlns:xlink="http://www.w3.org/1999/xlink" x="0px" y="0px"
	 viewBox="0 0 512 512" style="enable-background:new 0 0 512 512;" xml:space="preserve">
<g>
	<g>
		<path d="M469.174,501.826L384.73,71.003l0.302-1.902c2.734-17.266-2.23-34.864-13.584-48.156
			C360.094,7.652,343.489-0.001,326.007,0H173.483c-29.406-0.117-54.471,21.302-58.942,50.367L42.774,502.125
			c-0.036,0.23,0.045,0.44,0.028,0.668c-0.019,0.234-0.136,0.435-0.136,0.674c0.046,0.345,0.115,0.686,0.206,1.021
			c0.21,2.206,1.334,4.222,3.101,5.559c0.411,0.34,0.854,0.638,1.323,0.892c0.513,0.255,1.052,0.455,1.607,0.598
			c0.31,0.138,0.629,0.257,0.954,0.355c0.442,0.072,0.888,0.107,1.336,0.107L51.199,512h34.558c0.322-0.045,0.641-0.109,0.956-0.193
			c0.625-0.053,1.242-0.177,1.839-0.371c1.009-0.394,1.949-0.943,2.787-1.629c1.276-1.457,2.243-3.158,2.843-5l21.904-137.875
			h169.81l-21.472,135.192c-0.036,0.23,0.045,0.44,0.028,0.668c-0.019,0.234-0.136,0.435-0.136,0.674
			c0.047,0.345,0.115,0.686,0.206,1.021c0.21,2.206,1.334,4.222,3.101,5.559c0.411,0.34,0.854,0.638,1.323,0.892
			c0.514,0.255,1.052,0.455,1.607,0.598c0.31,0.138,0.629,0.257,0.954,0.355c0.442,0.071,0.888,0.107,1.336,0.107l0.006,0.001
			h34.558c0.322-0.045,0.641-0.109,0.955-0.193c1.071-0.063,2.111-0.381,3.034-0.927c0.574-0.294,1.111-0.656,1.599-1.078
			c1.273-1.457,2.237-3.156,2.836-4.995l15.237-95.935l30.53,24.452c3.113,2.497,7.541,2.5,10.658,0.008l27.638-22.085l18.395,93.86
			c0.785,4.004,4.295,6.892,8.375,6.891h34.133c2.552,0.002,4.97-1.138,6.592-3.108
			C469.013,506.922,469.667,504.329,469.174,501.826z M118.798,349.867l2.711-17.067h169.808l-2.71,17.067H118.798z
			 M314.359,187.734l-2.711,17.067H141.845l2.711-17.067H314.359z M147.268,170.667l17.839-112.292
			c0.617-4.143,4.187-7.201,8.375-7.175h152.525c2.492,0.003,4.86,1.09,6.487,2.978s2.353,4.39,1.988,6.855l-17.413,109.633H147.268
			z M308.937,221.867l-14.908,93.867H124.221l14.913-93.867H308.937z M300.125,494.934h-17.282l68.506-431.283
			c1.124-7.389-1.031-14.901-5.899-20.572c-4.869-5.671-11.968-8.937-19.442-8.945H173.483c-12.617-0.074-23.37,9.138-25.233,21.617
			L78.475,494.934H61.193l70.198-441.892c3.196-20.755,21.092-36.051,42.092-35.975h152.525
			c12.487-0.002,24.348,5.463,32.461,14.955s11.662,22.061,9.714,34.395L300.125,494.934z M366.941,415.742l-32.792-26.261
			l27.52-173.279l34.525,176.161L366.941,415.742z M433.691,494.934l-19.882-101.447l-0.006-0.031l-44.348-226.278l7.49-47.156
			l73.488,374.912H433.691z"/>
	</g>
</g>
<g>
</g>
<g>
</g>
<g>
</g>
<g>
</g>
<g>
</g>
<g>
</g>
<g>
</g>
<g>
</g>
<g>
</g>
<g>
</g>
<g>
</g>
<g>
</g>
<g>
</g>
<g>
</g>
<g>
</g>
</svg>
