<?xml version="1.0" encoding="iso-8859-1"?>
<!-- Generator: Adobe Illustrator 19.0.0, SVG Export Plug-In . SVG Version: 6.00 Build 0)  -->
<svg version="1.1" id="Capa_1" xmlns="http://www.w3.org/2000/svg" xmlns:xlink="http://www.w3.org/1999/xlink" x="0px" y="0px"
	 viewBox="0 0 512 512" style="enable-background:new 0 0 512 512;" xml:space="preserve">
<g>
	<g>
		<g>
			<path d="M486.4,0H25.6C11.468,0.015,0.015,11.468,0,25.6v460.8c0.015,14.132,11.468,25.585,25.6,25.6h460.8
				c14.132-0.015,25.585-11.468,25.6-25.6V25.6C511.985,11.468,500.532,0.015,486.4,0z M494.933,486.4
				c-0.005,4.711-3.822,8.529-8.533,8.533H25.6c-4.711-0.005-8.529-3.822-8.533-8.533V25.6c0.005-4.711,3.822-8.529,8.533-8.533
				h460.8c4.711,0.005,8.529,3.822,8.533,8.533V486.4z"/>
			<path d="M469.333,34.133H42.667c-2.263-0.001-4.434,0.898-6.035,2.499c-1.6,1.6-2.499,3.771-2.499,6.035v426.667
				c-0.001,2.263,0.898,4.434,2.499,6.035c1.6,1.6,3.771,2.499,6.035,2.499h426.667c2.263,0.001,4.434-0.898,6.035-2.499
				s2.499-3.771,2.499-6.035V42.667c0.001-2.263-0.898-4.434-2.499-6.035C473.768,35.032,471.597,34.133,469.333,34.133z
				 M384,113.575L384,113.575c7.826,11.791,20.18,19.822,34.133,22.187v9.388c0.018,9.058-3.572,17.751-9.977,24.156
				c-6.405,6.405-15.098,9.996-24.156,9.977c-9.075,0.016-17.779-3.6-24.171-10.041c-3.023-3.002-5.448-6.551-7.146-10.458
				c-1.854-4.306-2.813-8.945-2.817-13.633v-9.388C363.82,133.397,376.174,125.367,384,113.575z M61.229,348.517
				c-2.983-3.077-5.422-6.639-7.212-10.533c-1.86-4.334-2.819-9.001-2.817-13.717v-9.318c13.958-2.399,26.308-10.447,34.14-22.247
				c1.89,2.9,4.051,5.614,6.452,8.107c7.534,7.477,17.205,12.428,27.675,14.167v9.291c0.049,9.068-3.532,17.778-9.943,24.19
				c-6.412,6.412-15.122,9.992-24.19,9.943C76.309,358.417,67.644,354.865,61.229,348.517z M76.8,374.709V384
				c0.104,15.583-10.477,29.211-25.6,32.971v-15.904v-38.661C58.398,368.845,67.275,373.112,76.8,374.709z M51.74,243.423
				c2.04,1.768,4.215,3.374,6.505,4.803c0.378,0.235,0.759,0.456,1.143,0.681c2.329,1.378,4.763,2.568,7.281,3.559
				c0.351,0.137,0.707,0.248,1.06,0.378c2.611,0.967,5.296,1.718,8.03,2.245c0.246,0.046,0.496,0.067,0.743,0.11l0.298,0.044v9.291
				c0.104,15.583-10.477,29.211-25.6,32.971V281.6v-38.575C51.369,243.175,51.569,243.276,51.74,243.423z M51.2,204.8v-9.22
				c1.917-0.319,3.814-0.746,5.682-1.281c0.707-0.204,1.384-0.469,2.08-0.703c1.486-0.5,2.948-1.042,4.376-1.674
				c0.749-0.331,1.479-0.689,2.21-1.055c1.351-0.676,2.662-1.412,3.947-2.204c0.671-0.414,1.343-0.819,1.995-1.264
				c1.38-0.941,2.694-1.966,3.977-3.038c0.465-0.389,0.955-0.74,1.406-1.146c1.722-1.535,3.338-3.186,4.837-4.94
				c0.126-0.148,0.228-0.317,0.353-0.467c1.166-1.383,2.258-2.828,3.271-4.327c0.04,0.06,0.099,0.109,0.14,0.17
				c3.158,4.757,7.124,8.924,11.719,12.315c0.418,0.317,0.833,0.633,1.26,0.936c1.873,1.343,3.835,2.557,5.872,3.635
				c0.302,0.158,0.615,0.284,0.92,0.436c1.871,0.929,3.797,1.741,5.769,2.431c0.42,0.148,0.831,0.314,1.256,0.45
				c2.189,0.704,4.423,1.258,6.687,1.659c0.174,0.031,0.338,0.097,0.511,0.127v9.158c0.049,9.068-3.532,17.778-9.943,24.19
				c-6.412,6.412-15.122,9.992-24.19,9.943c-9.025,0.017-17.69-3.536-24.104-9.883c-2.983-3.077-5.422-6.639-7.212-10.533
				C52.156,214.183,51.198,209.516,51.2,204.8z M103.896,288.783c-2.983-3.077-5.422-6.639-7.212-10.533
				c-1.86-4.334-2.819-9.001-2.817-13.717v-9.318c13.958-2.399,26.308-10.447,34.14-22.247c1.89,2.9,4.051,5.614,6.452,8.107
				c7.534,7.477,17.205,12.428,27.675,14.167v9.291c0.049,9.068-3.532,17.778-9.943,24.19c-6.412,6.412-15.122,9.992-24.19,9.943
				C118.976,298.684,110.31,295.131,103.896,288.783z M136.533,204.8v-9.228c13.953-2.368,26.302-10.411,34.11-22.215l0,0
				c1.88,2.858,4.04,5.522,6.448,7.952c7.516,7.541,17.206,12.536,27.708,14.282v9.209c0.049,9.068-3.532,17.778-9.943,24.19
				c-6.412,6.412-15.122,9.992-24.19,9.943c-9.025,0.017-17.69-3.536-24.104-9.883c-2.983-3.077-5.422-6.639-7.212-10.533
				C137.49,214.183,136.531,209.516,136.533,204.8z M136.533,314.948c13.958-2.399,26.308-10.447,34.14-22.247
				c1.89,2.9,4.051,5.614,6.452,8.107c7.534,7.477,17.205,12.428,27.675,14.167v9.291c0.049,9.068-3.532,17.778-9.943,24.19
				c-6.412,6.412-15.122,9.992-24.19,9.943c-9.025,0.017-17.69-3.535-24.104-9.883c-2.983-3.077-5.422-6.639-7.212-10.533
				c-1.86-4.334-2.819-9.001-2.817-13.717V314.948z M189.229,288.783c-2.983-3.077-5.422-6.639-7.212-10.533
				c-1.86-4.334-2.819-9.001-2.817-13.717v-9.318c13.958-2.399,26.308-10.447,34.14-22.247c1.89,2.9,4.051,5.614,6.452,8.107
				c7.534,7.477,17.205,12.428,27.675,14.167v9.291c0.049,9.068-3.532,17.778-9.943,24.19c-6.412,6.412-15.122,9.992-24.19,9.943
				C204.309,298.684,195.644,295.131,189.229,288.783z M221.867,204.8v-9.228c13.953-2.368,26.302-10.411,34.11-22.215l0,0
				c1.88,2.858,4.04,5.522,6.448,7.952c7.515,7.541,17.206,12.536,27.708,14.282v9.209c0.049,9.068-3.532,17.778-9.943,24.19
				c-6.412,6.412-15.122,9.992-24.19,9.943c-9.024,0.017-17.69-3.536-24.104-9.883c-2.983-3.077-5.422-6.639-7.212-10.533
				C222.823,214.183,221.865,209.516,221.867,204.8z M221.867,314.948c13.958-2.399,26.308-10.447,34.14-22.247
				c1.89,2.9,4.051,5.614,6.452,8.107c7.534,7.477,17.205,12.428,27.675,14.167v9.291c0.049,9.068-3.532,17.778-9.943,24.19
				c-6.412,6.412-15.122,9.992-24.19,9.943c-9.024,0.017-17.69-3.535-24.104-9.883c-2.983-3.077-5.422-6.639-7.212-10.533
				c-1.86-4.334-2.819-9.001-2.817-13.717V314.948z M274.563,288.783c-2.983-3.077-5.422-6.639-7.212-10.533
				c-1.86-4.334-2.819-9.001-2.817-13.717v-9.318c13.958-2.399,26.308-10.447,34.14-22.247c1.89,2.9,4.051,5.614,6.452,8.107
				c7.534,7.477,17.205,12.428,27.675,14.167v9.291c0.049,9.068-3.532,17.778-9.943,24.19c-6.412,6.412-15.122,9.992-24.19,9.943
				C289.642,298.684,280.977,295.131,274.563,288.783z M307.2,204.8v-9.228c13.953-2.368,26.302-10.411,34.11-22.215l0,0
				c1.88,2.858,4.04,5.522,6.448,7.952c7.516,7.541,17.206,12.536,27.708,14.282v9.209c0.049,9.068-3.532,17.778-9.943,24.19
				c-6.412,6.412-15.122,9.992-24.19,9.943c-9.025,0.017-17.69-3.536-24.104-9.883c-2.983-3.077-5.422-6.639-7.212-10.533
				C308.156,214.183,307.198,209.516,307.2,204.8z M307.2,314.948c13.958-2.399,26.308-10.447,34.14-22.247
				c1.89,2.9,4.051,5.614,6.452,8.107c7.534,7.477,17.205,12.428,27.675,14.167v9.291c0.049,9.068-3.532,17.778-9.943,24.19
				c-6.412,6.412-15.122,9.992-24.19,9.943c-9.025,0.017-17.69-3.535-24.104-9.883c-2.983-3.077-5.422-6.639-7.212-10.533
				c-1.86-4.334-2.819-9.001-2.817-13.717V314.948z M359.896,288.783c-2.983-3.077-5.422-6.639-7.212-10.533
				c-1.86-4.334-2.819-9.001-2.817-13.717v-9.318c13.958-2.399,26.308-10.447,34.14-22.247c1.89,2.9,4.051,5.614,6.452,8.107
				c7.534,7.477,17.205,12.428,27.675,14.167v9.291c0.049,9.068-3.532,17.778-9.943,24.19c-6.412,6.412-15.122,9.992-24.19,9.943
				C374.976,298.684,366.31,295.131,359.896,288.783z M307.2,51.2h68.267v34.133c0,18.851-15.282,34.133-34.133,34.133
				c-18.851,0-34.133-15.282-34.133-34.133V51.2z M298.667,113.575L298.667,113.575c7.826,11.791,20.18,19.822,34.133,22.187v9.388
				c0.018,9.058-3.572,17.751-9.977,24.156c-6.405,6.405-15.098,9.996-24.156,9.977c-9.075,0.016-17.779-3.6-24.171-10.041
				c-3.023-3.002-5.448-6.551-7.146-10.458c-1.854-4.306-2.813-8.945-2.817-13.633v-9.388
				C278.487,133.397,290.841,125.367,298.667,113.575z M221.867,51.2h68.267v34.133c0,18.851-15.282,34.133-34.133,34.133
				c-18.851,0-34.133-15.282-34.133-34.133V51.2z M213.333,113.575L213.333,113.575c7.826,11.791,20.18,19.822,34.133,22.187v9.388
				c0.018,9.058-3.572,17.751-9.977,24.156c-6.405,6.405-15.098,9.996-24.156,9.977c-9.075,0.016-17.779-3.6-24.171-10.041
				c-3.023-3.002-5.448-6.551-7.146-10.458c-1.854-4.306-2.813-8.945-2.817-13.633v-9.388
				C193.153,133.397,205.507,125.367,213.333,113.575z M136.533,51.2H204.8v34.133c0,18.851-15.282,34.133-34.133,34.133
				s-34.133-15.282-34.133-34.133V51.2z M128,113.575L128,113.575c7.826,11.791,20.18,19.822,34.133,22.187v9.388
				c0.018,9.058-3.572,17.751-9.977,24.156c-6.405,6.405-15.098,9.996-24.156,9.977c-13.58-0.026-25.864-8.069-31.318-20.506
				c-1.853-4.304-2.811-8.941-2.815-13.627v-9.388C107.82,133.397,120.174,125.367,128,113.575z M51.2,51.2h68.267v34.133
				c0,18.851-15.282,34.133-34.133,34.133S51.2,104.185,51.2,85.333V51.2z M51.2,123.388L51.2,123.388
				c7.187,6.469,16.066,10.761,25.6,12.374v9.388c-0.002,4.667-0.952,9.286-2.792,13.575c-0.963,2.144-2.144,4.184-3.527,6.085
				c-0.301,0.424-0.599,0.848-0.918,1.257c-1.372,1.785-2.917,3.43-4.613,4.912c-0.246,0.212-0.521,0.385-0.772,0.59
				c-1.578,1.276-3.266,2.409-5.044,3.385c-0.404,0.223-0.794,0.467-1.207,0.673c-2.006,1.004-4.106,1.807-6.27,2.398
				c-0.15,0.041-0.307,0.064-0.457,0.102V123.388z M119.467,443.733c-0.001,6.003-1.61,11.896-4.66,17.067H51.2v-17.067v-9.318
				c13.958-2.399,26.308-10.447,34.14-22.247c1.89,2.9,4.051,5.614,6.452,8.107c7.534,7.477,17.205,12.428,27.675,14.167V443.733z
				 M103.896,408.25c-2.983-3.077-5.422-6.639-7.212-10.533c-1.86-4.334-2.819-9.001-2.817-13.717v-9.318
				c13.958-2.399,26.308-10.447,34.14-22.247c1.89,2.9,4.051,5.614,6.452,8.107c7.534,7.477,17.205,12.428,27.675,14.167V384
				c0.049,9.068-3.532,17.778-9.943,24.19c-6.412,6.412-15.122,9.992-24.19,9.943C118.976,418.151,110.31,414.598,103.896,408.25z
				 M204.8,443.733c-0.001,6.003-1.61,11.896-4.66,17.067h-58.949c-3.05-5.17-4.658-11.064-4.658-17.067v-9.318
				c13.958-2.399,26.308-10.447,34.14-22.247c1.89,2.9,4.051,5.614,6.452,8.107c7.534,7.477,17.205,12.428,27.675,14.167V443.733z
				 M189.229,408.25c-2.983-3.077-5.422-6.639-7.212-10.533c-1.86-4.334-2.819-9.001-2.817-13.717v-9.318
				c13.958-2.399,26.308-10.447,34.14-22.247c1.89,2.9,4.051,5.614,6.452,8.107c7.534,7.477,17.205,12.428,27.675,14.167V384
				c0.049,9.068-3.532,17.778-9.943,24.19c-6.412,6.412-15.122,9.992-24.19,9.943C204.309,418.151,195.644,414.598,189.229,408.25z
				 M290.133,443.733c-0.001,6.003-1.61,11.896-4.66,17.067h-58.949c-3.05-5.17-4.658-11.064-4.658-17.067v-9.318
				c13.958-2.399,26.308-10.447,34.14-22.247c1.89,2.9,4.051,5.614,6.452,8.107c7.534,7.477,17.205,12.428,27.675,14.167V443.733z
				 M274.563,408.25c-2.983-3.077-5.422-6.639-7.212-10.533c-1.86-4.334-2.819-9.001-2.817-13.717v-9.318
				c13.958-2.399,26.308-10.447,34.14-22.247c1.89,2.9,4.051,5.614,6.452,8.107c7.534,7.477,17.205,12.428,27.675,14.167V384
				c0.049,9.068-3.532,17.778-9.943,24.19c-6.412,6.412-15.122,9.992-24.19,9.943C289.642,418.151,280.977,414.598,274.563,408.25z
				 M375.467,443.733c-0.001,6.003-1.61,11.896-4.66,17.067h-58.949c-3.05-5.17-4.658-11.064-4.658-17.067v-9.318
				c13.958-2.399,26.308-10.447,34.14-22.247c1.89,2.9,4.051,5.614,6.452,8.107c7.534,7.477,17.205,12.428,27.675,14.167V443.733z
				 M359.896,408.25c-2.983-3.077-5.422-6.639-7.212-10.533c-1.86-4.334-2.819-9.001-2.817-13.717v-9.318
				c13.958-2.399,26.308-10.447,34.14-22.247c1.89,2.9,4.051,5.614,6.452,8.107c7.534,7.477,17.205,12.428,27.675,14.167V384
				c0.049,9.068-3.532,17.778-9.943,24.19c-6.412,6.412-15.122,9.992-24.19,9.943C374.976,418.151,366.31,414.598,359.896,408.25z
				 M460.8,460.8h-63.609c-3.05-5.17-4.658-11.064-4.658-17.067v-9.318c13.942-2.396,26.281-10.43,34.113-22.21
				c7.695,11.942,20.12,20.032,34.154,22.238V460.8z M460.8,401.067v15.859c-5.898-1.474-11.296-4.495-15.638-8.751
				c-6.427-6.397-10.017-15.107-9.963-24.175v-9.318c9.524-1.615,18.398-5.886,25.6-12.323V401.067z M460.8,324.267
				c0.049,9.068-3.532,17.778-9.943,24.19c-6.412,6.412-15.122,9.992-24.19,9.943c-9.025,0.017-17.69-3.535-24.104-9.883
				c-2.983-3.077-5.422-6.639-7.212-10.533c-1.86-4.334-2.819-9.001-2.817-13.717v-9.318c13.942-2.396,26.281-10.43,34.113-22.21
				c7.695,11.942,20.12,20.032,34.154,22.238V324.267z M460.8,281.6v15.859c-5.898-1.474-11.296-4.495-15.638-8.751
				c-6.427-6.397-10.017-15.107-9.963-24.175v-9.318c9.524-1.615,18.398-5.886,25.6-12.323V281.6z M460.8,204.8
				c0.049,9.068-3.532,17.778-9.943,24.19c-6.412,6.412-15.122,9.992-24.19,9.943c-9.025,0.017-17.69-3.536-24.104-9.883
				c-2.983-3.077-5.422-6.639-7.212-10.533c-1.86-4.334-2.819-9.001-2.817-13.717v-9.228c13.953-2.368,26.302-10.411,34.11-22.215
				c1.88,2.858,4.04,5.522,6.448,7.952c7.516,7.541,17.206,12.536,27.708,14.282V204.8z M460.8,178.071
				c-5.911-1.486-11.312-4.536-15.638-8.83c-3.023-3.002-5.448-6.551-7.146-10.458c-1.854-4.306-2.813-8.945-2.817-13.633v-9.388
				c9.534-1.613,18.413-5.905,25.6-12.374V178.071z M460.8,85.333c0,18.851-15.282,34.133-34.133,34.133
				s-34.133-15.282-34.133-34.133V51.2H460.8V85.333z"/>
		</g>
	</g>
</g>
<g>
</g>
<g>
</g>
<g>
</g>
<g>
</g>
<g>
</g>
<g>
</g>
<g>
</g>
<g>
</g>
<g>
</g>
<g>
</g>
<g>
</g>
<g>
</g>
<g>
</g>
<g>
</g>
<g>
</g>
</svg>
