<?xml version="1.0" encoding="iso-8859-1"?>
<!-- Generator: Adobe Illustrator 19.0.0, SVG Export Plug-In . SVG Version: 6.00 Build 0)  -->
<svg version="1.1" id="Capa_1" xmlns="http://www.w3.org/2000/svg" xmlns:xlink="http://www.w3.org/1999/xlink" x="0px" y="0px"
	 viewBox="0 0 512 512" style="enable-background:new 0 0 512 512;" xml:space="preserve">
<g>
	<g>
		<g>
			<path d="M486.4,0H25.6C11.468,0.015,0.015,11.468,0,25.6v460.8c0.015,14.132,11.468,25.585,25.6,25.6h460.8
				c14.132-0.015,25.585-11.468,25.6-25.6V25.6C511.985,11.468,500.532,0.015,486.4,0z M494.933,486.4
				c-0.005,4.711-3.822,8.529-8.533,8.533H25.6c-4.711-0.005-8.529-3.822-8.533-8.533V25.6c0.005-4.711,3.822-8.529,8.533-8.533
				h460.8c4.711,0.005,8.529,3.822,8.533,8.533V486.4z"/>
			<path d="M469.333,34.133H42.667c-2.263-0.001-4.434,0.898-6.035,2.499c-1.6,1.6-2.499,3.771-2.499,6.035v426.667
				c-0.001,2.263,0.898,4.434,2.499,6.035c1.6,1.6,3.771,2.499,6.035,2.499h32.398l0.027,0.004l0.022-0.004h119.418l0.027,0.004
				l0.022-0.004H315.44l0.027,0.004l0.022-0.004h119.684l0.027,0.004l0.022-0.004h34.112c2.263,0.001,4.434-0.898,6.035-2.499
				s2.499-3.771,2.499-6.035v-218.14V42.667c0.001-2.263-0.898-4.434-2.499-6.035C473.768,35.032,471.597,34.133,469.333,34.133z
				 M398.192,97.092L398.192,97.092c0.607,0.769,1.343,1.426,2.177,1.941c0.221,0.251,0.435,0.491,0.701,0.78l11.668,29.887
				c-2.733-0.835-5.548-1.371-8.396-1.6c-15.127-0.335-29.613,6.11-39.492,17.571c-6.461,7.78-15.973,12.383-26.083,12.621
				c-7.911-1.023-15.148-4.983-20.275-11.094l-12.747-32.62c1.997,0.492,4.03,0.825,6.08,0.997c0.958,0.067,1.908,0.1,2.859,0.1
				c14.099-0.69,27.317-7.066,36.634-17.671c6.447-7.797,15.968-12.404,26.083-12.621C385.566,86.504,393,90.69,398.192,97.092z
				 M154.888,344.368l-15.181-38.851c3.14,1.091,6.406,1.783,9.719,2.058c0.958,0.067,1.908,0.1,2.859,0.1
				c14.099-0.69,27.317-7.065,36.634-17.671c6.458-7.784,15.972-12.387,26.083-12.621c8.166,1.12,15.6,5.306,20.792,11.708
				c0.035,0.048,0.092,0.068,0.129,0.115l15.319,39.206c-3.011-1.009-6.133-1.651-9.298-1.913
				c-15.125-0.323-29.606,6.119-39.492,17.571c-6.454,7.789-15.97,12.394-26.083,12.621c-8.181-1.119-15.626-5.317-20.817-11.737v0
				C155.34,344.746,155.119,344.55,154.888,344.368z M199.484,195.953c-2.84-0.901-5.772-1.478-8.742-1.72
				c-15.127-0.331-29.61,6.113-39.492,17.571c-6.442,7.804-15.966,12.413-26.083,12.621c-8.18-1.119-15.626-5.317-20.817-11.738
				c-0.419-0.468-0.891-0.886-1.406-1.246l-15.001-38.386c3.313,1.203,6.77,1.961,10.283,2.253c0.958,0.067,1.908,0.1,2.859,0.1
				c14.099-0.69,27.317-7.065,36.634-17.671c6.469-7.77,15.976-12.37,26.083-12.621c7.81,0.987,14.967,4.863,20.062,10.864h0
				L199.484,195.953z M123.825,241.442c0.958,0.067,1.908,0.1,2.859,0.1c14.099-0.69,27.317-7.065,36.634-17.671
				c6.454-7.789,15.97-12.394,26.083-12.621c8.024,1.045,15.351,5.102,20.494,11.35l15.467,39.583
				c-2.926-0.954-5.953-1.564-9.02-1.816c-15.123-0.314-29.6,6.127-39.492,17.571c-6.458,7.784-15.972,12.387-26.083,12.621
				c-8.18-1.119-15.626-5.317-20.817-11.737c-0.318-0.335-0.665-0.642-1.035-0.918l-15.091-38.617
				C117.05,240.433,120.412,241.158,123.825,241.442z M209.046,173.53c2.893,0.933,5.883,1.53,8.912,1.779
				c0.958,0.067,1.908,0.1,2.859,0.1c14.099-0.69,27.317-7.066,36.634-17.671c6.465-7.775,15.975-12.377,26.083-12.621
				c7.81,0.987,14.968,4.862,20.064,10.864l15.62,39.973c-2.84-0.901-5.773-1.478-8.742-1.72h0
				c-15.128-0.336-29.613,6.109-39.492,17.571c-6.447,7.798-15.968,12.405-26.083,12.621c-7.932-1.031-15.186-5.009-20.32-11.143
				L209.046,173.53z M250.601,279.877l-15.676-40.118c2.806,0.88,5.702,1.444,8.633,1.682c0.958,0.067,1.908,0.1,2.859,0.1
				c14.099-0.69,27.317-7.065,36.634-17.671c6.447-7.797,15.968-12.404,26.083-12.621c8.025,1.045,15.352,5.102,20.495,11.35
				l15.467,39.583c-2.926-0.954-5.953-1.564-9.02-1.816h0c-15.124-0.318-29.602,6.124-39.492,17.571
				c-6.464,7.776-15.974,12.377-26.083,12.621C262.769,289.596,255.675,285.788,250.601,279.877z M269.158,307.575
				c0.958,0.067,1.908,0.1,2.859,0.1c14.099-0.69,27.317-7.066,36.634-17.671c6.453-7.79,15.97-12.395,26.083-12.621
				c8.139,1.094,15.553,5.255,20.727,11.631l0.056,0.119l0.217,0.276l15.24,39.004c-3.011-1.009-6.133-1.651-9.298-1.913
				c-15.126-0.327-29.608,6.117-39.492,17.571c-6.459,7.783-15.972,12.386-26.083,12.621c-7.523-0.913-14.452-4.548-19.478-10.22
				l-15.819-40.483C263.524,306.816,266.325,307.348,269.158,307.575z M344.513,213.793l-15.692-40.156
				c2.797,0.874,5.683,1.435,8.604,1.673c0.958,0.067,1.908,0.1,2.859,0.1c14.099-0.69,27.317-7.065,36.634-17.671
				c6.455-7.787,15.971-12.391,26.083-12.621c7.839,0.996,15.02,4.896,20.123,10.93l15.579,39.914
				c-2.846-0.905-5.785-1.484-8.761-1.727v0c-15.127-0.331-29.61,6.113-39.492,17.571c-6.455,7.787-15.971,12.392-26.083,12.621
				C356.658,223.469,349.581,219.679,344.513,213.793z M382.093,51.2l7.682,19.68c-3.54-1.357-7.255-2.203-11.034-2.514
				c-15.125-0.324-29.606,6.119-39.492,17.571c-6.446,7.799-15.967,12.406-26.083,12.621c-6.201-0.641-12.027-3.271-16.61-7.496
				L280.981,51.2H382.093z M278.725,97.092L278.725,97.092c1.038,1.298,2.144,2.54,3.314,3.721l11.298,28.911
				c-2.753-0.848-5.591-1.392-8.463-1.623c-15.126-0.329-29.609,6.115-39.492,17.571c-6.452,7.792-15.97,12.397-26.083,12.621
				c-8.161-1.103-15.592-5.283-20.773-11.685l-12.533-32.076c2.089,0.522,4.218,0.871,6.365,1.044c0.958,0.067,1.908,0.1,2.859,0.1
				c14.099-0.69,27.317-7.066,36.634-17.671c6.457-7.785,15.971-12.389,26.083-12.621C266.1,86.504,273.533,90.69,278.725,97.092z
				 M262.654,51.2l7.696,19.694c-3.553-1.365-7.282-2.217-11.075-2.528c-15.126-0.329-29.609,6.115-39.492,17.571
				c-6.457,7.785-15.972,12.388-26.083,12.621c-6.373-0.675-12.348-3.425-17.006-7.827L161.248,51.2H262.654z M158.992,97.092
				L158.992,97.092c0.285,0.297,0.593,0.571,0.92,0.82c0.477,0.581,1.219,1.418,2.227,2.473l11.465,29.339
				c-2.753-0.848-5.591-1.392-8.463-1.623c-15.128-0.337-29.614,6.108-39.492,17.571c-6.466,7.773-15.975,12.375-26.083,12.621
				c-8.18-1.119-15.626-5.317-20.817-11.737c-0.514-0.608-1.113-1.139-1.779-1.576l-12.017-30.753
				c2.507,0.7,5.076,1.152,7.671,1.349c0.958,0.067,1.908,0.1,2.859,0.1c14.099-0.69,27.317-7.066,36.634-17.671
				c6.443-7.803,15.966-12.411,26.083-12.621C146.367,86.504,153.8,90.69,158.992,97.092z M51.2,51.2h91.721l7.696,19.694
				c-3.553-1.365-7.282-2.217-11.075-2.528c-15.126-0.326-29.607,6.117-39.492,17.571c-6.452,7.791-15.97,12.396-26.083,12.621
				c-7.241-0.853-13.94-4.262-18.892-9.613L51.2,79.03V51.2z M51.2,125.926l27.33,69.939c-2.102-0.642-4.252-1.111-6.43-1.403
				c-7.098-0.892-14.306,0.1-20.9,2.876V125.926z M51.2,216.717c5.34-3.966,11.935-5.865,18.567-5.347
				c7.545,1.382,14.359,5.385,19.24,11.302l15.45,39.537c-2.934-0.96-5.971-1.573-9.048-1.826
				c-15.124-0.319-29.603,6.123-39.492,17.571c-1.573,1.573-3.146,2.963-4.717,4.252V216.717z M51.2,302.646
				c6.209-3.323,11.869-7.581,16.783-12.625c6.463-7.778,15.974-12.38,26.083-12.621c8.18,1.12,15.625,5.318,20.817,11.737
				c0.042,0.054,0.104,0.077,0.146,0.129l15.308,39.173c-3.021-1.015-6.153-1.66-9.329-1.923
				c-15.126-0.328-29.608,6.115-39.492,17.571c-10.388,10.38-20.556,14.324-30.317,11.897V302.646z M51.2,460.8v-29.139
				L62.591,460.8H51.2z M62.4,413.422l-11.2-28.651v-11.406c1.866,0.271,3.748,0.41,5.633,0.414
				c14.144-0.604,27.424-6.973,36.75-17.625c6.447-7.797,15.968-12.404,26.083-12.621c8.18,1.12,15.625,5.318,20.817,11.738
				c0.146,0.192,0.36,0.283,0.519,0.459l15.202,38.905c-3.09-1.059-6.299-1.731-9.554-2.002
				c-15.125-0.323-29.605,6.12-39.492,17.571c-6.467,7.772-15.975,12.373-26.083,12.621C73.934,421.997,67.318,418.666,62.4,413.422
				z M80.921,460.8l-8.699-22.253c2.457,0.671,4.972,1.104,7.511,1.294c0.958,0.067,1.908,0.1,2.859,0.1
				c14.099-0.69,27.317-7.065,36.634-17.671c6.452-7.792,15.97-12.397,26.083-12.621c8.166,1.12,15.6,5.306,20.792,11.708
				c0.262,0.27,0.544,0.521,0.842,0.751L182.06,460.8H80.921z M181.15,411.088L181.15,411.088c-0.081-0.107-0.204-0.154-0.29-0.257
				l-15.273-39.083c3.054,1.036,6.224,1.694,9.438,1.961c0.958,0.067,1.908,0.1,2.859,0.1c14.099-0.69,27.317-7.066,36.634-17.671
				c6.441-7.806,15.965-12.414,26.083-12.621c8.166,1.12,15.6,5.306,20.792,11.708c0.14,0.186,0.348,0.274,0.499,0.445
				l15.228,38.973c-3.097-1.063-6.314-1.738-9.577-2.009c-15.124-0.319-29.603,6.123-39.492,17.571
				c-6.471,7.767-15.977,12.366-26.083,12.621C193.787,421.706,186.341,417.508,181.15,411.088z M200.388,460.8l-8.919-22.822
				c2.968,0.981,6.041,1.607,9.156,1.864c0.958,0.067,1.908,0.1,2.859,0.1c14.099-0.69,27.317-7.065,36.634-17.671
				c6.465-7.775,15.975-12.376,26.083-12.621c8.166,1.12,15.6,5.306,20.792,11.708c0.27,0.279,0.561,0.539,0.869,0.776
				l15.108,38.666H200.388z M302.636,413.044l-15.953-40.825c2.633,0.775,5.339,1.274,8.075,1.49c0.958,0.067,1.908,0.1,2.859,0.1
				c14.099-0.69,27.317-7.066,36.634-17.671c6.454-7.789,15.971-12.393,26.083-12.621c8.166,1.12,15.6,5.306,20.792,11.708
				l0.096,0.085c0.06,0.08,0.073,0.179,0.137,0.256l0.41,0.471l15.084,38.605c-3.097-1.063-6.314-1.738-9.577-2.009
				c-15.125-0.321-29.604,6.121-39.492,17.571c-6.457,7.785-15.972,12.389-26.083,12.621
				C314.38,421.95,307.616,418.48,302.636,413.044z M380.565,306.06c3.033,0.907,6.165,1.443,9.327,1.598
				c0.517,0.021,1.025,0.029,1.542,0.029c14.107-0.686,27.333-7.06,36.658-17.667c11.24-11.24,22.221-14.978,32.708-11.183v51.505
				c-7.165,3.393-13.66,8.049-19.175,13.744c-6.285,7.624-15.504,12.232-25.375,12.683c-7.576-0.674-14.617-4.186-19.712-9.833v0
				L380.565,306.06z M321.296,460.8l-8.734-22.352c2.546,0.723,5.158,1.19,7.797,1.393c0.958,0.067,1.908,0.1,2.859,0.1
				c14.099-0.69,27.317-7.066,36.634-17.671c6.461-7.78,15.973-12.383,26.083-12.621c8.165,1.119,15.598,5.305,20.79,11.706
				c0.032,0.043,0.035,0.097,0.069,0.14c0,0,0.427,0.521,1.03,1.221l14.879,38.083H321.296z M460.8,460.8h-19.771l-8.704-22.274
				c3.358,0.892,6.817,1.348,10.292,1.357c6.297-0.061,12.504-1.504,18.183-4.226V460.8z M460.8,415.821
				c-5.296,4.936-12.383,7.485-19.609,7.053s-13.96-3.806-18.63-9.337l-16.098-41.202c3.007,0.861,6.105,1.362,9.229,1.493
				c0.442,0.012,0.875,0.021,1.317,0.021c14.117-0.695,27.35-7.077,36.683-17.692c2.206-2.199,4.583-4.219,7.108-6.043V415.821z
				 M460.8,261.139c-11.704-2.441-27.54-0.426-44.775,16.816c-6.288,7.675-15.568,12.281-25.483,12.65
				c-7.729-0.728-14.887-4.383-20.008-10.218l-15.833-40.52c2.711,0.822,5.502,1.35,8.325,1.576c0.958,0.067,1.908,0.1,2.859,0.1
				c14.099-0.69,27.317-7.065,36.634-17.671c6.458-7.784,15.972-12.388,26.083-12.621c8.03,1.045,15.361,5.108,20.504,11.362
				l11.695,29.964V261.139z M460.8,205.636l-12.55-32.149c3.854,1.29,7.886,1.969,11.95,2.013c0.194,0,0.404-0.04,0.6-0.043V205.636
				z M460.8,158.357c-8.932-0.458-17.234-4.742-22.783-11.757c-0.154-0.206-0.383-0.305-0.552-0.493l-12.411-31.793
				c1.02,0.255,1.933,0.65,3.004,0.831c2.145,0.362,4.316,0.543,6.492,0.542c9.448-0.182,18.611-3.263,26.25-8.826V158.357z
				 M460.8,84.542c-0.51,0.489-0.992,0.897-1.508,1.413c-6.84,8.554-17.462,13.18-28.383,12.362
				c-5.758-1.181-11.054-3.992-15.259-8.098L400.419,51.2H460.8V84.542z"/>
		</g>
	</g>
</g>
<g>
</g>
<g>
</g>
<g>
</g>
<g>
</g>
<g>
</g>
<g>
</g>
<g>
</g>
<g>
</g>
<g>
</g>
<g>
</g>
<g>
</g>
<g>
</g>
<g>
</g>
<g>
</g>
<g>
</g>
</svg>
