<?xml version="1.0" encoding="iso-8859-1"?>
<!-- Generator: Adobe Illustrator 19.0.0, SVG Export Plug-In . SVG Version: 6.00 Build 0)  -->
<svg version="1.1" id="Capa_1" xmlns="http://www.w3.org/2000/svg" xmlns:xlink="http://www.w3.org/1999/xlink" x="0px" y="0px"
	 viewBox="0 0 511.864 511.864" style="enable-background:new 0 0 511.864 511.864;" xml:space="preserve">
<g>
	<g>
		<path d="M460.732,238.797c-23.553-0.028-42.639-19.114-42.667-42.667V33.997c0-3.37-1.983-6.425-5.063-7.796L361.782,3.41
			c-6-2.607-12.543-3.723-19.068-3.251c-1.768-0.348-3.602-0.119-5.231,0.652c-7.229,1.368-14.019,4.467-19.789,9.033
			c-4.224,3.135-8.864,5.665-13.787,7.517c-15.365,5.601-31.623,8.347-47.975,8.104c-16.364,0.284-32.639-2.468-48-8.117
			c-4.89-1.837-9.501-4.346-13.7-7.454c-5.78-4.574-12.581-7.683-19.821-9.062c-1.65-0.791-3.513-1.024-5.307-0.664
			c-6.517-0.465-13.049,0.65-19.042,3.251l-51.2,22.783c-3.079,1.371-5.063,4.426-5.063,7.796V196.13
			c-0.028,23.553-19.114,42.639-42.667,42.667c-14.111,0.066-25.534,11.489-25.6,25.6v221.867c0.015,14.132,11.468,25.585,25.6,25.6
			h409.6c14.132-0.015,25.585-11.468,25.6-25.6V264.397C486.266,250.286,474.843,238.863,460.732,238.797z M42.599,264.397
			c-0.007-2.3,0.939-4.501,2.612-6.079c1.557-1.59,3.695-2.476,5.921-2.454c32.974-0.037,59.696-26.759,59.733-59.733V39.539
			l17.067-7.595V298.53c-0.006,4.71-3.823,8.527-8.533,8.533h-76.8V264.397z M247.399,494.797H51.132
			c-4.71-0.006-8.527-3.823-8.533-8.533v-17.067h204.8V494.797z M247.399,452.13h-204.8v-25.6h204.8V452.13z M247.399,409.464
			h-204.8v-42.667h204.8V409.464z M247.399,349.73h-204.8v-25.6h76.8c14.132-0.015,25.585-11.468,25.6-25.6V24.35l11.983-5.332
			c2.462-1.061,5.089-1.685,7.765-1.845l5.851,15.798v265.56c0.015,14.132,11.468,25.585,25.6,25.6h51.2V349.73z M247.399,307.064
			h-51.2c-4.71-0.006-8.527-3.823-8.533-8.533V79.05l59.733,161.277V307.064z M185.714,24.636c4.933,3.5,10.277,6.379,15.914,8.573
			c17.369,6.44,35.782,9.6,54.304,9.321c18.493,0.238,36.874-2.911,54.233-9.292c5.663-2.204,11.033-5.097,15.988-8.614
			l-70.221,189.598L185.714,24.636z M324.199,79.05V298.53c-0.006,4.71-3.823,8.527-8.533,8.533h-51.2v-66.737L324.199,79.05z
			 M469.265,486.264c-0.006,4.71-3.823,8.527-8.533,8.533H264.465v-25.6h204.8V486.264z M469.265,452.13h-204.8v-25.6h204.8V452.13z
			 M469.265,409.464h-204.8v-42.667h204.8V409.464z M469.265,349.73h-204.8v-25.6h51.2c14.132-0.015,25.585-11.468,25.6-25.6V32.971
			l5.856-15.811c2.668,0.163,5.287,0.789,7.74,1.851l12.004,5.341v274.18c0.015,14.132,11.468,25.585,25.6,25.6h76.8V349.73z
			 M469.265,307.064h-76.8c-4.71-0.006-8.527-3.823-8.533-8.533V31.945l17.067,7.594V196.13
			c0.037,32.974,26.759,59.696,59.733,59.733c2.3-0.007,4.501,0.939,6.079,2.612c1.59,1.557,2.476,3.695,2.454,5.921V307.064z"/>
	</g>
</g>
<g>
</g>
<g>
</g>
<g>
</g>
<g>
</g>
<g>
</g>
<g>
</g>
<g>
</g>
<g>
</g>
<g>
</g>
<g>
</g>
<g>
</g>
<g>
</g>
<g>
</g>
<g>
</g>
<g>
</g>
</svg>
