<?xml version="1.0" encoding="iso-8859-1"?>
<!-- Generator: Adobe Illustrator 19.0.0, SVG Export Plug-In . SVG Version: 6.00 Build 0)  -->
<svg version="1.1" id="Capa_1" xmlns="http://www.w3.org/2000/svg" xmlns:xlink="http://www.w3.org/1999/xlink" x="0px" y="0px"
	 viewBox="0 0 512 512" style="enable-background:new 0 0 512 512;" xml:space="preserve">
<g>
	<g>
		<g>
			<path d="M510.383,310.737L288.517,3.537C286.914,1.315,284.34-0.001,281.6,0h-51.2c-2.74-0.001-5.314,1.315-6.917,3.537
				L1.617,310.737C0.566,312.191,0,313.94,0,315.733v187.733c-0.001,2.263,0.898,4.434,2.499,6.035c1.6,1.6,3.771,2.499,6.035,2.499
				h494.933c2.263,0.001,4.434-0.898,6.035-2.499c1.6-1.6,2.499-3.771,2.499-6.035V315.733
				C512,313.94,511.434,312.191,510.383,310.737z M17.067,358.4h17.067v102.4H17.067V358.4z M494.933,494.933H17.067v-17.067
				h477.867V494.933z M223.321,460.8h-34.158L51.2,370.843V358.4h15.135L223.321,460.8z M97.563,358.4H230.4v86.65L97.563,358.4z
				 M157.915,460.8H51.2v-69.582L157.915,460.8z M247.467,460.8V358.4h17.067v102.4H247.467z M322.838,460.8h-34.158l156.985-102.4
				H460.8v12.443L322.838,460.8z M460.8,391.218V460.8H354.085L460.8,391.218z M281.6,445.05V358.4h132.837L281.6,445.05z
				 M494.933,460.8h-17.067V358.4h17.067V460.8z M494.933,341.333H17.067v-22.842l217.7-301.425h42.467l217.7,301.425V341.333z"/>
			<path d="M150.5,178.477c-0.17-0.143-0.258-0.344-0.442-0.477c-0.265-0.14-0.538-0.264-0.818-0.372
				c-0.999-0.601-2.123-0.965-3.284-1.065c-0.293-0.077-0.59-0.137-0.89-0.18c-0.229,0-0.42,0.112-0.644,0.13
				c-2.233,0.226-4.299,1.282-5.79,2.959c-0.146,0.172-0.35,0.262-0.483,0.448L43.683,310.737c-1.878,2.597-2.141,6.028-0.682,8.881
				c1.459,2.854,4.394,4.649,7.599,4.648h94.467c2.263,0.001,4.434-0.898,6.035-2.499c1.6-1.6,2.499-3.771,2.499-6.035V184.917
				c0-0.234-0.115-0.43-0.133-0.659C153.238,182.026,152.179,179.963,150.5,178.477z M136.533,307.2H67.292l69.242-95.891V307.2z"/>
			<path d="M273.067,46.42c-0.295,0.043-0.588,0.102-0.877,0.177c-1.159,0.097-2.281,0.458-3.279,1.055
				c-0.288,0.112-0.57,0.24-0.844,0.384c-0.188,0.136-0.279,0.341-0.452,0.49c-1.67,1.487-2.722,3.547-2.949,5.772
				c-0.018,0.228-0.132,0.423-0.132,0.655v260.78c-0.001,2.263,0.898,4.434,2.499,6.035c1.601,1.6,3.771,2.499,6.035,2.499H332.8
				c2.263,0.001,4.434-0.898,6.035-2.499c1.6-1.6,2.499-3.771,2.499-6.035V137.642c-0.043-0.306-0.104-0.609-0.183-0.908
				c-0.1-1.154-0.462-2.269-1.058-3.262c-0.109-0.282-0.234-0.558-0.375-0.826l-59.733-82.688c-0.133-0.186-0.337-0.276-0.483-0.448
				c-0.383-0.438-0.811-0.834-1.276-1.182c-1.315-1.001-2.882-1.617-4.526-1.78C273.479,46.531,273.291,46.42,273.067,46.42z
				 M281.6,81.337l42.667,59.063v166.8H281.6V81.337z"/>
			<path d="M246.992,52.599c-0.479-1.57-1.381-2.979-2.606-4.072c-0.173-0.148-0.265-0.354-0.452-0.49
				c-0.272-0.143-0.552-0.27-0.839-0.381c-1-0.598-2.123-0.96-3.283-1.059c-0.289-0.075-0.582-0.134-0.878-0.177
				c-0.225,0-0.412,0.11-0.633,0.128c-2.236,0.222-4.306,1.279-5.798,2.959c-0.146,0.173-0.351,0.263-0.485,0.451l-59.733,82.688
				c-0.141,0.269-0.267,0.545-0.376,0.828c-0.597,0.992-0.958,2.108-1.057,3.261c-0.079,0.298-0.14,0.601-0.183,0.906v178.092
				c-0.001,2.263,0.898,4.434,2.499,6.035c1.6,1.6,3.771,2.499,6.035,2.499h59.733c2.263,0.001,4.434-0.898,6.035-2.499
				c1.6-1.6,2.499-3.771,2.499-6.035V54.954c0-0.233-0.115-0.428-0.132-0.656C247.28,53.722,247.165,53.152,246.992,52.599z
				 M230.4,307.2h-42.667V140.399L230.4,81.337V307.2z"/>
			<path d="M366.933,324.267H461.4c3.205,0.001,6.14-1.794,7.599-4.648c1.459-2.854,1.195-6.284-0.682-8.881L373.85,179.921
				c-0.133-0.185-0.337-0.274-0.481-0.445c-1.492-1.678-3.559-2.735-5.793-2.963c-0.224-0.018-0.415-0.13-0.643-0.13
				c-0.299,0.043-0.595,0.103-0.887,0.179c-1.161,0.098-2.283,0.461-3.281,1.062c-0.281,0.109-0.556,0.235-0.823,0.375
				c-0.183,0.132-0.271,0.333-0.441,0.477c-1.679,1.486-2.739,3.55-2.968,5.781c-0.019,0.229-0.133,0.426-0.133,0.659v130.817
				c-0.001,2.263,0.898,4.434,2.499,6.035C362.499,323.368,364.67,324.267,366.933,324.267z M375.467,211.309l69.242,95.891h-69.242
				V211.309z"/>
		</g>
	</g>
</g>
<g>
</g>
<g>
</g>
<g>
</g>
<g>
</g>
<g>
</g>
<g>
</g>
<g>
</g>
<g>
</g>
<g>
</g>
<g>
</g>
<g>
</g>
<g>
</g>
<g>
</g>
<g>
</g>
<g>
</g>
</svg>
