<?xml version="1.0" encoding="iso-8859-1"?>
<!-- Generator: Adobe Illustrator 19.0.0, SVG Export Plug-In . SVG Version: 6.00 Build 0)  -->
<svg version="1.1" id="Capa_1" xmlns="http://www.w3.org/2000/svg" xmlns:xlink="http://www.w3.org/1999/xlink" x="0px" y="0px"
	 viewBox="0 0 512 512" style="enable-background:new 0 0 512 512;" xml:space="preserve">
<g>
	<g>
		<path d="M506.727,0.658c-1.033-0.431-2.141-0.654-3.26-0.658h-76.8c-2.263,0-4.433,0.899-6.033,2.5L290.133,133V97.4
			l31.628-31.628c1.594-1.607,2.493-3.776,2.506-6.039v-51.2c-0.017-4.706-3.828-8.516-8.533-8.533h-76.8
			c-2.263,0-4.434,0.899-6.033,2.5L2.506,232.894c-1.593,1.608-2.493,3.776-2.506,6.039v264.533
			c-0.001,2.263,0.898,4.434,2.499,6.035c1.6,1.6,3.771,2.499,6.035,2.499h264.533c2.264-0.012,4.433-0.913,6.041-2.507L509.5,279.1
			c1.6-1.6,2.5-3.77,2.5-6.033V8.533C511.987,5.086,509.909,1.983,506.727,0.658z M307.2,56.2l-31.628,31.628l-0.013,0.013
			L93.867,269.533v-27.067L307.2,29.133V56.2z M190.232,296.168c1.6,1.6,3.771,2.499,6.035,2.499h5l-133,133v-133h17.067
			c2.264-0.012,4.433-0.913,6.041-2.507l181.693-181.693v35.6l-82.828,82.828c-1.593,1.608-2.493,3.776-2.506,6.039v51.2
			C187.733,292.397,188.632,294.568,190.232,296.168z M213.333,310.733v133h-133L213.333,310.733z M242.467,17.067h52.667
			L81.8,230.4H29.133L242.467,17.067z M264.533,494.933H17.067V247.467H76.8V281.6H59.733c-2.263-0.001-4.434,0.898-6.035,2.499
			c-1.6,1.6-2.499,3.771-2.499,6.035v162.133c0.018,4.705,3.828,8.515,8.533,8.533h162.133c2.263,0.001,4.434-0.898,6.035-2.499
			c1.6-1.6,2.499-3.771,2.499-6.035V290.133c-0.017-4.706-3.828-8.516-8.533-8.533H204.8v-34.133h59.733V494.933z M269.533,230.4
			h-52.667l70.761-70.761l0.013-0.013L430.2,17.067h52.667L269.533,230.4z M494.933,269.533L281.6,482.867v-240.4L494.933,29.133
			V269.533z"/>
	</g>
</g>
<g>
</g>
<g>
</g>
<g>
</g>
<g>
</g>
<g>
</g>
<g>
</g>
<g>
</g>
<g>
</g>
<g>
</g>
<g>
</g>
<g>
</g>
<g>
</g>
<g>
</g>
<g>
</g>
<g>
</g>
</svg>
