<?xml version="1.0" encoding="iso-8859-1"?>
<!-- Generator: Adobe Illustrator 19.0.0, SVG Export Plug-In . SVG Version: 6.00 Build 0)  -->
<svg version="1.1" id="Capa_1" xmlns="http://www.w3.org/2000/svg" xmlns:xlink="http://www.w3.org/1999/xlink" x="0px" y="0px"
	 viewBox="0 0 512.066 512.066" style="enable-background:new 0 0 512.066 512.066;" xml:space="preserve">
<g transform="translate(-1)">
	<g>
		<g>
			<path d="M513.033,45.545c0.726-14.903-10.703-27.603-25.6-28.446H374.927c-3.593-10.199-13.215-17.033-24.028-17.067H163.166
				c-10.813,0.033-20.435,6.868-24.028,17.067H26.633c-14.897,0.843-26.326,13.543-25.6,28.446v79.642
				c-0.726,14.903,10.703,27.603,25.6,28.446h112.506c3.592,10.199,13.214,17.033,24.027,17.067v153.6
				c0.015,14.132,11.468,25.585,25.6,25.6v136.533c0.015,14.132,11.468,25.585,25.6,25.6h85.333
				c14.132-0.015,25.585-11.468,25.6-25.6V349.899c14.132-0.015,25.585-11.468,25.6-25.6v-153.6
				c10.813-0.033,20.435-6.868,24.028-17.067h112.506c14.897-0.843,26.326-13.543,25.6-28.446V45.545z M137.566,136.566H26.633
				c-4.625,0-8.533-5.212-8.533-11.379V45.545c0-6.167,3.908-11.379,8.533-11.379h110.933V136.566z M308.233,486.433
				c-0.006,4.71-3.823,8.527-8.533,8.533h-85.333c-4.71-0.006-8.527-3.823-8.533-8.533V349.899h102.4V486.433z M333.833,324.299
				c-0.006,4.71-3.823,8.527-8.533,8.533H188.766c-4.71-0.006-8.527-3.823-8.533-8.533V166.284l31.489-25.036
				c11.311,13.272,27.873,20.918,45.311,20.918c17.438,0,34-7.646,45.311-20.918l31.489,25.036V324.299z M214.366,102.433
				c0-23.564,19.102-42.667,42.667-42.667s42.667,19.103,42.667,42.667c-0.028,23.553-19.114,42.639-42.667,42.667
				C233.469,145.099,214.366,125.997,214.366,102.433z M359.433,145.099c-0.006,4.71-3.823,8.527-8.533,8.533h-5.553l-33.808-26.88
				c11.236-25.059,3.938-54.55-17.689-71.477c-21.626-16.927-52.007-16.927-73.633,0c-21.626,16.927-28.924,46.418-17.689,71.477
				l-33.808,26.88h-5.553c-4.71-0.006-8.527-3.823-8.533-8.533V25.633c0.006-4.71,3.823-8.527,8.533-8.533h187.733
				c4.71,0.006,8.527,3.823,8.533,8.533V145.099z M495.966,125.187c0,6.167-3.908,11.379-8.533,11.379H376.499v-102.4h110.933
				c4.625,0,8.533,5.212,8.533,11.379V125.187z"/>
			<path d="M282.633,102.433c-0.015-14.132-11.468-25.585-25.6-25.6c-14.139,0-25.6,11.462-25.6,25.6s11.461,25.6,25.6,25.6
				C271.171,128.033,282.633,116.571,282.633,102.433z M248.499,102.433c0-4.713,3.82-8.533,8.533-8.533
				c4.713,0,8.533,3.82,8.533,8.533c-0.006,4.71-3.823,8.527-8.533,8.533C252.32,110.966,248.499,107.146,248.499,102.433z"/>
			<path d="M257.033,196.299c-32.99,0-59.733,26.744-59.733,59.733s26.744,59.733,59.733,59.733s59.733-26.744,59.733-59.733
				C316.729,223.058,290.007,196.336,257.033,196.299z M257.033,298.699c-23.564,0-42.667-19.103-42.667-42.667
				s19.102-42.667,42.667-42.667s42.667,19.102,42.667,42.667C299.672,279.585,280.585,298.672,257.033,298.699z"/>
			<path d="M257.033,230.433c-14.139,0-25.6,11.461-25.6,25.6c0,14.138,11.461,25.6,25.6,25.6c14.138,0,25.6-11.462,25.6-25.6
				C282.617,241.901,271.165,230.448,257.033,230.433z M257.033,264.566c-4.713,0-8.533-3.82-8.533-8.533
				c0-4.713,3.82-8.533,8.533-8.533c4.713,0,8.533,3.82,8.533,8.533C265.56,260.743,261.743,264.56,257.033,264.566z"/>
		</g>
	</g>
</g>
<g>
</g>
<g>
</g>
<g>
</g>
<g>
</g>
<g>
</g>
<g>
</g>
<g>
</g>
<g>
</g>
<g>
</g>
<g>
</g>
<g>
</g>
<g>
</g>
<g>
</g>
<g>
</g>
<g>
</g>
</svg>
