<?xml version="1.0" encoding="iso-8859-1"?>
<!-- Generator: Adobe Illustrator 19.0.0, SVG Export Plug-In . SVG Version: 6.00 Build 0)  -->
<svg version="1.1" id="Capa_1" xmlns="http://www.w3.org/2000/svg" xmlns:xlink="http://www.w3.org/1999/xlink" x="0px" y="0px"
	 viewBox="0 0 512.023 512.023" style="enable-background:new 0 0 512.023 512.023;" xml:space="preserve">
<g transform="translate(-1 -1)">
	<g>
		<g>
			<path d="M436.212,179.606v-7.921h51.2c14.132-0.015,25.585-11.468,25.6-25.6c-0.066-14.111-11.489-25.534-25.6-25.6h-52.929
				c-3.335-9.361-11.759-15.968-21.646-16.975c-7.498-0.689-14.911,2.012-20.208,7.362c-2.735,2.694-4.81,5.984-6.063,9.613h-27.154
				c-0.011-9.421-7.646-17.056-17.067-17.067H171.678c-9.421,0.011-17.056,7.646-17.067,17.067h-27.143
				c-1.212-3.566-3.234-6.802-5.907-9.454c-5.319-5.442-12.804-8.204-20.383-7.521c-9.884,1.009-18.305,7.616-21.638,16.975H26.612
				c-6.756-0.05-13.244,2.639-17.983,7.454c-4.905,4.758-7.656,11.312-7.617,18.146c0.015,14.132,11.468,25.585,25.6,25.6h51.053
				l-0.028,7.933c-53.748,20.65-85.122,76.699-74.622,133.312c10.5,56.613,59.885,97.684,117.464,97.688h273.067
				c57.609,0.012,107.017-41.098,117.48-97.749C521.488,256.22,490.024,200.173,436.212,179.606z M436.212,137.552h51.2
				c2.301-0.005,4.502,0.941,6.083,2.612c1.586,1.56,2.47,3.697,2.45,5.921c-0.005,4.711-3.822,8.529-8.533,8.533h-51.2V137.552z
				 M359.412,137.552h25.6v17.067h-25.6V137.552z M129.012,137.552h25.6v17.067h-25.6V137.552z M26.612,154.619
				c-4.711-0.005-8.529-3.822-8.533-8.533c-0.005-2.298,0.938-4.496,2.608-6.075c1.559-1.591,3.698-2.479,5.925-2.458h51.173
				l-0.06,17.067H26.612z M111.945,393.198c-53.029-4.502-93.8-48.826-93.867-102.046c0.146-42.335,26.197-80.264,65.658-95.596
				c6.683-2.465,11.127-8.827,11.142-15.95v-49.629c-0.171-4.653,3.147-8.706,7.742-9.458c0.267-0.025,0.525-0.033,0.783-0.033
				c2.304-0.008,4.509,0.938,6.092,2.612c1.586,1.56,2.47,3.697,2.45,5.921v76.8c0,0.142,0,0.283,0.009,0.425
				c-43.607,4.379-76.807,41.078-76.809,84.904s33.194,80.529,76.8,84.912V393.198z M154.612,393.552h-25.6v-17.067h25.6V393.552z
				 M163.145,359.419h-42.667c-36.404-0.001-66.403-28.566-68.185-64.926s25.28-67.722,61.51-71.282
				c8.682-0.864,15.274-8.201,15.208-16.925v-34.6h25.6v34.558c-0.064,8.727,6.525,16.067,15.208,16.942
				c36.208,3.57,63.26,34.901,61.514,71.243c-1.746,36.342-31.678,64.934-68.062,65.016L163.145,359.419z M342.345,393.552h-93.867
				h-76.8v-17.471c43.606-4.389,76.801-41.092,76.801-84.919s-33.194-80.53-76.801-84.919v-85.758h170.667l0.017,8.448l-0.017,0.085
				v34.133c0,0.155,0.079,0.283,0.087,0.436l0.087,42.614c-43.65,4.309-76.93,40.998-76.975,84.86
				c-0.045,43.862,33.159,80.62,76.8,85.019V393.552z M385.012,393.552h-25.6v-17.067h25.6V393.552z M350.878,359.419l-0.127,0.026
				c-36.383-0.083-66.314-28.675-68.06-65.016c-1.746-36.341,25.304-67.671,61.512-71.243c8.683-0.874,15.273-8.215,15.208-16.942
				v-34.558h25.6v34.6c-0.065,8.727,6.532,16.065,15.217,16.925c36.227,3.565,63.285,34.927,61.501,71.286
				s-31.782,64.922-68.184,64.923H350.878z M402.078,393.198V376.06c43.602-4.373,76.8-41.067,76.8-84.888
				c0-43.82-33.198-80.515-76.8-84.887v-77.267c-0.005-2.301,0.942-4.501,2.617-6.079c1.742-1.794,4.213-2.687,6.7-2.421
				c4.598,0.748,7.92,4.803,7.75,9.458v49.629c0.014,7.122,4.458,13.484,11.142,15.946c39.461,15.335,65.512,53.264,65.658,95.6
				C495.878,344.372,455.108,388.695,402.078,393.198z"/>
			<path d="M325.278,163.152c-0.015-14.132-11.468-25.585-25.6-25.6h-85.333c-14.139,0-25.6,11.461-25.6,25.6
				c0,14.139,11.461,25.6,25.6,25.6h85.333C313.81,188.737,325.263,177.284,325.278,163.152z M205.812,163.152
				c0.005-4.711,3.823-8.529,8.533-8.533h85.333c4.713,0,8.533,3.82,8.533,8.533c0,4.713-3.82,8.533-8.533,8.533h-85.333
				C209.634,171.681,205.816,167.863,205.812,163.152z"/>
		</g>
	</g>
</g>
<g>
</g>
<g>
</g>
<g>
</g>
<g>
</g>
<g>
</g>
<g>
</g>
<g>
</g>
<g>
</g>
<g>
</g>
<g>
</g>
<g>
</g>
<g>
</g>
<g>
</g>
<g>
</g>
<g>
</g>
</svg>
