<?xml version="1.0" encoding="iso-8859-1"?>
<!-- Generator: Adobe Illustrator 19.0.0, SVG Export Plug-In . SVG Version: 6.00 Build 0)  -->
<svg version="1.1" id="Capa_1" xmlns="http://www.w3.org/2000/svg" xmlns:xlink="http://www.w3.org/1999/xlink" x="0px" y="0px"
	 viewBox="0 0 512 512" style="enable-background:new 0 0 512 512;" xml:space="preserve">
<g>
	<g>
		<g>
			<path d="M460.8,443.733h-36.367L293.45,18.133C290.157,7.37,280.227,0.014,268.971,0h-25.941
				c-11.229,0.006-21.144,7.328-24.454,18.058L87.567,443.733H51.2c-14.132,0.015-25.585,11.468-25.6,25.6v34.133
				c0,2.263,0.899,4.434,2.499,6.034c1.6,1.6,3.771,2.499,6.034,2.499h443.733c4.713,0,8.533-3.82,8.533-8.533v-34.133
				C486.385,455.201,474.932,443.749,460.8,443.733z M234.908,23c1.111-3.546,4.405-5.952,8.121-5.933h25.941
				c3.743-0.011,7.051,2.429,8.146,6.008l19.161,62.258h-80.553L234.908,23z M210.472,102.4h91.058l23.637,76.8H186.835
				L210.472,102.4z M181.583,196.267h148.835l21.01,68.267H160.572L181.583,196.267z M155.32,281.6h201.361l23.636,76.8H131.683
				L155.32,281.6z M112.803,494.933H42.667v-25.6c0.006-4.71,3.823-8.527,8.533-8.533h70.136L112.803,494.933z M130.396,494.933
				l11.183-44.733c0.944-3.803,4.361-6.472,8.279-6.467h212.284c3.919-0.005,7.335,2.663,8.279,6.467l11.183,44.733H130.396z
				 M362.142,426.667H149.858c-10.824,0.009-20.463,6.851-24.042,17.067h-20.395l21.01-68.267h259.138l21.01,68.267h-20.394
				C382.606,433.517,372.966,426.675,362.142,426.667z M469.333,494.933h-70.137l-8.533-34.133H460.8
				c4.71,0.006,8.527,3.823,8.533,8.533V494.933z"/>
			<path d="M227.925,147.542c-3.397-3.221-8.72-3.221-12.117,0c-1.559,1.635-2.443,3.799-2.475,6.058
				c0.012,1.115,0.243,2.216,0.679,3.242c0.78,2.141,2.467,3.828,4.608,4.608c1.027,0.438,2.13,0.67,3.246,0.684
				c2.259-0.034,4.422-0.918,6.059-2.475c0.77-0.817,1.378-1.773,1.792-2.817c0.911-2.067,0.911-4.421,0-6.487
				C229.283,149.323,228.677,148.372,227.925,147.542z"/>
			<path d="M244.992,121.941c-3.397-3.221-8.72-3.221-12.117,0c-1.56,1.635-2.444,3.799-2.475,6.059
				c0.012,1.115,0.243,2.216,0.679,3.242c0.414,1.045,1.023,2.001,1.796,2.817c0.815,0.771,1.77,1.379,2.813,1.792
				c1.027,0.438,2.13,0.67,3.246,0.683c2.259-0.034,4.422-0.918,6.059-2.475c0.787-0.803,1.398-1.763,1.792-2.817
				c0.437-1.026,0.669-2.127,0.683-3.242C247.433,125.741,246.55,123.578,244.992,121.941z"/>
			<path d="M279.125,121.941c-0.83-0.754-1.782-1.362-2.817-1.796c-3.187-1.251-6.809-0.552-9.3,1.796
				c-1.559,1.635-2.443,3.799-2.475,6.059c0.012,1.115,0.243,2.216,0.679,3.242c0.434,1.034,1.041,1.987,1.795,2.817
				c1.636,1.558,3.8,2.441,6.059,2.475c1.115-0.014,2.216-0.246,3.242-0.683c1.033-0.434,1.986-1.04,2.817-1.792
				C282.425,130.693,282.425,125.306,279.125,121.941z"/>
			<path d="M262.058,147.542c-3.347-3.339-8.766-3.335-12.109,0.008s-3.346,8.762-0.007,12.109c0.801,0.788,1.76,1.399,2.813,1.792
				c1.027,0.438,2.13,0.67,3.246,0.683c2.27,0.022,4.453-0.87,6.058-2.475c1.605-1.605,2.497-3.788,2.475-6.058
				c-0.013-1.116-0.245-2.219-0.683-3.246C263.457,149.301,262.846,148.343,262.058,147.542z"/>
			<path d="M296.191,147.542c-0.405-0.367-0.833-0.709-1.279-1.025c-0.476-0.324-0.993-0.583-1.538-0.771
				c-0.484-0.246-1.002-0.417-1.538-0.508c-2.807-0.519-5.693,0.338-7.763,2.304c-0.773,0.814-1.383,1.769-1.796,2.813
				c-0.436,1.027-0.667,2.13-0.679,3.246c0.032,2.259,0.916,4.423,2.475,6.059c1.636,1.558,3.8,2.441,6.059,2.475
				c0.571-0.02,1.14-0.077,1.704-0.171c0.535-0.095,1.053-0.268,1.538-0.512c0.544-0.188,1.062-0.447,1.538-0.771
				c0.447-0.314,0.874-0.655,1.279-1.021c1.557-1.637,2.44-3.8,2.475-6.059c0.03-1.121-0.205-2.232-0.683-3.246
				C297.57,149.311,296.962,148.357,296.191,147.542z"/>
			<path d="M173.909,324.946c-2.076-0.923-4.44-0.952-6.538-0.08c-2.098,0.871-3.746,2.566-4.558,4.688
				c-0.437,1.027-0.668,2.13-0.68,3.246c0.032,2.259,0.916,4.423,2.475,6.059c1.636,1.558,3.8,2.441,6.059,2.475
				c1.115-0.014,2.216-0.246,3.242-0.683c1.054-0.394,2.013-1.005,2.817-1.792c1.557-1.637,2.441-3.799,2.475-6.058
				c-0.013-1.116-0.245-2.219-0.683-3.246C177.736,327.413,176.05,325.726,173.909,324.946z"/>
			<path d="M196.096,305.492c-0.095-0.535-0.268-1.053-0.513-1.538c-0.188-0.543-0.448-1.058-0.771-1.533
				c-0.338-0.429-0.679-0.854-1.021-1.279c-0.429-0.341-0.854-0.683-1.279-1.025c-0.476-0.324-0.993-0.583-1.538-0.771
				c-0.484-0.246-1.002-0.417-1.538-0.508c-2.809-0.562-5.715,0.301-7.763,2.304c-0.369,0.404-0.711,0.831-1.025,1.279
				c-0.323,0.475-0.582,0.991-0.771,1.533c-0.246,0.484-0.417,1.003-0.508,1.538c-0.1,0.564-0.158,1.135-0.171,1.708
				c0.012,1.115,0.243,2.216,0.679,3.242c0.414,1.045,1.023,2.001,1.796,2.817c0.801,0.788,1.76,1.399,2.813,1.792
				c1.027,0.438,2.13,0.67,3.246,0.683c2.27,0.022,4.453-0.87,6.058-2.475c1.605-1.605,2.497-3.789,2.475-6.058
				C196.251,306.627,196.194,306.056,196.096,305.492z"/>
			<path d="M229.717,303.955c-0.413-1.043-1.021-1.997-1.792-2.813c-3.397-3.221-8.72-3.221-12.117,0
				c-0.754,0.828-1.362,1.78-1.796,2.813c-0.437,1.027-0.667,2.13-0.68,3.245c0.032,2.259,0.916,4.423,2.475,6.059
				c0.815,0.77,1.77,1.378,2.813,1.791c1.027,0.438,2.13,0.67,3.246,0.683c2.259-0.034,4.422-0.918,6.059-2.475
				c0.77-0.817,1.378-1.773,1.792-2.817C230.628,308.375,230.628,306.021,229.717,303.955z"/>
			<path d="M210.858,326.742c-2.473-2.387-6.121-3.091-9.304-1.796c-1.033,0.434-1.984,1.041-2.813,1.795
				c-0.773,0.814-1.383,1.769-1.796,2.813c-0.437,1.027-0.667,2.13-0.679,3.246c0.032,2.259,0.916,4.423,2.475,6.059
				c0.815,0.771,1.77,1.379,2.813,1.792c2.067,0.911,4.421,0.911,6.487,0c1.044-0.414,1.999-1.022,2.817-1.792
				c1.557-1.637,2.441-3.8,2.475-6.059c-0.013-1.116-0.245-2.219-0.683-3.246C212.237,328.511,211.628,327.557,210.858,326.742z"/>
			<path d="M244.991,326.742c-2.457-2.417-6.124-3.125-9.304-1.796c-2.139,0.784-3.824,2.469-4.608,4.608
				c-0.437,1.027-0.667,2.13-0.679,3.246c0.032,2.259,0.916,4.423,2.475,6.059c0.815,0.771,1.77,1.379,2.813,1.792
				c1.027,0.438,2.13,0.67,3.246,0.683c2.27,0.022,4.453-0.87,6.058-2.475c1.605-1.605,2.497-3.788,2.475-6.058
				c-0.013-1.116-0.245-2.219-0.683-3.246C246.37,328.511,245.762,327.557,244.991,326.742z"/>
			<path d="M262.059,301.141c-3.397-3.221-8.72-3.221-12.117,0c-1.56,1.635-2.444,3.799-2.475,6.059
				c0.018,0.571,0.075,1.141,0.171,1.704c0.091,0.535,0.263,1.053,0.508,1.537c0.188,0.544,0.447,1.062,0.771,1.538
				c0.316,0.447,0.658,0.874,1.025,1.279c0.815,0.771,1.77,1.379,2.813,1.792c1.027,0.438,2.13,0.67,3.246,0.683
				c2.259-0.034,4.422-0.918,6.059-2.475c0.341-0.429,0.683-0.854,1.021-1.279c0.324-0.476,0.583-0.993,0.771-1.538
				c0.245-0.485,0.418-1.003,0.513-1.538c0.094-0.564,0.151-1.133,0.17-1.704C264.5,304.941,263.616,302.778,262.059,301.141z"/>
			<path d="M296.192,301.141c-0.405-0.367-0.833-0.709-1.279-1.025c-0.476-0.324-0.993-0.583-1.538-0.771
				c-0.484-0.246-1.002-0.417-1.538-0.508c-2.81-0.574-5.721,0.29-7.763,2.304c-1.56,1.635-2.444,3.799-2.475,6.059
				c0.018,0.571,0.075,1.141,0.171,1.704c0.091,0.535,0.263,1.053,0.508,1.537c0.187,0.544,0.447,1.062,0.771,1.538
				c0.316,0.447,0.658,0.874,1.025,1.279c1.636,1.558,3.8,2.441,6.059,2.475c0.571-0.02,1.14-0.077,1.704-0.171
				c0.535-0.095,1.053-0.268,1.538-0.513c0.544-0.187,1.062-0.447,1.538-0.771c0.425-0.338,0.85-0.679,1.279-1.021
				c0.341-0.429,0.683-0.854,1.021-1.279c0.324-0.476,0.583-0.993,0.771-1.538c0.245-0.485,0.418-1.003,0.513-1.538
				c0.094-0.564,0.151-1.133,0.171-1.704C298.633,304.941,297.75,302.778,296.192,301.141z"/>
			<path d="M276.308,324.945c-3.187-1.251-6.809-0.552-9.3,1.796c-1.559,1.635-2.443,3.799-2.475,6.059
				c0.012,1.115,0.243,2.216,0.679,3.242c0.434,1.034,1.041,1.987,1.795,2.817c1.636,1.558,3.8,2.441,6.059,2.475
				c1.115-0.014,2.216-0.246,3.242-0.683c1.033-0.434,1.986-1.04,2.817-1.792c3.3-3.365,3.3-8.752,0-12.117
				C278.295,325.987,277.343,325.38,276.308,324.945z"/>
			<path d="M307.2,324.267c-4.713,0-8.533,3.821-8.533,8.533c0.018,0.571,0.075,1.141,0.171,1.704
				c0.091,0.535,0.263,1.053,0.508,1.538c0.187,0.544,0.447,1.062,0.771,1.538c0.316,0.447,0.658,0.874,1.025,1.279
				c3.365,3.3,8.752,3.3,12.117,0c0.341-0.429,0.683-0.854,1.021-1.279c0.324-0.476,0.583-0.993,0.771-1.538
				c0.245-0.485,0.418-1.003,0.513-1.538c0.094-0.564,0.151-1.133,0.171-1.704C315.733,328.087,311.913,324.267,307.2,324.267z"/>
			<path d="M330.325,301.141c-3.397-3.221-8.72-3.221-12.117,0c-3.3,3.365-3.3,8.752,0,12.117c0.815,0.77,1.77,1.379,2.812,1.792
				c1.027,0.438,2.13,0.67,3.246,0.683c2.259-0.034,4.422-0.918,6.059-2.475c0.752-0.831,1.358-1.783,1.792-2.817
				c0.437-1.026,0.669-2.127,0.683-3.242C332.767,304.941,331.883,302.778,330.325,301.141z"/>
			<path d="M339.786,324.31c-4.058,0.797-6.985,4.354-6.986,8.49c0.033,2.259,0.917,4.422,2.475,6.059
				c2.896,2.953,7.476,3.444,10.932,1.171c3.455-2.272,4.82-6.672,3.256-10.501C347.898,325.7,343.844,323.514,339.786,324.31z"/>
		</g>
	</g>
</g>
<g>
</g>
<g>
</g>
<g>
</g>
<g>
</g>
<g>
</g>
<g>
</g>
<g>
</g>
<g>
</g>
<g>
</g>
<g>
</g>
<g>
</g>
<g>
</g>
<g>
</g>
<g>
</g>
<g>
</g>
</svg>
