<?xml version="1.0" encoding="iso-8859-1"?>
<!-- Generator: Adobe Illustrator 19.0.0, SVG Export Plug-In . SVG Version: 6.00 Build 0)  -->
<svg version="1.1" id="Capa_1" xmlns="http://www.w3.org/2000/svg" xmlns:xlink="http://www.w3.org/1999/xlink" x="0px" y="0px"
	 viewBox="0 0 512 512" style="enable-background:new 0 0 512 512;" xml:space="preserve">
<g>
	<g>
		<path d="M486.4,170.667c14.132-0.015,25.585-11.468,25.6-25.6V59.733c-0.015-14.132-11.468-25.585-25.6-25.6h-8.533V25.6
			c-0.015-14.132-11.468-25.585-25.6-25.6H435.2c-14.132,0.015-25.585,11.468-25.6,25.6v8.533H102.4V25.6
			C102.385,11.468,90.932,0.015,76.8,0H59.733c-14.132,0.015-25.585,11.468-25.6,25.6v8.533H25.6
			C11.468,34.149,0.015,45.601,0,59.733v85.333c0.015,14.132,11.468,25.585,25.6,25.6h8.533V204.8H25.6
			C11.468,204.815,0.015,216.268,0,230.4v85.333c0.015,14.132,11.468,25.585,25.6,25.6h8.533V460.8H25.6
			C11.468,460.815,0.015,472.268,0,486.4v17.067C0,508.18,3.82,512,8.533,512H128c4.713,0,8.533-3.82,8.533-8.533V486.4
			c-0.015-14.132-11.468-25.585-25.6-25.6H102.4V341.333h307.2V460.8h-8.533c-14.132,0.015-25.585,11.468-25.6,25.6v17.067
			c0,4.713,3.82,8.533,8.533,8.533h119.467c4.713,0,8.533-3.82,8.533-8.533V486.4c-0.015-14.132-11.468-25.585-25.6-25.6h-8.533
			V341.333h8.533c14.132-0.015,25.585-11.468,25.6-25.6V230.4c-0.015-14.132-11.468-25.585-25.6-25.6h-8.533v-34.133H486.4z
			 M493.854,55.813c0.679,1.197,1.05,2.545,1.079,3.921v30.6L431.667,153.6h-35.6L493.854,55.813z M460.8,170.667V204.8h-34.133
			v-34.133H460.8z M73.267,324.267h-35.6l102.4-102.4h35.6L73.267,324.267z M85.333,341.333V460.8H51.2V341.333H85.333z
			 M102.4,204.8v-34.133h307.2V204.8H102.4z M426.667,25.6c0.006-4.71,3.823-8.527,8.533-8.533h17.067
			c4.71,0.006,8.527,3.823,8.533,8.533v8.533h-34.133V25.6z M438.733,51.2h35.6l-102.4,102.4h-35.6L438.733,51.2z M414.6,51.2
			L312.2,153.6h-35.6L379,51.2H414.6z M354.867,51.2l-102.4,102.4h-35.6l102.4-102.4H354.867z M295.133,51.2l-102.4,102.4h-35.6
			l102.4-102.4H295.133z M235.4,51.2L133,153.6H97.4L199.8,51.2H235.4z M175.667,51.2l-102.4,102.4h-35.6l102.4-102.4H175.667z
			 M85.333,170.667V204.8H51.2v-34.133H85.333z M51.2,25.6c0.006-4.71,3.823-8.527,8.533-8.533H76.8
			c4.71,0.006,8.527,3.823,8.533,8.533v8.533H51.2V25.6z M17.067,59.733c0.006-4.71,3.823-8.527,8.533-8.533h30.6L17.067,90.333
			V59.733z M18.146,148.987c-0.679-1.197-1.05-2.545-1.079-3.921v-30.6L80.333,51.2h35.6L18.146,148.987z M17.067,230.4
			c0.006-4.71,3.823-8.527,8.533-8.533h30.6L17.067,261V230.4z M18.146,319.654c-0.679-1.197-1.05-2.545-1.079-3.921v-30.6
			l63.267-63.267h35.6L18.146,319.654z M110.933,477.867c4.71,0.006,8.527,3.823,8.533,8.533v8.533h-102.4V486.4
			c0.006-4.71,3.823-8.527,8.533-8.533H110.933z M97.4,324.267l102.4-102.4h35.6L133,324.267H97.4z M157.133,324.267l102.4-102.4
			h35.6l-102.4,102.4H157.133z M216.867,324.267l102.4-102.4h35.6l-102.4,102.4H216.867z M276.6,324.267l102.4-102.4h35.6
			l-102.4,102.4H276.6z M336.333,324.267l102.4-102.4h35.6l-102.4,102.4H336.333z M486.4,477.867
			c4.71,0.006,8.527,3.823,8.533,8.533v8.533h-102.4V486.4c0.006-4.71,3.823-8.527,8.533-8.533H486.4z M426.667,460.8V341.333H460.8
			V460.8H426.667z M494.933,315.733c-0.006,4.71-3.823,8.527-8.533,8.533h-30.6l39.133-39.133V315.733z M493.854,226.479
			c0.679,1.197,1.05,2.545,1.079,3.921V261l-63.267,63.267h-35.6L493.854,226.479z M455.8,153.6l39.133-39.133v30.6
			c-0.006,4.71-3.823,8.527-8.533,8.533H455.8z"/>
	</g>
</g>
<g>
</g>
<g>
</g>
<g>
</g>
<g>
</g>
<g>
</g>
<g>
</g>
<g>
</g>
<g>
</g>
<g>
</g>
<g>
</g>
<g>
</g>
<g>
</g>
<g>
</g>
<g>
</g>
<g>
</g>
</svg>
