<?xml version="1.0" encoding="iso-8859-1"?>
<!-- Generator: Adobe Illustrator 19.0.0, SVG Export Plug-In . SVG Version: 6.00 Build 0)  -->
<svg version="1.1" id="Layer_1" xmlns="http://www.w3.org/2000/svg" xmlns:xlink="http://www.w3.org/1999/xlink" x="0px" y="0px"
	 viewBox="0 0 512 512" style="enable-background:new 0 0 512 512;" xml:space="preserve">
<g transform="translate(1 1)">
	<g>
		<g>
			<path d="M289.133,118.467h-68.267c-5.12,0-8.533,3.413-8.533,8.533v34.133c0,5.12,3.413,8.533,8.533,8.533h68.267
				c5.12,0,8.533-3.413,8.533-8.533V127C297.667,121.88,294.253,118.467,289.133,118.467z M280.6,152.6h-51.2v-17.067h51.2V152.6z"
				/>
			<path d="M391.533,169.667c5.12,0,8.533-3.413,8.533-8.533V127c0-5.12-3.413-8.533-8.533-8.533H383v-25.6
				c0-5.12-3.413-8.533-8.533-8.533h-25.6V50.2c0-5.12-3.413-8.533-8.533-8.533h-42.667V24.6c0-5.12-3.413-8.533-8.533-8.533
				c-5.12,0-8.533,3.413-8.533,8.533v17.067h-17.067V7.533C263.533,2.413,260.12-1,255-1c-5.12,0-8.533,3.413-8.533,8.533v34.133
				H229.4v-25.6c0-5.12-3.413-8.533-8.533-8.533s-8.533,3.413-8.533,8.533v25.6h-42.667c-5.12,0-8.533,3.413-8.533,8.533v34.133
				h-25.6c-5.12,0-8.533,3.413-8.533,8.533v25.6h-8.533c-5.12,0-8.533,3.413-8.533,8.533v34.133c0,5.12,3.413,8.533,8.533,8.533H127
				v17.067h-8.533c-5.12,0-8.533,3.413-8.533,8.533V229.4c0,5.12,3.413,8.533,8.533,8.533H127V255h-8.533
				c-5.12,0-8.533,3.413-8.533,8.533v34.133c0,5.12,3.413,8.533,8.533,8.533H127v17.067h-8.533c-5.12,0-8.533,3.413-8.533,8.533
				v34.133c0,5.12,3.413,8.533,8.533,8.533H127v17.067h-8.533c-5.12,0-8.533,3.413-8.533,8.533V434.2
				c0,5.12,3.413,8.533,8.533,8.533H127V459.8h-8.533c-5.12,0-8.533,3.413-8.533,8.533v34.133c0,5.12,3.413,8.533,8.533,8.533
				h68.267h34.133h68.267h34.133h68.267c5.12,0,8.533-3.413,8.533-8.533v-34.133c0-5.12-3.413-8.533-8.533-8.533H383v-17.067h8.533
				c5.12,0,8.533-3.413,8.533-8.533v-34.133c0-5.12-3.413-8.533-8.533-8.533H383v-17.067h8.533c5.12,0,8.533-3.413,8.533-8.533
				V331.8c0-5.12-3.413-8.533-8.533-8.533H383V306.2h8.533c5.12,0,8.533-3.413,8.533-8.533v-34.133c0-5.12-3.413-8.533-8.533-8.533
				H383v-17.067h8.533c5.12,0,8.533-3.413,8.533-8.533v-34.133c0-5.12-3.413-8.533-8.533-8.533H383v-17.067H391.533z M383,152.6
				h-8.533H331.8v-17.067h42.667H383V152.6z M178.2,58.733h153.6v25.6H178.2V58.733z M127,135.533h8.533H178.2V152.6h-42.667H127
				V135.533z M127,203.8h8.533H178.2v17.067h-42.667H127V203.8z M127,272.067h8.533H178.2v17.067h-42.667H127V272.067z M127,340.333
				h8.533H178.2V357.4h-42.667H127V340.333z M127,408.6h8.533H178.2v17.067h-42.667H127V408.6z M127,493.933v-17.067h8.533H178.2
				v17.067H127z M229.4,493.933v-17.067h51.2v17.067H229.4z M383,493.933h-51.2v-17.067h42.667H383V493.933z M383,425.667h-8.533
				H331.8V408.6h42.667H383V425.667z M383,357.4h-8.533H331.8v-17.067h42.667H383V357.4z M383,289.133h-8.533H331.8v-17.067h42.667
				H383V289.133z M383,220.867h-8.533H331.8V203.8h42.667H383V220.867z M365.933,186.733h-42.667c-5.12,0-8.533,3.413-8.533,8.533
				V229.4c0,5.12,3.413,8.533,8.533,8.533h42.667V255h-42.667c-5.12,0-8.533,3.413-8.533,8.533v34.133
				c0,5.12,3.413,8.533,8.533,8.533h42.667v17.067h-42.667c-5.12,0-8.533,3.413-8.533,8.533v34.133c0,5.12,3.413,8.533,8.533,8.533
				h42.667v17.067h-42.667c-5.12,0-8.533,3.413-8.533,8.533V434.2c0,5.12,3.413,8.533,8.533,8.533h42.667V459.8h-42.667
				c-5.12,0-8.533,3.413-8.533,8.533v25.6h-17.067v-25.6c0-5.12-3.413-8.533-8.533-8.533h-68.267c-5.12,0-8.533,3.413-8.533,8.533
				v25.6h-17.067v-25.6c0-5.12-3.413-8.533-8.533-8.533h-42.667v-17.067h42.667c5.12,0,8.533-3.413,8.533-8.533v-34.133
				c0-5.12-3.413-8.533-8.533-8.533h-42.667v-17.067h42.667c5.12,0,8.533-3.413,8.533-8.533V331.8c0-5.12-3.413-8.533-8.533-8.533
				h-42.667V306.2h42.667c5.12,0,8.533-3.413,8.533-8.533v-34.133c0-5.12-3.413-8.533-8.533-8.533h-42.667v-17.067h42.667
				c5.12,0,8.533-3.413,8.533-8.533v-34.133c0-5.12-3.413-8.533-8.533-8.533h-42.667v-17.067h42.667c5.12,0,8.533-3.413,8.533-8.533
				V127c0-5.12-3.413-8.533-8.533-8.533h-42.667V101.4h25.6h170.667h25.6v17.067h-42.667c-5.12,0-8.533,3.413-8.533,8.533v34.133
				c0,5.12,3.413,8.533,8.533,8.533h42.667V186.733z"/>
			<path d="M289.133,186.733h-68.267c-5.12,0-8.533,3.413-8.533,8.533V229.4c0,5.12,3.413,8.533,8.533,8.533h68.267
				c5.12,0,8.533-3.413,8.533-8.533v-34.133C297.667,190.147,294.253,186.733,289.133,186.733z M280.6,220.867h-51.2V203.8h51.2
				V220.867z"/>
			<path d="M289.133,255h-68.267c-5.12,0-8.533,3.413-8.533,8.533v34.133c0,5.12,3.413,8.533,8.533,8.533h68.267
				c5.12,0,8.533-3.413,8.533-8.533v-34.133C297.667,258.413,294.253,255,289.133,255z M280.6,289.133h-51.2v-17.067h51.2V289.133z"
				/>
			<path d="M289.133,323.267h-68.267c-5.12,0-8.533,3.413-8.533,8.533v34.133c0,5.12,3.413,8.533,8.533,8.533h68.267
				c5.12,0,8.533-3.413,8.533-8.533V331.8C297.667,326.68,294.253,323.267,289.133,323.267z M280.6,357.4h-51.2v-17.067h51.2V357.4z
				"/>
			<path d="M289.133,391.533h-68.267c-5.12,0-8.533,3.413-8.533,8.533V434.2c0,5.12,3.413,8.533,8.533,8.533h68.267
				c5.12,0,8.533-3.413,8.533-8.533v-34.133C297.667,394.947,294.253,391.533,289.133,391.533z M280.6,425.667h-51.2V408.6h51.2
				V425.667z"/>
		</g>
	</g>
</g>
<g>
</g>
<g>
</g>
<g>
</g>
<g>
</g>
<g>
</g>
<g>
</g>
<g>
</g>
<g>
</g>
<g>
</g>
<g>
</g>
<g>
</g>
<g>
</g>
<g>
</g>
<g>
</g>
<g>
</g>
</svg>
