<?xml version="1.0" encoding="iso-8859-1"?>
<!-- Generator: Adobe Illustrator 19.0.0, SVG Export Plug-In . SVG Version: 6.00 Build 0)  -->
<svg version="1.1" id="Layer_1" xmlns="http://www.w3.org/2000/svg" xmlns:xlink="http://www.w3.org/1999/xlink" x="0px" y="0px"
	 viewBox="0 0 512 512" style="enable-background:new 0 0 512 512;" xml:space="preserve">
<g transform="translate(1 1)">
	<g>
		<g>
			<path d="M84.333,459.8h85.333c5.12,0,8.533-3.413,8.533-8.533v-51.2c0-5.12-3.413-8.533-8.533-8.533H84.333
				c-5.12,0-8.533,3.413-8.533,8.533v51.2C75.8,456.387,79.213,459.8,84.333,459.8z M92.867,408.6h68.267v34.133H92.867V408.6z"/>
			<path d="M340.333,459.8h85.333c5.12,0,8.533-3.413,8.533-8.533v-51.2c0-5.12-3.413-8.533-8.533-8.533h-85.333
				c-5.12,0-8.533,3.413-8.533,8.533v51.2C331.8,456.387,335.213,459.8,340.333,459.8z M348.867,408.6h68.267v34.133h-68.267V408.6z
				"/>
			<path d="M84.333,255h85.333c5.12,0,8.533-3.413,8.533-8.533v-51.2c0-5.12-3.413-8.533-8.533-8.533H84.333
				c-5.12,0-8.533,3.413-8.533,8.533v51.2C75.8,251.587,79.213,255,84.333,255z M92.867,203.8h68.267v34.133H92.867V203.8z"/>
			<path d="M212.333,255h85.333c5.12,0,8.533-3.413,8.533-8.533v-51.2c0-5.12-3.413-8.533-8.533-8.533h-85.333
				c-5.12,0-8.533,3.413-8.533,8.533v51.2C203.8,251.587,207.213,255,212.333,255z M220.867,203.8h68.267v34.133h-68.267V203.8z"/>
			<path d="M340.333,255h85.333c5.12,0,8.533-3.413,8.533-8.533v-51.2c0-5.12-3.413-8.533-8.533-8.533h-85.333
				c-5.12,0-8.533,3.413-8.533,8.533v51.2C331.8,251.587,335.213,255,340.333,255z M348.867,203.8h68.267v34.133h-68.267V203.8z"/>
			<path d="M476.867,279.32V169.667h25.6c2.56,0,5.12-1.707,6.827-4.267c1.707-1.707,1.707-5.12,0.853-7.68l-34.133-85.333
				c-0.853-3.413-4.267-5.12-7.68-5.12H459.8v-33.28C459.8,15.213,443.587-1,424.813-1H408.6h-51.2h-34.133h-51.2h-34.133h-51.2
				H152.6h-51.2H85.187C66.413-1,50.2,15.213,50.2,33.987v33.28h-8.533c-3.413,0-6.827,1.707-7.68,5.973l-34.133,85.333
				c-0.853,2.56-0.853,5.973,0.853,7.68s4.267,3.413,6.827,3.413h25.6v110.507l-33.28,83.2c-0.853,2.56-0.853,5.973,0.853,7.68
				s4.267,3.413,6.827,3.413h25.6v128c0,5.12,3.413,8.533,8.533,8.533h170.667h85.333h170.667c5.12,0,8.533-3.413,8.533-8.533v-128
				h25.6c2.56,0,5.12-1.707,6.827-4.267c1.707-1.707,1.707-5.12,0.853-7.68L476.867,279.32z M400.067,16.067v17.067h-34.133V16.067
				H400.067z M314.733,16.067v17.067H280.6V16.067H314.733z M229.4,16.067v17.067h-34.133V16.067H229.4z M144.067,16.067v17.067
				h-34.133V16.067H144.067z M67.267,33.987c0-9.387,8.533-17.92,17.92-17.92h7.68v25.6c0,5.12,3.413,8.533,8.533,8.533h51.2
				c5.12,0,8.533-3.413,8.533-8.533v-25.6H178.2v25.6c0,5.12,3.413,8.533,8.533,8.533h51.2c5.12,0,8.533-3.413,8.533-8.533v-25.6
				h17.067v25.6c0,5.12,3.413,8.533,8.533,8.533h51.2c5.12,0,8.533-3.413,8.533-8.533v-25.6h17.067v25.6
				c0,5.12,3.413,8.533,8.533,8.533h51.2c5.12,0,8.533-3.413,8.533-8.533v-25.6h7.68c9.387,0,17.92,8.533,17.92,17.92v33.28H67.267
				V33.987z M449.56,84.333c-3.413,10.24-12.8,17.067-23.893,17.067s-20.48-6.827-23.893-17.067H449.56z M381.293,84.333
				c-3.413,10.24-12.8,17.067-23.893,17.067s-20.48-6.827-23.893-17.067H381.293z M313.027,84.333
				c-3.413,10.24-12.8,17.067-23.893,17.067s-20.48-6.827-23.893-17.067H313.027z M244.76,84.333
				c-3.413,10.24-12.8,17.067-23.893,17.067s-20.48-6.827-23.893-17.067H244.76z M176.493,84.333
				c-3.413,10.24-12.8,17.067-23.893,17.067c-11.093,0-20.48-6.827-23.893-17.067H176.493z M108.227,84.333
				c-3.413,10.24-12.8,17.067-23.893,17.067c-11.093,0-20.48-6.827-23.893-17.067H108.227z M44.669,91.762
				c6.21,15.781,21.443,26.705,39.665,26.705c13.653,0,26.453-6.827,34.133-17.067c7.68,10.24,20.48,17.067,34.133,17.067
				c13.653,0,26.453-6.827,34.133-17.067c7.68,10.24,20.48,17.067,34.133,17.067c13.653,0,26.453-6.827,34.133-17.067
				c7.68,10.24,20.48,17.067,34.133,17.067s26.453-6.827,34.133-17.067c7.68,10.24,20.48,17.067,34.133,17.067
				s26.453-6.827,34.133-17.067c7.68,10.24,20.48,17.067,34.133,17.067c18.221,0,33.454-10.924,39.665-26.705l24.335,60.838h-21.333
				H41.667H20.333L44.669,91.762z M459.8,169.667v102.4H50.2v-102.4H459.8z M449.56,289.133c-3.413,10.24-12.8,17.067-23.893,17.067
				s-20.48-6.827-23.893-17.067H449.56z M381.293,289.133c-3.413,10.24-12.8,17.067-23.893,17.067s-20.48-6.827-23.893-17.067
				H381.293z M313.027,289.133c-3.413,10.24-12.8,17.067-23.893,17.067s-20.48-6.827-23.893-17.067H313.027z M244.76,289.133
				c-3.413,10.24-12.8,17.067-23.893,17.067s-20.48-6.827-23.893-17.067H244.76z M176.493,289.133
				c-3.413,10.24-12.8,17.067-23.893,17.067c-11.093,0-20.48-6.827-23.893-17.067H176.493z M108.227,289.133
				c-3.413,10.24-12.8,17.067-23.893,17.067c-11.093,0-20.48-6.827-23.893-17.067H108.227z M220.867,493.933V408.6h68.267v85.333
				H220.867z M459.8,493.933H306.2v-93.867c0-5.12-3.413-8.533-8.533-8.533h-85.333c-5.12,0-8.533,3.413-8.533,8.533v93.867H50.2
				V374.467h409.6V493.933z M468.333,357.4H41.667H20.333l24.335-60.838c6.21,15.781,21.443,26.705,39.665,26.705
				c13.653,0,26.453-6.827,34.133-17.067c7.68,10.24,20.48,17.067,34.133,17.067c13.653,0,26.453-6.827,34.133-17.067
				c7.68,10.24,20.48,17.067,34.133,17.067c13.653,0,26.453-6.827,34.133-17.067c7.68,10.24,20.48,17.067,34.133,17.067
				s26.453-6.827,34.133-17.067c7.68,10.24,20.48,17.067,34.133,17.067s26.453-6.827,34.133-17.067
				c7.68,10.24,20.48,17.067,34.133,17.067c18.221,0,33.454-10.924,39.665-26.705l24.335,60.838H468.333z"/>
		</g>
	</g>
</g>
<g>
</g>
<g>
</g>
<g>
</g>
<g>
</g>
<g>
</g>
<g>
</g>
<g>
</g>
<g>
</g>
<g>
</g>
<g>
</g>
<g>
</g>
<g>
</g>
<g>
</g>
<g>
</g>
<g>
</g>
</svg>
