<?xml version="1.0" encoding="iso-8859-1"?>
<!-- Generator: Adobe Illustrator 19.0.0, SVG Export Plug-In . SVG Version: 6.00 Build 0)  -->
<svg version="1.1" id="Layer_1" xmlns="http://www.w3.org/2000/svg" xmlns:xlink="http://www.w3.org/1999/xlink" x="0px" y="0px"
	 viewBox="0 0 512.213 512.213" style="enable-background:new 0 0 512.213 512.213;" xml:space="preserve">
<g transform="translate(1 1)">
	<g>
		<g>
			<path d="M488.067,187.8L291.8,13.72c-20.48-19.627-52.907-19.627-73.387,0l-65.707,59.733v-23.04h8.533
				c5.12,0,8.533-3.413,8.533-8.533V7.747c0-5.12-3.413-8.533-8.533-8.533H58.84c-5.12,0-8.533,3.413-8.533,8.533V41.88
				c0,5.12,3.413,8.533,8.533,8.533h8.533v98.133L22.147,187.8c-5.973,5.973-7.68,14.507-5.12,21.333s10.24,11.947,17.92,11.947
				h32.427v238.933H58.84c-5.12,0-8.533,3.413-8.533,8.533v34.133c0,5.12,3.413,8.533,8.533,8.533h392.533
				c5.12,0,8.533-3.413,8.533-9.387v-34.133c0-5.12-3.413-8.533-8.533-8.533h-8.533V220.227h32.427
				c8.533,0,15.36-4.267,17.92-11.947C495.747,201.453,494.04,192.92,488.067,187.8z M476.973,203.16
				c-0.853,0.853-1.707,0.853-1.707,0.853h-40.96c-5.12,0-8.533,3.413-8.533,8.533v256c0,5.12,3.413,8.533,8.533,8.533h8.533v17.067
				H67.373V477.08h8.533c5.12,0,8.533-3.413,8.533-8.533v-256c0-5.12-3.413-8.533-8.533-8.533h-40.96c-0.853,0-0.853,0-1.707-0.853
				c0-0.853,0-1.707,0.853-2.56l47.787-40.96c1.707-1.707,2.56-4.267,2.56-6.827V41.88c0-5.12-3.413-8.533-8.533-8.533h-8.533V16.28
				h85.333v17.067h-8.533c-5.12,0-8.533,3.413-8.533,8.533v51.2c0,3.413,1.707,6.827,5.12,9.387
				c3.413,0.853,6.827,0.853,9.387-1.707l80.213-73.387c13.653-13.653,34.987-13.653,49.493,0l196.267,174.08
				C476.973,201.453,477.827,202.307,476.973,203.16z"/>
			<path d="M348.973,263.747H212.44V221.08c0-12.8,5.12-23.893,14.507-32.427c9.387-8.533,21.333-11.947,34.133-10.24
				c20.48,3.413,36.693,22.187,36.693,44.373c0,12.8,11.093,23.893,23.893,23.893h1.707c14.507,0,25.6-11.093,25.6-25.6
				c0-25.6-11.093-50.347-29.867-68.267c-19.627-17.92-44.373-26.453-70.827-24.747c-48.64,3.413-87.04,45.227-87.04,96.427v39.253
				c-14.507,0-25.6,11.947-25.6,25.6v119.467c0,14.507,11.947,25.6,25.6,25.6h187.733c14.507,0,25.6-11.093,25.6-25.6V289.347
				C374.573,274.84,362.627,263.747,348.973,263.747z M177.453,222.787c0-41.813,31.573-76.8,71.68-79.36
				c22.187-1.707,42.667,5.973,58.027,20.48c16.213,14.507,24.747,34.987,24.747,56.32c0,5.12-3.413,8.533-8.533,8.533h-1.707
				c-3.413,0-6.827-3.413-6.827-6.827c0-30.72-22.187-57.173-52.053-60.587c-17.067-1.707-34.133,3.413-46.933,14.507
				c-12.8,11.947-20.48,28.16-20.48,45.227v42.667h-17.067h-0.853V222.787z M357.507,408.813c0,5.12-4.267,8.533-8.533,8.533H161.24
				c-5.12,0-8.533-4.267-8.533-8.533V289.347c0-5.12,4.267-8.533,8.533-8.533h8.533h34.133h145.067c5.12,0,8.533,4.267,8.533,8.533
				V408.813z"/>
			<path d="M277.293,306.413c-7.68-6.827-17.92-9.387-28.16-7.68c-13.653,1.707-24.747,13.653-27.307,27.307
				c-1.707,10.24,0.853,20.48,7.68,28.16v29.013c0,9.387,7.68,17.067,17.067,17.067h17.067c9.387,0,17.067-7.68,17.067-17.067V354.2
				c5.12-5.973,8.533-13.653,8.533-22.187C289.24,321.773,284.973,313.24,277.293,306.413z M265.347,344.813
				c-1.707,0.853-2.56,3.413-2.56,5.973v32.427H245.72v-33.28c0-1.707-0.853-4.267-2.56-5.973c-4.267-3.413-5.973-9.387-5.12-15.36
				c0.853-6.827,6.827-12.8,13.653-13.653c1.707,0,2.56,0,3.413,0c4.267,0,7.68,1.707,10.24,4.267
				c3.413,3.413,5.973,7.68,5.973,12.8C271.32,337.133,268.76,341.4,265.347,344.813z"/>
		</g>
	</g>
</g>
<g>
</g>
<g>
</g>
<g>
</g>
<g>
</g>
<g>
</g>
<g>
</g>
<g>
</g>
<g>
</g>
<g>
</g>
<g>
</g>
<g>
</g>
<g>
</g>
<g>
</g>
<g>
</g>
<g>
</g>
</svg>
