<?xml version="1.0" encoding="iso-8859-1"?>
<!-- Generator: Adobe Illustrator 19.0.0, SVG Export Plug-In . SVG Version: 6.00 Build 0)  -->
<svg version="1.1" id="Layer_1" xmlns="http://www.w3.org/2000/svg" xmlns:xlink="http://www.w3.org/1999/xlink" x="0px" y="0px"
	 viewBox="0 0 512.213 512.213" style="enable-background:new 0 0 512.213 512.213;" xml:space="preserve">
<g transform="translate(1 1)">
	<g>
		<g>
			<path d="M488.067,187.8L291.8,13.72c-20.48-19.627-52.907-19.627-73.387,0l-65.707,59.733v-23.04h8.533
				c5.12,0,8.533-3.413,8.533-8.533V7.747c0-5.12-3.413-8.533-8.533-8.533H58.84c-5.12,0-8.533,3.413-8.533,8.533V41.88
				c0,5.12,3.413,8.533,8.533,8.533h8.533v98.133L22.147,187.8c-5.973,5.973-7.68,14.507-5.12,21.333s10.24,11.947,17.92,11.947
				h32.427v238.933H58.84c-5.12,0-8.533,3.413-8.533,8.533v34.133c0,5.12,3.413,8.533,8.533,8.533h392.533
				c5.12,0,8.533-3.413,8.533-9.387v-34.133c0-5.12-3.413-8.533-8.533-8.533h-8.533V220.227h32.427
				c8.533,0,15.36-4.267,17.92-11.947C495.747,201.453,494.04,192.92,488.067,187.8z M476.973,203.16
				c-0.853,0.853-1.707,0.853-1.707,0.853h-40.96c-5.12,0-8.533,3.413-8.533,8.533v256c0,5.12,3.413,8.533,8.533,8.533h8.533v17.067
				H67.373V477.08h8.533c5.12,0,8.533-3.413,8.533-8.533v-256c0-5.12-3.413-8.533-8.533-8.533h-40.96c-0.853,0-0.853,0-1.707-0.853
				c0-0.853,0-1.707,0.853-2.56l47.787-40.96c1.707-1.707,2.56-4.267,2.56-6.827V41.88c0-5.12-3.413-8.533-8.533-8.533h-8.533V16.28
				h85.333v17.067h-8.533c-5.12,0-8.533,3.413-8.533,8.533v51.2c0,3.413,1.707,6.827,5.12,9.387
				c3.413,0.853,6.827,0.853,9.387-1.707l80.213-73.387c13.653-13.653,34.987-13.653,49.493,0l196.267,174.08
				C476.973,201.453,477.827,202.307,476.973,203.16z"/>
			<path d="M229.507,195.48c-37.547,0-68.267,30.72-68.267,68.267c0,37.547,30.72,68.267,68.267,68.267
				c37.547,0,68.267-30.72,68.267-68.267C297.773,226.2,267.053,195.48,229.507,195.48z M229.507,314.947
				c-28.16,0-51.2-23.04-51.2-51.2c0-28.16,23.04-51.2,51.2-51.2c28.16,0,51.2,23.04,51.2,51.2
				C280.707,291.907,257.667,314.947,229.507,314.947z"/>
			<path d="M313.987,320.92c11.947-17.067,17.92-36.693,17.92-57.173c0-56.32-46.08-102.4-102.4-102.4
				c-56.32,0-102.4,46.08-102.4,102.4s46.08,102.4,102.4,102.4c16.213,0,32.427-4.267,46.08-11.093l89.6,88.747
				c1.707,1.707,3.413,2.56,5.973,2.56c1.707,0,4.267-0.853,5.973-2.56l23.893-23.893c3.413-3.413,3.413-8.533,0-11.947
				L313.987,320.92z M371.16,425.88l-87.893-87.893c-1.707-1.707-3.413-2.56-5.973-2.56c-1.707,0-2.56,0.853-4.267,1.707
				c-12.8,7.68-28.16,11.947-43.52,11.947c-46.933,0-85.333-38.4-85.333-85.333s38.4-85.333,85.333-85.333
				c46.933,0,85.333,38.4,85.333,85.333c0,19.627-6.827,37.547-18.773,52.907c-2.56,3.413-2.56,7.68,0.853,11.093l86.187,86.187
				L371.16,425.88z"/>
		</g>
	</g>
</g>
<g>
</g>
<g>
</g>
<g>
</g>
<g>
</g>
<g>
</g>
<g>
</g>
<g>
</g>
<g>
</g>
<g>
</g>
<g>
</g>
<g>
</g>
<g>
</g>
<g>
</g>
<g>
</g>
<g>
</g>
</svg>
