<?xml version="1.0" encoding="iso-8859-1"?>
<!-- Generator: Adobe Illustrator 19.0.0, SVG Export Plug-In . SVG Version: 6.00 Build 0)  -->
<svg version="1.1" id="Layer_1" xmlns="http://www.w3.org/2000/svg" xmlns:xlink="http://www.w3.org/1999/xlink" x="0px" y="0px"
	 viewBox="0 0 512.213 512.213" style="enable-background:new 0 0 512.213 512.213;" xml:space="preserve">
<g transform="translate(1 1)">
	<g>
		<g>
			<path d="M488.067,187.8L291.8,13.72c-20.48-19.627-52.907-19.627-73.387,0l-65.707,59.733v-23.04h8.533
				c5.12,0,8.533-3.413,8.533-8.533V7.747c0-5.12-3.413-8.533-8.533-8.533H58.84c-5.12,0-8.533,3.413-8.533,8.533V41.88
				c0,5.12,3.413,8.533,8.533,8.533h8.533v98.133L22.147,187.8c-5.973,5.973-7.68,14.507-5.12,21.333s10.24,11.947,17.92,11.947
				h32.427v238.933H58.84c-5.12,0-8.533,3.413-8.533,8.533v34.133c0,5.12,3.413,8.533,8.533,8.533h392.533
				c5.12,0,8.533-3.413,8.533-9.387v-34.133c0-5.12-3.413-8.533-8.533-8.533h-8.533V220.227h32.427
				c8.533,0,15.36-4.267,17.92-11.947C495.747,201.453,494.04,192.92,488.067,187.8z M476.973,203.16
				c-0.853,0.853-1.707,0.853-1.707,0.853h-40.96c-5.12,0-8.533,3.413-8.533,8.533v256c0,5.12,3.413,8.533,8.533,8.533h8.533v17.067
				H67.373V477.08h8.533c5.12,0,8.533-3.413,8.533-8.533v-256c0-5.12-3.413-8.533-8.533-8.533h-40.96c-0.853,0-0.853,0-1.707-0.853
				c0-0.853,0-1.707,0.853-2.56l47.787-40.96c1.707-1.707,2.56-4.267,2.56-6.827V41.88c0-5.12-3.413-8.533-8.533-8.533h-8.533V16.28
				h85.333v17.067h-8.533c-5.12,0-8.533,3.413-8.533,8.533v51.2c0,3.413,1.707,6.827,5.12,9.387
				c3.413,0.853,6.827,0.853,9.387-1.707l80.213-73.387c13.653-13.653,34.987-13.653,49.493,0l196.267,174.08
				C476.973,201.453,477.827,202.307,476.973,203.16z"/>
			<path d="M323.373,161.347c-42.667,0-76.8,34.133-76.8,76.8c0,5.04,0.492,9.955,1.402,14.714L121.133,376.387
				c-2.56,1.707-3.413,5.12-2.56,7.68l8.533,42.667c0.853,4.267,4.267,6.827,8.533,6.827h42.667c5.12,0,8.533-3.413,9.387-6.827
				v-25.6h34.133c5.12,0,8.533-3.413,8.533-8.533V367h25.6c5.12,0,8.533-3.413,8.533-8.533v-25.6h25.6
				c2.56,0,5.12-1.707,6.827-3.413c0,0,7.088-8.376,13.425-15.611c4.233,0.713,8.581,1.104,13.029,1.104
				c42.667,0,76.8-34.133,76.8-76.8S366.04,161.347,323.373,161.347z M284.973,314.093h-29.867c-5.12,0-8.533,3.413-8.533,8.533
				v25.6h-25.6c-5.12,0-8.533,3.413-8.533,8.533v25.6h-34.133c-5.12,0-8.533,3.413-8.533,8.533v25.6h-27.307l-5.973-30.72
				l116.907-115.2c1.764,3.723,3.856,7.257,6.208,10.599c0.022,0.033,0.046,0.066,0.069,0.099c0.25,0.354,0.496,0.711,0.752,1.061
				c7.615,10.873,17.976,19.65,30.122,25.346C288.213,310.098,286.588,312.478,284.973,314.093z M323.373,297.88
				c-5.241,0-10.311-0.659-15.136-1.894c-21.021-6.115-36.968-22.203-42.037-42.48c-0.241-0.724-0.63-1.443-1.106-2.129
				c-0.942-4.251-1.454-8.674-1.454-13.231c0-33.28,26.453-59.733,59.733-59.733c33.28,0,59.733,26.453,59.733,59.733
				C383.107,271.427,356.653,297.88,323.373,297.88z"/>
			<path d="M331.907,195.48c-18.773,0-34.133,15.36-34.133,34.133c0,18.773,15.36,34.133,34.133,34.133
				c18.773,0,34.133-15.36,34.133-34.133C366.04,210.84,350.68,195.48,331.907,195.48z M331.907,246.68
				c-9.387,0-17.067-7.68-17.067-17.067s7.68-17.067,17.067-17.067s17.067,7.68,17.067,17.067S341.293,246.68,331.907,246.68z"/>
		</g>
	</g>
</g>
<g>
</g>
<g>
</g>
<g>
</g>
<g>
</g>
<g>
</g>
<g>
</g>
<g>
</g>
<g>
</g>
<g>
</g>
<g>
</g>
<g>
</g>
<g>
</g>
<g>
</g>
<g>
</g>
<g>
</g>
</svg>
