<?xml version="1.0" encoding="iso-8859-1"?>
<!-- Generator: Adobe Illustrator 19.0.0, SVG Export Plug-In . SVG Version: 6.00 Build 0)  -->
<svg version="1.1" id="Layer_1" xmlns="http://www.w3.org/2000/svg" xmlns:xlink="http://www.w3.org/1999/xlink" x="0px" y="0px"
	 viewBox="0 0 512 512" style="enable-background:new 0 0 512 512;" xml:space="preserve">
<g transform="translate(1 1)">
	<g>
		<g>
			<path d="M502.467,378.733H485.4V90.307C485.4,74.947,474.307,63,459.8,63H50.2c-13.653,0-25.6,11.947-25.6,27.307v288.427H7.533
				c-5.12,0-8.533,3.413-8.533,8.533v30.72C-1,434.2,11.8,447,28.013,447h453.973C498.2,447,511,434.2,511,417.987v-30.72
				C511,382.147,507.587,378.733,502.467,378.733z M41.667,90.307c0-5.973,4.267-10.24,8.533-10.24h409.6
				c4.267,0,8.533,4.267,8.533,10.24v288.427h-153.6h0c-2.56,0-4.267,0.853-5.973,2.56L294.253,395.8h-78.507l-14.507-14.507
				c-1.707-1.707-3.413-2.56-5.973-2.56h-153.6V90.307z M493.933,417.987c0,6.827-5.12,11.947-11.947,11.947H28.013
				c-6.827,0-11.947-5.12-11.947-11.947V395.8h17.067h158.72l14.507,14.507c1.707,1.707,3.413,2.56,5.973,2.56h85.333
				c2.56,0,4.267-0.853,5.973-2.56l14.507-14.507h158.72h17.067V417.987z"/>
			<path d="M297.667,148.333h68.267c5.12,0,8.533-3.413,8.533-8.533s-3.413-8.533-8.533-8.533h-68.267
				c-5.12,0-8.533,3.413-8.533,8.533S292.547,148.333,297.667,148.333z"/>
			<path d="M297.667,182.467h42.667c5.12,0,8.533-3.413,8.533-8.533c0-5.12-3.413-8.533-8.533-8.533h-42.667
				c-5.12,0-8.533,3.413-8.533,8.533C289.133,179.053,292.547,182.467,297.667,182.467z"/>
			<path d="M442.733,165.4h-68.267c-5.12,0-8.533,3.413-8.533,8.533c0,5.12,3.413,8.533,8.533,8.533h68.267
				c5.12,0,8.533-3.413,8.533-8.533C451.267,168.813,447.853,165.4,442.733,165.4z"/>
			<path d="M400.067,148.333h42.667c5.12,0,8.533-3.413,8.533-8.533s-3.413-8.533-8.533-8.533h-42.667
				c-5.12,0-8.533,3.413-8.533,8.533S394.947,148.333,400.067,148.333z"/>
			<path d="M297.667,216.6h68.267c5.12,0,8.533-3.413,8.533-8.533s-3.413-8.533-8.533-8.533h-68.267
				c-5.12,0-8.533,3.413-8.533,8.533S292.547,216.6,297.667,216.6z"/>
			<path d="M297.667,250.733h42.667c5.12,0,8.533-3.413,8.533-8.533s-3.413-8.533-8.533-8.533h-42.667
				c-5.12,0-8.533,3.413-8.533,8.533S292.547,250.733,297.667,250.733z"/>
			<path d="M442.733,233.667h-68.267c-5.12,0-8.533,3.413-8.533,8.533s3.413,8.533,8.533,8.533h68.267
				c5.12,0,8.533-3.413,8.533-8.533S447.853,233.667,442.733,233.667z"/>
			<path d="M442.733,199.533h-42.667c-5.12,0-8.533,3.413-8.533,8.533s3.413,8.533,8.533,8.533h42.667
				c5.12,0,8.533-3.413,8.533-8.533S447.853,199.533,442.733,199.533z"/>
			<path d="M297.667,284.867h68.267c5.12,0,8.533-3.413,8.533-8.533s-3.413-8.533-8.533-8.533h-68.267
				c-5.12,0-8.533,3.413-8.533,8.533S292.547,284.867,297.667,284.867z"/>
			<path d="M297.667,319h42.667c5.12,0,8.533-3.413,8.533-8.533s-3.413-8.533-8.533-8.533h-42.667c-5.12,0-8.533,3.413-8.533,8.533
				S292.547,319,297.667,319z"/>
			<path d="M442.733,301.933h-68.267c-5.12,0-8.533,3.413-8.533,8.533s3.413,8.533,8.533,8.533h68.267
				c5.12,0,8.533-3.413,8.533-8.533S447.853,301.933,442.733,301.933z"/>
			<path d="M442.733,267.8h-42.667c-5.12,0-8.533,3.413-8.533,8.533s3.413,8.533,8.533,8.533h42.667c5.12,0,8.533-3.413,8.533-8.533
				S447.853,267.8,442.733,267.8z"/>
			<path d="M220.867,310.467V262.68l2.56,2.56c1.707,1.707,3.413,2.56,5.973,2.56s4.267-0.853,5.973-2.56l25.6-25.6
				c1.707-1.707,2.56-3.413,2.56-5.973c0-2.56-0.853-4.267-2.56-5.973l-93.867-93.867c-1.707-1.707-3.413-2.56-5.973-2.56
				s-4.267,0.853-5.973,2.56l-93.867,93.867c-3.413,3.413-3.413,8.533,0,11.947l25.6,25.6c1.707,1.707,3.413,2.56,5.973,2.56
				c2.56,0,4.267-0.853,5.973-2.56l2.56-2.56v47.787c0,5.12,3.413,8.533,8.533,8.533h102.4
				C217.453,319,220.867,315.587,220.867,310.467z M92.867,247.32l-13.653-13.653l81.92-81.92l81.92,81.92L229.4,247.32
				l-11.092-11.092c0,0-0.001-0.001-0.001-0.001l-51.2-51.2c-0.853-1.707-2.56-2.56-4.267-2.56c0,0-0.853,0-1.707,0
				c-2.56,0-4.267,0.853-5.973,2.56l-51.2,51.2c0,0,0,0.001-0.001,0.001L92.867,247.32z M203.8,301.933h-85.333v-56.32
				l42.667-42.667l42.667,42.667V301.933z"/>
		</g>
	</g>
</g>
<g>
</g>
<g>
</g>
<g>
</g>
<g>
</g>
<g>
</g>
<g>
</g>
<g>
</g>
<g>
</g>
<g>
</g>
<g>
</g>
<g>
</g>
<g>
</g>
<g>
</g>
<g>
</g>
<g>
</g>
</svg>
