<?xml version="1.0" encoding="iso-8859-1"?>
<!-- Generator: Adobe Illustrator 19.0.0, SVG Export Plug-In . SVG Version: 6.00 Build 0)  -->
<svg version="1.1" id="Layer_1" xmlns="http://www.w3.org/2000/svg" xmlns:xlink="http://www.w3.org/1999/xlink" x="0px" y="0px"
	 viewBox="0 0 512 512" style="enable-background:new 0 0 512 512;" xml:space="preserve">
<g transform="translate(1 1)">
	<g>
		<g>
			<path d="M502.467,378.733H485.4V90.307C485.4,74.947,474.307,63,459.8,63H50.2c-13.653,0-25.6,11.947-25.6,27.307v288.427H7.533
				c-5.12,0-8.533,3.413-8.533,8.533v30.72C-1,434.2,11.8,447,28.013,447h453.973C498.2,447,511,434.2,511,417.987v-30.72
				C511,382.147,507.587,378.733,502.467,378.733z M41.667,90.307c0-5.973,4.267-10.24,8.533-10.24h409.6
				c4.267,0,8.533,4.267,8.533,10.24v288.427h-153.6h0c-2.56,0-4.267,0.853-5.973,2.56L294.253,395.8h-78.507l-14.507-14.507
				c-1.707-1.707-3.413-2.56-5.973-2.56h-153.6V90.307z M493.933,417.987c0,6.827-5.12,11.947-11.947,11.947H28.013
				c-6.827,0-11.947-5.12-11.947-11.947V395.8h17.067h158.72l14.507,14.507c1.707,1.707,3.413,2.56,5.973,2.56h85.333
				c2.56,0,4.267-0.853,5.973-2.56l14.507-14.507h158.72h17.067V417.987z"/>
			<path d="M220.867,310.467V262.68l2.56,2.56c1.707,1.707,3.413,2.56,5.973,2.56s4.267-0.853,5.973-2.56l25.6-25.6
				c1.707-1.707,2.56-3.413,2.56-5.973c0-2.56-0.853-4.267-2.56-5.973l-93.867-93.867c-1.707-1.707-3.413-2.56-5.973-2.56
				s-4.267,0.853-5.973,2.56l-93.867,93.867c-3.413,3.413-3.413,8.533,0,11.947l25.6,25.6c1.707,1.707,3.413,2.56,5.973,2.56
				c2.56,0,4.267-0.853,5.973-2.56l2.56-2.56v47.787c0,5.12,3.413,8.533,8.533,8.533h102.4
				C217.453,319,220.867,315.587,220.867,310.467z M92.867,247.32l-13.653-13.653l81.92-81.92l81.92,81.92L229.4,247.32
				l-11.092-11.092c0,0-0.001-0.001-0.001-0.001l-51.2-51.2c-0.853-1.707-2.56-2.56-4.267-2.56c0,0-0.853,0-1.707,0
				c-2.56,0-4.267,0.853-5.973,2.56l-51.2,51.2c0,0,0,0.001-0.001,0.001L92.867,247.32z M203.8,301.933h-85.333v-56.32
				l42.667-42.667l42.667,42.667V301.933z"/>
			<path d="M340.493,288.131c0.565,1.218,1.453,2.307,2.667,3.17c1.612,1.534,3.655,2.1,5.706,2.1c0.267,0,0.557-0.028,0.856-0.07
				c0.072-0.01,0.144-0.023,0.216-0.036c1.199-0.204,2.516-0.734,3.385-1.589c0.887-0.692,1.696-1.562,2.369-2.572l85.333-128
				c2.56-4.267,1.707-9.387-2.56-11.947s-9.387-1.707-11.947,2.56L347.571,270.17l-35.398-42.477
				c-2.56-3.413-8.533-4.267-11.947-0.853c-3.413,2.56-4.267,8.533-0.853,11.947L340.493,288.131z"/>
		</g>
	</g>
</g>
<g>
</g>
<g>
</g>
<g>
</g>
<g>
</g>
<g>
</g>
<g>
</g>
<g>
</g>
<g>
</g>
<g>
</g>
<g>
</g>
<g>
</g>
<g>
</g>
<g>
</g>
<g>
</g>
<g>
</g>
</svg>
