<?xml version="1.0" encoding="iso-8859-1"?>
<!-- Generator: Adobe Illustrator 19.0.0, SVG Export Plug-In . SVG Version: 6.00 Build 0)  -->
<svg version="1.1" id="Layer_1" xmlns="http://www.w3.org/2000/svg" xmlns:xlink="http://www.w3.org/1999/xlink" x="0px" y="0px"
	 viewBox="0 0 512 512" style="enable-background:new 0 0 512 512;" xml:space="preserve">
<g transform="translate(1 1)">
	<g>
		<g>
			<path d="M425.667-1H84.333c-9.387,0-17.067,7.68-17.067,17.067v477.867c0,9.387,7.68,17.067,17.067,17.067h341.333
				c9.387,0,17.067-7.68,17.067-17.067V16.067C442.733,6.68,435.053-1,425.667-1z M425.667,493.933H84.333V16.067h341.333V493.933z"
				/>
			<path d="M209.773,115.907l11.093-11.093v39.253c0,5.12,3.413,8.533,8.533,8.533s8.533-3.413,8.533-8.533v-56.32L255,70.68
				l17.067,17.067v56.32c0,5.12,3.413,8.533,8.533,8.533c5.12,0,8.533-3.413,8.533-8.533v-39.253l11.093,11.093
				c1.707,1.707,3.413,2.56,5.973,2.56s4.267-0.853,5.973-2.56c3.413-3.413,3.413-8.533,0-11.947l-24.14-24.14
				c-0.689-1.239-1.681-2.232-2.921-2.921l-24.14-24.14c-3.413-3.413-8.533-3.413-11.947,0l-24.14,24.14
				c-1.239,0.689-2.232,1.681-2.92,2.92l-24.14,24.14c-3.413,3.413-3.413,8.533,0,11.947S206.36,119.32,209.773,115.907z"/>
			<path d="M127,220.867h34.133c5.12,0,8.533-3.413,8.533-8.533c0-5.12-3.413-8.533-8.533-8.533H127
				c-5.12,0-8.533,3.413-8.533,8.533C118.467,217.453,121.88,220.867,127,220.867z"/>
			<path d="M297.667,212.333c0,5.12,3.413,8.533,8.533,8.533h59.733c5.12,0,8.533-3.413,8.533-8.533c0-5.12-3.413-8.533-8.533-8.533
				H306.2C301.08,203.8,297.667,207.213,297.667,212.333z"/>
			<path d="M195.267,220.867h76.8c5.12,0,8.533-3.413,8.533-8.533c0-5.12-3.413-8.533-8.533-8.533h-76.8
				c-5.12,0-8.533,3.413-8.533,8.533C186.733,217.453,190.147,220.867,195.267,220.867z"/>
			<path d="M127,255h68.267c5.12,0,8.533-3.413,8.533-8.533s-3.413-8.533-8.533-8.533H127c-5.12,0-8.533,3.413-8.533,8.533
				S121.88,255,127,255z"/>
			<path d="M348.867,246.467c0,5.12,3.413,8.533,8.533,8.533H383c5.12,0,8.533-3.413,8.533-8.533s-3.413-8.533-8.533-8.533h-25.6
				C352.28,237.933,348.867,241.347,348.867,246.467z"/>
			<path d="M323.267,237.933H229.4c-5.12,0-8.533,3.413-8.533,8.533S224.28,255,229.4,255h93.867c5.12,0,8.533-3.413,8.533-8.533
				S328.387,237.933,323.267,237.933z"/>
			<path d="M127,289.133h42.667c5.12,0,8.533-3.413,8.533-8.533s-3.413-8.533-8.533-8.533H127c-5.12,0-8.533,3.413-8.533,8.533
				S121.88,289.133,127,289.133z"/>
			<path d="M365.933,272.067H280.6c-5.12,0-8.533,3.413-8.533,8.533s3.413,8.533,8.533,8.533h85.333c5.12,0,8.533-3.413,8.533-8.533
				S371.053,272.067,365.933,272.067z"/>
			<path d="M195.267,280.6c0,5.12,3.413,8.533,8.533,8.533h42.667c5.12,0,8.533-3.413,8.533-8.533s-3.413-8.533-8.533-8.533H203.8
				C198.68,272.067,195.267,275.48,195.267,280.6z"/>
			<path d="M127,323.267h17.067c5.12,0,8.533-3.413,8.533-8.533s-3.413-8.533-8.533-8.533H127c-5.12,0-8.533,3.413-8.533,8.533
				S121.88,323.267,127,323.267z"/>
			<path d="M331.8,323.267h34.133c5.12,0,8.533-3.413,8.533-8.533s-3.413-8.533-8.533-8.533H331.8c-5.12,0-8.533,3.413-8.533,8.533
				S326.68,323.267,331.8,323.267z"/>
			<path d="M383,434.2h-93.867c-5.12,0-8.533,3.413-8.533,8.533s3.413,8.533,8.533,8.533H383c5.12,0,8.533-3.413,8.533-8.533
				S388.12,434.2,383,434.2z"/>
			<path d="M306.2,314.733c0-5.12-3.413-8.533-8.533-8.533H255c-5.12,0-8.533,3.413-8.533,8.533s3.413,8.533,8.533,8.533h42.667
				C302.787,323.267,306.2,319.853,306.2,314.733z"/>
			<path d="M220.867,306.2H178.2c-5.12,0-8.533,3.413-8.533,8.533s3.413,8.533,8.533,8.533h42.667c5.12,0,8.533-3.413,8.533-8.533
				S225.987,306.2,220.867,306.2z"/>
			<path d="M293.4,400.92c-4.267,2.56-5.12,7.68-2.56,11.947s7.68,5.12,11.947,2.56l19.627-13.653
				c11.093,9.387,23.893,9.387,32.427,7.68l13.653,13.653c1.707,1.707,3.413,2.56,5.973,2.56s4.267-0.853,5.973-2.56
				c3.413-3.413,3.413-8.533,0-11.947l-17.067-17.067c-2.56-2.56-5.973-3.413-9.387-1.707c-0.853,0.853-12.8,5.12-23.893-6.827
				c-2.56-3.413-7.68-4.267-11.093-1.707L293.4,400.92z"/>
		</g>
	</g>
</g>
<g>
</g>
<g>
</g>
<g>
</g>
<g>
</g>
<g>
</g>
<g>
</g>
<g>
</g>
<g>
</g>
<g>
</g>
<g>
</g>
<g>
</g>
<g>
</g>
<g>
</g>
<g>
</g>
<g>
</g>
</svg>
