<?xml version="1.0" encoding="iso-8859-1"?>
<!-- Generator: Adobe Illustrator 19.0.0, SVG Export Plug-In . SVG Version: 6.00 Build 0)  -->
<svg version="1.1" id="Layer_1" xmlns="http://www.w3.org/2000/svg" xmlns:xlink="http://www.w3.org/1999/xlink" x="0px" y="0px"
	 viewBox="0 0 512.213 512.213" style="enable-background:new 0 0 512.213 512.213;" xml:space="preserve">
<g transform="translate(1 1)">
	<g>
		<g>
			<path d="M488.067,187.8L291.8,13.72c-20.48-19.627-52.907-19.627-73.387,0l-65.707,59.733v-23.04h8.533
				c5.12,0,8.533-3.413,8.533-8.533V7.747c0-5.12-3.413-8.533-8.533-8.533H58.84c-5.12,0-8.533,3.413-8.533,8.533V41.88
				c0,5.12,3.413,8.533,8.533,8.533h8.533v98.133L22.147,187.8c-5.973,5.973-7.68,14.507-5.12,21.333s10.24,11.947,17.92,11.947
				h32.427v238.933H58.84c-5.12,0-8.533,3.413-8.533,8.533v34.133c0,5.12,3.413,8.533,8.533,8.533h392.533
				c5.12,0,8.533-3.413,8.533-9.387v-34.133c0-5.12-3.413-8.533-8.533-8.533h-8.533V220.227h32.427
				c8.533,0,15.36-4.267,17.92-11.947C495.747,201.453,494.04,192.92,488.067,187.8z M476.973,203.16
				c-0.853,0.853-1.707,0.853-1.707,0.853h-40.96c-5.12,0-8.533,3.413-8.533,8.533v256c0,5.12,3.413,8.533,8.533,8.533h8.533v17.067
				H67.373V477.08h8.533c5.12,0,8.533-3.413,8.533-8.533v-256c0-5.12-3.413-8.533-8.533-8.533h-40.96c-0.853,0-0.853,0-1.707-0.853
				c0-0.853,0-1.707,0.853-2.56l47.787-40.96c1.707-1.707,2.56-4.267,2.56-6.827V41.88c0-5.12-3.413-8.533-8.533-8.533h-8.533V16.28
				h85.333v17.067h-8.533c-5.12,0-8.533,3.413-8.533,8.533v51.2c0,3.413,1.707,6.827,5.12,9.387
				c3.413,0.853,6.827,0.853,9.387-1.707l80.213-73.387c13.653-13.653,34.987-13.653,49.493,0l196.267,174.08
				C476.973,201.453,477.827,202.307,476.973,203.16z"/>
			<path d="M360.92,203.16c-10.24-10.24-27.307-10.24-36.693,0L143.32,383.213c-9.387,10.24-9.387,26.453,0,36.693
				c4.267,5.12,11.093,7.68,17.92,7.68s13.653-2.56,17.92-7.68l181.76-180.053C370.307,229.613,370.307,213.4,360.92,203.16z
				 M348.12,227.907L167.213,407.96c-3.413,3.413-8.533,3.413-11.947,0s-3.413-9.387,0-12.8l180.907-180.053
				c3.413-3.413,8.533-3.413,11.947,0C351.533,218.52,351.533,224.493,348.12,227.907z"/>
			<path d="M178.307,280.813c23.893,0,42.667-18.773,42.667-42.667S202.2,195.48,178.307,195.48
				c-23.893,0-42.667,18.773-42.667,42.667S154.413,280.813,178.307,280.813z M178.307,212.547c14.507,0,25.6,11.093,25.6,25.6
				s-11.093,25.6-25.6,25.6c-14.507,0-25.6-11.093-25.6-25.6S163.8,212.547,178.307,212.547z"/>
			<path d="M331.907,349.08c-23.893,0-42.667,18.773-42.667,42.667c0,23.893,18.773,42.667,42.667,42.667
				s42.667-18.773,42.667-42.667C374.573,367.853,355.8,349.08,331.907,349.08z M331.907,417.347c-14.507,0-25.6-11.093-25.6-25.6
				c0-14.507,11.093-25.6,25.6-25.6c14.507,0,25.6,11.093,25.6,25.6C357.507,406.253,346.413,417.347,331.907,417.347z"/>
		</g>
	</g>
</g>
<g>
</g>
<g>
</g>
<g>
</g>
<g>
</g>
<g>
</g>
<g>
</g>
<g>
</g>
<g>
</g>
<g>
</g>
<g>
</g>
<g>
</g>
<g>
</g>
<g>
</g>
<g>
</g>
<g>
</g>
</svg>
