<?xml version="1.0" encoding="iso-8859-1"?>
<!-- Generator: Adobe Illustrator 19.0.0, SVG Export Plug-In . SVG Version: 6.00 Build 0)  -->
<svg version="1.1" id="Layer_1" xmlns="http://www.w3.org/2000/svg" xmlns:xlink="http://www.w3.org/1999/xlink" x="0px" y="0px"
	 viewBox="0 0 512 512" style="enable-background:new 0 0 512 512;" xml:space="preserve">
<g transform="translate(1 1)">
	<g>
		<g>
			<path d="M476.867,33.133H289.133v-25.6c0-5.12-3.413-8.533-8.533-8.533h-51.2c-5.12,0-8.533,3.413-8.533,8.533v25.6H33.133
				C14.36,33.133-1,48.493-1,67.267v230.4C-1,316.44,14.36,331.8,33.133,331.8h187.733v68.267c0,20.48-5.12,41.813-14.507,60.587
				l-0.155,0.31c-6.378,2.478-10.938,8.677-10.938,15.903v25.6c0,5.12,3.413,8.533,8.533,8.533h102.4
				c5.12,0,8.533-3.413,8.533-8.533v-25.6c0-7.227-4.56-13.426-10.938-15.903l-0.155-0.31
				c-9.387-18.773-14.507-39.253-14.507-60.587V331.8h187.733c18.773,0,34.133-15.36,34.133-34.133v-230.4
				C511,48.493,495.64,33.133,476.867,33.133z M237.933,16.067h34.133v17.067h-34.133V16.067z M284.013,459.8h-58.027
				c6.827-16.213,11.093-33.28,11.947-51.2h34.133C272.92,426.52,277.187,443.587,284.013,459.8z M297.667,493.933h-85.333v-17.067
				h85.333V493.933z M272.067,391.533h-34.133V331.8h34.133V391.533z M493.933,297.667c0,9.387-7.68,17.067-17.067,17.067H280.6
				h-51.2H33.133c-9.387,0-17.067-7.68-17.067-17.067v-230.4c0-9.387,7.68-17.067,17.067-17.067H229.4h51.2h196.267
				c9.387,0,17.067,7.68,17.067,17.067V297.667z"/>
			<path d="M237.08,121.88c-5.12-5.12-11.093-7.68-17.92-8.533l-33.964-3.159c-3.989-24.258-25.174-42.921-50.516-42.921
				c-21.711,0-41.305,14.093-48.545,34.593c-25.007,3.324-44.468,24.862-44.468,50.74c0,15.076,6.609,28.68,17.067,38.071v84.809
				c0,2.56,0.853,5.12,2.56,6.827l25.6,22.187c1.707,0.853,4.267,1.707,5.973,1.707s4.267-0.853,5.12-1.707l25.6-22.187
				c1.707-1.707,2.56-4.267,2.56-6.827c0-2.56-0.853-5.12-3.413-6.827l-8.533-5.973l10.24-10.24c3.413-3.413,3.413-8.533,0-11.947
				L113.347,229.4l11.093-11.093c1.707-1.707,2.56-3.413,2.56-5.973v-21.662c6.39-5.738,11.333-13.052,14.218-21.313
				c4.756-0.505,9.426-1.646,13.813-3.423l0.982,10.557c0.853,6.827,3.413,12.8,8.533,17.92l62.293,62.293
				c1.707,1.707,3.413,2.56,5.973,2.56s4.267-0.853,5.973-2.56l60.587-60.587c3.413-3.413,3.413-8.533,0-11.947L237.08,121.88z
				 M91.466,118.502c0.895,0.12,1.763,0.116,2.588-0.005c17.866,0.62,32.349,15.135,32.918,33.013
				c-7.393-1.923-13.755-6.326-18.746-12.563c-2.56-3.413-8.533-4.267-11.947-1.707s-4.267,8.533-1.707,11.947
				c6.958,9.488,17.202,16.153,28.639,18.972c-5.683,11.003-17.169,18.574-30.346,18.574c-18.773,0-34.133-15.36-34.133-34.133
				C58.733,134.296,73.336,119.244,91.466,118.502z M110.787,208.92L96.28,223.427c-3.413,3.413-3.413,8.533,0,11.947l11.093,11.093
				L96.28,257.56c-1.707,1.707-2.56,4.267-2.56,6.827s1.707,4.267,3.413,5.973l7.68,5.12l-11.947,10.24L75.8,271.213h0.853V201.24
				c11.093,4.267,23.04,4.267,34.133,0V208.92z M144.039,151.503c-0.506-23.668-17.269-43.505-39.514-48.739
				c5.731-11.248,17.113-18.431,30.155-18.431c16.598,0,30.519,12.009,33.525,27.765c-2.876,1.297-5.539,3.129-7.925,5.515
				c-5.12,5.973-8.533,13.653-7.68,22.187l0.72,7.738C150.412,149.288,147.319,150.639,144.039,151.503z M231.96,238.787
				l-56.32-56.32c-1.707-1.707-3.413-4.267-3.413-6.827l-3.413-36.693c0-3.413,0.853-5.973,3.413-8.533s5.12-3.413,7.68-3.413
				c0.853,0,0.853,0,0.853,0l36.693,3.413c2.56,0,5.12,1.707,6.827,3.413l56.32,56.32L231.96,238.787z"/>
			<path d="M468.333,127H331.8c-5.12,0-8.533,3.413-8.533,8.533s3.413,8.533,8.533,8.533h136.533c5.12,0,8.533-3.413,8.533-8.533
				S473.453,127,468.333,127z"/>
			<path d="M468.333,178.2h-68.267c-5.12,0-8.533,3.413-8.533,8.533s3.413,8.533,8.533,8.533h68.267c5.12,0,8.533-3.413,8.533-8.533
				S473.453,178.2,468.333,178.2z"/>
			<path d="M331.8,195.267h34.133c5.12,0,8.533-3.413,8.533-8.533s-3.413-8.533-8.533-8.533H331.8c-5.12,0-8.533,3.413-8.533,8.533
				S326.68,195.267,331.8,195.267z"/>
			<path d="M468.333,229.4h-42.667c-5.12,0-8.533,3.413-8.533,8.533s3.413,8.533,8.533,8.533h42.667c5.12,0,8.533-3.413,8.533-8.533
				S473.453,229.4,468.333,229.4z"/>
			<path d="M391.533,229.4H331.8c-5.12,0-8.533,3.413-8.533,8.533s3.413,8.533,8.533,8.533h59.733c5.12,0,8.533-3.413,8.533-8.533
				S396.653,229.4,391.533,229.4z"/>
			<path d="M214.893,155.16l-17.067,17.067c-3.413,3.413-3.413,8.533,0,11.947c1.707,1.707,3.413,2.56,5.973,2.56
				s4.267-0.853,5.973-2.56l17.067-17.067c3.413-3.413,3.413-8.533,0-11.947S218.307,151.747,214.893,155.16z"/>
			<path d="M223.427,209.773c1.707,1.707,3.413,2.56,5.973,2.56s4.267-0.853,5.973-2.56l17.067-17.067
				c3.413-3.413,3.413-8.533,0-11.947s-8.533-3.413-11.947,0l-17.067,17.067C220.013,201.24,220.013,206.36,223.427,209.773z"/>
		</g>
	</g>
</g>
<g>
</g>
<g>
</g>
<g>
</g>
<g>
</g>
<g>
</g>
<g>
</g>
<g>
</g>
<g>
</g>
<g>
</g>
<g>
</g>
<g>
</g>
<g>
</g>
<g>
</g>
<g>
</g>
<g>
</g>
</svg>
