<?xml version="1.0" encoding="iso-8859-1"?>
<!-- Generator: Adobe Illustrator 19.0.0, SVG Export Plug-In . SVG Version: 6.00 Build 0)  -->
<svg version="1.1" id="Layer_1" xmlns="http://www.w3.org/2000/svg" xmlns:xlink="http://www.w3.org/1999/xlink" x="0px" y="0px"
	 viewBox="0 0 512 512" style="enable-background:new 0 0 512 512;" xml:space="preserve">
<g transform="translate(1 1)">
	<g>
		<g>
			<path d="M237.08,284.013c-5.12-5.12-11.093-7.68-17.92-8.533l-33.964-3.159c-3.989-24.258-25.174-42.92-50.516-42.92
				c-22.487,0-41.448,14.094-48.566,34.596c-24.997,3.333-44.448,24.867-44.448,50.738c0,15.076,6.609,28.68,17.067,38.071v84.809
				c0,2.56,0.853,5.12,2.56,6.827l25.6,22.187c1.707,0.853,4.267,1.707,5.973,1.707s4.267-0.853,5.12-1.707l25.6-22.187
				c1.707-1.707,2.56-4.267,2.56-6.827s-0.853-5.12-3.413-6.827l-8.533-5.973l10.24-10.24c3.413-3.413,3.413-8.533,0-11.947
				l-11.093-11.093l11.093-11.093c1.707-1.707,2.56-3.413,2.56-5.973v-21.662c6.39-5.738,11.333-13.052,14.218-21.313
				c4.756-0.505,9.426-1.646,13.813-3.423l0.982,10.557c0.853,6.827,3.413,12.8,8.533,17.92l62.293,62.293
				c1.707,1.707,3.413,2.56,5.973,2.56c1.707,0,4.267-0.853,5.973-2.56l60.587-60.587c3.413-3.413,3.413-8.533,0-11.947
				L237.08,284.013z M91.466,280.636c0.895,0.12,1.763,0.116,2.588-0.005c17.866,0.62,32.349,15.135,32.918,33.013
				c-7.393-1.923-13.755-6.326-18.746-12.563c-2.56-3.413-8.533-4.267-11.947-1.707c-3.413,2.56-4.267,8.533-1.707,11.947
				c6.958,9.488,17.202,16.153,28.639,18.972c-5.683,11.003-17.169,18.574-30.346,18.574c-18.773,0-34.133-15.36-34.133-34.133
				C58.733,296.43,73.336,281.378,91.466,280.636z M110.787,371.053L96.28,385.56c-3.413,3.413-3.413,8.533,0,11.947l11.093,11.093
				L96.28,419.693c-1.707,1.707-2.56,4.267-2.56,6.827s1.707,4.267,3.413,5.973l7.68,5.12l-11.947,10.24L75.8,433.347h0.853v-69.973
				c11.093,4.267,23.04,4.267,34.133,0V371.053z M144.039,313.636c-0.506-23.668-17.269-43.505-39.514-48.738
				c5.731-11.248,17.112-18.431,30.155-18.431c16.598,0,30.519,12.009,33.525,27.765c-2.876,1.297-5.539,3.129-7.925,5.515
				c-5.12,5.973-8.533,13.653-7.68,22.187l0.72,7.738C150.412,311.421,147.319,312.772,144.039,313.636z M231.96,400.92
				l-56.32-56.32c-1.707-1.707-3.413-4.267-3.413-6.827l-3.413-36.693c0-3.413,0.853-5.973,3.413-8.533
				c2.56-2.56,5.12-3.413,7.68-3.413c0.853,0,0.853,0,0.853,0l36.693,3.413c2.56,0,5.12,1.707,6.827,3.413l56.32,56.32
				L231.96,400.92z"/>
			<path d="M331.8,357.4h76.8c5.12,0,8.533-3.413,8.533-8.533c0-5.12-3.413-8.533-8.533-8.533h-76.8
				c-5.12,0-8.533,3.413-8.533,8.533C323.267,353.987,326.68,357.4,331.8,357.4z"/>
			<path d="M331.8,323.267h17.067c5.12,0,8.533-3.413,8.533-8.533s-3.413-8.533-8.533-8.533H331.8c-5.12,0-8.533,3.413-8.533,8.533
				S326.68,323.267,331.8,323.267z"/>
			<path d="M374.467,314.733c0,5.12,3.413,8.533,8.533,8.533h51.2c5.12,0,8.533-3.413,8.533-8.533s-3.413-8.533-8.533-8.533H383
				C377.88,306.2,374.467,309.613,374.467,314.733z"/>
			<path d="M434.2,374.467H383c-5.12,0-8.533,3.413-8.533,8.533s3.413,8.533,8.533,8.533h51.2c5.12,0,8.533-3.413,8.533-8.533
				S439.32,374.467,434.2,374.467z"/>
			<path d="M331.8,391.533h17.067c5.12,0,8.533-3.413,8.533-8.533s-3.413-8.533-8.533-8.533H331.8c-5.12,0-8.533,3.413-8.533,8.533
				S326.68,391.533,331.8,391.533z"/>
			<path d="M434.2,408.6h-8.533c-5.12,0-8.533,3.413-8.533,8.533c0,5.12,3.413,8.533,8.533,8.533h8.533
				c5.12,0,8.533-3.413,8.533-8.533C442.733,412.013,439.32,408.6,434.2,408.6z"/>
			<path d="M391.533,408.6H331.8c-5.12,0-8.533,3.413-8.533,8.533c0,5.12,3.413,8.533,8.533,8.533h59.733
				c5.12,0,8.533-3.413,8.533-8.533C400.067,412.013,396.653,408.6,391.533,408.6z"/>
			<path d="M214.893,317.293l-17.067,17.067c-3.413,3.413-3.413,8.533,0,11.947c1.707,1.707,3.413,2.56,5.973,2.56
				s4.267-0.853,5.973-2.56l17.067-17.067c3.413-3.413,3.413-8.533,0-11.947S218.307,313.88,214.893,317.293z"/>
			<path d="M223.427,371.907c1.707,1.707,3.413,2.56,5.973,2.56s4.267-0.853,5.973-2.56l17.067-17.067
				c3.413-3.413,3.413-8.533,0-11.947c-3.413-3.413-8.533-3.413-11.947,0l-17.067,17.067
				C220.013,363.373,220.013,368.493,223.427,371.907z"/>
			<path d="M433.997,84.333c7.715,10.418,20.118,17.067,34.336,17.067C492.227,101.4,511,82.627,511,58.733
				c0-23.893-18.773-42.667-42.667-42.667c-14.218,0-26.621,6.649-34.336,17.067H7.533C2.413,33.133-1,36.547-1,41.667V75.8
				c0,5.12,3.413,8.533,8.533,8.533h85.333v34.133H33.133C14.36,118.467-1,133.827-1,152.6v307.2
				c0,18.773,15.36,34.133,34.133,34.133h409.6c18.773,0,34.133-15.36,34.133-34.133V152.6c0-18.773-15.36-34.133-34.133-34.133H383
				V84.333H433.997z M468.333,33.133c14.507,0,25.6,11.093,25.6,25.6c0,14.507-11.093,25.6-25.6,25.6
				c-9.144,0-16.929-4.41-21.437-11.302c-0.199-0.519-0.435-1.026-0.75-1.497c-1.234-2.056-2.063-4.112-2.6-6.168
				c-0.216-0.856-0.392-1.731-0.523-2.625c-0.002-0.017-0.005-0.034-0.007-0.05c-0.058-0.403-0.107-0.81-0.148-1.22
				c-0.009-0.095-0.015-0.189-0.023-0.284c-0.03-0.345-0.057-0.691-0.075-1.041c-0.022-0.471-0.037-0.942-0.037-1.412
				c0-0.439,0.011-0.874,0.031-1.306c0.001-0.023,0.002-0.046,0.003-0.069c0.02-0.411,0.05-0.818,0.088-1.222
				c0.009-0.093,0.02-0.186,0.03-0.279c0.018-0.176,0.042-0.35,0.064-0.525c0.421-3.133,1.545-6.266,4.051-9.399
				c0.672-1.008,1.069-2.15,1.212-3.318C452.838,36.778,460.023,33.133,468.333,33.133z M16.067,50.2h410.425
				c-0.017,0.085-0.029,0.172-0.045,0.258c-0.773,2.529-0.781,5.798-0.781,8.276c0,2.477,0.007,5.747,0.781,8.276
				c0.016,0.085,0.028,0.172,0.045,0.258H16.067V50.2z M442.733,135.533c9.387,0,17.067,7.68,17.067,17.067v307.2
				c0,9.387-7.68,17.067-17.067,17.067h-409.6c-9.387,0-17.067-7.68-17.067-17.067V152.6c0-9.387,7.68-17.067,17.067-17.067h59.733
				v18.154c-14.679,3.814-25.6,17.216-25.6,33.046c0,18.773,15.36,34.133,34.133,34.133c18.773,0,34.133-15.36,34.133-34.133
				c0-15.83-10.921-29.232-25.6-33.046v-18.154h256v18.154c-14.679,3.814-25.6,17.216-25.6,33.046
				c0,18.773,15.36,34.133,34.133,34.133c18.773,0,34.133-15.36,34.133-34.133c0-15.83-10.921-29.232-25.6-33.046v-18.154H442.733z
				 M101.4,186.733c5.12,0,8.533-3.413,8.533-8.533v-6.212c5.086,2.963,8.533,8.466,8.533,14.746c0,9.387-7.68,17.067-17.067,17.067
				c-9.387,0-17.067-7.68-17.067-17.067c0-6.28,3.447-11.782,8.533-14.746v6.212C92.867,183.32,96.28,186.733,101.4,186.733z
				 M374.467,186.733c5.12,0,8.533-3.413,8.533-8.533v-6.212c5.086,2.963,8.533,8.466,8.533,14.746
				c0,9.387-7.68,17.067-17.067,17.067s-17.067-7.68-17.067-17.067c0-6.28,3.447-11.782,8.533-14.746v6.212
				C365.933,183.32,369.347,186.733,374.467,186.733z M365.933,118.467h-256V84.333h256V118.467z"/>
		</g>
	</g>
</g>
<g>
</g>
<g>
</g>
<g>
</g>
<g>
</g>
<g>
</g>
<g>
</g>
<g>
</g>
<g>
</g>
<g>
</g>
<g>
</g>
<g>
</g>
<g>
</g>
<g>
</g>
<g>
</g>
<g>
</g>
</svg>
