<?xml version="1.0" encoding="iso-8859-1"?>
<!-- Generator: Adobe Illustrator 19.0.0, SVG Export Plug-In . SVG Version: 6.00 Build 0)  -->
<svg version="1.1" id="Layer_1" xmlns="http://www.w3.org/2000/svg" xmlns:xlink="http://www.w3.org/1999/xlink" x="0px" y="0px"
	 viewBox="0 0 512 512" style="enable-background:new 0 0 512 512;" xml:space="preserve">
<g transform="translate(1 1)">
	<g>
		<g>
			<path d="M499.907,445.293L334.36,279.747c20.48-29.867,31.573-64.853,31.573-101.547c0-98.987-80.213-179.2-179.2-179.2
				S7.533,79.213,7.533,178.2s80.213,179.2,179.2,179.2c28.16,0,55.467-6.827,81.067-19.627L436.76,508.44
				c1.707,1.707,3.413,2.56,5.973,2.56s4.267-0.853,5.973-2.56l51.2-51.2C503.32,453.827,503.32,448.707,499.907,445.293z
				 M442.733,490.52L274.627,321.56c-1.707-1.707-3.413-2.56-5.973-2.56c-0.853,0-2.56,0.853-3.413,0.853
				c-23.893,13.653-51.2,20.48-78.507,20.48C97.133,340.333,24.6,267.8,24.6,178.2S97.133,16.067,186.733,16.067
				S348.867,88.6,348.867,178.2c0,35.84-11.093,69.12-32.427,97.28c-2.56,3.413-2.56,7.68,0.853,11.093l164.693,164.693
				L442.733,490.52z"/>
			<path d="M186.733,33.133c-80.213,0-145.067,64.853-145.067,145.067s64.853,145.067,145.067,145.067S331.8,258.413,331.8,178.2
				S266.947,33.133,186.733,33.133z M186.733,306.2c-70.827,0-128-57.173-128-128s57.173-128,128-128s128,57.173,128,128
				S257.56,306.2,186.733,306.2z"/>
			<path d="M286.573,172.227L192.707,78.36c-1.707-1.707-3.413-2.56-5.973-2.56s-4.267,0.853-5.973,2.56l-93.867,93.867
				c-3.413,3.413-3.413,8.533,0,11.947l25.6,25.6c1.707,1.707,3.413,2.56,5.973,2.56s4.267-0.853,5.973-2.56l2.56-2.56v39.253
				c0,5.12,3.413,8.533,8.533,8.533h102.4c5.12,0,8.533-3.413,8.533-8.533v-39.253l2.56,2.56c1.707,1.707,3.413,2.56,5.973,2.56
				c2.56,0,4.267-0.853,5.973-2.56l25.6-25.6c1.707-1.707,2.56-3.413,2.56-5.973S288.28,173.933,286.573,172.227z M229.4,237.933
				h-85.333v-47.787l42.667-42.667l42.667,42.667V237.933z M255,191.853l-11.093-11.093l-51.2-51.2
				c-0.853-1.707-2.56-2.56-4.267-2.56c0,0-0.853,0-1.707,0c-2.56,0-4.267,0.853-5.973,2.56l-51.2,51.2l-11.093,11.093
				L104.813,178.2l81.92-81.92l81.92,81.92L255,191.853z"/>
		</g>
	</g>
</g>
<g>
</g>
<g>
</g>
<g>
</g>
<g>
</g>
<g>
</g>
<g>
</g>
<g>
</g>
<g>
</g>
<g>
</g>
<g>
</g>
<g>
</g>
<g>
</g>
<g>
</g>
<g>
</g>
<g>
</g>
</svg>
