<?xml version="1.0" encoding="iso-8859-1"?>
<!-- Generator: Adobe Illustrator 19.0.0, SVG Export Plug-In . SVG Version: 6.00 Build 0)  -->
<svg version="1.1" id="Layer_1" xmlns="http://www.w3.org/2000/svg" xmlns:xlink="http://www.w3.org/1999/xlink" x="0px" y="0px"
	 viewBox="0 0 512 512" style="enable-background:new 0 0 512 512;" xml:space="preserve">
<g transform="translate(1 1)">
	<g>
		<g>
			<path d="M84.333,144.067c-5.12,0-8.533,3.413-8.533,8.533v17.067c0,5.12,3.413,8.533,8.533,8.533s8.533-3.413,8.533-8.533V152.6
				C92.867,147.48,89.453,144.067,84.333,144.067z"/>
			<path d="M84.333,92.867c-5.12,0-8.533,3.413-8.533,8.533v17.067c0,5.12,3.413,8.533,8.533,8.533s8.533-3.413,8.533-8.533V101.4
				C92.867,96.28,89.453,92.867,84.333,92.867z"/>
			<path d="M84.333,451.267c-5.12,0-8.533,3.413-8.533,8.533v8.533c0,5.12,3.413,8.533,8.533,8.533s8.533-3.413,8.533-8.533V459.8
				C92.867,454.68,89.453,451.267,84.333,451.267z"/>
			<path d="M84.333,195.267c-5.12,0-8.533,3.413-8.533,8.533v17.067c0,5.12,3.413,8.533,8.533,8.533s8.533-3.413,8.533-8.533V203.8
				C92.867,198.68,89.453,195.267,84.333,195.267z"/>
			<path d="M84.333,348.867c-5.12,0-8.533,3.413-8.533,8.533v17.067c0,5.12,3.413,8.533,8.533,8.533s8.533-3.413,8.533-8.533V357.4
				C92.867,352.28,89.453,348.867,84.333,348.867z"/>
			<path d="M84.333,400.067c-5.12,0-8.533,3.413-8.533,8.533v17.067c0,5.12,3.413,8.533,8.533,8.533s8.533-3.413,8.533-8.533V408.6
				C92.867,403.48,89.453,400.067,84.333,400.067z"/>
			<path d="M84.333,297.667c-5.12,0-8.533,3.413-8.533,8.533v17.067c0,5.12,3.413,8.533,8.533,8.533s8.533-3.413,8.533-8.533V306.2
				C92.867,301.08,89.453,297.667,84.333,297.667z"/>
			<path d="M84.333,246.467c-5.12,0-8.533,3.413-8.533,8.533v17.067c0,5.12,3.413,8.533,8.533,8.533s8.533-3.413,8.533-8.533V255
				C92.867,249.88,89.453,246.467,84.333,246.467z"/>
			<path d="M118.467,144.067c-5.12,0-8.533,3.413-8.533,8.533v17.067c0,5.12,3.413,8.533,8.533,8.533s8.533-3.413,8.533-8.533V152.6
				C127,147.48,123.587,144.067,118.467,144.067z"/>
			<path d="M118.467,92.867c-5.12,0-8.533,3.413-8.533,8.533v17.067c0,5.12,3.413,8.533,8.533,8.533s8.533-3.413,8.533-8.533V101.4
				C127,96.28,123.587,92.867,118.467,92.867z"/>
			<path d="M118.467,246.467c-5.12,0-8.533,3.413-8.533,8.533v17.067c0,5.12,3.413,8.533,8.533,8.533s8.533-3.413,8.533-8.533V255
				C127,249.88,123.587,246.467,118.467,246.467z"/>
			<path d="M118.467,195.267c-5.12,0-8.533,3.413-8.533,8.533v17.067c0,5.12,3.413,8.533,8.533,8.533s8.533-3.413,8.533-8.533V203.8
				C127,198.68,123.587,195.267,118.467,195.267z"/>
			<path d="M118.467,400.067c-5.12,0-8.533,3.413-8.533,8.533v17.067c0,5.12,3.413,8.533,8.533,8.533s8.533-3.413,8.533-8.533V408.6
				C127,403.48,123.587,400.067,118.467,400.067z"/>
			<path d="M118.467,297.667c-5.12,0-8.533,3.413-8.533,8.533v17.067c0,5.12,3.413,8.533,8.533,8.533s8.533-3.413,8.533-8.533V306.2
				C127,301.08,123.587,297.667,118.467,297.667z"/>
			<path d="M118.467,451.267c-5.12,0-8.533,3.413-8.533,8.533v8.533c0,5.12,3.413,8.533,8.533,8.533s8.533-3.413,8.533-8.533V459.8
				C127,454.68,123.587,451.267,118.467,451.267z"/>
			<path d="M118.467,348.867c-5.12,0-8.533,3.413-8.533,8.533v17.067c0,5.12,3.413,8.533,8.533,8.533s8.533-3.413,8.533-8.533V357.4
				C127,352.28,123.587,348.867,118.467,348.867z"/>
			<path d="M152.6,144.067c-5.12,0-8.533,3.413-8.533,8.533v17.067c0,5.12,3.413,8.533,8.533,8.533s8.533-3.413,8.533-8.533V152.6
				C161.133,147.48,157.72,144.067,152.6,144.067z"/>
			<path d="M152.6,195.267c-5.12,0-8.533,3.413-8.533,8.533v17.067c0,5.12,3.413,8.533,8.533,8.533s8.533-3.413,8.533-8.533V203.8
				C161.133,198.68,157.72,195.267,152.6,195.267z"/>
			<path d="M152.6,92.867c-5.12,0-8.533,3.413-8.533,8.533v17.067c0,5.12,3.413,8.533,8.533,8.533s8.533-3.413,8.533-8.533V101.4
				C161.133,96.28,157.72,92.867,152.6,92.867z"/>
			<path d="M152.6,348.867c-5.12,0-8.533,3.413-8.533,8.533v17.067c0,5.12,3.413,8.533,8.533,8.533s8.533-3.413,8.533-8.533V357.4
				C161.133,352.28,157.72,348.867,152.6,348.867z"/>
			<path d="M152.6,246.467c-5.12,0-8.533,3.413-8.533,8.533v17.067c0,5.12,3.413,8.533,8.533,8.533s8.533-3.413,8.533-8.533V255
				C161.133,249.88,157.72,246.467,152.6,246.467z"/>
			<path d="M152.6,451.267c-5.12,0-8.533,3.413-8.533,8.533v8.533c0,5.12,3.413,8.533,8.533,8.533s8.533-3.413,8.533-8.533V459.8
				C161.133,454.68,157.72,451.267,152.6,451.267z"/>
			<path d="M152.6,400.067c-5.12,0-8.533,3.413-8.533,8.533v17.067c0,5.12,3.413,8.533,8.533,8.533s8.533-3.413,8.533-8.533V408.6
				C161.133,403.48,157.72,400.067,152.6,400.067z"/>
			<path d="M152.6,297.667c-5.12,0-8.533,3.413-8.533,8.533v17.067c0,5.12,3.413,8.533,8.533,8.533s8.533-3.413,8.533-8.533V306.2
				C161.133,301.08,157.72,297.667,152.6,297.667z"/>
			<path d="M220.867,365.933c-5.12,0-8.533,3.413-8.533,8.533v17.067c0,5.12,3.413,8.533,8.533,8.533
				c5.12,0,8.533-3.413,8.533-8.533v-17.067C229.4,369.347,225.987,365.933,220.867,365.933z"/>
			<path d="M220.867,314.733c-5.12,0-8.533,3.413-8.533,8.533v17.067c0,5.12,3.413,8.533,8.533,8.533
				c5.12,0,8.533-3.413,8.533-8.533v-17.067C229.4,318.147,225.987,314.733,220.867,314.733z"/>
			<path d="M220.867,263.533c-5.12,0-8.533,3.413-8.533,8.533v17.067c0,5.12,3.413,8.533,8.533,8.533
				c5.12,0,8.533-3.413,8.533-8.533v-17.067C229.4,266.947,225.987,263.533,220.867,263.533z"/>
			<path d="M220.867,417.133c-5.12,0-8.533,3.413-8.533,8.533v17.067c0,5.12,3.413,8.533,8.533,8.533
				c5.12,0,8.533-3.413,8.533-8.533v-17.067C229.4,420.547,225.987,417.133,220.867,417.133z"/>
			<path d="M255,263.533c-5.12,0-8.533,3.413-8.533,8.533v17.067c0,5.12,3.413,8.533,8.533,8.533c5.12,0,8.533-3.413,8.533-8.533
				v-17.067C263.533,266.947,260.12,263.533,255,263.533z"/>
			<path d="M255,314.733c-5.12,0-8.533,3.413-8.533,8.533v17.067c0,5.12,3.413,8.533,8.533,8.533c5.12,0,8.533-3.413,8.533-8.533
				v-17.067C263.533,318.147,260.12,314.733,255,314.733z"/>
			<path d="M255,417.133c-5.12,0-8.533,3.413-8.533,8.533v17.067c0,5.12,3.413,8.533,8.533,8.533c5.12,0,8.533-3.413,8.533-8.533
				v-17.067C263.533,420.547,260.12,417.133,255,417.133z"/>
			<path d="M255,365.933c-5.12,0-8.533,3.413-8.533,8.533v17.067c0,5.12,3.413,8.533,8.533,8.533c5.12,0,8.533-3.413,8.533-8.533
				v-17.067C263.533,369.347,260.12,365.933,255,365.933z"/>
			<path d="M289.133,314.733c-5.12,0-8.533,3.413-8.533,8.533v17.067c0,5.12,3.413,8.533,8.533,8.533
				c5.12,0,8.533-3.413,8.533-8.533v-17.067C297.667,318.147,294.253,314.733,289.133,314.733z"/>
			<path d="M289.133,263.533c-5.12,0-8.533,3.413-8.533,8.533v17.067c0,5.12,3.413,8.533,8.533,8.533
				c5.12,0,8.533-3.413,8.533-8.533v-17.067C297.667,266.947,294.253,263.533,289.133,263.533z"/>
			<path d="M289.133,417.133c-5.12,0-8.533,3.413-8.533,8.533v17.067c0,5.12,3.413,8.533,8.533,8.533
				c5.12,0,8.533-3.413,8.533-8.533v-17.067C297.667,420.547,294.253,417.133,289.133,417.133z"/>
			<path d="M289.133,365.933c-5.12,0-8.533,3.413-8.533,8.533v17.067c0,5.12,3.413,8.533,8.533,8.533
				c5.12,0,8.533-3.413,8.533-8.533v-17.067C297.667,369.347,294.253,365.933,289.133,365.933z"/>
			<path d="M357.4,451.267c-5.12,0-8.533,3.413-8.533,8.533v8.533c0,5.12,3.413,8.533,8.533,8.533s8.533-3.413,8.533-8.533V459.8
				C365.933,454.68,362.52,451.267,357.4,451.267z"/>
			<path d="M357.4,144.067c-5.12,0-8.533,3.413-8.533,8.533v17.067c0,5.12,3.413,8.533,8.533,8.533s8.533-3.413,8.533-8.533V152.6
				C365.933,147.48,362.52,144.067,357.4,144.067z"/>
			<path d="M357.4,92.867c-5.12,0-8.533,3.413-8.533,8.533v17.067c0,5.12,3.413,8.533,8.533,8.533s8.533-3.413,8.533-8.533V101.4
				C365.933,96.28,362.52,92.867,357.4,92.867z"/>
			<path d="M357.4,400.067c-5.12,0-8.533,3.413-8.533,8.533v17.067c0,5.12,3.413,8.533,8.533,8.533s8.533-3.413,8.533-8.533V408.6
				C365.933,403.48,362.52,400.067,357.4,400.067z"/>
			<path d="M357.4,195.267c-5.12,0-8.533,3.413-8.533,8.533v17.067c0,5.12,3.413,8.533,8.533,8.533s8.533-3.413,8.533-8.533V203.8
				C365.933,198.68,362.52,195.267,357.4,195.267z"/>
			<path d="M357.4,348.867c-5.12,0-8.533,3.413-8.533,8.533v17.067c0,5.12,3.413,8.533,8.533,8.533s8.533-3.413,8.533-8.533V357.4
				C365.933,352.28,362.52,348.867,357.4,348.867z"/>
			<path d="M357.4,297.667c-5.12,0-8.533,3.413-8.533,8.533v17.067c0,5.12,3.413,8.533,8.533,8.533s8.533-3.413,8.533-8.533V306.2
				C365.933,301.08,362.52,297.667,357.4,297.667z"/>
			<path d="M357.4,246.467c-5.12,0-8.533,3.413-8.533,8.533v17.067c0,5.12,3.413,8.533,8.533,8.533s8.533-3.413,8.533-8.533V255
				C365.933,249.88,362.52,246.467,357.4,246.467z"/>
			<path d="M391.533,195.267c-5.12,0-8.533,3.413-8.533,8.533v17.067c0,5.12,3.413,8.533,8.533,8.533s8.533-3.413,8.533-8.533V203.8
				C400.067,198.68,396.653,195.267,391.533,195.267z"/>
			<path d="M391.533,246.467c-5.12,0-8.533,3.413-8.533,8.533v17.067c0,5.12,3.413,8.533,8.533,8.533s8.533-3.413,8.533-8.533V255
				C400.067,249.88,396.653,246.467,391.533,246.467z"/>
			<path d="M391.533,144.067c-5.12,0-8.533,3.413-8.533,8.533v17.067c0,5.12,3.413,8.533,8.533,8.533s8.533-3.413,8.533-8.533V152.6
				C400.067,147.48,396.653,144.067,391.533,144.067z"/>
			<path d="M391.533,92.867c-5.12,0-8.533,3.413-8.533,8.533v17.067c0,5.12,3.413,8.533,8.533,8.533s8.533-3.413,8.533-8.533V101.4
				C400.067,96.28,396.653,92.867,391.533,92.867z"/>
			<path d="M391.533,297.667c-5.12,0-8.533,3.413-8.533,8.533v17.067c0,5.12,3.413,8.533,8.533,8.533s8.533-3.413,8.533-8.533V306.2
				C400.067,301.08,396.653,297.667,391.533,297.667z"/>
			<path d="M391.533,451.267c-5.12,0-8.533,3.413-8.533,8.533v8.533c0,5.12,3.413,8.533,8.533,8.533s8.533-3.413,8.533-8.533V459.8
				C400.067,454.68,396.653,451.267,391.533,451.267z"/>
			<path d="M391.533,400.067c-5.12,0-8.533,3.413-8.533,8.533v17.067c0,5.12,3.413,8.533,8.533,8.533s8.533-3.413,8.533-8.533V408.6
				C400.067,403.48,396.653,400.067,391.533,400.067z"/>
			<path d="M391.533,348.867c-5.12,0-8.533,3.413-8.533,8.533v17.067c0,5.12,3.413,8.533,8.533,8.533s8.533-3.413,8.533-8.533V357.4
				C400.067,352.28,396.653,348.867,391.533,348.867z"/>
			<path d="M425.667,144.067c-5.12,0-8.533,3.413-8.533,8.533v17.067c0,5.12,3.413,8.533,8.533,8.533s8.533-3.413,8.533-8.533V152.6
				C434.2,147.48,430.787,144.067,425.667,144.067z"/>
			<path d="M425.667,195.267c-5.12,0-8.533,3.413-8.533,8.533v17.067c0,5.12,3.413,8.533,8.533,8.533s8.533-3.413,8.533-8.533V203.8
				C434.2,198.68,430.787,195.267,425.667,195.267z"/>
			<path d="M417.133,101.4v17.067c0,5.12,3.413,8.533,8.533,8.533s8.533-3.413,8.533-8.533V101.4c0-5.12-3.413-8.533-8.533-8.533
				S417.133,96.28,417.133,101.4z"/>
			<path d="M425.667,246.467c-5.12,0-8.533,3.413-8.533,8.533v17.067c0,5.12,3.413,8.533,8.533,8.533s8.533-3.413,8.533-8.533V255
				C434.2,249.88,430.787,246.467,425.667,246.467z"/>
			<path d="M425.667,400.067c-5.12,0-8.533,3.413-8.533,8.533v17.067c0,5.12,3.413,8.533,8.533,8.533s8.533-3.413,8.533-8.533V408.6
				C434.2,403.48,430.787,400.067,425.667,400.067z"/>
			<path d="M425.667,297.667c-5.12,0-8.533,3.413-8.533,8.533v17.067c0,5.12,3.413,8.533,8.533,8.533s8.533-3.413,8.533-8.533V306.2
				C434.2,301.08,430.787,297.667,425.667,297.667z"/>
			<path d="M425.667,451.267c-5.12,0-8.533,3.413-8.533,8.533v8.533c0,5.12,3.413,8.533,8.533,8.533s8.533-3.413,8.533-8.533V459.8
				C434.2,454.68,430.787,451.267,425.667,451.267z"/>
			<path d="M425.667,348.867c-5.12,0-8.533,3.413-8.533,8.533v17.067c0,5.12,3.413,8.533,8.533,8.533s8.533-3.413,8.533-8.533V357.4
				C434.2,352.28,430.787,348.867,425.667,348.867z"/>
			<path d="M459.8,58.733h-25.6v-25.6c0-5.12-3.413-8.533-8.533-8.533h-25.6V7.533c0-5.12-3.413-8.533-8.533-8.533
				S383,2.413,383,7.533V24.6h-25.6c-5.12,0-8.533,3.413-8.533,8.533v25.6h-25.6c-5.12,0-8.533,3.413-8.533,8.533V229.4h-17.067
				v-25.6c0-5.12-3.413-8.533-8.533-8.533h-25.6V178.2c0-5.12-3.413-8.533-8.533-8.533c-5.12,0-8.533,3.413-8.533,8.533v17.067
				h-25.6c-5.12,0-8.533,3.413-8.533,8.533v25.6h-17.067V67.267c0-5.12-3.413-8.533-8.533-8.533h-25.6v-25.6
				c0-5.12-3.413-8.533-8.533-8.533H127V7.533C127,2.413,123.587-1,118.467-1s-8.533,3.413-8.533,8.533V24.6h-25.6
				c-5.12,0-8.533,3.413-8.533,8.533v25.6H50.2c-5.12,0-8.533,3.413-8.533,8.533v435.2c0,5.12,3.413,8.533,8.533,8.533h136.533
				h136.533H459.8c5.12,0,8.533-3.413,8.533-8.533v-435.2C468.333,62.147,464.92,58.733,459.8,58.733z M365.933,41.667h51.2v17.067
				h-51.2V41.667z M229.4,212.333h51.2V229.4h-51.2V212.333z M92.867,41.667h51.2v17.067h-51.2V41.667z M58.733,75.8h25.6H152.6
				h25.6v162.133v256H58.733V75.8z M195.267,246.467h25.6h68.267h25.6v247.467H195.267V246.467z M451.267,493.933H331.8v-256V75.8
				h25.6h68.267h25.6V493.933z"/>
		</g>
	</g>
</g>
<g>
</g>
<g>
</g>
<g>
</g>
<g>
</g>
<g>
</g>
<g>
</g>
<g>
</g>
<g>
</g>
<g>
</g>
<g>
</g>
<g>
</g>
<g>
</g>
<g>
</g>
<g>
</g>
<g>
</g>
</svg>
